<svg fill="none" viewBox="0 0 16 16" xmlns="http://www.w3.org/2000/svg">
  <g fill="#000" clip-path="url(#Globe-Dot-Recolorable-16_svg__a)">
    <path fill-rule="evenodd" d="M8.92 1.693c.206.195.903.016.983-.256.048-.164.108-.324.177-.478.139-.307.008-.691-.32-.765A8 8 0 0 0 .016 7.482a.622.622 0 0 0-.012.225 8 8 0 1 0 15.99 0 .625.625 0 0 0-.011-.225 8 8 0 0 0-.178-1.241c-.074-.329-.458-.46-.765-.321l-.076.033a.595.595 0 0 0-.358.66c.038.178.068.36.09.543-.892.224-1.793.402-2.7.535a16.295 16.295 0 0 0-.108-1.616.392.392 0 0 0-.205-.293 3.756 3.756 0 0 1-.557-.378c-.166-.136-.587.07-.554.282.107.674.169 1.4.176 2.159-1.828.183-3.67.183-5.498 0 .018-1.905.38-3.597.93-4.8C6.774 1.755 7.462 1.25 8 1.25c.278 0 .597.135.92.443ZM5.46 14.256a6.754 6.754 0 0 1-4.196-5.823 28.8 28.8 0 0 0 2.763.524c.099 1.731.463 3.305 1.018 4.518.125.272.263.534.416.781Zm-4.158-7.1a27.55 27.55 0 0 0 2.7.535c.037-1.985.42-3.803 1.043-5.166.125-.272.263-.534.416-.781a6.757 6.757 0 0 0-4.159 5.412Zm4.88 5.799c-.457-1-.784-2.335-.893-3.85 1.803.17 3.619.17 5.422 0-.109 1.514-.436 2.85-.893 3.85-.59 1.29-1.28 1.795-1.818 1.795s-1.227-.504-1.818-1.795Zm4.773.52c.555-1.213.92-2.787 1.018-4.518.927-.13 1.85-.304 2.763-.524a6.754 6.754 0 0 1-4.197 5.823c.153-.247.292-.51.416-.781Z" clip-rule="evenodd"/>
    <path d="M16 2.5a2.5 2.5 0 1 1-5 0 2.5 2.5 0 0 1 5 0Z"/>
  </g>
  <defs>
    <clipPath id="Globe-Dot-Recolorable-16_svg__a">
      <path fill="#fff" d="M0 0h16v16H0z"/>
    </clipPath>
  </defs>
</svg>
