<svg fill="none" viewBox="0 0 24 24" xmlns="http://www.w3.org/2000/svg">
  <path fill="#000" fill-rule="evenodd" d="M3.5 8.969c0-.596.15-1.157.415-1.646L9.63 11.74a3.875 3.875 0 0 0 4.74 0l5.716-4.419c.264.49.414 1.051.414 1.647v2.985c0 .216.118.414.298.533.465.306 1.202.003 1.202-.554V8.969A4.969 4.969 0 0 0 17.032 4H6.969A4.969 4.969 0 0 0 2 8.969v6.062A4.969 4.969 0 0 0 6.97 20h4.055c.477 0 .8-.493.677-.953-.082-.31-.352-.547-.671-.547H6.969A3.469 3.469 0 0 1 3.5 15.031V8.97ZM17.032 5.5H6.969c-.776 0-1.493.255-2.071.686l5.65 4.368c.855.661 2.05.661 2.905 0l5.65-4.368A3.453 3.453 0 0 0 17.03 5.5Z" clip-rule="evenodd"/>
  <path fill="#000" fill-rule="evenodd" d="M17.5 22a4.5 4.5 0 1 0 0-9 4.5 4.5 0 0 0 0 9Zm.25-7.25a.5.5 0 0 1 .5.5v1.5h1.5a.5.5 0 0 1 .5.5v.5a.5.5 0 0 1-.5.5h-1.5v1.5a.5.5 0 0 1-.5.5h-.5a.5.5 0 0 1-.5-.5v-1.5h-1.5a.5.5 0 0 1-.5-.5v-.5a.5.5 0 0 1 .5-.5h1.5v-1.5a.5.5 0 0 1 .5-.5h.5Z" clip-rule="evenodd"/>
</svg>
