<svg fill="none" viewBox="0 0 16 16" xmlns="http://www.w3.org/2000/svg">
  <path fill="#000" d="M15.317 9.683a.625.625 0 0 0-.884 0L12.5 11.616l-1.933-1.933a.625.625 0 0 0-.884.884l1.933 1.933-1.933 1.933a.625.625 0 1 0 .884.884l1.933-1.933 1.933 1.933a.625.625 0 0 0 .884-.884L13.384 12.5l1.933-1.933a.625.625 0 0 0 0-.884Z"/>
  <path fill="#000" d="M12 1a4 4 0 0 1 4 4v2.697c0 .565-.753.887-1.25.619V5a2.75 2.75 0 0 0-.121-.808L9.92 7.859a3.123 3.123 0 0 1-3.84 0L1.37 4.192A2.75 2.75 0 0 0 1.25 5v6A2.75 2.75 0 0 0 4 13.75h3.917c.021.079.045.157.07.235.153.465-.16 1.015-.65 1.015H4a4 4 0 0 1-4-4V5a4 4 0 0 1 4-4h8ZM4 2.25c-.784 0-1.49.328-1.992.854l4.84 3.769a1.875 1.875 0 0 0 2.304 0l4.84-3.77A2.742 2.742 0 0 0 12 2.25H4Z"/>
</svg>
