<svg fill="none" viewBox="0 0 24 24" xmlns="http://www.w3.org/2000/svg">
  <path fill="#000" d="M12.75 12a1.75 1.75 0 1 0 0-3.5 1.75 1.75 0 0 0 0 3.5Zm1.75 2.25a1.25 1.25 0 1 1-2.5 0 1.25 1.25 0 0 1 2.5 0ZM9 13a1 1 0 1 0 0-2 1 1 0 0 0 0 2Z"/>
  <path fill="#000" fill-rule="evenodd" d="M11.236 2.765c0-.422.342-.764.764-.764a10 10 0 0 1 2.588.34.765.765 0 0 1-.395 1.477 8.491 8.491 0 0 0-.41-.099l-.189 1.544a6.912 6.912 0 0 1 3.354 1.897l1.382-1.08a8.64 8.64 0 0 0-.202-.208.764.764 0 0 1 1.081-1.081c.63.63 1.175 1.34 1.62 2.112a.764.764 0 0 1-1.323.764 8.67 8.67 0 0 0-.235-.383l-1.381 1.08a6.889 6.889 0 0 1 1.03 3.712l1.546.19c.003-.09.005-.178.005-.266A.764.764 0 1 1 22 12c0 .874-.115 1.744-.341 2.588a.764.764 0 1 1-1.477-.396c.037-.136.07-.272.099-.41l-1.544-.188a6.912 6.912 0 0 1-1.897 3.353l1.081 1.383c.07-.066.14-.133.208-.2a.765.765 0 0 1 1.081 1.08 10.2 10.2 0 0 1-2.111 1.62.764.764 0 0 1-.765-1.323 8.69 8.69 0 0 0 .383-.235l-1.08-1.382a6.888 6.888 0 0 1-3.713 1.03l-.189 1.546c.088.003.177.005.265.005a.764.764 0 1 1 0 1.528c-.874 0-1.744-.114-2.588-.34a.764.764 0 0 1 .396-1.477c.136.036.272.07.41.099l.188-1.544a6.912 6.912 0 0 1-3.353-1.897L5.67 17.92c.066.07.133.14.201.208a.764.764 0 1 1-1.08 1.081 10.14 10.14 0 0 1-1.621-2.112.764.764 0 1 1 1.324-.764c.075.13.153.257.234.383l1.382-1.081a6.888 6.888 0 0 1-1.03-3.712l-1.546-.19A8.469 8.469 0 0 0 3.53 12 .764.764 0 1 1 2 12a10 10 0 0 1 .34-2.588.764.764 0 0 1 1.477.396 7.893 7.893 0 0 0-.098.41l1.544.188A6.911 6.911 0 0 1 7.16 7.052L6.079 5.67c-.07.066-.14.133-.208.2a.764.764 0 1 1-1.08-1.08c.63-.63 1.34-1.175 2.11-1.62a.764.764 0 0 1 .765 1.323c-.13.075-.257.153-.383.235L8.364 6.11a6.889 6.889 0 0 1 3.712-1.03l.19-1.546A8.495 8.495 0 0 0 12 3.529a.764.764 0 0 1-.764-.764ZM6.608 12a5.392 5.392 0 1 1 10.784 0 5.392 5.392 0 0 1-10.784 0Z" clip-rule="evenodd"/>
</svg>
