<svg fill="none" viewBox="0 0 16 16" xmlns="http://www.w3.org/2000/svg">
  <path fill="#000" d="M7.375 11.78a1 1 0 1 1 1.25 0v.595a.625.625 0 1 1-1.25 0v-.594Z"/>
  <path fill="#000" fill-rule="evenodd" d="M3 4.948v2.073c-1.13.152-2 1.12-2 2.292v4.374A2.312 2.312 0 0 0 3.313 16h9.374A2.312 2.312 0 0 0 15 13.687V9.314c0-1.172-.87-2.14-2-2.292V4.948C13 2.208 10.754 0 8 0S3 2.208 3 4.948ZM8 1.25c-2.078 0-3.75 1.663-3.75 3.698V7h7.5V4.948c0-2.035-1.672-3.698-3.75-3.698ZM2.25 9.313c0-.587.476-1.063 1.063-1.063h9.374c.587 0 1.063.476 1.063 1.063v4.374c0 .587-.476 1.063-1.063 1.063H3.313a1.063 1.063 0 0 1-1.063-1.063V9.314Z" clip-rule="evenodd"/>
</svg>
