<svg fill="none" viewBox="0 0 24 24" xmlns="http://www.w3.org/2000/svg">
  <path fill="#DDD" stroke="#666" stroke-width="1.333" d="M14.892 3.037c.525-.04 1.05.351 1.05.959 0 .434-.066.876-.215 1.307l-.068.185a4.885 4.885 0 0 1-.733 1.249l-.003.003a3.9 3.9 0 0 1-.33.353c.136-.011.273-.018.411-.018.129 0 .431-.02.872.044l.173.029c.408.078.823.226 1.269.46l.167.096c.384.232.721.543 1.027.914l.07.093c.293.446.173 1-.16 1.328l-.075.067a4.305 4.305 0 0 0-.248.218l-.294.299a2.38 2.38 0 0 0-.357.537l-.121.254c-.13.288-.195.644-.195 1.116 0 .542.094.948.256 1.276l.14.258c.146.24.305.43.48.596l.182.165c.172.145.311.236.417.29l.09.05c.204.125.375.31.469.555.092.243.087.491.025.715l-.03.095-.139.377c-.203.556-.503 1.115-.92 1.731v.001a12.916 12.916 0 0 1-1.178 1.484 2.524 2.524 0 0 1-1.92.859 3.01 3.01 0 0 1-1.067-.17l-.136-.058-.722-.32c-.135-.06-.375-.11-.763-.11-.28 0-.486.027-.653.071l-.157.05c-.135.051-.26.102-.38.154l-.35.164c-.39.198-.804.236-1.185.236-.63 0-1.19-.22-1.655-.646l-.193-.195c-.39-.433-.824-.949-1.242-1.544l-.006-.009a10.525 10.525 0 0 1-1.157-2.285l-.132-.384a10.25 10.25 0 0 1-.54-3.205c0-1.16.214-2.169.673-3.035l.178-.31a4.78 4.78 0 0 1 1.617-1.611l.277-.156a4.323 4.323 0 0 1 2.036-.507c.426 0 .86.065 1.267.234.161.067.379.152.59.237a.877.877 0 0 1-.039-.341l.004-.036.001-.012c0-.517.111-1.03.33-1.516l.162-.332c.114-.211.238-.404.37-.58l.2-.254c.357-.444.809-.785 1.315-1.052l.284-.138c.285-.127.572-.219.857-.272l.104-.013Z"/>
</svg>
