<svg fill="none" viewBox="0 0 24 24" xmlns="http://www.w3.org/2000/svg">
  <path fill="#000" d="M16.535 3.003a3.757 3.757 0 0 1 2.854 1.094l.512.512.146.154a3.753 3.753 0 0 1 .929 2.911l-.361 3.261-.05.316a3.765 3.765 0 0 1-.038.173c-.12.478-.694.6-1.081.297l-.144-.113c-.193-.15-.255-.41-.208-.65l.028-.188.363-3.26a2.254 2.254 0 0 0-.476-1.651l-.169-.19-.512-.511a2.255 2.255 0 0 0-1.586-.66l-.254.014-3.26.362a2.253 2.253 0 0 0-1.343.646l-6.724 6.732a2.252 2.252 0 0 0 0 3.183l3.412 3.406.17.155c.885.72 2.189.668 3.012-.156l.117-.117a.75.75 0 1 1 1.062 1.06l-.118.118a3.752 3.752 0 0 1-5.165.135l-.14-.133-3.41-3.406a3.752 3.752 0 0 1-.003-5.306l6.725-6.732a3.753 3.753 0 0 1 2.24-1.077l3.259-.362.213-.017Z"/>
  <path fill="#000" d="M16.625 12a.75.75 0 0 1 .75.75v2.124H19.5l.078.004a.75.75 0 0 1 0 1.493l-.078.004h-2.125V18.5l-.004.077a.75.75 0 0 1-1.492 0l-.004-.078v-2.124H13.75a.75.75 0 1 1 0-1.5h2.125v-2.126a.75.75 0 0 1 .75-.75Zm-2.339-3.737A1 1 0 1 1 15.7 9.68a1 1 0 0 1-1.414-1.416Z"/>
</svg>
