<svg fill="none" viewBox="0 0 16 16" xmlns="http://www.w3.org/2000/svg">
  <path fill="#000" d="M13.808 1.308a.625.625 0 1 1 .884.884l-12.5 12.5a.625.625 0 1 1-.884-.884l12.5-12.5Zm-4.052.999c.473.101.607.678.265 1.02a.698.698 0 0 1-.633.183A7.092 7.092 0 0 0 8 3.375c-3.724 0-5.931 2.832-6.577 4.586.279.575.673 1.258 1.2 1.922a.66.66 0 0 1-.035.877.596.596 0 0 1-.887-.033A11.834 11.834 0 0 1 .18 8.26l-.098-.217.07-.227C.787 5.76 3.387 2.125 8 2.125c.622 0 1.207.065 1.756.182Zm3.747 2.842a.666.666 0 0 0-.03.887c.536.666.907 1.356 1.113 1.94-.72 1.695-2.87 4.649-6.586 4.649-.486 0-.943-.05-1.372-.14a.703.703 0 0 0-.643.182c-.339.338-.212.91.256 1.016A7.954 7.954 0 0 0 8 13.875c4.633 0 7.129-3.802 7.834-5.652l.075-.198-.06-.203c-.23-.775-.72-1.736-1.468-2.647a.592.592 0 0 0-.878-.026Z"/>
  <path fill="#000" d="M8.33 5.018A3 3 0 0 0 5.018 8.33L8.33 5.018Zm2.652 2.652L7.67 10.982a3 3 0 0 0 3.312-3.312Z"/>
</svg>
