<svg fill="none" viewBox="0 0 16 16" xmlns="http://www.w3.org/2000/svg">
  <path fill="#000" d="M8.375 10.75a.625.625 0 1 1 0 1.25h-4.75a.625.625 0 1 1 0-1.25h4.75Zm0-3a.625.625 0 1 1 0 1.25h-4.75a.625.625 0 1 1 0-1.25h4.75ZM5.25 4a.75.75 0 0 1 .75.75v.5a.75.75 0 0 1-.75.75h-1.5A.75.75 0 0 1 3 5.25v-.5A.75.75 0 0 1 3.75 4h1.5Zm3 0a.75.75 0 0 1 .75.75v.5a.75.75 0 0 1-.75.75h-.5A.75.75 0 0 1 7 5.25v-.5A.75.75 0 0 1 7.75 4h.5Z"/>
  <path fill="#000" fill-rule="evenodd" d="M10.125 1C11.161 1 12 1.84 12 2.875V3h2.125C15.161 3 16 3.84 16 4.875v7.375A2.75 2.75 0 0 1 13.25 15H4a4 4 0 0 1-4-4V2.875C0 1.839.84 1 1.875 1h8.25Zm-8.25 1.25a.625.625 0 0 0-.625.625V11A2.75 2.75 0 0 0 4 13.75h7.085a2.488 2.488 0 0 1-.335-1.25V2.875a.625.625 0 0 0-.625-.625h-8.25ZM12 12.5c0 .69.56 1.25 1.25 1.25a1.5 1.5 0 0 0 1.5-1.5V4.875a.625.625 0 0 0-.625-.625H12v8.25Z" clip-rule="evenodd"/>
</svg>
