<svg fill="none" viewBox="0 0 16 16" xmlns="http://www.w3.org/2000/svg">
  <g fill="#000" clip-path="url(#Chat-New-16_svg__a)">
    <path d="M7.728 13.996a.548.548 0 0 0-.637-.383 93.06 93.06 0 0 1-3.986.82l.297-.342c.781-.901.554-2.169-.215-2.85-1.22-1.08-1.937-2.539-1.937-4.116C1.25 4.013 4.132 1.25 8 1.25s6.75 2.763 6.75 5.875c0 .167-.008.334-.024.499a.573.573 0 0 0 .282.55c.046.026.091.053.136.082.316.197.756.056.804-.313.034-.268.052-.541.052-.818C16 3.19 12.418 0 8 0S0 3.19 0 7.125c0 1.974.902 3.76 2.358 5.051.32.283.38.774.1 1.096l-1.294 1.491c-.441.51-.014 1.284.65 1.17 1.508-.26 3.66-.656 5.585-1.109.31-.072.468-.414.366-.714a5.094 5.094 0 0 1-.037-.114Z"/>
    <path fill-rule="evenodd" d="M16 12.5a3.5 3.5 0 1 1-7 0 3.5 3.5 0 0 1 7 0Zm-3-.5h2v1h-2v2h-1v-2h-2v-1h2v-2h1v2Z" clip-rule="evenodd"/>
  </g>
  <defs>
    <clipPath id="Chat-New-16_svg__a">
      <path fill="#fff" d="M0 0h16v16H0z"/>
    </clipPath>
  </defs>
</svg>
