<svg fill="none" viewBox="0 0 24 24" xmlns="http://www.w3.org/2000/svg">
  <path fill="#000" d="M11.156 11.296a.79.79 0 0 0 .785.704h.116a.79.79 0 0 0 .785-.704l.445-4.07A1.105 1.105 0 0 0 12.19 6h-.377c-.658 0-1.17.571-1.1 1.225l.444 4.071ZM12 15.75a1.25 1.25 0 1 0 0-2.5 1.25 1.25 0 0 0 0 2.5Z"/>
  <path fill="#000" fill-rule="evenodd" d="M1.998 8a5 5 0 0 1 5-5h10.004a5 5 0 0 1 5 5v5.5a5 5 0 0 1-5 5h-3.181c-.446 0-.897.195-1.269.543-1.432 1.341-2.979 2.23-4.195 2.794a1.579 1.579 0 0 1-1.885-.386 1.808 1.808 0 0 1-.306-1.858 8.73 8.73 0 0 0 .356-1.1c-2.55-.128-4.524-2.241-4.524-4.807V8Zm5-3.5a3.5 3.5 0 0 0-3.5 3.5v5.686C3.498 15.526 4.95 17 6.77 17c.352 0 .69.14.934.374.251.241.436.621.36 1.064-.095.565-.291 1.164-.501 1.701-.058.147-.015.265.034.32.023.027.042.033.048.035.003 0 .027.006.082-.02 1.116-.515 2.515-1.323 3.8-2.526.601-.563 1.406-.948 2.293-.948h3.182a3.5 3.5 0 0 0 3.5-3.5V8a3.5 3.5 0 0 0-3.5-3.5H6.998Z" clip-rule="evenodd"/>
</svg>
