<svg fill="none" viewBox="0 0 24 24" xmlns="http://www.w3.org/2000/svg">
  <path fill="#CCC" d="M20.25 20.242c0 1.246-3.861 3.008-8.625 3.008C6.862 23.25 3 21.488 3 20.242v-3.094C3.375 16.432 5.7 15 12 15s8.125 1.432 8.25 2.148v3.094Z"/>
  <path fill="#444" fill-rule="evenodd" d="M3 16.398a.75.75 0 0 1 .75.75v3.083-.001c.004-.001.043.146.389.416.358.28.916.584 1.655.866 1.47.562 3.535.988 5.831.988 2.296 0 4.36-.426 5.831-.988.739-.282 1.297-.586 1.655-.866.346-.27.385-.417.389-.416v.001-3.083a.75.75 0 0 1 1.5 0v3.094c0 .681-.496 1.22-.967 1.587-.514.401-1.22.77-2.042 1.085-1.65.63-3.898 1.086-6.366 1.086-2.468 0-4.715-.455-6.366-1.086-.823-.314-1.528-.684-2.042-1.085-.47-.367-.967-.906-.967-1.587v-3.094a.75.75 0 0 1 .75-.75Z" clip-rule="evenodd"/>
  <path fill="#fff" fill-rule="evenodd" d="M6.88 19.805a.75.75 0 0 1 .893-.572c.485.105 1 .195 1.539.262a.75.75 0 0 1-.188 1.489 18.904 18.904 0 0 1-1.67-.286.75.75 0 0 1-.573-.893Z" clip-rule="evenodd"/>
  <path fill="#DDD" d="M20.25 14.242c0 1.246-3.861 3.008-8.625 3.008C6.862 17.25 3 15.488 3 14.242v-3.094C3.375 10.432 5.7 9 12 9s8.125 1.432 8.25 2.148v3.094Z"/>
  <path fill="#666" fill-rule="evenodd" d="M3 10.678a.75.75 0 0 1 .75.75v3.188c.003.003.04.135.366.37.352.252.905.522 1.646.767 1.474.488 3.549.836 5.863.836 2.314 0 4.39-.348 5.863-.836.741-.245 1.294-.514 1.646-.768.326-.234.363-.366.366-.37v-3.187a.75.75 0 0 1 1.5 0v3.202c0 .7-.507 1.225-.99 1.573-.52.375-1.23.703-2.05.974-1.648.546-3.886.912-6.335.912-2.45 0-4.687-.366-6.335-.912-.82-.271-1.53-.6-2.05-.974-.483-.348-.99-.873-.99-1.573v-3.202a.75.75 0 0 1 .75-.75Z" clip-rule="evenodd"/>
  <path fill="#fff" fill-rule="evenodd" d="M6.876 13.992a.75.75 0 0 1 .873-.602c.487.089 1.005.163 1.546.22a.75.75 0 0 1-.154 1.492c-.58-.06-1.136-.14-1.663-.237a.75.75 0 0 1-.602-.873Z" clip-rule="evenodd"/>
  <path fill="#EEE" d="M20.25 8.242c0 1.246-3.861 3.008-8.625 3.008C6.862 11.25 3 9.488 3 8.242V2.898C3.375 2.182 5.7.75 12 .75s8.125 1.432 8.25 2.148v5.344Z"/>
  <path fill="#fff" fill-rule="evenodd" d="M6.87 8.007a.75.75 0 0 1 .848-.638c.491.07 1.012.126 1.558.169a.75.75 0 0 1-.116 1.495 26.592 26.592 0 0 1-1.652-.178.75.75 0 0 1-.637-.848Z" clip-rule="evenodd"/>
  <path fill="#888" fill-rule="evenodd" d="M5.334.695C6.974.26 9.198 0 11.625 0c2.427 0 4.651.26 6.291.695.814.216 1.527.486 2.055.817.488.307 1.029.803 1.029 1.526s-.54 1.22-1.03 1.526c-.526.33-1.24.601-2.054.817-1.64.435-3.864.695-6.291.695-2.427 0-4.651-.26-6.291-.695-.815-.216-1.528-.486-2.055-.817-.488-.306-1.029-.803-1.029-1.526s.54-1.22 1.03-1.526c.526-.33 1.24-.6 2.054-.817ZM3.767 3.038c.032.044.113.132.31.255.345.217.895.44 1.642.638 1.481.393 3.57.645 5.906.645s4.425-.252 5.907-.645c.746-.198 1.296-.42 1.642-.638.196-.123.277-.21.31-.255-.033-.044-.114-.132-.31-.255-.346-.217-.896-.44-1.642-.638-1.482-.393-3.57-.645-5.907-.645-2.336 0-4.425.252-5.906.645-.747.198-1.297.421-1.643.638-.196.123-.277.211-.31.255Z" clip-rule="evenodd"/>
  <path fill="#888" fill-rule="evenodd" d="M3 2.288a.75.75 0 0 1 .75.75V8.9c.011.023.07.126.33.29.345.22.895.445 1.64.645 1.482.397 3.57.652 5.905.652 2.336 0 4.423-.255 5.904-.652.746-.2 1.296-.426 1.641-.645.26-.164.319-.267.33-.29V3.038a.75.75 0 1 1 1.5 0v5.884c0 .723-.535 1.223-1.026 1.535-.527.334-1.24.608-2.056.827-1.64.44-3.865.703-6.293.703s-4.653-.263-6.293-.703c-.815-.22-1.529-.493-2.056-.827-.491-.312-1.026-.812-1.026-1.535V3.038a.75.75 0 0 1 .75-.75Z" clip-rule="evenodd"/>
</svg>
