<svg fill="none" viewBox="0 0 24 24" xmlns="http://www.w3.org/2000/svg">
  <path fill="#FFD65C" d="M12 3.25A8.75 8.75 0 0 1 20.75 12 6.25 6.25 0 0 0 12 20.75a8.75 8.75 0 0 1 0-17.5Z"/>
  <path fill="url(#Identity-Blocked-PIR-Color-24_svg__a)" d="M11.058 15.056A6.245 6.245 0 0 0 10.75 17c0 1.41.467 2.711 1.255 3.757H12a8.724 8.724 0 0 1-6.216-2.592c1.182-1.674 3.08-2.845 5.274-3.109ZM12 6.875a3.125 3.125 0 0 1 2.925 4.228 6.262 6.262 0 0 0-2.828 2.02A3.125 3.125 0 1 1 12 6.875Z"/>
  <path fill="url(#Identity-Blocked-PIR-Color-24_svg__b)" d="M12 2c5.078 0 9.272 3.785 9.915 8.688.044.335.07.673.08 1.011.017.537-.67.758-1.089.422A6.593 6.593 0 0 0 20.75 12a8.75 8.75 0 1 0-15.644 5.389 8.606 8.606 0 0 1 2.632-2.283l.119-.065a8.673 8.673 0 0 1 3.652-1.028c-.223.41-.402.846-.53 1.305a7.417 7.417 0 0 0-2.63.878 7.353 7.353 0 0 0-2.387 2.137A8.72 8.72 0 0 0 12 20.75c.04.053.08.105.121.156.336.42.115 1.106-.422 1.09-.24-.008-.48-.023-.72-.047C5.936 21.436 2 17.178 2 12 2 6.477 6.477 2 12 2Zm0 4a4 4 0 0 1 3.91 4.845 6.204 6.204 0 0 0-1.49.46 2.75 2.75 0 1 0-1.968 1.407 6.274 6.274 0 0 0-.92 1.26A4 4 0 0 1 12 6Z"/>
  <path fill="#DE5833" d="M21.375 17a4.375 4.375 0 1 1-8.75 0 4.375 4.375 0 0 1 8.75 0Z"/>
  <path fill="#fff" d="M19 16.375h.032a.625.625 0 0 1 0 1.25H15a.625.625 0 1 1 0-1.25h4Z"/>
  <path fill="url(#Identity-Blocked-PIR-Color-24_svg__c)" d="M17 12a5 5 0 1 1 0 10 5 5 0 0 1 0-10Zm0 1.25a3.75 3.75 0 1 0 0 7.5 3.75 3.75 0 0 0 0-7.5Z"/>
  <defs>
    <linearGradient id="Identity-Blocked-PIR-Color-24_svg__a" x1="12" x2="12" y1="6.375" y2="21.382" gradientUnits="userSpaceOnUse">
      <stop stop-color="#E2A412"/>
      <stop offset="1" stop-color="#C18010"/>
    </linearGradient>
    <linearGradient id="Identity-Blocked-PIR-Color-24_svg__b" x1="12" x2="12" y1="2" y2="22" gradientUnits="userSpaceOnUse">
      <stop stop-color="#C18010"/>
      <stop offset="1" stop-color="#92540C"/>
    </linearGradient>
    <linearGradient id="Identity-Blocked-PIR-Color-24_svg__c" x1="17" x2="17" y1="12" y2="22" gradientUnits="userSpaceOnUse">
      <stop stop-color="#BC4726"/>
      <stop offset="1" stop-color="#9A3216"/>
    </linearGradient>
  </defs>
</svg>
