<svg fill="none" viewBox="0 0 16 16" xmlns="http://www.w3.org/2000/svg">
  <g fill="#000" fill-rule="evenodd" clip-path="url(#Card-16_svg__a)" clip-rule="evenodd">
    <path d="M6.25 5C4.23 5 3.246 7.505 4.683 8.942l2.787 2.787a.749.749 0 0 0 1.06 0l2.787-2.787c.79-.79.874-1.799.478-2.601A2.424 2.424 0 0 0 9.625 5c-.761 0-1.305.308-1.665.7A2.33 2.33 0 0 0 6.25 5Zm-.683 3.058c-.688-.687-.171-1.808.683-1.808.483 0 .773.23.952.487.145.206.355.28.454.306.12.033.242.041.346.037.105-.003.224-.02.34-.061a.81.81 0 0 0 .428-.327c.142-.227.387-.442.855-.442.47 0 .868.277 1.049.644.167.338.157.766-.24 1.164L8 10.491 5.567 8.058Z"/>
    <path d="M15 6a4.002 4.002 0 0 0-2.961-3.864L5.994.386A3.125 3.125 0 0 0 2 3.355C1.378 4.059 1 4.986 1 6v6a4 4 0 0 0 4 4h6a4 4 0 0 0 4-4V6ZM5 2c-.475 0-.931.083-1.354.235a1.873 1.873 0 0 1 2-.647L7.072 2H5Zm6.804 1.37-.086-.025A2.754 2.754 0 0 0 11 3.25H5A2.75 2.75 0 0 0 2.25 6v6A2.75 2.75 0 0 0 5 14.75h6A2.75 2.75 0 0 0 13.75 12V6a2.751 2.751 0 0 0-1.946-2.63Z"/>
  </g>
  <defs>
    <clipPath id="Card-16_svg__a">
      <path fill="#fff" d="M0 0h16v16H0z"/>
    </clipPath>
  </defs>
</svg>
