<svg fill="none" viewBox="0 0 16 16" xmlns="http://www.w3.org/2000/svg">
  <path fill="#000" d="M14.889 3.762c.32-.32.858-.235.975.201.089.33.136.678.136 1.037v6a4 4 0 0 1-4 4H5.163a.625.625 0 0 1 0-1.25H12A2.75 2.75 0 0 0 14.75 11V8.25h-2.84a.625.625 0 1 1 0-1.25h2.84V6h-.59a.625.625 0 1 1 0-1.25h.579a2.753 2.753 0 0 0-.039-.273c-.05-.256.005-.53.189-.715Zm-1.081-2.454a.625.625 0 1 1 .884.884l-12.5 12.5a.625.625 0 1 1-.884-.884l12.5-12.5ZM10.837 1a.625.625 0 0 1 0 1.25H4a2.75 2.75 0 0 0-2.739 2.5H7.09a.625.625 0 1 1 0 1.25H1.25v1h3.59a.625.625 0 1 1 0 1.25H1.25V11c0 .179.017.354.05.523.05.256-.005.53-.19.715-.319.32-.857.235-.974-.201A4.003 4.003 0 0 1 0 11V5a4 4 0 0 1 4-4h6.837Z"/>
</svg>
