<svg fill="none" viewBox="0 0 16 16" xmlns="http://www.w3.org/2000/svg">
  <g fill="#000" clip-path="url(#Toolbar-Disable-16_svg__a)">
    <path d="M3.125 1h9.223l-1.25 1.25H3.125c-1.036 0-1.875.84-1.875 1.875v.625h7.348L7.348 6H1.25v1h5.098l-1.25 1.25H1.25v3.625c0 .072.004.142.012.211L.249 13.1A3.115 3.115 0 0 1 0 11.875v-7.75C0 2.399 1.4 1 3.125 1Zm12.654 1.873-1.005 1.005c.01.08.016.163.016.247v.625h-.888L12.652 6h2.138v1h-3.138l-1.25 1.25h4.388v3.625c0 1.036-.84 1.875-1.875 1.875H4.902L3.652 15h9.263c1.726 0 3.125-1.4 3.125-3.125v-7.75a3.11 3.11 0 0 0-.261-1.252Zm-1.971-1.565a.625.625 0 1 1 .884.884l-12.5 12.5a.625.625 0 1 1-.884-.884l12.5-12.5Z"/>
  </g>
  <defs>
    <clipPath id="Toolbar-Disable-16_svg__a">
      <path fill="#fff" d="M0 0h16v16H0z"/>
    </clipPath>
  </defs>
</svg>
