<svg fill="none" viewBox="0 0 16 16" xmlns="http://www.w3.org/2000/svg">
  <g fill="#000" clip-path="url(#Device-Laptop-Lock-16_svg__a)">
    <path d="M5.125.88A3.125 3.125 0 0 0 2 4.007V9.29L.496 11.26c-1.13 1.48-.075 3.615 1.788 3.615H7.05a.7.7 0 0 0 .7-.7v-.55H2.284a1 1 0 0 1-.795-1.607l1.445-1.893h5.72c.033-.023.066-.045.1-.066a3.76 3.76 0 0 1 .256-1.184H3.25v-4.87c0-1.035.84-1.874 1.875-1.874h5.75c1.036 0 1.875.84 1.875 1.875v2.502c.075.005.149.012.222.021.5.063 1.028-.282 1.028-.787V4.006C14 2.28 12.6.88 10.875.88h-5.75Z"/>
    <path d="M7.75 11.852c0-.353.087-.685.24-.977H3.625a.625.625 0 1 0 0 1.25H7.75v-.273Z"/>
    <path fill-rule="evenodd" d="M10 10.25a2.5 2.5 0 0 1 5 0V11h.148c.47 0 .852.382.852.852v3.296c0 .47-.382.852-.852.852H9.852A.852.852 0 0 1 9 15.148v-3.296c0-.47.382-.852.852-.852H10v-.75Zm3.75 0V11h-2.5v-.75a1.25 1.25 0 1 1 2.5 0Z" clip-rule="evenodd"/>
  </g>
  <defs>
    <clipPath id="Device-Laptop-Lock-16_svg__a">
      <path fill="#fff" d="M0 0h16v16H0z"/>
    </clipPath>
  </defs>
</svg>
