<svg fill="none" viewBox="0 0 24 24" xmlns="http://www.w3.org/2000/svg">
  <path fill="#000" fill-rule="evenodd" d="M11.621 21.993c.723.026 1.04-.872.679-1.498A8.469 8.469 0 0 1 6.295 18.3 6.577 6.577 0 0 1 12 15h.044a6.07 6.07 0 0 1 .932-1.442A8.151 8.151 0 0 0 12 13.5c.418 0 .82-.064 1.198-.182a6.01 6.01 0 0 1 1.938-1.334A4 4 0 1 0 12 13.5a8.072 8.072 0 0 0-6.76 3.653A8.5 8.5 0 1 1 20.495 12.3c.627.362 1.524.045 1.498-.678a9.836 9.836 0 0 0-.023-.4C21.573 6.062 17.26 2 12 2 6.477 2 2 6.477 2 12c0 5.264 4.068 9.579 9.232 9.97.13.01.26.018.39.023ZM14.502 9.5a2.5 2.5 0 1 1-5 0 2.5 2.5 0 0 1 5 0Z" clip-rule="evenodd"/>
  <path fill="#000" fill-rule="evenodd" d="M22 17.5a4.5 4.5 0 1 1-9 0 4.5 4.5 0 0 1 9 0Zm-7.25-.25a.5.5 0 0 1 .5-.5h4.5a.5.5 0 0 1 .5.5v.5a.5.5 0 0 1-.5.5h-4.5a.5.5 0 0 1-.5-.5v-.5Z" clip-rule="evenodd"/>
</svg>
