<svg fill="none" viewBox="0 0 16 16" xmlns="http://www.w3.org/2000/svg">
  <g fill="#000" clip-path="url(#Help-16_svg__a)">
    <path d="M7.785 9.782C6.652 9.782 6 9.187 6 8.375c0-1.03.943-1.532 1.734-1.953.572-.305 1.065-.567 1.065-.957 0-.27-.236-.483-.743-.483-.531 0-1.442.22-2.056.643v-1.5c.66-.376 1.702-.625 2.469-.625 1.475 0 2.36.753 2.36 1.753 0 1.28-1.117 1.79-2 2.195-.578.264-1.056.482-1.056.84 0 .236.236.4.59.4s.554 1.094-.578 1.094Zm-1.535 1.87c0-.554.452-1.152 1.196-1.152.437 0 .948.262.948.904 0 .51-.35 1.137-1.182 1.137-.452 0-.962-.218-.962-.889Z"/>
    <path fill-rule="evenodd" d="M0 8a8 8 0 1 1 16 0A8 8 0 0 1 0 8Zm8-6.75a6.75 6.75 0 1 0 0 13.5 6.75 6.75 0 0 0 0-13.5Z" clip-rule="evenodd"/>
  </g>
  <defs>
    <clipPath id="Help-16_svg__a">
      <path fill="#fff" d="M0 0h16v16H0z"/>
    </clipPath>
  </defs>
</svg>
