<svg fill="none" viewBox="0 0 16 16" xmlns="http://www.w3.org/2000/svg">
  <g fill="#000" fill-rule="evenodd" clip-path="url(#Recipe-16_svg__a)" clip-rule="evenodd">
    <path d="M7.062.35a.625.625 0 0 1-.297.842.774.774 0 0 0-.062.04l-.01.007c.033.025.076.055.133.09.365.223.636.512.747.879a1.29 1.29 0 0 1-.088.94c-.112.233-.27.415-.384.529a2.339 2.339 0 0 1-.204.182l-.017.012-.006.005-.002.002H6.87s-.001.001-.367-.497l.366.498a.625.625 0 0 1-.743-1.005l.001-.001a.692.692 0 0 0 .088-.079.753.753 0 0 0 .143-.188.199.199 0 0 0 .015-.04c-.012-.02-.056-.082-.2-.17-.338-.206-.616-.466-.737-.807a1.06 1.06 0 0 1 .112-.936c.133-.211.314-.358.431-.441a2.028 2.028 0 0 1 .216-.133l.018-.01.007-.003.002-.001h.002l.275.56-.274-.561a.625.625 0 0 1 .836.287ZM6.5 3.376l-.37-.504.37.504Zm-.122-.802ZM3.78 1.184a.625.625 0 0 0-.554-1.12L3.5.625 3.226.064h-.003l-.002.002-.007.003-.018.01a1.71 1.71 0 0 0-.216.133c-.117.083-.298.23-.43.441a1.06 1.06 0 0 0-.113.936c.121.34.4.6.737.807.144.088.188.15.2.17a.199.199 0 0 1-.015.04.753.753 0 0 1-.143.188 1.09 1.09 0 0 1-.088.079h-.001A.625.625 0 0 0 3.87 3.88l-.37-.504.37.504.002-.001.002-.002.006-.005.017-.012a1.903 1.903 0 0 0 .204-.182c.114-.114.272-.296.384-.53.115-.238.2-.57.088-.94-.111-.366-.382-.655-.747-.878a1.334 1.334 0 0 1-.132-.09l.01-.007a.779.779 0 0 1 .075-.048Zm-.402 1.39-.001-.003v.002Z"/>
    <path d="M14.944 1.884a.625.625 0 0 0-1.138-.517l-1.708 3.758H.624a.625.625 0 1 0 0 1.25H1v5.5C1 13.601 2.4 15 4.125 15h7.75C13.601 15 15 13.6 15 11.875v-5.5h.375a.625.625 0 1 0 0-1.25h-1.904l1.473-3.241ZM12.48 6.375h1.27v5.5c0 1.036-.84 1.875-1.875 1.875h-7.75a1.875 1.875 0 0 1-1.875-1.875v-5.5h10.23Z"/>
  </g>
  <defs>
    <clipPath id="Recipe-16_svg__a">
      <path fill="#fff" d="M0 0h16v16H0z"/>
    </clipPath>
  </defs>
</svg>
