<svg fill="none" viewBox="0 0 16 16" xmlns="http://www.w3.org/2000/svg">
  <g fill="#000" clip-path="url(#Chart-16_svg__a)">
    <path d="m13.385 2.305-2.921.325a.625.625 0 0 1-.138-1.242l3.506-.39a1.626 1.626 0 0 1 1.795 1.436l.39 3.506a.625.625 0 0 1-1.243.138l-.343-3.084-4.156 5.566a1.125 1.125 0 0 1-1.56.24L6.56 7.246l-2.445 3.498a.625.625 0 0 1-1.024-.716l2.518-3.602a1.125 1.125 0 0 1 1.58-.269l2.158 1.555 4.038-5.408Z"/>
    <path d="M.625 1c.345 0 .625.28.625.625v10.25c0 1.036.84 1.875 1.875 1.875h12.25a.625.625 0 1 1 0 1.25H3.125A3.125 3.125 0 0 1 0 11.875V1.625C0 1.28.28 1 .625 1Z"/>
  </g>
  <defs>
    <clipPath id="Chart-16_svg__a">
      <path fill="#fff" d="M0 0h16v16H0z"/>
    </clipPath>
  </defs>
</svg>
