<svg fill="none" viewBox="0 0 12 12" xmlns="http://www.w3.org/2000/svg">
  <g clip-path="url(#Globe-12_svg__a)">
    <path fill="#000" fill-rule="evenodd" d="M.011 5.632a6 6 0 0 1 11.978 0 .626.626 0 0 1 .008.179L12 6A6 6 0 1 1 .003 5.81a.632.632 0 0 1 .008-.178Zm1.254.743a4.75 4.75 0 0 0 2.448 3.79 6.081 6.081 0 0 1-.047-.1c-.459-.986-.742-2.28-.785-3.69H1.265Zm1.641-1.25H1.33a4.756 4.756 0 0 1 2.383-3.29 5.86 5.86 0 0 0-.047.1c-.404.869-.672 1.976-.76 3.19Zm1.225 1.25c.043 1.26.298 2.367.668 3.162.43.924.899 1.213 1.201 1.213.302 0 .771-.289 1.201-1.213.37-.795.625-1.902.668-3.162H4.13Zm3.71-1.25H4.16c.085-1.052.319-1.974.639-2.662.43-.925.899-1.213 1.201-1.213.302 0 .771.288 1.201 1.213.32.688.554 1.61.64 2.662Zm1.278 1.25c-.043 1.41-.326 2.704-.785 3.69a6.081 6.081 0 0 1-.047.1 4.75 4.75 0 0 0 2.448-3.79H9.12Zm1.55-1.25H9.095c-.088-1.214-.356-2.321-.76-3.19a5.86 5.86 0 0 0-.047-.1 4.756 4.756 0 0 1 2.383 3.29Z" clip-rule="evenodd"/>
  </g>
  <defs>
    <clipPath id="Globe-12_svg__a">
      <path fill="#fff" d="M0 0h12v12H0z"/>
    </clipPath>
  </defs>
</svg>
