<svg fill="none" viewBox="0 0 12 12" xmlns="http://www.w3.org/2000/svg">
  <g clip-path="url(#Globe-12_svg__a)">
    <path fill="#000" d="M6 0a6 6 0 0 1 5.987 5.61.495.495 0 0 1 .009.175A6 6 0 0 1 6 12 6 6 0 0 1 .004 5.784a.498.498 0 0 1 .009-.174A6 6 0 0 1 6 0Zm1.984 6.86a21.38 21.38 0 0 1-3.968 0c.083 1.11.324 2.089.66 2.821C5.114 10.641 5.62 11 6 11c.38 0 .886-.359 1.326-1.319.335-.732.575-1.71.658-2.82Zm-6.97-.493a5.001 5.001 0 0 0 3.01 4.227 5.455 5.455 0 0 1-.258-.497c-.413-.903-.684-2.07-.76-3.354a21.51 21.51 0 0 1-1.991-.376Zm9.97 0c-.658.157-1.322.282-1.99.376-.076 1.284-.346 2.451-.76 3.354a5.456 5.456 0 0 1-.259.496 5 5 0 0 0 3.01-4.226ZM6 1c-.38 0-.885.359-1.325 1.319-.405.885-.673 2.13-.69 3.534 1.34.132 2.69.132 4.03 0-.017-1.404-.284-2.649-.69-3.534C6.887 1.359 6.382 1 6 1Zm-1.975.406a5.004 5.004 0 0 0-2.981 3.938c.642.16 1.29.289 1.942.385.031-1.468.317-2.814.78-3.826.078-.171.165-.338.259-.497Zm3.95 0c.094.16.182.326.26.497.463 1.012.747 2.358.779 3.826a20.26 20.26 0 0 0 1.942-.385 5.003 5.003 0 0 0-2.98-3.938Z"/>
  </g>
  <defs>
    <clipPath id="Globe-12_svg__a">
      <path fill="#fff" d="M0 0h12v12H0z"/>
    </clipPath>
  </defs>
</svg>
