<svg fill="none" viewBox="0 0 24 24" xmlns="http://www.w3.org/2000/svg">
  <path fill="#000" d="M5.75 2A3.75 3.75 0 0 0 2 5.75v5.5A3.75 3.75 0 0 0 5.75 15H8v2.25a.25.25 0 0 1-.25.25h-2a.75.75 0 0 0 0 1.5H9.5v-6.25H5.75A2.25 2.25 0 0 1 3.5 10.5V5.75A2.25 2.25 0 0 1 5.75 3.5H16.5c.824 0 1.2-.898.44-1.214A3.739 3.739 0 0 0 15.5 2H5.75ZM15 8.5a.5.5 0 0 1 .5-.5h2a.5.5 0 1 1 0 1h-2a.5.5 0 0 1-.5-.5Z"/>
  <path fill="#000" fill-rule="evenodd" d="M11 8a3 3 0 0 1 3-3h5a3 3 0 0 1 3 3v11a3 3 0 0 1-3 3h-5a3 3 0 0 1-3-3V8Zm3-1.5A1.5 1.5 0 0 0 12.5 8v11a1.5 1.5 0 0 0 1.5 1.5h5a1.5 1.5 0 0 0 1.5-1.5V8A1.5 1.5 0 0 0 19 6.5h-5Z" clip-rule="evenodd"/>
</svg>
