<svg fill="none" viewBox="0 0 24 24" xmlns="http://www.w3.org/2000/svg">
  <path fill="#000" fill-rule="evenodd" d="M16.25 4a.75.75 0 0 1 .75.75v14.5a.75.75 0 1 1-1.5 0v-.69l-2.858-.848-.221.337a3.207 3.207 0 0 1-5.891-1.755v-.396l-3.03-.899v.251a.75.75 0 0 1-1.5 0v-6.5a.75.75 0 0 1 1.5 0v.251l12-3.56V4.75a.75.75 0 0 1 .75-.75ZM3.5 10.566v2.868l3.901 1.158a.7.7 0 0 1 .181.054l7.918 2.35V7.004l-12 3.56Zm7.64 6.7-3.11-.923a1.707 1.707 0 0 0 3.11.923Z" clip-rule="evenodd"/>
  <path fill="#000" d="M21.212 6.513a.75.75 0 0 1-.475.949l-1.5.5a.75.75 0 0 1-.474-1.423l1.5-.5a.75.75 0 0 1 .949.474ZM19 12a.75.75 0 0 1 .75-.75h1.5a.75.75 0 1 1 0 1.5h-1.5A.75.75 0 0 1 19 12Zm-.711 4.513a.75.75 0 0 1 .948-.475l1.5.5a.75.75 0 0 1-.474 1.424l-1.5-.5a.75.75 0 0 1-.474-.95Z"/>
</svg>
