<svg fill="none" viewBox="0 0 24 24" xmlns="http://www.w3.org/2000/svg">
  <path fill="#000" d="M9 15a1 1 0 1 0 0 2h6a1 1 0 1 0 0-2H9ZM5 7.75A.75.75 0 0 1 5.75 7h.5a.75.75 0 0 1 .75.75v.5a.75.75 0 0 1-.75.75h-.5A.75.75 0 0 1 5 8.25v-.5ZM5.75 11a.75.75 0 0 0-.75.75v.5c0 .414.336.75.75.75h.5a.75.75 0 0 0 .75-.75v-.5a.75.75 0 0 0-.75-.75h-.5ZM5 15.75a.75.75 0 0 1 .75-.75h.5a.75.75 0 0 1 .75.75v.5a.75.75 0 0 1-.75.75h-.5a.75.75 0 0 1-.75-.75v-.5ZM8.75 7a.75.75 0 0 0-.75.75v.5c0 .414.336.75.75.75h.5a.75.75 0 0 0 .75-.75v-.5A.75.75 0 0 0 9.25 7h-.5ZM8 11.75a.75.75 0 0 1 .75-.75h.5a.75.75 0 0 1 .75.75v.5a.75.75 0 0 1-.75.75h-.5a.75.75 0 0 1-.75-.75v-.5ZM11.75 7a.75.75 0 0 0-.75.75v.5c0 .414.336.75.75.75h.5a.75.75 0 0 0 .75-.75v-.5a.75.75 0 0 0-.75-.75h-.5ZM11 11.75a.75.75 0 0 1 .75-.75h.5a.75.75 0 0 1 .75.75v.5a.75.75 0 0 1-.75.75h-.5a.75.75 0 0 1-.75-.75v-.5Zm3.75-.75a.75.75 0 0 0-.75.75v.5c0 .414.336.75.75.75h.5a.75.75 0 0 0 .75-.75v-.5a.75.75 0 0 0-.75-.75h-.5ZM14 7.75a.75.75 0 0 1 .75-.75h.5a.75.75 0 0 1 .75.75v.5a.75.75 0 0 1-.75.75h-.5a.75.75 0 0 1-.75-.75v-.5ZM17.75 7a.75.75 0 0 0-.75.75v.5c0 .414.336.75.75.75h.5a.75.75 0 0 0 .75-.75v-.5a.75.75 0 0 0-.75-.75h-.5ZM17 11.75a.75.75 0 0 1 .75-.75h.5a.75.75 0 0 1 .75.75v.5a.75.75 0 0 1-.75.75h-.5a.75.75 0 0 1-.75-.75v-.5Zm.75 3.25a.75.75 0 0 0-.75.75v.5c0 .414.336.75.75.75h.5a.75.75 0 0 0 .75-.75v-.5a.75.75 0 0 0-.75-.75h-.5Z"/>
  <path fill="#000" fill-rule="evenodd" d="M5.75 3A3.75 3.75 0 0 0 2 6.75v10.5A3.75 3.75 0 0 0 5.75 21h12.5A3.75 3.75 0 0 0 22 17.25V6.75A3.75 3.75 0 0 0 18.25 3H5.75ZM3.5 6.75A2.25 2.25 0 0 1 5.75 4.5h12.5a2.25 2.25 0 0 1 2.25 2.25v10.5a2.25 2.25 0 0 1-2.25 2.25H5.75a2.25 2.25 0 0 1-2.25-2.25V6.75Z" clip-rule="evenodd"/>
</svg>
