<svg fill="none" viewBox="0 0 24 24" xmlns="http://www.w3.org/2000/svg">
  <path fill="#000" d="M8 1.969A5.031 5.031 0 0 0 2.97 7v10A5.031 5.031 0 0 0 8 22.031h7c.09 0 .18 0 .269.002.68.005.954-.84.484-1.334a.754.754 0 0 0-.55-.23H8A3.469 3.469 0 0 1 4.531 17V7a3.469 3.469 0 0 1 3.47-3.469h8A3.469 3.469 0 0 1 19.468 7v8.947c0 .212.083.414.236.561.5.481 1.327.185 1.327-.508V7A5.031 5.031 0 0 0 16 1.969H8Z"/>
  <path fill="#000" fill-rule="evenodd" d="M16.12 15.89a5.031 5.031 0 1 0-1.085 1.124l3.132 3.132a.781.781 0 1 0 1.104-1.105L16.12 15.89ZM8.53 13a3.469 3.469 0 1 1 6.938 0 3.469 3.469 0 0 1-6.938 0Z" clip-rule="evenodd"/>
</svg>
