<svg fill="none" viewBox="0 0 16 16" xmlns="http://www.w3.org/2000/svg">
  <g fill="#000" clip-path="url(#Arrow-Circle-Down-16_svg__a)">
    <path d="M10.569 7.895a.625.625 0 0 1 .883.884l-2.298 2.298a1.625 1.625 0 0 1-2.298 0L4.558 8.78a.625.625 0 1 1 .884-.884L7.38 9.834V4.625a.625.625 0 1 1 1.25 0v5.209l1.939-1.939Z"/>
    <path fill-rule="evenodd" d="M8 0a8 8 0 1 0 0 16A8 8 0 0 0 8 0ZM1.25 8a6.75 6.75 0 1 1 13.5 0 6.75 6.75 0 0 1-13.5 0Z" clip-rule="evenodd"/>
  </g>
  <defs>
    <clipPath id="Arrow-Circle-Down-16_svg__a">
      <path fill="#fff" d="M0 0h16v16H0z"/>
    </clipPath>
  </defs>
</svg>
