<svg fill="none" viewBox="0 0 24 24" xmlns="http://www.w3.org/2000/svg">
  <path fill="url(#Shield-Color-24_svg__a)" d="M3.25 13.875v-7.5l1.875-1.25H8.25l3.75-2.5 3.75 2.5h3.125l1.875 1.25v7.5L17 19.5l-5 1.875L7 19.5l-3.75-5.625Z"/>
  <path fill="url(#Shield-Color-24_svg__b)" d="M20.75 13.875 17 19.5l-3.75 1.25H12V2.625l3.75 2.5h3.125l1.875 1.25v7.5Z"/>
  <path stroke="url(#Shield-Color-24_svg__c)" stroke-width="1.25" d="M8.62 4.634 9.94 3.41a2.969 2.969 0 0 1 4.081.04l1.2 1.157a2.031 2.031 0 0 0 1.97.491l.705-.202a2.656 2.656 0 0 1 3.389 2.477l.08 2.85a10.625 10.625 0 0 1-6.07 9.903l-1.952.925a3.125 3.125 0 0 1-2.684-.003l-1.948-.93a10.625 10.625 0 0 1-6.048-9.84l.067-2.856a2.656 2.656 0 0 1 3.412-2.484l.52.154a2.03 2.03 0 0 0 1.959-.458Z"/>
  <defs>
    <linearGradient id="Shield-Color-24_svg__a" x1="12.005" x2="12.11" y1="3.25" y2="21.374" gradientUnits="userSpaceOnUse">
      <stop stop-color="#7BD66D"/>
      <stop offset="1" stop-color="#288419"/>
    </linearGradient>
    <linearGradient id="Shield-Color-24_svg__b" x1="16.375" x2="16.375" y1="2.625" y2="22" gradientUnits="userSpaceOnUse">
      <stop stop-color="#69CC5B"/>
      <stop offset="1" stop-color="#288419"/>
    </linearGradient>
    <linearGradient id="Shield-Color-24_svg__c" x1="12" x2="12" y1="3.25" y2="20.75" gradientUnits="userSpaceOnUse">
      <stop offset=".008" stop-color="#399F29"/>
      <stop offset="1" stop-color="#1A690D"/>
    </linearGradient>
  </defs>
</svg>
