<svg fill="none" viewBox="0 0 20 20" xmlns="http://www.w3.org/2000/svg">
  <path fill="#000" fill-rule="evenodd" d="M9.75 2.5a.75.75 0 0 0-.75.75v1.12a2 2 0 0 1 .362.332l2.66 3.119a2 2 0 0 1 .478 1.298V14.5h4.25a.75.75 0 0 0 .75-.75V7.5h-2.75A1.75 1.75 0 0 1 13 5.75V2.5H9.75Zm-2.25.75V4H3.25A2.25 2.25 0 0 0 1 6.25v10.5A2.25 2.25 0 0 0 3.25 19h7a2.25 2.25 0 0 0 2.25-2.25V16h4.25A2.25 2.25 0 0 0 19 13.75V6.119a2 2 0 0 0-.478-1.298l-2.66-3.119A2 2 0 0 0 14.34 1H9.75A2.25 2.25 0 0 0 7.5 3.25Zm7-.724V5.75c0 .138.112.25.25.25h2.736a.5.5 0 0 0-.106-.206l-2.66-3.118a.5.5 0 0 0-.22-.15ZM3.25 5.5a.75.75 0 0 0-.75.75v10.5c0 .414.336.75.75.75h7a.75.75 0 0 0 .75-.75V10.5H8.25A1.75 1.75 0 0 1 6.5 8.75V5.5H3.25ZM8 5.526V8.75c0 .138.112.25.25.25h2.736a.5.5 0 0 0-.106-.206L8.22 5.676a.5.5 0 0 0-.22-.15Z" clip-rule="evenodd"/>
</svg>
