<svg fill="none" viewBox="0 0 16 16" xmlns="http://www.w3.org/2000/svg">
  <g fill="#000" fill-rule="evenodd" clip-path="url(#Feedback-16_svg__a)" clip-rule="evenodd">
    <path d="M5.327 9.272c.409.363.735.644.99.865.504.434 1.138.592 1.68.591.542-.001 1.173-.161 1.673-.591l.204-.176c.222-.19.485-.416.79-.68 1.048-.915 1.598-2.08 1.366-3.237-.232-1.152-1.187-1.935-2.302-2.039-.795-.074-1.38.335-1.728.691-.348-.356-.933-.765-1.728-.69-1.102.102-2.067.866-2.302 2.025-.233 1.156.32 2.318 1.357 3.24ZM6.388 5.25c.35-.033.646.198.886.517l.01.014c.07.095.136.198.197.304a4.7 4.7 0 0 1 .193.381c.106.236.546.236.652 0 .057-.126.122-.256.193-.38a3.066 3.066 0 0 1 .207-.319c.24-.32.537-.55.886-.517 1.204.112 1.9 1.633.23 3.088-.3.26-.558.482-.78.672l-.207.179c-.446.384-1.275.387-1.72.002a83.06 83.06 0 0 1-.977-.854c-1.67-1.484-.974-2.975.23-3.087Z"/>
    <path d="M4 1a4 4 0 0 0-4 4v4.386c0 2.047 1.565 3.735 3.595 3.857a6.479 6.479 0 0 1-.268.78 1.479 1.479 0 0 0 .223 1.519c.35.413.942.606 1.535.34.983-.44 2.228-1.139 3.374-2.206.294-.274.649-.426.996-.426H12a4 4 0 0 0 4-4V5a4 4 0 0 0-4-4H4ZM1.25 5A2.75 2.75 0 0 1 4 2.25h8A2.75 2.75 0 0 1 14.75 5v4.25A2.75 2.75 0 0 1 12 12H9.455c-.716 0-1.364.31-1.848.761-1.018.948-2.136 1.58-3.032 1.98a.137.137 0 0 1-.04.012h-.007l-.006-.002a.088.088 0 0 1-.018-.017c-.034-.04-.065-.127-.02-.237.168-.413.325-.873.404-1.312a.974.974 0 0 0-.293-.878A1.11 1.11 0 0 0 3.83 12c-1.435 0-2.58-1.162-2.58-2.614V5Z"/>
  </g>
  <defs>
    <clipPath id="Feedback-16_svg__a">
      <path fill="#fff" d="M0 0h16v16H0z"/>
    </clipPath>
  </defs>
</svg>
