<svg fill="none" viewBox="0 0 24 24" xmlns="http://www.w3.org/2000/svg">
  <path fill="#000" d="M12.25 2a.75.75 0 0 0-.75.75v3.355a.75.75 0 0 0 1.5 0V3.56a8.502 8.502 0 0 1 3.482 1.218l.24.156a8.501 8.501 0 0 1-7.975 14.92A8.502 8.502 0 0 1 3.5 12 .75.75 0 0 0 2 12a10.001 10.001 0 0 0 17.071 7.071 10 10 0 0 0-1.515-15.385l-.283-.183a10 10 0 0 0-4.732-1.488.755.755 0 0 0-.128.004A.753.753 0 0 0 12.25 2Z"/>
  <path fill="#000" d="M5.75 11a.75.75 0 0 0 0 1.5h6.547l.076-.004a.75.75 0 0 0 0-1.492L12.297 11H5.75Zm2.901-7.647a.75.75 0 0 0-.926-.388l-.072.03-.42.21-.41.23-.063.044a.75.75 0 0 0 .764 1.282l.067-.036.346-.196.356-.178.068-.037a.75.75 0 0 0 .29-.961ZM3.222 7.202l-.213.421-.03.07a.75.75 0 0 0 1.347.642l.037-.067.18-.356c.063-.117.128-.232.196-.346a.75.75 0 0 0-1.286-.772c-.08.134-.157.27-.231.408Z"/>
</svg>
