<svg fill="none" viewBox="0 0 16 16" xmlns="http://www.w3.org/2000/svg">
  <g clip-path="url(#Privacy-Check-Color-16_svg__a)">
    <path fill="url(#Privacy-Check-Color-16_svg__b)" d="M11 2.5h2.5l1.5 1V8a5 5 0 0 0-7 7v.5L7 15l-3-1-3-4.5v-6l1.5-1H5l3-2 3 2Z"/>
    <path fill="url(#Privacy-Check-Color-16_svg__c)" d="M11 2.5h2.5l1.5 1V8a4.978 4.978 0 0 0-3-1 4.992 4.992 0 0 0-4 2V.5l3 2Z"/>
    <path fill="url(#Privacy-Check-Color-16_svg__d)" d="M6.012.762A2.875 2.875 0 0 1 9.963.8l.96.926c.29.279.706.383 1.092.272l.563-.162a2.625 2.625 0 0 1 3.349 2.449l.065 2.28.003.333a8.948 8.948 0 0 1-.03.669c-.041.486-.653.658-1.05.373"/>
    <path fill="#4CBA3C" d="M15.5 12a3.5 3.5 0 1 1-7 0 3.5 3.5 0 0 1 7 0Z"/>
    <path fill="url(#Privacy-Check-Color-16_svg__e)" d="M15 12a3 3 0 1 0-6 0 3 3 0 0 0 6 0Zm1 0a4 4 0 1 1-8 0 4 4 0 0 1 8 0Z"/>
    <path fill="#fff" d="M13.184 10.737a.5.5 0 0 1 .704.703l-.035.039-1.875 1.875a.5.5 0 0 1-.668.034l-.039-.034-1.125-1.125-.034-.039a.5.5 0 0 1 .703-.703l.038.034.772.772 1.521-1.521.038-.035Z"/>
  </g>
  <defs>
    <linearGradient id="Privacy-Check-Color-16_svg__b" x1="8.004" x2="8.088" y1="1" y2="15.499" gradientUnits="userSpaceOnUse">
      <stop stop-color="#FFF0C2"/>
      <stop offset="1" stop-color="#FFDE7A"/>
    </linearGradient>
    <linearGradient id="Privacy-Check-Color-16_svg__c" x1="11.5" x2="11.5" y1=".5" y2="15.483" gradientUnits="userSpaceOnUse">
      <stop stop-color="#FFDE7A"/>
      <stop offset="1" stop-color="#F9BE1A"/>
    </linearGradient>
    <linearGradient id="Privacy-Check-Color-16_svg__d" x1="7.985" x2="7.985" y1="1.38" y2="15.239" gradientUnits="userSpaceOnUse">
      <stop offset=".008" stop-color="#C18010"/>
      <stop offset="1" stop-color="#92540C"/>
    </linearGradient>
    <linearGradient id="Privacy-Check-Color-16_svg__e" x1="12" x2="12" y1="8.5" y2="15.5" gradientUnits="userSpaceOnUse">
      <stop stop-color="#399F29"/>
      <stop offset="1" stop-color="#288419"/>
    </linearGradient>
    <clipPath id="Privacy-Check-Color-16_svg__a">
      <path fill="#fff" d="M0 0h16v16H0z"/>
    </clipPath>
  </defs>
</svg>
