<svg fill="none" viewBox="0 0 16 16" xmlns="http://www.w3.org/2000/svg">
  <path fill="#000" fill-rule="evenodd" d="M9.975 1h.15c1.726 0 3.125 1.4 3.125 3.125v2.168l1.258 1.374c.317.346.492.797.492 1.266v5.192C15 15.161 14.16 16 13.125 16h-5.25c-.72 0-1.344-.405-1.659-1H4.125A3.125 3.125 0 0 1 1 11.875v-7.75a3.125 3.125 0 0 1 3.025-3.123A1.25 1.25 0 0 1 5.25 0h3.5c.605 0 1.11.43 1.225 1Zm-5.87 1.25A1.875 1.875 0 0 0 2.25 4.125v7.75c0 1.036.84 1.875 1.875 1.875H6V6.875C6 5.839 6.84 5 7.875 5h3.366c.264 0 .523.056.759.16V4.125c0-1.036-.84-1.875-1.875-1.875h-.229A1.25 1.25 0 0 1 8.75 3h-3.5a1.25 1.25 0 0 1-1.146-.75ZM5 1.75c0 .138.112.25.25.25h3.5A.25.25 0 0 0 9 1.75v-.5A.25.25 0 0 0 8.75 1h-3.5a.25.25 0 0 0-.25.25v.5Zm2.25 5.125c0-.345.28-.625.625-.625H11V9a1 1 0 0 0 1 1h1.75v4.125c0 .345-.28.625-.625.625h-5.25a.625.625 0 0 1-.625-.625v-7.25ZM13.75 9v-.067a.625.625 0 0 0-.164-.422L12 6.778V9h1.75Z" clip-rule="evenodd"/>
</svg>
