<svg fill="none" viewBox="0 0 16 16" xmlns="http://www.w3.org/2000/svg">
  <g clip-path="url(#Paste-16_svg__a)">
    <path fill="#000" d="M11.049 5c.648 0 1.267.273 1.705.751l1.64 1.79.035.041c.368.42.571.961.571 1.521v4.585A2.312 2.312 0 0 1 12.687 16H8.314A2.312 2.312 0 0 1 6 13.687V7.314A2.312 2.312 0 0 1 8.313 5h2.736ZM9.938-.125c.834 0 1.552.496 1.877 1.208a4.004 4.004 0 0 1 3.155 3.42c.082.652-.777.968-1.22.484a2.751 2.751 0 0 0-1.806-2.57A2.063 2.063 0 0 1 9.937 4H6.063a2.063 2.063 0 0 1-2.007-1.584A2.751 2.751 0 0 0 2.25 5v7a2.75 2.75 0 0 0 2.66 2.748c.036.114.077.225.123.334.167.392-.09.937-.514.889A4 4 0 0 1 1 12V4.999a4.004 4.004 0 0 1 3.186-3.917A2.063 2.063 0 0 1 6.063-.125h3.875ZM8.312 6.25c-.586 0-1.062.476-1.062 1.063v6.375c0 .586.476 1.062 1.063 1.062h4.374c.587 0 1.063-.476 1.063-1.063V9.25h-1.875a1.125 1.125 0 0 1-1.125-1.125V6.25H8.312ZM12 8h1.118L12 6.778V8ZM6.062 1.125a.813.813 0 0 0 0 1.625h3.875a.813.813 0 0 0 0-1.625H6.063Z"/>
  </g>
  <defs>
    <clipPath id="Paste-16_svg__a">
      <path fill="#fff" d="M0 0h16v16H0z"/>
    </clipPath>
  </defs>
</svg>
