<svg fill="none" viewBox="0 0 24 24" xmlns="http://www.w3.org/2000/svg">
  <path fill="#000" fill-rule="evenodd" d="M3 6.5A4.5 4.5 0 0 1 7.5 2h9A4.5 4.5 0 0 1 21 6.5v5a4.5 4.5 0 0 1-4.5 4.5H13v2.145a2 2 0 1 1-2.604 2.605H2.75a.75.75 0 0 1 0-1.5h7.646a2.007 2.007 0 0 1 1.104-1.105V16h-4A4.5 4.5 0 0 1 3 11.5v-5Zm4.5-3a3 3 0 0 0-3 3v5a3 3 0 0 0 3 3h9a3 3 0 0 0 3-3v-5a3 3 0 0 0-3-3h-9Z" clip-rule="evenodd"/>
  <path fill="#000" d="M16.75 19.25a.75.75 0 1 0 0 1.5h4.5a.75.75 0 1 0 0-1.5h-4.5Z"/>
</svg>
