<svg fill="none" viewBox="0 0 24 24" xmlns="http://www.w3.org/2000/svg">
  <path fill="#000" d="M3.41 6.953c.467-.396 1.09.008 1.09.62 0 .27-.134.52-.32.717A2.486 2.486 0 0 0 3.5 10v5A5.5 5.5 0 0 0 9 20.5h5c.662 0 1.263-.258 1.71-.679.197-.186.446-.321.718-.321.613 0 1.017.625.62 1.092a3.994 3.994 0 0 1-2.842 1.403L14 22H9l-.36-.009a7.001 7.001 0 0 1-6.631-6.63L2 15v-5a3.99 3.99 0 0 1 1.41-3.047Z"/>
  <path fill="#000" fill-rule="evenodd" d="M17.257 2.007A5 5 0 0 1 22 7v6l-.007.257a5 5 0 0 1-4.736 4.736L17 18h-6l-.257-.007a5 5 0 0 1-4.736-4.736L6 13V7a5 5 0 0 1 4.743-4.993L11 2h6l.257.007ZM11 3.5A3.5 3.5 0 0 0 7.5 7v6a3.5 3.5 0 0 0 3.5 3.5h6a3.5 3.5 0 0 0 3.5-3.5V7A3.5 3.5 0 0 0 17 3.5h-6Z" clip-rule="evenodd"/>
  <path fill="#000" fill-opacity=".84" d="M13.99 9.093c.72-.886 1.337-1.236 2.17-1.236 1.369 0 2.266.892 2.266 2.278 0 1.39-.902 2.315-2.25 2.315-.822 0-1.413-.333-2.176-1.23-.714.87-1.359 1.23-2.202 1.23-1.343 0-2.218-.903-2.218-2.278 0-1.39.886-2.315 2.213-2.315.816 0 1.434.344 2.197 1.236Zm2.948 1.042c0-.5-.37-.87-.886-.87-.414 0-.73.214-1.29.886.576.677.903.897 1.322.897.516 0 .854-.365.854-.913Zm-5.876.021c0 .51.37.892.876.892.419 0 .757-.231 1.289-.886-.618-.683-.935-.897-1.305-.897-.505 0-.86.365-.86.891Z"/>
</svg>
