<svg fill="none" viewBox="0 0 24 24" xmlns="http://www.w3.org/2000/svg">
  <path fill="#000" fill-rule="evenodd" d="M7.118 5.324a3.324 3.324 0 1 1 6.551.794h3.464a.75.75 0 0 1 .75.75v3.463A3.328 3.328 0 0 1 22 13.559a3.324 3.324 0 0 1-4.117 3.228v3.463a.75.75 0 0 1-.75.75H7.75A4.75 4.75 0 0 1 3 16.25V6.868a.75.75 0 0 1 .75-.75h3.464a3.329 3.329 0 0 1-.096-.794ZM10.44 3.5a1.824 1.824 0 0 0-1.459 2.917.75.75 0 0 1-.6 1.2H4.5v8.633a3.25 3.25 0 0 0 3.25 3.25h8.633v-3.882a.75.75 0 0 1 1.2-.6 1.823 1.823 0 1 0 0-2.919.75.75 0 0 1-1.2-.6v-3.88H12.5a.75.75 0 0 1-.6-1.2A1.824 1.824 0 0 0 10.44 3.5Z" clip-rule="evenodd"/>
</svg>
