<svg fill="none" viewBox="0 0 24 24" xmlns="http://www.w3.org/2000/svg">
  <path fill="#000" d="M4 5.75A3.75 3.75 0 0 1 7.75 2h4a3.75 3.75 0 0 1 3.355 2.072c.228.455-.155.928-.664.928-.34 0-.634-.224-.824-.507A2.248 2.248 0 0 0 11.75 3.5h-4A2.25 2.25 0 0 0 5.5 5.75v9.245c0 .375.196.677.47.848l.044.027c.406.251.986.61.986 1.073 0 .295-.208.558-.503.556C5.207 17.492 4 16.469 4 14.995V5.75Z"/>
  <path fill="#000" d="M8.5 10.25a3.75 3.75 0 0 1 3.75-3.75h4A3.75 3.75 0 0 1 20 10.25v9.244c0 2.059-2.348 3.235-3.997 2.003l-1.154-.863a1 1 0 0 0-1.197 0l-1.155.863c-1.649 1.232-3.997.056-3.997-2.003V10.25Z"/>
</svg>
