<svg fill="none" viewBox="0 0 24 24" xmlns="http://www.w3.org/2000/svg">
  <path fill="#DDD" d="M17 3.625A4.375 4.375 0 0 1 21.375 8v6.886l-.073-.017c-.404-.086-1.153-.189-1.882-.28-.03-.252-.062-.503-.094-.737a23.036 23.036 0 0 0-.11-.744 4.427 4.427 0 0 0-.137-.61l-.065-.194c-.082-.234-.217-.57-.443-.847-.407-.501-.973-.707-1.571-.707-.374 0-1.01.043-1.509.568-.34.36-.484.835-.565 1.148l-.031.124c-.092.366-.207 1.195-.306 1.999-.732.09-1.485.193-1.89.28l-.11.026c-.298.074-.86.206-1.27.596-.526.498-.569 1.135-.569 1.509 0 .294.027.748.292 1.17a2.746 2.746 0 0 0-1.288 2.205H7A4.375 4.375 0 0 1 2.625 16V8A4.375 4.375 0 0 1 7 3.625h10Z"/>
  <path fill="url(#Identity-Theft-Restoration-Grayscale-Color-24_svg__a)" d="M17.257 3.007A5 5 0 0 1 22 8v7.072c-.228-.09-.442-.14-.59-.177l-.108-.026a10.672 10.672 0 0 0-.552-.098V10.5H3.25V16A3.75 3.75 0 0 0 7 19.75h2.854A2.742 2.742 0 0 0 9.798 21H7a5 5 0 0 1-5-5V8a5 5 0 0 1 5-5h10l.257.007ZM7 4.25A3.75 3.75 0 0 0 3.284 7.5h17.432a3.75 3.75 0 0 0-3.523-3.245L17 4.25H7Z"/>
  <path fill="#888" d="M12.893 16.107c-.714.179-.893.301-.893.893 0 .592.179.714.893.893.422.105 1.78.273 2.82.393.12 1.04.289 2.399.394 2.821.179.714.301.893.893.893.592 0 .714-.179.893-.893.105-.421.273-1.776.392-2.815 1.081-.12 2.5-.292 2.822-.4.536-.178.893-.3.893-.892 0-.592-.179-.714-.893-.893-.421-.105-1.776-.273-2.815-.392-.12-1.081-.292-2.5-.4-2.822-.178-.536-.3-.893-.892-.893-.592 0-.714.179-.893.893-.105.422-.273 1.78-.393 2.82-1.04.12-2.399.289-2.821.394Z"/>
  <path fill="#CCC" d="M14 20.5a1.5 1.5 0 1 1-3 0 1.5 1.5 0 0 1 3 0Z"/>
  <defs>
    <linearGradient id="Identity-Theft-Restoration-Grayscale-Color-24_svg__a" x1="12" x2="12" y1="2.875" y2="21.25" gradientUnits="userSpaceOnUse">
      <stop stop-color="#888"/>
      <stop offset="1" stop-color="#444"/>
    </linearGradient>
  </defs>
</svg>
