<svg fill="none" viewBox="0 0 16 16" xmlns="http://www.w3.org/2000/svg">
  <path fill="#000" d="M8 11a3 3 0 1 0 0-6 3 3 0 0 0 0 6Z"/>
  <path fill="#000" fill-rule="evenodd" d="M8 2.125C3.387 2.125.787 5.76.153 7.815l-.07.228.099.217c.854 1.865 3.175 5.615 7.818 5.615 4.633 0 7.129-3.802 7.834-5.652l.075-.198-.06-.203C15.213 5.684 12.608 2.125 8 2.125Zm0 10.5c-3.701 0-5.703-2.864-6.577-4.664C2.069 6.207 4.276 3.375 8 3.375c3.75 0 5.954 2.803 6.586 4.602-.72 1.694-2.87 4.648-6.586 4.648Z" clip-rule="evenodd"/>
</svg>
