<svg fill="none" viewBox="0 0 16 16" xmlns="http://www.w3.org/2000/svg">
  <g fill="#000" clip-path="url(#History-16_svg__a)">
    <path d="M2.072 4.918a.835.835 0 0 1-.08-.004A6.753 6.753 0 1 1 1.246 8 .623.623 0 1 0 0 8a8 8 0 1 0 1.247-4.29V1.115a.623.623 0 0 0-1.247 0v2.977c0 1.145.928 2.072 2.072 2.072h2.486a.623.623 0 0 0 0-1.246H2.072Z"/>
    <path d="M8.625 3.625a.625.625 0 1 0-1.25 0V8c0 .166.066.325.183.442l2.375 2.375a.625.625 0 1 0 .884-.884L8.625 7.741V3.625Z"/>
  </g>
  <defs>
    <clipPath id="History-16_svg__a">
      <path fill="#fff" d="M0 0h16v16H0z"/>
    </clipPath>
  </defs>
</svg>
