<svg fill="none" viewBox="0 0 24 24" xmlns="http://www.w3.org/2000/svg">
  <path fill="#000" fill-rule="evenodd" d="M5.073 18.583c.349-.403.274-1.016-.125-1.37C3.128 15.6 2 13.367 2 10.9c0-4.918 4.477-8.906 10-8.906S22 5.982 22 10.9c0 3.732-2.576 6.927-6.231 8.252-2.364 1.085-8.181 2.188-11.5 2.758-.831.143-1.365-.825-.813-1.462l1.617-1.864Zm7.31-12.3c-.1-.397-.665-.397-.765 0l-.37 1.484a3.28 3.28 0 0 1-2.387 2.386l-1.483.371c-.398.1-.398.665 0 .764l1.483.37a3.28 3.28 0 0 1 2.386 2.388l.371 1.483c.1.397.665.397.764 0l.37-1.483a3.28 3.28 0 0 1 2.387-2.387l1.484-.37c.397-.1.397-.665 0-.765l-1.484-.37a3.28 3.28 0 0 1-2.386-2.387l-.37-1.483Z" clip-rule="evenodd"/>
</svg>
