<svg fill="none" viewBox="0 0 16 16" xmlns="http://www.w3.org/2000/svg">
  <g fill="#000" clip-path="url(#Sort-16_svg__a)">
    <path d="M8.692 4.817a.625.625 0 1 1-.884-.884l2.314-2.315c.83-.83 2.176-.83 3.006 0l2.314 2.315a.625.625 0 1 1-.884.884L12.25 2.509v11.866a.625.625 0 1 1-1.25 0V2.509L8.692 4.817ZM4.375 1C4.72 1 5 1.28 5 1.625v11.866l2.308-2.308a.625.625 0 1 1 .884.884l-2.314 2.315c-.83.83-2.176.83-3.006 0L.558 12.067a.625.625 0 0 1 .884-.884l2.308 2.308V1.625c0-.345.28-.625.625-.625Z"/>
  </g>
  <defs>
    <clipPath id="Sort-16_svg__a">
      <path fill="#fff" d="M0 0h16v16H0z"/>
    </clipPath>
  </defs>
</svg>
