<svg fill="none" viewBox="0 0 24 24" xmlns="http://www.w3.org/2000/svg">
  <path fill="#000" fill-rule="evenodd" d="M6.004 3.003a3 3 0 0 0-3.004 3V8a3 3 0 0 0 3 3h12a3 3 0 0 0 3-3V6.02a3 3 0 0 0-2.996-3l-12-.017Zm-1.504 3a1.5 1.5 0 0 1 1.502-1.5l12 .016a1.5 1.5 0 0 1 1.498 1.5V8A1.5 1.5 0 0 1 18 9.5H6A1.5 1.5 0 0 1 4.5 8V6.004Zm1.504 7a3 3 0 0 0-3.004 3V18a3 3 0 0 0 3 3h12a3 3 0 0 0 3-3v-1.98a3 3 0 0 0-2.996-3l-12-.017Zm-1.504 3a1.5 1.5 0 0 1 1.502-1.5l12 .016a1.5 1.5 0 0 1 1.498 1.5V18a1.5 1.5 0 0 1-1.5 1.5H6A1.5 1.5 0 0 1 4.5 18v-1.996Z" clip-rule="evenodd"/>
</svg>
