<svg fill="none" viewBox="0 0 16 16" xmlns="http://www.w3.org/2000/svg">
  <path fill="#000" d="M11.933 1.183a.625.625 0 0 1 .884 0l2.75 2.75a.625.625 0 1 1-.884.884L13 3.134v9.732l1.683-1.683a.625.625 0 1 1 .884.884l-2.75 2.75a.625.625 0 0 1-.884 0l-2.75-2.75a.625.625 0 1 1 .884-.884l1.683 1.683V3.134l-1.683 1.683a.625.625 0 1 1-.884-.884l2.75-2.75Z"/>
  <path fill="#000" d="M.625 7a.625.625 0 1 0 0 1.25h7.75a.625.625 0 1 0 0-1.25H.625ZM0 3.625C0 3.28.28 3 .625 3h5.75a.625.625 0 1 1 0 1.25H.625A.625.625 0 0 1 0 3.625ZM.625 11a.625.625 0 1 0 0 1.25h3.75a.625.625 0 1 0 0-1.25H.625Z"/>
</svg>
