<svg fill="none" viewBox="0 0 16 16" xmlns="http://www.w3.org/2000/svg">
  <g fill="#000" clip-path="url(#Sort-Manually-16_svg__a)">
    <path d="M10.497 1.619c.83-.83 2.176-.83 3.006 0l2.314 2.313.08.099a.626.626 0 0 1-.866.866l-.098-.08-2.308-2.308V13.49l2.308-2.308.098-.08a.626.626 0 0 1 .867.867l-.08.098-2.315 2.314c-.83.83-2.176.83-3.006 0l-2.314-2.314-.08-.098a.626.626 0 0 1 .866-.867l.098.08 2.308 2.308V2.509L9.067 4.817l-.098.08a.626.626 0 0 1-.866-.866l.08-.099 2.314-2.313Zm-6.996 9.393a.626.626 0 0 1 0 1.225l-.126.013H.625a.625.625 0 0 1 0-1.25h2.75l.126.012Z"/>
    <path d="M7.501 7.012a.626.626 0 0 1 0 1.225l-.126.013H.625a.625.625 0 0 1 0-1.25h6.75l.126.012Zm-2-4a.626.626 0 0 1 0 1.225l-.126.013H.625a.625.625 0 0 1 0-1.25h4.75l.126.012Z"/>
  </g>
  <defs>
    <clipPath id="Sort-Manually-16_svg__a">
      <path fill="#fff" d="M0 0h16v16H0z"/>
    </clipPath>
  </defs>
</svg>
