<svg fill="none" viewBox="0 0 24 24" xmlns="http://www.w3.org/2000/svg">
  <path fill="#000" fill-rule="evenodd" d="M12 22c5.525 0 10-4.475 10-10S17.525 2 12 2 2 6.475 2 12s4.475 10 10 10Zm1.714-2.184a8 8 0 1 0-4.56-.337 169.7 169.7 0 0 1-1.197-4.564c-.986-3.95-1.72-7.172 1.983-8.177.039-.01.053-.054.024-.078-.427-.389-1.151-.457-1.86-.316a.049.049 0 0 1-.06-.049c0-.01 0-.019.01-.029.17-.238.477-.422.686-.534a1.524 1.524 0 0 0-.506-.277c-.048-.02-.048-.102-.005-.122.005-.005.01-.01.02-.01 1.458-.194 2.988.244 3.741 1.206.01.01.02.014.03.02 2.473.529 2.925 4.032 2.774 5a7.973 7.973 0 0 0 1.953-.482c.622-.238.841-.185.919-.044.082.16-.015.428-.233.676-.413.471-1.162.84-2.479.947-.455.037-.857.02-1.204.004-.657-.028-1.116-.049-1.361.327-.16.248-.034.83 1.239 1.015.909.131 1.732.04 2.332-.027.536-.06.895-.1.977.056.175.336-.83 1.006-2.556 1.02-.131 0-.262-.004-.389-.009-1.069-.053-1.856-.345-2.347-.612a.077.077 0 0 1-.029-.015c-.087-.048-.257.04-.155.224.058.112.37.398.835.646-.048.389.073.986.282 1.667l.074-.014c.035-.007.071-.015.111-.02.423-.068.646.01.773.145.597-.447 1.593-1.078 1.69-.962.486.579.55 1.944.443 2.493-.005.01-.015.02-.034.03-.229.096-1.487-.247-1.487-.427-.049-.896-.215-.978-.41-1.022h-.13c.005.005.01.015.015.024l.044.102c.078.214.199.885.107 1.05-.093.165-.695.248-1.07.253-.369.005-.451-.131-.529-.34-.058-.17-.087-.564-.087-.792a.704.704 0 0 1 .01-.18c-.112.048-.276.16-.33.233-.014.219-.014.569.102.957.059.185-1.264.972-1.45.826-.189-.15-.529-1.627-.383-2.225-.155.014-.282.063-.35.16-.265.367-.011 1.939.327 2.519.19.048.384.09.58.125.42-.165 1.03-.543 1.392-.85.087.12.255.13.461.13.272-.01.651-.048.919-.13.1.234.227.52.348.789Zm.337-11.164-.02-.008a1.283 1.283 0 0 0-.559-.133 1.128 1.128 0 0 0-.583.131c-.038.02-.097-.02-.077-.058.097-.155.31-.277.66-.277.35 0 .516.141.627.292.025.029-.014.068-.048.053Zm.262 1.545c0 .297-.243.54-.544.54a.542.542 0 0 1-.544-.54c0-.296.243-.54.544-.54a.54.54 0 0 1 .544.54ZM9.541 9.94a.63.63 0 0 1 .632.631.63.63 0 0 1-.632.632.63.63 0 0 1-.631-.632.627.627 0 0 1 .631-.631Zm-.66-1.157c-.34.141-.447.297-.515.399-.025.039-.117.034-.117-.01 0-.194.18-.49.559-.632.427-.16.753-.014.899.107.034.025.005.068-.034.059a1.253 1.253 0 0 0-.792.077Zm5.272 1.235a.141.141 0 1 1-.282 0 .141.141 0 0 1 .282 0Zm-4.165.34a.164.164 0 0 1-.165.165.164.164 0 0 1-.165-.165c0-.093.073-.166.165-.166.093 0 .165.073.165.166ZM21 12a9 9 0 1 1-18 0 9 9 0 0 1 18 0Z" clip-rule="evenodd"/>
</svg>
