<svg fill="none" viewBox="0 0 16 16" xmlns="http://www.w3.org/2000/svg">
  <g fill="#000" fill-rule="evenodd" clip-path="url(#Profile-Blocked-16_svg__a)" clip-rule="evenodd">
    <path d="M12.5 9a3.5 3.5 0 1 1 0 7 3.5 3.5 0 0 1 0-7Zm-2.125 2.875a.5.5 0 0 0-.5.5v.25a.5.5 0 0 0 .5.5h4.25a.5.5 0 0 0 .5-.5v-.25a.5.5 0 0 0-.5-.5h-4.25Z"/>
    <path d="M8 0a8 8 0 0 1 7.976 7.375.59.59 0 0 1-.601.625c-.345 0-.622-.28-.653-.624A6.751 6.751 0 0 0 1.25 8a6.72 6.72 0 0 0 1.266 3.934 6.53 6.53 0 0 1 5.046-2.966 3 3 0 1 1 .875 0c.265.017.527.05.783.098a4.77 4.77 0 0 0-.933 1.24 5.19 5.19 0 0 0-4.835 2.68 6.725 6.725 0 0 0 3.924 1.736c.344.031.624.308.624.653a.59.59 0 0 1-.625.6A8 8 0 0 1 8 0Zm0 4.25a1.75 1.75 0 1 0 0 3.5 1.75 1.75 0 0 0 0-3.5Z"/>
  </g>
  <defs>
    <clipPath id="Profile-Blocked-16_svg__a">
      <path fill="#fff" d="M0 0h16v16H0z"/>
    </clipPath>
  </defs>
</svg>
