<svg fill="none" viewBox="0 0 24 24" xmlns="http://www.w3.org/2000/svg">
  <path fill="#000" d="m16.5 4.839-2.72 2.72a.75.75 0 0 1-1.06-1.061l2.762-2.763a2.5 2.5 0 0 1 3.536 0l2.763 2.763a.75.75 0 1 1-1.061 1.06L18 4.838v14.33l2.72-2.72a.75.75 0 0 1 1.06 1.06l-2.762 2.763a2.5 2.5 0 0 1-3.536 0L12.72 17.51a.75.75 0 1 1 1.06-1.061l2.72 2.72V4.838ZM2.75 11.5a.75.75 0 0 0 0 1.5h8.5a.75.75 0 1 0 0-1.5h-8.5ZM2 7.25a.75.75 0 0 1 .75-.75h6.5a.75.75 0 0 1 0 1.5h-6.5A.75.75 0 0 1 2 7.25Zm.75 9.25a.75.75 0 0 0 0 1.5h4.5a.75.75 0 0 0 0-1.5h-4.5Z"/>
</svg>
