<svg fill="none" viewBox="0 0 16 16" xmlns="http://www.w3.org/2000/svg">
  <g fill="#000" clip-path="url(#Favorite-Remove-16_svg__a)">
    <path d="M10.4 2.398a.625.625 0 1 1-1.152.485l-.442-1.047c-.3-.714-1.312-.714-1.612 0L6.16 4.287a1.875 1.875 0 0 1-1.465 1.128l-2.687.381a.875.875 0 0 0-.47 1.51l1.655 1.528.142.129c.08.072.162.145.24.22.172.17.149.44-.023.612l-.018.019c-.269.268-.886.218-1.165-.04L.69 8.225C-.626 7.008.06 4.81 1.834 4.559l2.686-.381a.625.625 0 0 0 .489-.376L6.042 1.35c.73-1.732 3.186-1.732 3.916 0l.442 1.048Zm3.482 2.372c-.365.365-.125.876.343 1.092a.877.877 0 0 1 .236 1.444l-2.045 1.889a1.875 1.875 0 0 0-.582 1.656l.434 2.88a.875.875 0 0 1-1.342.865L9.02 13.36a1.875 1.875 0 0 0-2.04 0l-1.906 1.236a.866.866 0 0 1-.47.143h-.025c-.315.002-.67.003-.89.224-.268.268-.253.717.096.863a2.086 2.086 0 0 0 1.969-.181l1.906-1.236a.625.625 0 0 1 .68 0l1.906 1.236c1.537.996 3.53-.288 3.258-2.1l-.434-2.88a.625.625 0 0 1 .194-.552l2.046-1.89c.975-.9.85-2.34 0-3.128a2.094 2.094 0 0 0-.902-.484.552.552 0 0 0-.526.16Zm-.074-3.462a.625.625 0 1 1 .884.884l-12.5 12.5a.625.625 0 1 1-.884-.884l12.5-12.5Z"/>
  </g>
  <defs>
    <clipPath id="Favorite-Remove-16_svg__a">
      <path fill="#fff" d="M0 0h16v16H0z"/>
    </clipPath>
  </defs>
</svg>
