<svg fill="none" viewBox="0 0 24 24" xmlns="http://www.w3.org/2000/svg">
  <path fill="#000" fill-rule="evenodd" d="M2 8a5 5 0 0 1 5-5h2.46a3.89 3.89 0 0 1 3.147 1.603 2.39 2.39 0 0 0 1.934.985H17a5 5 0 0 1 5 5v3.943a.75.75 0 1 1-1.5 0v-3.943l-.002-.088H3.5V16A3.5 3.5 0 0 0 7 19.5h4.556a.75.75 0 0 1 .488.18c.529.454.208 1.32-.488 1.32H7a5 5 0 0 1-5-5V8Zm1.5 1h16.62A3.5 3.5 0 0 0 17 7.088h-2.46a3.89 3.89 0 0 1-3.146-1.603A2.39 2.39 0 0 0 9.46 4.5H7A3.5 3.5 0 0 0 3.5 8v1Z" clip-rule="evenodd"/>
  <path fill="#000" d="M17.75 13.438a.75.75 0 0 1 .75.75v5.382l2.266-2.006a.75.75 0 0 1 .995 1.122l-3.522 3.119a.746.746 0 0 1-.827.122.746.746 0 0 1-.182-.122l-3.521-3.119a.75.75 0 0 1 .994-1.122L17 19.598v-5.41a.75.75 0 0 1 .75-.75Z"/>
</svg>
