<svg fill="none" viewBox="0 0 20 20" xmlns="http://www.w3.org/2000/svg">
  <circle cx="10" cy="10" r="9" fill="#F9BE1A"/>
  <path fill="#fff" fill-rule="evenodd" d="M14.044 5.008a2.871 2.871 0 0 0-4.093.005.75.75 0 1 0 1.07 1.05 1.371 1.371 0 0 1 1.955-.002l.681.691a1.5 1.5 0 0 1 0 2.107l-1.963 1.99a1.5 1.5 0 0 1-2.136 0l-.274-.278a.75.75 0 0 0-1.068 1.053l.274.278a3 3 0 0 0 4.272 0l1.963-1.99a3 3 0 0 0 0-4.213l-.68-.691ZM5.79 15a3.008 3.008 0 0 0 4.196.001.75.75 0 0 0-1.045-1.076c-.587.57-1.523.57-2.102.003l-.673-.659a1.5 1.5 0 0 1 0-2.143L8.26 9.077a1.5 1.5 0 0 1 2.099 0l.367.36a.75.75 0 1 0 1.05-1.072l-.368-.36a3 3 0 0 0-4.198 0l-2.092 2.05a3 3 0 0 0 0 4.286L5.79 15Z" clip-rule="evenodd"/>
</svg>
