<svg fill="none" viewBox="0 0 24 24" xmlns="http://www.w3.org/2000/svg">
  <path fill="#000" d="M8.5 7.75a.75.75 0 1 0-1.5 0V10a.75.75 0 0 0 1.5 0V7.75Zm9 0a.75.75 0 1 0-1.5 0V10a.75.75 0 0 0 1.5 0V7.75Z"/>
  <path fill="#000" fill-rule="evenodd" d="M5.75 3A3.75 3.75 0 0 0 2 6.75v10.5A3.75 3.75 0 0 0 5.75 21h12.5A3.75 3.75 0 0 0 22 17.25V6.75A3.75 3.75 0 0 0 18.25 3H5.75ZM3.5 6.75A2.25 2.25 0 0 1 5.75 4.5h7.104c-1.12 1.516-2.604 4.252-2.604 7.848 0 .414.336.75.75.75h1.423a32.09 32.09 0 0 0 .194 3.12 5.907 5.907 0 0 1-.617.032c-2.224 0-3.85-1.248-4.748-2.057a.75.75 0 1 0-1.004 1.114c.97.874 2.953 2.443 5.752 2.443.288 0 .569-.017.841-.048.045.235.091.45.138.646.117.495.237.873.34 1.152H5.75a2.25 2.25 0 0 1-2.25-2.25V6.75ZM14.65 19.5h3.6a2.25 2.25 0 0 0 2.25-2.25V6.75a2.25 2.25 0 0 0-2.25-2.25h-3.44a.743.743 0 0 1-.025.026c-.748.76-2.765 3.333-3.01 7.072h1.392a.75.75 0 0 1 .75.75c0 1.424.07 2.588.171 3.53a7.39 7.39 0 0 0 2.632-1.659.75.75 0 0 1 1.06 1.062 8.889 8.889 0 0 1-3.472 2.106c.043.227.087.431.13.615.128.537.252.894.338 1.107a2.811 2.811 0 0 0 .115.252h.001l-.002-.003-.002-.002v-.002h-.001l-.237.146Z" clip-rule="evenodd"/>
</svg>
