<svg fill="none" viewBox="0 0 24 24" xmlns="http://www.w3.org/2000/svg">
  <path fill="#000" d="M4.75 10a.75.75 0 0 1 .75.75V11a6.5 6.5 0 0 0 5.37 6.4 5.498 5.498 0 0 0 1.88 3.092v.008h.01c.598.492 1.301.86 2.071 1.065a.225.225 0 0 1 .169.216.219.219 0 0 1-.219.219h-8.03a.75.75 0 0 1 0-1.5H11v-1.564A8 8 0 0 1 4 11v-.25a.75.75 0 0 1 .75-.75Z"/>
  <path fill="#000" fill-rule="evenodd" d="M16.25 12.25a4 4 0 0 1 3.308 6.247l2.223 2.223.051.056a.75.75 0 0 1-1.055 1.056l-.057-.052-2.223-2.222a4 4 0 1 1-2.247-7.308Zm0 1.5a2.5 2.5 0 1 0 0 5 2.5 2.5 0 0 0 0-5Z" clip-rule="evenodd"/>
  <path fill="#000" d="M12 2.035A3.965 3.965 0 0 1 15.965 6v4.757a5.503 5.503 0 0 0-5.026 4.062A3.965 3.965 0 0 1 8.035 11V6A3.965 3.965 0 0 1 12 2.035ZM19.25 10a.75.75 0 0 1 .75.75V11c0 .391-.029.775-.083 1.151a5.502 5.502 0 0 0-1.424-.922c.003-.076.007-.152.007-.229v-.25a.75.75 0 0 1 .75-.75Z"/>
</svg>
