<svg fill="none" viewBox="0 0 16 16" xmlns="http://www.w3.org/2000/svg">
  <path fill="#000" fill-rule="evenodd" d="M6 6.75a2.25 2.25 0 1 0 0-4.5 2.25 2.25 0 0 0 0 4.5ZM6 8a3.5 3.5 0 1 0 0-7 3.5 3.5 0 0 0 0 7Zm0 0c-1.4 0-2.648.707-3.64 1.814-.99 1.105-1.754 2.639-2.215 4.403A.625.625 0 0 0 .75 15h10.5a.625.625 0 0 0 .605-.783c-.461-1.764-1.226-3.298-2.216-4.403C8.65 8.707 7.4 8 6 8Zm4.413 5.75c-.423-1.271-1.015-2.332-1.705-3.102C7.883 9.726 6.948 9.25 6 9.25c-.949 0-1.883.476-2.708 1.398-.69.77-1.282 1.83-1.705 3.102h8.826ZM15.25 15h-2.5c.135-.325.163-.688.072-1.036a14.636 14.636 0 0 0-.057-.214h1.648c-.423-1.271-1.015-2.332-1.705-3.102-.675-.755-1.423-1.21-2.192-1.35a7.352 7.352 0 0 0-1.313-1.22C9.463 8.027 9.728 8 10 8c1.4 0 2.648.707 3.64 1.814.99 1.105 1.754 2.639 2.215 4.403a.625.625 0 0 1-.605.783Zm-5-7c-.416 0-.815-.072-1.185-.206.334-.31.62-.67.847-1.07a2.25 2.25 0 1 0 0-4.45 4.519 4.519 0 0 0-.847-1.068A3.5 3.5 0 1 1 10.25 8Z" clip-rule="evenodd"/>
</svg>
