<svg fill="none" viewBox="0 0 16 16" xmlns="http://www.w3.org/2000/svg">
  <path fill="#000" d="M3.125 3.25c-1.036 0-1.875.84-1.875 1.875v5.75c0 1.036.84 1.875 1.875 1.875h4.113c.29 0 .528.235.574.522.06.368-.205.728-.578.728H3.125A3.125 3.125 0 0 1 0 10.875v-5.75C0 3.399 1.4 2 3.125 2h5.75A3.125 3.125 0 0 1 12 5.113l2.125-1.227A1.25 1.25 0 0 1 16 4.97v3.028c0 .459-.6.713-.99.47a.539.539 0 0 1-.26-.452V4.97l-3.063 1.768a.625.625 0 0 1-.937-.541V5.125c0-1.036-.84-1.875-1.875-1.875h-5.75Z"/>
  <path fill="#000" fill-rule="evenodd" d="M16 12.5a3.5 3.5 0 1 1-7 0 3.5 3.5 0 0 1 7 0Zm-6-.5h5v1h-5v-1Z" clip-rule="evenodd"/>
</svg>
