<svg fill="none" viewBox="0 0 16 16" xmlns="http://www.w3.org/2000/svg">
  <path fill="#000" d="M12 1a4 4 0 0 1 4 4v4.646a.625.625 0 0 1-1.25 0V5A2.75 2.75 0 0 0 12 2.25H4A2.75 2.75 0 0 0 1.25 5v5h9.035c.156 0 .275.14.25.294a.263.263 0 0 1-.243.217c-.688.051-1.733.285-2.221.892-.236.294-.54.597-.917.597H1.437A2.751 2.751 0 0 0 4 13.75h1.625a.625.625 0 1 1 0 1.25H4a4 4 0 0 1-4-4V5a4 4 0 0 1 4-4h8Z"/>
  <path fill="#000" d="M3.673 5A.673.673 0 0 0 3 5.673v1.654c0 .372.301.673.673.673h2.654A.673.673 0 0 0 7 7.327V5.673A.673.673 0 0 0 6.327 5H3.673Zm9.452 4.625C13 9.125 12.915 9 12.5 9c-.414 0-.5.125-.625.625-.074.296-.191 1.247-.275 1.975-.728.084-1.68.201-1.975.275-.5.125-.625.21-.625.625 0 .414.125.5.625.625.295.074 1.243.191 1.97.275.085.756.205 1.75.28 1.975.125.375.21.625.625.625.414 0 .5-.125.625-.625.074-.295.191-1.243.275-1.97.756-.085 1.75-.205 1.975-.28.375-.125.625-.21.625-.625 0-.414-.125-.5-.625-.625-.296-.074-1.247-.191-1.975-.275-.084-.728-.201-1.68-.275-1.975ZM8.25 15.25a.75.75 0 1 0 0-1.5.75.75 0 0 0 0 1.5Z"/>
</svg>
