<svg fill="none" viewBox="0 0 16 16" xmlns="http://www.w3.org/2000/svg">
  <g fill="#000" clip-path="url(#Sync-16_svg__a)">
    <path d="M6.78 1.361a6.75 6.75 0 0 1 7.136 3.389h-2.541a.625.625 0 1 0 0 1.25h4c.345 0 .625-.28.625-.625v-4.5a.625.625 0 1 0-1.25 0v2.831A8 8 0 0 0 .04 7.198a.625.625 0 0 0 1.244.125 6.75 6.75 0 0 1 5.495-5.962Zm2.44 13.278a6.75 6.75 0 0 1-7.136-3.389h2.541a.625.625 0 1 0 0-1.25h-4a.625.625 0 0 0-.625.625v4.5a.625.625 0 1 0 1.25 0v-2.831a8 8 0 0 0 14.71-3.492.625.625 0 1 0-1.244-.125 6.75 6.75 0 0 1-5.495 5.962Z"/>
  </g>
  <defs>
    <clipPath id="Sync-16_svg__a">
      <path fill="#fff" d="M0 0h16v16H0z"/>
    </clipPath>
  </defs>
</svg>
