<svg fill="none" viewBox="0 0 16 16" xmlns="http://www.w3.org/2000/svg">
  <g fill="#000" clip-path="url(#Sync-16_svg__a)">
    <path d="M15.4 8.118a.625.625 0 0 1 .56.684l-.04.323a8 8 0 0 1-2.037 4.297l-.225.235a8.002 8.002 0 0 1-4.212 2.212l-.32.052a8 8 0 0 1-4.695-.76l-.287-.152a7.999 7.999 0 0 1-2.894-2.716v2.833a.625.625 0 0 1-1.25 0v-3C0 10.952.951 10 2.125 10h2.5a.625.625 0 1 1 0 1.25h-2.5a.93.93 0 0 0-.041 0l.007.013a6.75 6.75 0 0 0 2.655 2.65l.242.128a6.75 6.75 0 0 0 3.962.641l.27-.044a6.75 6.75 0 0 0 3.553-1.866l.19-.197a6.752 6.752 0 0 0 1.72-3.627l.033-.272a.625.625 0 0 1 .684-.56ZM6.874.08a8 8 0 0 1 4.695.76l.287.15a8.001 8.001 0 0 1 2.894 2.718V.876a.625.625 0 1 1 1.25 0v3A2.125 2.125 0 0 1 13.875 6h-2.5a.625.625 0 0 1 0-1.25h2.5l.04-.003-.006-.012a6.752 6.752 0 0 0-2.655-2.65l-.242-.127a6.751 6.751 0 0 0-3.962-.642l-.27.044a6.75 6.75 0 0 0-3.553 1.866l-.19.197a6.753 6.753 0 0 0-1.753 3.899.625.625 0 0 1-1.244-.125 8.002 8.002 0 0 1 2.077-4.62l.225-.235A8.002 8.002 0 0 1 6.554.132l.32-.052Z"/>
  </g>
  <defs>
    <clipPath id="Sync-16_svg__a">
      <path fill="#fff" d="M0 0h16v16H0z"/>
    </clipPath>
  </defs>
</svg>
