<svg fill="none" viewBox="0 0 24 24" xmlns="http://www.w3.org/2000/svg">
  <path fill="#000" fill-rule="evenodd" d="m16.102 20.975-.04-.006c-3.152-.475-6.38-2.33-8.808-4.776C4.834 13.757 3 10.521 3 7.143c0-1.81 1.44-2.964 2.344-3.575.313-.212.718-.443 1.194-.53A2.15 2.15 0 0 1 8.03 3.3c.35.202.625.483.8.665.096.1.172.183.247.264.108.116.21.227.363.381.367.373.726.755.993 1.14.276.397.545.924.554 1.577.01.656-.246 1.196-.524 1.61a7.558 7.558 0 0 1-.826.99c.043.087.102.192.184.316.412.624 1.104 1.333 1.808 2.046.609.618 1.378 1.243 2.031 1.601.19.104.34.168.447.206.3-.3.603-.58.906-.8.397-.286.94-.575 1.622-.57.675.007 1.212.301 1.598.582.38.275.763.646 1.14 1.029.344.348.65.672.89.975.235.295.482.657.621 1.089.352 1.087-.166 1.925-.51 2.413-.52.738-1.135 1.335-1.876 1.72a4.164 4.164 0 0 1-2.355.445l-.04-.004Zm.183-1.49c1.08.103 2.02-.34 2.862-1.535.602-.853.505-1.194-.841-2.56-1.516-1.535-1.853-1.567-3.368 0-.841.872-3.03-.682-4.377-2.047l-.006-.006c-1.346-1.365-3.228-3.272-2.183-4.26 1.516-1.536 1.459-1.935 0-3.413-.159-.161-.297-.31-.421-.443-.663-.712-.916-.985-1.767-.41-.9.607-1.684 1.365-1.684 2.331 0 5.693 6.255 11.51 11.785 12.344Z" clip-rule="evenodd"/>
</svg>
