<svg fill="none" viewBox="0 0 16 16" xmlns="http://www.w3.org/2000/svg">
  <g fill="#000" clip-path="url(#Sort-Descending-16_svg__a)">
    <path d="M12 1c.302 0 .554.214.612.499l.013.126V13.49l2.308-2.307.098-.08a.626.626 0 0 1 .867.866l-.08.098-2.315 2.314c-.83.83-2.176.83-3.006 0l-2.314-2.314-.08-.098a.626.626 0 0 1 .866-.867l.098.08 2.308 2.308V1.625c0-.345.28-.625.625-.625ZM4.375 11a.625.625 0 1 1 0 1.25H.625a.625.625 0 1 1 0-1.25h3.75Zm2.126-3.987a.625.625 0 0 1 0 1.224l-.126.013H.625a.625.625 0 1 1 0-1.25h5.75l.126.013Zm2-4a.625.625 0 0 1 0 1.224l-.126.013H.625a.625.625 0 1 1 0-1.25h7.75l.126.013Z"/>
  </g>
  <defs>
    <clipPath id="Sort-Descending-16_svg__a">
      <path fill="#fff" d="M0 0h16v16H0z"/>
    </clipPath>
  </defs>
</svg>
