<svg fill="none" viewBox="0 0 24 24" xmlns="http://www.w3.org/2000/svg">
  <path fill="#000" d="M10.268 2.025a.752.752 0 0 1 .684.157c1.644 1.418 1.933 3.454 2.18 4.87.13.744.213 2.08 1.199 2.163.745.062 1.148-.348 1.297-1.048.119-.555.066-1.1.022-1.656a.75.75 0 0 1 1.323-.482 15.615 15.615 0 0 1 2.472 4.042c.325.784-.532 1.535-1.377 1.455a5.999 5.999 0 0 0-5.818 3.068 19.28 19.28 0 0 1-.25-.366c-.395.599-.81 1.142-1.13 1.613-.547.806-.87 1.458-.87 2.159 0 .793.236 1.376.573 1.752.33.369.806.59 1.41.59.08 0 .155-.004.227-.01.089.165.185.325.287.48.315.474.055 1.188-.513 1.188-3.323 0-6.005-1.416-7.42-3.67-1.42-2.265-1.477-5.243.186-8.168.853-1.439 1.861-2.757 2.872-4.087.923-1.215 1.69-2.317 2.132-3.574a.773.773 0 0 1 .514-.476ZM14.435 2a.751.751 0 0 1 .708.548l.072.335c.046.162.138.245.286.327.48.298.444 1.033-.04 1.295-.279.15-.558.084-.822-.057a1.784 1.784 0 0 1-.687-.705c-.16-.295-.225-.616-.28-.942A.76.76 0 0 1 14.434 2Z"/>
  <path fill="#000" fill-rule="evenodd" d="M17.5 13a4.5 4.5 0 1 1 0 9 4.5 4.5 0 0 1 0-9Zm-2.25 3.75a.5.5 0 0 0-.5.5v.5a.5.5 0 0 0 .5.5h4.5a.5.5 0 0 0 .5-.5v-.5a.5.5 0 0 0-.5-.5h-4.5Z" clip-rule="evenodd"/>
</svg>
