<svg fill="none" viewBox="0 0 24 24" xmlns="http://www.w3.org/2000/svg">
  <path fill="#000" fill-rule="evenodd" d="M10 2c-2.056 0-3.947.258-5.349.693-.696.216-1.314.489-1.775.827-.25.183-.494.417-.661.705A.748.748 0 0 0 2 4.75v4.665c0 .487.272.85.577 1.105a.75.75 0 0 0-.577.73v2.963c0 .34.144.622.31.83a2 2 0 0 0 .225.238A.75.75 0 0 0 2 16v2.526c0 .627.427 1.13.837 1.476.445.373 1.05.714 1.751 1.003C5.995 21.584 7.905 22 10 22a15.24 15.24 0 0 0 4.43-.644 11.037 11.037 0 0 0-.915-1.299c-1.02.268-2.223.443-3.515.443-1.909 0-3.624-.382-4.84-.883-.612-.251-1.068-.52-1.358-.764-.233-.196-.287-.313-.299-.338l-.003-.006V16c0-.04-.003-.08-.01-.119.347.16.742.304 1.17.431C6.054 16.725 7.939 17 10 17c.38 0 .752-.01 1.117-.027a8.04 8.04 0 0 1-.744-1.476c-.123.002-.248.003-.373.003-1.942 0-3.681-.261-4.913-.626-.621-.184-1.077-.384-1.361-.567a1.164 1.164 0 0 1-.226-.178V11.25a.75.75 0 0 0-.03-.208c.36.153.774.285 1.22.398 1.388.35 3.265.56 5.31.56h.174a6.452 6.452 0 0 1 .564-1.51c-.242.007-.488.01-.738.01-1.958 0-3.706-.202-4.942-.515-.624-.158-1.075-.333-1.353-.5a1.028 1.028 0 0 1-.205-.15v-2.48a7.68 7.68 0 0 0 1.151.452c1.402.435 3.293.693 5.35.693 1.252 0 2.444-.096 3.502-.269a6.463 6.463 0 0 1 2.667-.723c.114-.049.224-.1.33-.152V7c.517 0 1.019.06 1.5.174V4.75a.748.748 0 0 0-.214-.525 2.394 2.394 0 0 0-.662-.705c-.46-.338-1.078-.611-1.775-.827C13.947 2.258 12.056 2 10 2ZM3.764 5.271c-.203-.149-.251-.243-.262-.271.011-.028.059-.122.262-.271.273-.2.716-.413 1.332-.604C6.318 3.746 8.052 3.5 10 3.5s3.682.246 4.905.625c.615.191 1.059.403 1.332.604.203.149.25.243.261.271-.01.028-.058.122-.261.271-.273.2-.717.413-1.332.604-1.223.379-2.957.625-4.905.625-1.948 0-3.682-.246-4.904-.625-.616-.191-1.059-.403-1.332-.604Z" clip-rule="evenodd"/>
  <path fill="#000" fill-rule="evenodd" d="M11 13.5a5.5 5.5 0 0 1 11 0c0 1.722-1.022 3.139-1.972 4.316-.204.253-.409.5-.608.74-.8.964-1.535 1.85-2.015 2.87a1 1 0 0 1-1.81 0c-.48-1.02-1.215-1.906-2.014-2.87-.2-.24-.404-.487-.609-.74C12.022 16.639 11 15.222 11 13.5Zm5.5 2a2 2 0 1 0 0-4 2 2 0 0 0 0 4Z" clip-rule="evenodd"/>
</svg>
