<svg fill="none" viewBox="0 0 16 16" xmlns="http://www.w3.org/2000/svg">
  <path fill="#000" fill-rule="evenodd" d="M4 2a4 4 0 0 0-4 4v4a4 4 0 0 0 4 4h3.125a.625.625 0 1 0 0-1.25H4A2.75 2.75 0 0 1 1.25 10V6c0-.57.173-1.098.47-1.537l4.36 3.396c.95.74 2.22.857 3.272.352a3.757 3.757 0 0 1 2.136-1.573l2.793-2.175c.296.439.469.968.469 1.537v.753c0 .313.152.6.375.819.236.231.875.058.875-.273V6a4 4 0 0 0-4-4H4ZM2.65 3.604c.399-.226.86-.354 1.35-.354h8c.49 0 .951.128 1.35.354L9.152 6.873a1.875 1.875 0 0 1-2.304 0L2.65 3.603Z" clip-rule="evenodd"/>
  <path fill="#000" fill-rule="evenodd" d="M10 10.25a2.5 2.5 0 0 1 5 0V11h.148c.47 0 .852.382.852.852v3.296c0 .47-.382.852-.852.852H9.852A.852.852 0 0 1 9 15.148v-3.296c0-.47.382-.852.852-.852H10v-.75Zm3.75 0V11h-2.5v-.75a1.25 1.25 0 1 1 2.5 0Z" clip-rule="evenodd"/>
</svg>
