<svg fill="none" viewBox="0 0 16 16" xmlns="http://www.w3.org/2000/svg">
  <path fill="#000" d="M3 4.625C3 4.28 3.28 4 3.625 4h8.75a.625.625 0 1 1 0 1.25h-8.75A.625.625 0 0 1 3 4.625Z"/>
  <path fill="#000" fill-rule="evenodd" d="M4.25 7C3.56 7 3 7.56 3 8.25v2.5c0 .69.56 1.25 1.25 1.25h2.5C7.44 12 8 11.44 8 10.75v-2.5C8 7.56 7.44 7 6.75 7h-2.5Zm0 1.25h2.5v2.5h-2.5v-2.5Z" clip-rule="evenodd"/>
  <path fill="#000" fill-rule="evenodd" d="M4.625 0c.345 0 .625.28.625.625V1h5.5V.625a.625.625 0 1 1 1.25 0V1a4 4 0 0 1 4 4v6a4 4 0 0 1-4 4H4a4 4 0 0 1-4-4V5a4 4 0 0 1 4-4V.625C4 .28 4.28 0 4.625 0Zm6.125 2.25v.125a.625.625 0 1 0 1.25 0V2.25A2.75 2.75 0 0 1 14.75 5v6A2.75 2.75 0 0 1 12 13.75H4A2.75 2.75 0 0 1 1.25 11V5A2.75 2.75 0 0 1 4 2.25v.125a.625.625 0 1 0 1.25 0V2.25h5.5Z" clip-rule="evenodd"/>
</svg>
