<svg fill="none" viewBox="0 0 24 24" xmlns="http://www.w3.org/2000/svg">
  <path fill="#000" d="M15.513 13.142a4.624 4.624 0 0 1 2.336-.368l.34.048c.787.14 1.526.483 2.144.997l.256.23a4.625 4.625 0 0 1 1.224 2.023l.085.333a4.64 4.64 0 0 1-.02 2.031l-.093.332a4.627 4.627 0 0 1-3.69 3.175l-.34.041a4.626 4.626 0 0 1-2.634-.57.75.75 0 0 1 .73-1.31 3.127 3.127 0 0 0 1.781.385l.23-.027a3.125 3.125 0 0 0 2.493-2.146l.062-.223c.107-.451.111-.92.014-1.373l-.058-.225a3.125 3.125 0 0 0-.826-1.367l-.173-.155a3.126 3.126 0 0 0-1.449-.674l-.23-.032a3.127 3.127 0 0 0-1.579.248l-.208.101a3.124 3.124 0 0 0-1.074.944h.416a.75.75 0 0 1 0 1.5h-2.5a.75.75 0 0 1-.75-.75v-2.56a.75.75 0 0 1 1.5 0v1.102a4.625 4.625 0 0 1 1.703-1.561l.31-.15ZM17 3a5 5 0 0 1 5 5v2.25a.75.75 0 0 1-.75.75"/>
</svg>
