<svg fill="none" viewBox="0 0 16 16" xmlns="http://www.w3.org/2000/svg">
  <g clip-path="url(#Send-Plane-16_svg__a)">
    <path fill="#000" d="M15.065 6.437c1.285.64 1.285 2.485 0 3.126l-.063.03-11.56 5.248A1.75 1.75 0 0 1 .97 13.307l-.001-.06v-3.74c0-.297.208-.553.498-.613L5.79 8l-4.323-.895a.625.625 0 0 1-.498-.612v-3.74a1.75 1.75 0 0 1 2.473-1.594l11.56 5.248.063.03Zm-.544 2a.5.5 0 0 0 0-.875l-.036-.017-11.56-5.248a.5.5 0 0 0-.706.455v3.232l5.008 1.037.049.01c.998.253.997 1.685 0 1.937l-.05.011-5.007 1.036v3.267a.5.5 0 0 0 .706.421l11.56-5.248.036-.017Z"/>
  </g>
  <defs>
    <clipPath id="Send-Plane-16_svg__a">
      <path fill="#fff" d="M0 0h16v16H0z"/>
    </clipPath>
  </defs>
</svg>
