<svg fill="none" viewBox="0 0 16 16" xmlns="http://www.w3.org/2000/svg">
  <g clip-path="url(#Send-Plane-16_svg__a)">
    <path fill="#000" fill-rule="evenodd" d="M14.485 8.454a.5.5 0 0 0 0-.91L2.925 2.296a.5.5 0 0 0-.706.455v3.232L7.227 7.02c1.063.22 1.063 1.738 0 1.958l-5.008 1.036v3.233a.5.5 0 0 0 .706.455l11.56-5.248Zm.517-2.048c1.368.62 1.368 2.565 0 3.187L3.442 14.84a1.75 1.75 0 0 1-2.473-1.593V9.505c0-.296.208-.552.498-.612L5.79 8l-4.323-.895a.625.625 0 0 1-.498-.612v-3.74a1.75 1.75 0 0 1 2.473-1.594l11.56 5.248Z" clip-rule="evenodd"/>
  </g>
  <defs>
    <clipPath id="Send-Plane-16_svg__a">
      <path fill="#fff" d="M0 0h16v16H0z"/>
    </clipPath>
  </defs>
</svg>
