<svg fill="none" viewBox="0 0 24 24" xmlns="http://www.w3.org/2000/svg">
  <path fill="#000" fill-rule="evenodd" d="M12 2c-2.056 0-3.947.258-5.349.693-.696.216-1.314.489-1.775.827-.25.183-.494.417-.661.705A.748.748 0 0 0 4 4.75v4.665c0 .487.272.85.577 1.105a.75.75 0 0 0-.577.73v2.963c0 .34.144.622.31.83a2 2 0 0 0 .225.238A.75.75 0 0 0 4 16v2.526c0 .627.427 1.13.837 1.476.445.373 1.05.714 1.751 1.003C7.995 21.584 9.905 22 12 22c2.095 0 4.005-.416 5.412-.995.7-.289 1.306-.63 1.751-1.003.41-.345.837-.849.837-1.476V16a.75.75 0 0 0-.534-.719c.081-.073.157-.152.224-.237.166-.21.31-.491.31-.831V11.25a.75.75 0 0 0-.576-.73c.304-.256.576-.618.576-1.105V4.75a.748.748 0 0 0-.214-.525 2.394 2.394 0 0 0-.662-.705c-.46-.338-1.078-.611-1.775-.827C15.947 2.258 14.056 2 12 2Zm6.5 4.856a7.68 7.68 0 0 1-1.15.451C15.946 7.742 14.055 8 12 8c-2.056 0-3.947-.258-5.349-.693a7.68 7.68 0 0 1-1.15-.451v2.48c.027.028.086.079.204.15.278.166.729.341 1.353.5 1.236.312 2.984.514 4.942.514 1.959 0 3.707-.202 4.943-.515.623-.158 1.075-.333 1.352-.5a.99.99 0 0 0 .205-.15v-2.48Zm.03 4.186c-.36.153-.773.285-1.22.398-1.387.35-3.264.56-5.31.56-2.045 0-3.922-.21-5.31-.56a8.412 8.412 0 0 1-1.22-.398.75.75 0 0 1 .03.208v2.879c.036.039.105.1.226.178.284.183.74.383 1.36.567 1.233.365 2.972.626 4.914.626 1.942 0 3.682-.261 4.914-.626.62-.184 1.077-.384 1.36-.567.122-.078.19-.14.226-.178V11.25a.75.75 0 0 1 .03-.208ZM5.764 5.272c-.203-.15-.251-.244-.262-.272.011-.028.059-.122.262-.271.273-.2.716-.413 1.332-.604C8.318 3.746 10.052 3.5 12 3.5s3.682.246 4.904.625c.616.191 1.06.403 1.333.604.203.149.25.243.261.271-.01.028-.058.122-.261.271-.273.2-.717.413-1.332.604-1.223.379-2.957.625-4.905.625-1.948 0-3.682-.246-4.904-.625-.616-.191-1.059-.403-1.332-.604ZM5.5 16c0-.04-.003-.08-.01-.119.347.16.742.304 1.17.431C8.054 16.725 9.939 17 12 17s3.948-.275 5.34-.688c.428-.127.824-.27 1.17-.43a.75.75 0 0 0-.01.118v2.51l-.003.005c-.012.025-.065.142-.299.338-.289.243-.745.513-1.357.764-1.217.501-2.932.883-4.84.883-1.91 0-3.625-.382-4.842-.883-.611-.251-1.067-.52-1.357-.764-.233-.196-.287-.313-.299-.338l-.003-.006V16Z" clip-rule="evenodd"/>
</svg>
