<svg fill="none" viewBox="0 0 24 24" xmlns="http://www.w3.org/2000/svg">
  <path fill="#000" fill-rule="evenodd" d="M13.945 2.805c.34.34.58.759.706 1.214a7.013 7.013 0 0 1 4.36 6.481v.546c.001.473.121.938.35 1.351l1.278 2.32C21.7 16.642 20.308 19 18.11 19h-2.435a3.755 3.755 0 0 1-2.239 2.715A3.75 3.75 0 0 1 8.326 19H5.891c-2.198 0-3.59-2.358-2.53-4.283l1.28-2.32c.227-.413.347-.878.348-1.35V10.5a7.013 7.013 0 0 1 4.36-6.481 2.75 2.75 0 0 1 4.596-1.214ZM9.879 19a2.235 2.235 0 0 0 .53.841A2.248 2.248 0 0 0 14.122 19H9.879Zm-3.925-5.878-1.279 2.32c-.51.924.16 2.058 1.216 2.058H18.11a1.389 1.389 0 0 0 1.216-2.059l-1.278-2.32a4.305 4.305 0 0 1-.535-2.072l-.001-.547a5.51 5.51 0 0 0-11.021 0l-.001.547a4.307 4.307 0 0 1-.535 2.073Z" clip-rule="evenodd"/>
</svg>
