<svg fill="none" viewBox="0 0 20 20" xmlns="http://www.w3.org/2000/svg">
  <g clip-path="url(#Shield-20_svg__a)">
    <path fill="#000" fill-rule="evenodd" d="M8.352 1.63A2.312 2.312 0 0 1 9.997.967a2.31 2.31 0 0 1 1.642.672c.78.796 1.47 1.22 2.173 1.439.703.218 1.543.266 2.699.119a2.365 2.365 0 0 1 1.711.44c.49.368.804.93.81 1.554.036 4.32-.595 7.117-1.942 9.133-1.423 2.127-3.542 3.201-5.74 4.315l-.275.14a2.4 2.4 0 0 1-2.15 0l-.275-.14c-2.198-1.114-4.317-2.188-5.74-4.315C1.563 12.308.932 9.51.97 5.19c.005-.623.319-1.185.808-1.553a2.364 2.364 0 0 1 1.71-.441c1.163.147 2.005.09 2.708-.136.701-.224 1.384-.652 2.157-1.43Zm2.38 1.175v14.504c2.229-1.13 3.97-2.05 5.14-3.8 1.106-1.655 1.73-4.1 1.694-8.305a.507.507 0 0 0-.224-.395.9.9 0 0 0-.646-.158c-1.278.162-2.346.128-3.318-.174-.937-.29-1.786-.829-2.645-1.672ZM9.268 17.309V2.787c-.85.83-1.691 1.372-2.625 1.67-.973.31-2.045.357-3.339.194a.9.9 0 0 0-.645.159.507.507 0 0 0-.224.394c-.036 4.205.588 6.65 1.694 8.305 1.17 1.75 2.911 2.67 5.14 3.8Z" clip-rule="evenodd"/>
  </g>
  <defs>
    <clipPath id="Shield-20_svg__a">
      <path fill="#fff" d="M0 0h20v20H0z"/>
    </clipPath>
  </defs>
</svg>
