<svg fill="none" viewBox="0 0 24 24" xmlns="http://www.w3.org/2000/svg">
  <path fill="#FFD65C" d="M15 2.625a6.375 6.375 0 1 1-1.641 12.537c-.38-.101-.794-.018-1.07.262l-2.55 2.582a1.24 1.24 0 0 1-.883.369H7.87a.745.745 0 0 0-.745.745v.764a1.49 1.49 0 0 1-1.49 1.491H4.612a1.987 1.987 0 0 1-1.987-1.987v-.532c0-.789.312-1.545.868-2.103l5.076-5.1c.273-.274.355-.68.258-1.054A6.375 6.375 0 0 1 15 2.625Zm.5 4.042a1.833 1.833 0 1 0 0 3.667 1.833 1.833 0 0 0 0-3.667Z"/>
  <path fill="url(#Key-Color-24_svg__a)" d="M20.75 9a5.75 5.75 0 0 0-5.676-5.75H15A5.75 5.75 0 0 0 9.25 9v.093c.008.435.063.858.16 1.263l.022.087.013.052c.12.524.012 1.12-.392 1.556l-.041.043-5.076 5.1a2.356 2.356 0 0 0-.686 1.662v.532c0 .752.61 1.362 1.362 1.362h1.023a.865.865 0 0 0 .865-.866v-.764c0-.757.613-1.37 1.37-1.37h1.016a.617.617 0 0 0 .387-.162l.022-.021 2.55-2.582.043-.043c.455-.428 1.087-.529 1.631-.384l.089.022c.445.111.911.17 1.392.17h.074A5.75 5.75 0 0 0 20.75 9Zm-4.043-.562a1.208 1.208 0 1 0 .001.062l-.001-.062Zm5.292.652A7 7 0 0 1 15.091 16H15c-.583 0-1.15-.072-1.694-.207l-.108-.027c-.198-.053-.37.002-.464.097l-2.55 2.582c-.34.344-.8.542-1.281.554L8.856 19H7.87a.12.12 0 0 0-.12.12v.764A2.115 2.115 0 0 1 5.635 22H4.612A2.612 2.612 0 0 1 2 19.388v-.532c0-.954.378-1.868 1.05-2.544l5.076-5.1.017-.018a.485.485 0 0 0 .08-.439l-.027-.105A7.01 7.01 0 0 1 8 9.113V9a7 7 0 0 1 7-7h.09A7 7 0 0 1 22 9v.09Zm-4.04-.59a2.458 2.458 0 1 1-4.917 0 2.458 2.458 0 0 1 4.916 0Z"/>
  <defs>
    <linearGradient id="Key-Color-24_svg__a" x1="12" x2="12" y1="2.75" y2="21.25" gradientUnits="userSpaceOnUse">
      <stop stop-color="#C18010"/>
      <stop offset="1" stop-color="#92540C"/>
    </linearGradient>
  </defs>
</svg>
