<svg fill="none" viewBox="0 0 24 24" xmlns="http://www.w3.org/2000/svg">
  <path fill="#FFD65C" d="M15 2.75a6.25 6.25 0 1 1-1.548 12.307c-.378-.097-.787-.012-1.06.265l-2.527 2.559a1.245 1.245 0 0 1-.884.369h-.986a.745.745 0 0 0-.745.745v.764a1.49 1.49 0 0 1-1.49 1.491H4.737a1.987 1.987 0 0 1-1.987-1.987v-.532c0-.789.312-1.545.868-2.103l5.053-5.077c.27-.271.354-.673.262-1.045A6.25 6.25 0 0 1 15 2.75Zm.5 3.917a1.833 1.833 0 1 0 0 3.667 1.833 1.833 0 0 0 0-3.667Z"/>
  <path fill="url(#Key-Color-24_svg__a)" d="M20.5 9a5.5 5.5 0 0 0-5.358-5.498L15 3.5A5.5 5.5 0 0 0 9.5 9v.086c.007.427.062.842.16 1.24l.014.055c.12.554.006 1.186-.427 1.653l-.044.046-5.053 5.077a2.23 2.23 0 0 0-.65 1.574v.532c0 .683.554 1.237 1.237 1.237H5.76a.74.74 0 0 0 .74-.74v-.765c0-.826.67-1.495 1.495-1.495h1.011a.493.493 0 0 0 .325-.146l2.526-2.559.047-.045c.487-.458 1.159-.567 1.733-.42l.082.02c.41.098.84.15 1.281.15l.142-.002A5.5 5.5 0 0 0 20.5 9Zm-3.918-.556a1.083 1.083 0 1 0 .001.056l-.001-.056Zm5.417.646A7 7 0 0 1 15.091 16H15c-.56 0-1.106-.066-1.63-.19l-.103-.027c-.153-.038-.27.002-.33.055l-.012.011-2.527 2.559a1.992 1.992 0 0 1-1.367.591L8.98 19H8v.76A2.24 2.24 0 0 1 5.76 22H4.737A2.737 2.737 0 0 1 2 19.263v-.532c0-.987.39-1.933 1.087-2.632l5.053-5.077.01-.011a.353.353 0 0 0 .061-.295l-.006-.03A7.008 7.008 0 0 1 8 9.11V9a7 7 0 0 1 7-7h.09A7 7 0 0 1 22 9v.09Zm-3.916-.59a2.583 2.583 0 1 1-5.167 0 2.583 2.583 0 0 1 5.167 0Z"/>
  <defs>
    <linearGradient id="Key-Color-24_svg__a" x1="12" x2="12" y1="2.75" y2="21.25" gradientUnits="userSpaceOnUse">
      <stop stop-color="#C18010"/>
      <stop offset="1" stop-color="#92540C"/>
    </linearGradient>
  </defs>
</svg>
