<svg fill="none" viewBox="0 0 24 24" xmlns="http://www.w3.org/2000/svg">
  <path fill="url(#Shield-Check-Color-24_svg__a)" d="M3.25 13.875v-7.5l1.875-1.25H8.25l3.75-2.5 3.75 2.5h3.125l1.875 1.25v7.5L17 19.5l-5 1.875L7 19.5l-3.75-5.625Z"/>
  <path fill="url(#Shield-Check-Color-24_svg__b)" d="M20.75 13.875 17 19.5l-3.75 1.25H12V2.625l3.75 2.5h3.125l1.875 1.25v7.5Z"/>
  <path fill="url(#Shield-Check-Color-24_svg__c)" d="M9.65 2.834A3.594 3.594 0 0 1 14.455 3l1.2 1.157.142.121c.348.257.8.34 1.223.219l.704-.202a3.281 3.281 0 0 1 4.185 3.06l.082 2.85a11.25 11.25 0 0 1-6.055 10.3l-.373.186-1.952.925a3.751 3.751 0 0 1-3.221-.004l-1.948-.93a11.25 11.25 0 0 1-6.404-10.42l.068-2.855A3.281 3.281 0 0 1 6.32 4.34l.52.154.18.041a1.41 1.41 0 0 0 1.177-.358l1.319-1.224.134-.118ZM13.587 3.9a2.343 2.343 0 0 0-3.22-.032l-1.32 1.225a2.657 2.657 0 0 1-2.563.598l-.52-.154a2.031 2.031 0 0 0-2.608 1.9l-.068 2.855a10 10 0 0 0 5.692 9.263l1.948.928a2.502 2.502 0 0 0 2.147.003l1.953-.925.332-.165a10 10 0 0 0 5.381-9.155l-.08-2.85a2.032 2.032 0 0 0-2.592-1.895l-.704.202a2.656 2.656 0 0 1-2.447-.522l-.132-.119L13.587 3.9Z"/>
  <path fill="#fff" d="M15.932 8.433a.626.626 0 0 1 .885.884l-6.25 6.25a.626.626 0 0 1-.885 0l-2.5-2.5-.08-.098a.626.626 0 0 1 .867-.867l.098.08 2.058 2.058 5.807-5.807Z"/>
  <defs>
    <linearGradient id="Shield-Check-Color-24_svg__a" x1="12.005" x2="12.11" y1="3.25" y2="21.374" gradientUnits="userSpaceOnUse">
      <stop stop-color="#7BD66D"/>
      <stop offset="1" stop-color="#288419"/>
    </linearGradient>
    <linearGradient id="Shield-Check-Color-24_svg__b" x1="16.375" x2="16.375" y1="2.625" y2="22" gradientUnits="userSpaceOnUse">
      <stop stop-color="#69CC5B"/>
      <stop offset="1" stop-color="#288419"/>
    </linearGradient>
    <linearGradient id="Shield-Check-Color-24_svg__c" x1="12" x2="12" y1="3.25" y2="20.75" gradientUnits="userSpaceOnUse">
      <stop offset=".008" stop-color="#399F29"/>
      <stop offset="1" stop-color="#1A690D"/>
    </linearGradient>
  </defs>
</svg>
