<svg fill="none" viewBox="0 0 24 24" xmlns="http://www.w3.org/2000/svg">
  <path fill="#000" d="M12.296 15.472a.75.75 0 0 1 0 1.493l-.077.003H6.781a.75.75 0 0 1 0-1.5h5.438l.077.004Zm0-4a.75.75 0 0 1 0 1.493l-.077.004H6.781a.75.75 0 0 1 0-1.5h5.438l.077.003ZM8.813 7c.518 0 .937.42.937.937v.625c0 .518-.42.938-.937.938H6.938A.938.938 0 0 1 6 8.562v-.625C6 7.42 6.42 7 6.938 7h1.875Zm3.25 0c.518 0 .937.42.937.937v.625c0 .518-.42.938-.937.938h-.125A.938.938 0 0 1 11 8.562v-.625c0-.518.42-.937.938-.937h.125Z"/>
  <path fill="#000" fill-rule="evenodd" d="M14.908 3.011a2.313 2.313 0 0 1 2.076 2.301v.276h2.704A2.313 2.313 0 0 1 22 7.9v9.685A3.415 3.415 0 0 1 18.585 21H5.875a3.875 3.875 0 0 1-3.87-3.676l-.005-.2V5.313A2.313 2.313 0 0 1 4.313 3H14.67l.237.011ZM4.313 4.5a.812.812 0 0 0-.813.812v11.813l.013.243A2.375 2.375 0 0 0 5.875 19.5h10.057a3.084 3.084 0 0 1-.448-1.602V5.312c0-.42-.32-.767-.73-.808l-.083-.004H4.313Zm12.67 13.398c0 .885.718 1.602 1.602 1.602a1.915 1.915 0 0 0 1.915-1.915V7.9a.813.813 0 0 0-.812-.812h-2.704v10.81Z" clip-rule="evenodd"/>
</svg>
