<svg fill="none" viewBox="0 0 16 16" xmlns="http://www.w3.org/2000/svg">
  <g fill="#000" clip-path="url(#Share-Win-16_svg__a)">
    <path d="m15.817 5.067-4 4a.625.625 0 1 1-.884-.884l2.933-2.933H11c-1.497 0-2.577.336-3.363.81a4.606 4.606 0 0 0-1.668 1.743 5.952 5.952 0 0 0-.63 1.787 5.773 5.773 0 0 0-.089.78v.006A.625.625 0 0 1 4 10.375h.625H4v-.028a3.242 3.242 0 0 1 .014-.268 7.02 7.02 0 0 1 .096-.716 7.201 7.201 0 0 1 .765-2.166 5.856 5.856 0 0 1 2.117-2.21C8 4.383 9.31 4 11 4h2.866l-2.933-2.933a.625.625 0 1 1 .884-.884l4 4a.625.625 0 0 1 0 .884Z"/>
    <path d="M3.105 2.25c-1.036 0-1.875.84-1.875 1.875v7.75c0 1.036.84 1.875 1.875 1.875h8.02c1.036 0 1.875-.84 1.875-1.875v-1.25a.625.625 0 1 1 1.25 0v1.25c0 1.726-1.4 3.125-3.125 3.125h-8.02A3.125 3.125 0 0 1-.02 11.875v-7.75C-.02 2.399 1.38 1 3.105 1h4.27a.625.625 0 1 1 0 1.25h-4.27Z"/>
  </g>
  <defs>
    <clipPath id="Share-Win-16_svg__a">
      <path fill="#fff" d="M0 0h16v16H0z"/>
    </clipPath>
  </defs>
</svg>
