<svg fill="none" viewBox="0 0 16 16" xmlns="http://www.w3.org/2000/svg">
  <g clip-path="url(#Share-Win-16_svg__a)">
    <path fill="#000" d="M8.032 1a.625.625 0 0 1 0 1.25H3.98A2.75 2.75 0 0 0 1.23 5v6a2.75 2.75 0 0 0 2.75 2.75H12A2.75 2.75 0 0 0 14.75 11v-1A.625.625 0 0 1 16 10v1a4 4 0 0 1-4 4H3.98a4 4 0 0 1-4-4V5a4 4 0 0 1 4-4h4.052Zm3.651-.817a.625.625 0 0 1 .884 0l2.718 2.718.044.045a2.438 2.438 0 0 1-.044 3.403l-2.718 2.718-.023.022a.625.625 0 0 1-.883-.883l.022-.023 2.718-2.718a1.19 1.19 0 0 0 .17-.215H9A2.75 2.75 0 0 0 6.25 8v2.375a.625.625 0 0 1-1.25 0V8a4 4 0 0 1 4-4h5.572a1.182 1.182 0 0 0-.128-.17l-.043-.045-2.718-2.718a.625.625 0 0 1 0-.884Z"/>
  </g>
  <defs>
    <clipPath id="Share-Win-16_svg__a">
      <path fill="#fff" d="M0 0h16v16H0z"/>
    </clipPath>
  </defs>
</svg>
