<svg fill="none" viewBox="0 0 12 12" xmlns="http://www.w3.org/2000/svg">
  <g clip-path="url(#Thumbs-Down-12_svg__a)">
    <path fill="#000" fill-rule="evenodd" d="M1.375 8.25C.615 8.25 0 7.634 0 6.875v-4.75C0 1.365.616.75 1.375.75h1.13c.526 0 .976.294 1.207.718L9.19.77a1.742 1.742 0 0 1 1.558.613c.277.332.374.778.26 1.195l-.004.014.002.002c.6.454.792 1.272.455 1.945l-.006.013.075.072c.611.579.644 1.518.125 2.137l.018.033a1.545 1.545 0 0 1-1.366 2.268H7.438c-.045 0-.084.002-.116.004.014.093.042.217.09.384.057.204.088.428.088.675a1.68 1.68 0 0 1-.616 1.326c-.346.288-.775.433-1.155.497a2.983 2.983 0 0 1-1.097-.013 1.486 1.486 0 0 1-.49-.193c-.145-.094-.392-.312-.392-.68 0-.157.002-.319.005-.483.009-.59.018-1.209-.084-1.74-.063-.332-.157-.548-.262-.672C3.328 8.07 3.219 8 3 8h-.418c-.225.158-.498.25-.79.25h-.417Zm1.824-1.49a1.69 1.69 0 0 1 1.167.602c.302.36.452.818.533 1.242.129.672.115 1.469.106 2.067l-.001.06c.141.018.326.017.517-.015.245-.042.441-.125.564-.226a.431.431 0 0 0 .165-.365c0-.14-.018-.25-.042-.336a3.962 3.962 0 0 1-.133-.622 1.364 1.364 0 0 1 .077-.678c.24-.578.835-.677 1.285-.677h2.87a.295.295 0 0 0 .26-.433l-.244-.462a.625.625 0 0 1 .158-.777L10.65 6a.313.313 0 0 0 .019-.47l-.412-.39a.625.625 0 0 1-.13-.733l.214-.428a.313.313 0 0 0-.09-.389l-.34-.257a.625.625 0 0 1-.226-.663l.115-.422a.073.073 0 0 0-.014-.066.492.492 0 0 0-.44-.173l-5.541.706-.607 4.043Zm-1.949.115c0 .069.056.125.125.125h.417a.125.125 0 0 0 .123-.106l.713-4.75A.125.125 0 0 0 2.504 2H1.375a.125.125 0 0 0-.125.125v4.75Z" clip-rule="evenodd"/>
  </g>
  <defs>
    <clipPath id="Thumbs-Down-12_svg__a">
      <path fill="#fff" d="M0 0h12v12H0z"/>
    </clipPath>
  </defs>
</svg>
