<svg fill="none" viewBox="0 0 16 16" xmlns="http://www.w3.org/2000/svg">
  <path fill="#F5F5F5" d="M5 0a4 4 0 0 0-4 4v8a4 4 0 0 0 4 4h2.5l.5-1a5 5 0 0 1 6-7.584l1-.916V4a4 4 0 0 0-4-4H5Z"/>
  <path fill="#888" d="M5 1h6a3 3 0 0 1 3 3v3.416c.438.191 1-.099 1-.577V4a4 4 0 0 0-4-4H5a4 4 0 0 0-4 4v8a4 4 0 0 0 4 4h2.58c.456 0 .693-.636.42-1H5a3 3 0 0 1-3-3V4a3 3 0 0 1 3-3Z"/>
  <path fill="#DDD" d="M7.416 14H5a2 2 0 0 1-2-2v-1.5a.5.5 0 0 1 .5-.5h3.916A4.983 4.983 0 0 0 7 12c0 .711.148 1.387.416 2Z"/>
  <path fill="#AAA" d="M3.5 6a.5.5 0 0 0 0 1h9a.5.5 0 0 0 0-1h-9ZM3 8.5a.5.5 0 0 1 .5-.5h3a.5.5 0 0 1 0 1h-3a.5.5 0 0 1-.5-.5Z"/>
  <path fill="#DE5833" d="M3 4a2 2 0 0 1 2-2h6a2 2 0 0 1 2 2v.5a.5.5 0 0 1-.5.5h-9a.5.5 0 0 1-.5-.5V4Z"/>
  <circle cx="12" cy="12" r="3.5" fill="#DE5833" stroke="#9A3216"/>
  <path stroke="#fff" stroke-linecap="round" stroke-linejoin="round" d="M13.5 12h-3"/>
</svg>
