<svg fill="none" viewBox="0 0 16 16" xmlns="http://www.w3.org/2000/svg">
  <g fill="#000" clip-path="url(#Audio-16_svg__a)">
    <path fill-rule="evenodd" d="M5.996 1.55C7.09.422 9 1.198 9 2.77v10.46c0 1.571-1.909 2.347-3.004 1.22L3.61 12h-.36A3.25 3.25 0 0 1 0 8.75v-1.5A3.25 3.25 0 0 1 3.25 4h.361l2.385-2.45ZM7.75 2.77a.5.5 0 0 0-.858-.35l-2.57 2.64a.625.625 0 0 1-.447.19H3.25a2 2 0 0 0-2 2v1.5a2 2 0 0 0 2 2h.625c.169 0 .33.068.448.19l2.569 2.64a.5.5 0 0 0 .858-.35V2.77Z" clip-rule="evenodd"/>
    <path d="M10.357 4.261a.625.625 0 0 1 .88-.071 4.998 4.998 0 0 1 .006 7.616.625.625 0 0 1-.811-.951 3.75 3.75 0 0 0-.004-5.713.625.625 0 0 1-.071-.88Z"/>
    <path d="M13.258 1.971a.625.625 0 0 0-.821.942 6.75 6.75 0 0 1-.004 10.178.625.625 0 0 0 .82.942 8.001 8.001 0 0 0 .005-12.062Z"/>
  </g>
  <defs>
    <clipPath id="Audio-16_svg__a">
      <path fill="#fff" d="M0 0h16v16H0z"/>
    </clipPath>
  </defs>
</svg>
