<svg fill="none" viewBox="0 0 16 16" xmlns="http://www.w3.org/2000/svg">
  <path fill="#000" d="M4 2a4 4 0 0 0-4 4v4a4 4 0 0 0 4 4h3.125a.625.625 0 1 0 0-1.25H4A2.75 2.75 0 0 1 1.25 10V6c0-.57.173-1.098.47-1.537l4.36 3.396a3.125 3.125 0 0 0 2.67.569V8.25c0-.437.075-.857.212-1.247a1.875 1.875 0 0 1-2.114-.13L2.65 3.603A2.74 2.74 0 0 1 4 3.25h8c.49 0 .951.128 1.35.354l-1.168.91a3.8 3.8 0 0 1 1.709.252l.39-.303c.143.211.257.444.337.692.253.173.483.377.687.606.184.207.695.074.666-.202A3.792 3.792 0 0 0 15.874 5 4.002 4.002 0 0 0 12 2H4Z"/>
  <path fill="#000" d="M10 8.25a2.5 2.5 0 0 1 5 0V11h.148c.47 0 .852.382.852.852v3.296c0 .47-.382.852-.852.852H9.852A.852.852 0 0 1 9 15.148v-3.296c0-.47.382-.852.852-.852h3.898V8.25a1.25 1.25 0 1 0-2.5 0V9H10v-.75Z"/>
</svg>
