<svg fill="none" viewBox="0 0 16 16" xmlns="http://www.w3.org/2000/svg">
  <path fill="#000" d="M12 1a4 4 0 0 1 4 4v.04c0 .6-.762.855-1.123.377l-.127-.167V5a2.75 2.75 0 0 0-.121-.808l-.738.574a3.74 3.74 0 0 0-1.71-.252l1.81-1.41A2.742 2.742 0 0 0 12 2.25H4c-.784 0-1.49.328-1.992.854l4.84 3.769c.616.48 1.458.523 2.115.13-.138.39-.213.81-.213 1.247v.177a3.124 3.124 0 0 1-2.67-.568L1.37 4.192A2.75 2.75 0 0 0 1.25 5v6A2.75 2.75 0 0 0 4 13.75h3.75v.125c0 .621-.504 1.125-1.125 1.125H4a4 4 0 0 1-4-4V5a4 4 0 0 1 4-4h8Z"/>
  <path fill="#000" d="M12.5 5.75a2.5 2.5 0 0 0-2.5 2.5V9h1.25v-.75a1.25 1.25 0 1 1 2.5 0V11H9.852a.852.852 0 0 0-.852.852v3.296c0 .47.382.852.852.852h5.296c.47 0 .852-.382.852-.852v-3.296a.852.852 0 0 0-.852-.852H15V8.25a2.5 2.5 0 0 0-2.5-2.5Z"/>
</svg>
