<svg fill="none" viewBox="0 0 16 16" xmlns="http://www.w3.org/2000/svg">
  <g fill="#000" clip-path="url(#Info-16_svg__a)">
    <path d="M8.483 3.645c-.743 0-1.196.597-1.196 1.151 0 .671.51.89.963.89.831 0 1.181-.627 1.181-1.137 0-.642-.51-.904-.948-.904Zm.43 2.9-1.827.295c-.055.442-.136.89-.218 1.344-.157.876-.32 1.78-.32 2.723 0 .936.56 1.448 1.447 1.448 1.011 0 1.185-.635 1.224-1.21-.839.12-1.023-.258-.886-1.149.137-.89.58-3.451.58-3.451Z"/>
    <path fill-rule="evenodd" d="M8 0a8 8 0 1 0 0 16A8 8 0 0 0 8 0ZM1.25 8a6.75 6.75 0 1 1 13.5 0 6.75 6.75 0 0 1-13.5 0Z" clip-rule="evenodd"/>
  </g>
  <defs>
    <clipPath id="Info-16_svg__a">
      <path fill="#fff" d="M0 0h16v16H0z"/>
    </clipPath>
  </defs>
</svg>
