<svg fill="none" viewBox="0 0 16 16" xmlns="http://www.w3.org/2000/svg">
  <path fill="#000" fill-rule="evenodd" d="M3.25 1A3.25 3.25 0 0 0 0 4.25v7.5A3.25 3.25 0 0 0 3.25 15h2.5A3.25 3.25 0 0 0 9 11.75V9.56l1.22 1.22a.75.75 0 1 0 1.06-1.06l-2.5-2.5a.75.75 0 0 0-1.06 0l-2.5 2.5a.75.75 0 1 0 1.06 1.06L7.5 9.56v2.19a1.75 1.75 0 0 1-1.75 1.75h-2.5a1.75 1.75 0 0 1-1.75-1.75V6h13v5.75a1.75 1.75 0 0 1-1.75 1.75h-2a.75.75 0 0 0 0 1.5h2A3.25 3.25 0 0 0 16 11.75v-7.5A3.25 3.25 0 0 0 12.75 1h-9.5ZM14.5 4.5v-.25a1.75 1.75 0 0 0-1.75-1.75h-9.5A1.75 1.75 0 0 0 1.5 4.25v.25h13Z" clip-rule="evenodd"/>
</svg>
