<svg fill="none" viewBox="0 0 16 16" xmlns="http://www.w3.org/2000/svg">
  <path fill="#000" fill-rule="evenodd" d="M7.93 3a.625.625 0 0 1 .564.34l2.437 4.75a.625.625 0 1 1-1.112.57l-.21-.41H6.38l-.194.399A.625.625 0 1 1 5.063 8.1l2.313-4.75A.625.625 0 0 1 7.93 3Zm.022 2.023L8.967 7H6.99l.962-1.977Z" clip-rule="evenodd"/>
  <path fill="#000" fill-rule="evenodd" d="M1.02 3.591C1.008 3.725 1 3.861 1 4v8a4 4 0 0 0 4 4h6a4 4 0 0 0 4-4v-.403c0-.31-.479-.457-.7-.24a4.073 4.073 0 0 1-.134.125 1.34 1.34 0 0 0-.44.853 2.55 2.55 0 0 1-.075.4A2.751 2.751 0 0 1 11 14.75H5a2.749 2.749 0 0 1-2.382-1.375A2.749 2.749 0 0 1 5 12h6a4 4 0 0 0 4-4V4a4 4 0 0 0-4-4H5a4 4 0 0 0-3.98 3.591ZM13.75 4A2.75 2.75 0 0 0 11 1.25H5A2.751 2.751 0 0 0 2.25 4v7.845A3.987 3.987 0 0 1 5 10.75h6A2.75 2.75 0 0 0 13.75 8V4Z" clip-rule="evenodd"/>
</svg>
