<svg fill="none" viewBox="0 0 16 16" xmlns="http://www.w3.org/2000/svg">
  <g fill="#000" clip-path="url(#Shield-Alert-16_svg__a)">
    <path d="M5.917.808A3 3 0 0 1 9 .202c.216.08.417.186.605.312.318.213.375.634.275 1.003-.07.262-.114.536-.126.818l-.572-.567a1.746 1.746 0 0 0-.557-.37v13.236c.057-.02.113-.043.168-.069l1.405-.656a7.876 7.876 0 0 0 4.545-7.18l-.002-.146-.013-.54a3.72 3.72 0 0 0 .194-.074c.451-.185 1.056.097 1.069.585"/>
    <path d="M16 2.5a2.5 2.5 0 1 1-5 0 2.5 2.5 0 0 1 5 0Z"/>
  </g>
  <defs>
    <clipPath id="Shield-Alert-16_svg__a">
      <path fill="#fff" d="M0 0h16v16H0z"/>
    </clipPath>
  </defs>
</svg>
