<svg fill="none" viewBox="0 0 16 16" xmlns="http://www.w3.org/2000/svg">
  <g clip-path="url(#Shield-Alert-16_svg__a)">
    <circle cx="12.5" cy="12.5" r="3.5" fill="#fff"/>
    <path fill="#000" fill-rule="evenodd" d="M12.5 16a3.5 3.5 0 1 0 0-7 3.5 3.5 0 0 0 0 7Zm-.49-5.74a.25.25 0 0 1 .25-.26h.48a.25.25 0 0 1 .25.26l-.105 2.625a.25.25 0 0 1-.25.24h-.27a.25.25 0 0 1-.25-.24l-.105-2.625ZM13 14.5a.5.5 0 1 1-1 0 .5.5 0 0 1 1 0Z" clip-rule="evenodd"/>
    <path fill="#000" d="M10.061.88a3 3 0 0 0-4.2-.02l-.99.962a1 1 0 0 1-.988.239l-.275-.084a2.75 2.75 0 0 0-3.55 2.564L.009 6.553a9.125 9.125 0 0 0 5.264 8.49l1.406.655c.321.15.663.243 1.008.278.445.044.632-.478.403-.863a.617.617 0 0 0-.248-.237 20.69 20.69 0 0 0-.635-.31l-1.406-.657A7.875 7.875 0 0 1 1.26 6.583l.048-2.011a1.5 1.5 0 0 1 1.937-1.4l.275.084a2.25 2.25 0 0 0 2.22-.536l.991-.962c.19-.184.41-.316.643-.397v7.96c0 .928.568 1.19.955.347.168-.368.295-.744.295-1.148V1.397c.202.085.392.208.557.372l.948.938a2.25 2.25 0 0 0 2.218.56l.42-.125a1.5 1.5 0 0 1 1.924 1.403l.05 2.038a8.23 8.23 0 0 1-.027.862c-.02.245.11.48.323.601.37.212.873.03.913-.395a9.1 9.1 0 0 0 .04-1.098l-.05-2.038a2.75 2.75 0 0 0-3.525-2.572l-.42.124a1 1 0 0 1-.987-.248L10.061.88Z"/>
  </g>
  <defs>
    <clipPath id="Shield-Alert-16_svg__a">
      <path fill="#fff" d="M0 0h16v16H0z"/>
    </clipPath>
  </defs>
</svg>
