<svg fill="none" viewBox="0 0 16 16" xmlns="http://www.w3.org/2000/svg">
  <path fill="#000" d="M14.25 5.55c0-.569.597-.915.972-.489.484.55.778 1.273.778 2.064v4.75C16 13.6 14.6 15 12.875 15h-5.75a4.106 4.106 0 0 1-2.3-.7c-.526-.354-.197-1.05.437-1.05.158 0 .31.05.448.128.418.236.9.372 1.415.372h5.75c1.036 0 1.875-.84 1.875-1.875v-4.75c0-.384-.116-.742-.314-1.039a.982.982 0 0 1-.186-.537ZM4.444 1c.091.001.18.005.267.011h5.164c1.726 0 3.125 1.4 3.125 3.125v4.74C13 10.6 11.6 12 9.875 12h-6.75A3.125 3.125 0 0 1 0 8.875V4.136c0-1.725 1.4-3.125 3.125-3.125h1.112A.642.642 0 0 1 4.363 1h.08ZM3.125 2.26c-1.036 0-1.875.84-1.875 1.875v4.74c0 1.035.84 1.875 1.875 1.875h6.75c1.036 0 1.875-.84 1.875-1.876V5.271H8.683c-.85 0-1.465-.222-1.915-.638-.418-.387-.627-.893-.78-1.24-.173-.39-.294-.635-.493-.81-.162-.142-.44-.29-1.014-.307l-.118-.002H4.33a.638.638 0 0 1-.094-.013H3.125Zm3.725 0c.13.22.224.437.304.616.177.401.29.645.48.82.157.145.432.299 1.049.299h3.062a1.875 1.875 0 0 0-1.87-1.735H6.85Z"/>
</svg>
