<svg fill="none" viewBox="0 0 16 16" xmlns="http://www.w3.org/2000/svg">
  <g fill="#000" clip-path="url(#Windows-And-Tabs-16_svg__a)">
    <path fill-rule="evenodd" d="M.028 4.176A3.187 3.187 0 0 1 3.215.988h6.63a3.188 3.188 0 0 1 3.188 3.188v4.59a3.188 3.188 0 0 1-3.188 3.187h-6.63A3.188 3.188 0 0 1 .028 8.766v-4.59Zm4.335-1.913H3.215a1.912 1.912 0 0 0-1.912 1.913v4.59c0 1.056.856 1.912 1.912 1.912h6.63a1.913 1.913 0 0 0 1.913-1.912V5.263H8.683c-.85 0-1.466-.221-1.916-.638-.396-.368-.604-.843-.756-1.188l-.024-.054c-.172-.39-.293-.635-.492-.81-.173-.152-.477-.31-1.132-.31Zm7.385 1.725H8.684c-.617 0-.892-.153-1.049-.298-.19-.176-.303-.42-.48-.822l-.01-.02a5.65 5.65 0 0 0-.287-.585h2.988c.993 0 1.81.757 1.903 1.725Z" clip-rule="evenodd"/>
    <path d="M14.142 4.969a.637.637 0 0 0 .01.901c.354.348.573.83.573 1.366v4.59a1.912 1.912 0 0 1-1.912 1.912h-6.63a1.901 1.901 0 0 1-1.454-.67.638.638 0 0 0-.969.83 3.177 3.177 0 0 0 2.422 1.115h6.63A3.188 3.188 0 0 0 16 11.826v-4.59a3.18 3.18 0 0 0-.956-2.276.637.637 0 0 0-.902.009Z"/>
  </g>
  <defs>
    <clipPath id="Windows-And-Tabs-16_svg__a">
      <path fill="#fff" d="M0 0h16v16H0z"/>
    </clipPath>
  </defs>
</svg>
