<svg fill="none" viewBox="0 0 24 24" xmlns="http://www.w3.org/2000/svg">
  <path fill="#000" fill-rule="evenodd" d="M12 2c5.523 0 10 4.477 10 10s-4.477 10-10 10S2 17.523 2 12 6.477 2 12 2ZM9.823 6.269a.75.75 0 0 0-1.056-.096L7.474 7.25a4.1 4.1 0 0 0 .12 6.394l.276.195a4.1 4.1 0 0 0 2.23.66h6.071l-2.173 2.508a.75.75 0 0 0 1.133.982l2.257-2.603.143-.182a2.501 2.501 0 0 0-.143-3.094L15.13 9.508l-.053-.056a.751.751 0 0 0-1.128.978l.048.06L16.173 13H10.1c-.503 0-.994-.147-1.414-.419l-.175-.124a2.6 2.6 0 0 1-.076-4.054l1.293-1.078a.75.75 0 0 0 .095-1.056Z" clip-rule="evenodd"/>
</svg>
