<svg fill="none" viewBox="0 0 16 16" xmlns="http://www.w3.org/2000/svg">
  <g clip-path="url(#Reload-16_svg__a)">
    <path fill="#000" d="M14.362 10.339a.682.682 0 0 1 .631-.457c.414 0 .72.389.582.78a8 8 0 1 1-.833-7.014c.005-.049.008-.098.008-.148V1.625a.625.625 0 0 1 1.25 0V3.5A2.5 2.5 0 0 1 13.5 6h-1.875a.625.625 0 0 1 0-1.25H13.5c.15 0 .296-.027.43-.076a.733.733 0 0 1-.107-.137 6.75 6.75 0 1 0 .539 5.802Z"/>
  </g>
  <defs>
    <clipPath id="Reload-16_svg__a">
      <path fill="#fff" d="M0 0h16v16H0z"/>
    </clipPath>
  </defs>
</svg>
