<svg fill="none" viewBox="0 0 24 24" xmlns="http://www.w3.org/2000/svg">
  <path fill="#E6EDFF" d="M12.027 8.75H5.75a3 3 0 0 0-3 3v5.5a3 3 0 0 0 3 3h12.5a3 3 0 0 0 3-3v-5.5c0-.484-.114-.94-.318-1.345a11.9 11.9 0 0 1-.938.121c-.145.015-.288.03-.43.047-.092.747-.2 1.532-.285 1.868-.205.814-.823 1.57-1.789 1.537-.887-.03-1.498-.721-1.748-1.463-.161-.481-.215-1.007-.268-1.521-.015-.145-.03-.288-.047-.43-.747-.092-1.532-.2-1.868-.285-.753-.19-1.416-.734-1.532-1.529Z"/>
  <path fill="#2B55CA" d="M12.019 8.689C11.98 8.345 11.732 8 11.387 8H5.75A3.75 3.75 0 0 0 2 11.75v5.5A3.75 3.75 0 0 0 5.75 21h12.5A3.75 3.75 0 0 0 22 17.25v-5.5c0-.291-.033-.575-.096-.848-.093-.403-.544-.578-.95-.502-.373.07-.584.504-.504.875.033.153.05.312.05.475v5.5a2.25 2.25 0 0 1-2.25 2.25H5.75a2.25 2.25 0 0 1-2.25-2.25v-5.5A2.25 2.25 0 0 1 5.75 9.5h5.706c.365 0 .602-.449.563-.811Z"/>
  <path fill="#8FABF9" d="M6 14.5A1.5 1.5 0 0 1 7.5 13h5a1.5 1.5 0 0 1 0 3h-5A1.5 1.5 0 0 1 6 14.5Z"/>
  <path fill="#6B4EBA" fill-rule="evenodd" d="M18.665 7.335c-.108-.936-.26-2.152-.355-2.531-.267-1.06-1.353-1.06-1.62 0-.095.379-.247 1.595-.356 2.53-.935.11-2.152.26-2.53.356-1.06.267-1.06 1.353 0 1.62.378.095 1.59.246 2.525.355.109.971.264 2.242.361 2.531.336 1 1.346 1.087 1.62 0 .095-.378.246-1.59.355-2.525.971-.109 2.242-.264 2.531-.361 1-.336 1.087-1.346 0-1.62-.379-.095-1.596-.247-2.53-.355Z" clip-rule="evenodd"/>
  <path fill="#FC3" d="M14 3.5a1.5 1.5 0 1 1-3 0 1.5 1.5 0 0 1 3 0Z"/>
  <path fill="#FFD7CC" d="M10 5a1 1 0 1 1-2 0 1 1 0 0 1 2 0Z"/>
</svg>
