<svg fill="none" viewBox="0 0 12 12" xmlns="http://www.w3.org/2000/svg">
  <path fill="#000" fill-rule="evenodd" d="M4.625.625a.625.625 0 1 0-1.25 0V1H2.25A2.25 2.25 0 0 0 0 3.25v5.5A2.25 2.25 0 0 0 2.25 11h7.5A2.25 2.25 0 0 0 12 8.75v-5.5A2.25 2.25 0 0 0 9.75 1H8.625V.625a.625.625 0 1 0-1.25 0V1h-2.75V.625Zm6.125 3.75V3.25a1 1 0 0 0-1-1H8.625v.625a.625.625 0 1 1-1.25 0V2.25h-2.75v.625a.625.625 0 1 1-1.25 0V2.25H2.25a1 1 0 0 0-1 1v1.125h9.5Zm-9.5 1.25h9.5V8.75a1 1 0 0 1-1 1h-7.5a1 1 0 0 1-1-1V5.625Z" clip-rule="evenodd"/>
</svg>
