<svg fill="none" viewBox="0 0 24 24" xmlns="http://www.w3.org/2000/svg">
  <g clip-path="url(#Rocket-Color-24_svg__a)">
    <path fill="#DE5833" d="M4.591 15.188.688 11.286c-.703-.703-.538-1.886.386-2.253 2.296-.91 4.815-1.237 7.23-.739L4.59 15.188Z"/>
    <path fill="#9A3216" fill-rule="evenodd" d="m4.591 15.188 3.712-6.894a11.293 11.293 0 0 0-1.59-.21c-1.912-.118-3.843.237-5.639.95C.15 9.4-.015 10.582.688 11.285l3.903 3.902Zm1.326-5.626a11.79 11.79 0 0 0-4.056.776l2.365 2.364 1.691-3.14Z" clip-rule="evenodd"/>
    <path fill="#DE5833" d="m8.833 19.431 3.903 3.903c.703.703 1.885.538 2.252-.386.911-2.296 1.238-4.815.74-7.23l-6.895 3.713Z"/>
    <path fill="#9A3216" fill-rule="evenodd" d="m8.833 19.431 6.894-3.712c.109.526.178 1.057.211 1.59.118 1.912-.237 3.843-.95 5.639-.367.924-1.55 1.089-2.252.386L8.833 19.43Zm5.627-1.326a11.827 11.827 0 0 1-.776 4.055l-2.365-2.364 3.141-1.691Z" clip-rule="evenodd"/>
    <path fill="#EEE" d="M3.655 16.374a1.457 1.457 0 0 1-.349-1.53C6.097 7.254 12.032.714 23.683.339c-.375 11.65-6.916 17.586-14.505 20.376a1.457 1.457 0 0 1-1.53-.349l-3.993-3.992Z"/>
    <path fill="#888" fill-rule="evenodd" d="m4.728 15.325 3.969 3.97c3.593-1.328 6.857-3.368 9.268-6.382 2.162-2.703 3.7-6.267 4.12-10.976-4.71.42-8.273 1.958-10.976 4.12-3.014 2.411-5.055 5.675-6.381 9.268ZM22.179.424C11.516 1.29 5.974 7.588 3.306 14.844a1.457 1.457 0 0 0 .35 1.53l3.992 3.992c.401.402.997.546 1.53.35 7.256-2.669 13.553-8.21 14.42-18.873.04-.49.068-.992.085-1.504-.512.016-1.014.045-1.504.085Z" clip-rule="evenodd"/>
    <path fill="#ADC2FC" d="M17.319 10.945a3 3 0 1 1-4.243-4.242 3 3 0 0 1 4.243 4.242Z"/>
    <path fill="#9A3216" fill-rule="evenodd" d="M14.137 9.885a1.5 1.5 0 1 0 2.12-2.122 1.5 1.5 0 0 0-2.12 2.122Zm-1.061 1.06a3 3 0 1 0 4.243-4.242 3 3 0 0 0-4.243 4.242Z" clip-rule="evenodd"/>
    <path fill="#F9BE1A" d="M3.555 16.273C1.44 18.028.417 20.695.348 23.673c2.98-.068 5.646-1.092 7.4-3.206l-4.193-4.194Z"/>
    <path fill="#DE5833" fill-rule="evenodd" d="M3.5 17.286a.75.75 0 0 1 .11 1.055c-.808.993-1.345 2.239-1.598 3.668 1.43-.253 2.675-.79 3.669-1.597a.75.75 0 1 1 .946 1.164c-1.481 1.203-3.358 1.87-5.42 2.05l-.89.079.078-.891c.181-2.061.847-3.938 2.05-5.419a.75.75 0 0 1 1.055-.11Zm18.972-9.673L16.408 1.55C18.54.852 20.955.427 23.682.339c-.087 2.727-.513 5.14-1.21 7.274Z" clip-rule="evenodd"/>
    <path fill="#9A3216" fill-rule="evenodd" d="M22.472 7.613c.174-.532.33-1.082.47-1.65a26.2 26.2 0 0 0 .655-4.12c.04-.49.069-.992.085-1.504-.512.016-1.013.045-1.504.085-1.468.119-2.84.341-4.12.655-.567.14-1.117.296-1.65.47l6.064 6.064Zm-3.157-5.278 2.371 2.372c.177-.876.311-1.798.398-2.77-.972.087-1.894.221-2.77.398Z" clip-rule="evenodd"/>
    <path fill="#666" d="M4.205 12.68c-.33.709-.63 1.431-.898 2.164a1.457 1.457 0 0 0 .349 1.53l3.992 3.992c.402.402.997.546 1.53.35.733-.27 1.455-.568 2.163-.899l-7.136-7.136Z"/>
  </g>
  <defs>
    <clipPath id="Rocket-Color-24_svg__a">
      <path fill="#fff" d="M0 0h24v24H0z"/>
    </clipPath>
  </defs>
</svg>
