<svg fill="none" viewBox="0 0 24 24" xmlns="http://www.w3.org/2000/svg">
  <path fill="#000" fill-rule="evenodd" d="M16 9.5a4 4 0 1 1-8 0 4 4 0 0 1 8 0Zm-1.5 0a2.5 2.5 0 1 1-5 0 2.5 2.5 0 0 1 5 0Z" clip-rule="evenodd"/>
  <path fill="#000" fill-rule="evenodd" d="M12 22c5.523 0 10-4.477 10-10S17.523 2 12 2 2 6.477 2 12s4.477 10 10 10Zm0-1.5a8.469 8.469 0 0 0 5.706-2.2A6.577 6.577 0 0 0 12 15a6.577 6.577 0 0 0-5.705 3.3A8.469 8.469 0 0 0 12 20.5Zm0-7a8.072 8.072 0 0 1 6.76 3.653 8.5 8.5 0 1 0-13.52 0A8.072 8.072 0 0 1 12 13.5Z" clip-rule="evenodd"/>
</svg>
