<svg fill="none" viewBox="0 0 16 16" xmlns="http://www.w3.org/2000/svg">
  <g clip-path="url(#Cookie-Whole-16_svg__a)">
    <path fill="#000" d="M8 0a8 8 0 1 1 0 16A8 8 0 0 1 8 0Zm0 1.25a6.75 6.75 0 1 0 0 13.5 6.75 6.75 0 0 0 0-13.5ZM6.75 11a.75.75 0 1 1 0 1.5.75.75 0 0 1 0-1.5Zm4-1a.75.75 0 1 1 0 1.5.75.75 0 0 1 0-1.5Zm-7-2a.75.75 0 1 1 0 1.5.75.75 0 0 1 0-1.5Zm4-1a.75.75 0 1 1 0 1.5.75.75 0 0 1 0-1.5Zm4-1a.75.75 0 1 1 0 1.5.75.75 0 0 1 0-1.5Zm-6-2a.75.75 0 1 1 0 1.5.75.75 0 0 1 0-1.5Zm4-.5a.75.75 0 1 1 0 1.5.75.75 0 0 1 0-1.5Z"/>
  </g>
  <defs>
    <clipPath id="Cookie-Whole-16_svg__a">
      <path fill="#fff" d="M0 0h16v16H0z"/>
    </clipPath>
  </defs>
</svg>
