<svg fill="none" viewBox="0 0 16 16" xmlns="http://www.w3.org/2000/svg">
  <g clip-path="url(#Ai-Chat-Recolorable-16_svg__a)">
    <path fill="#6B4EBA" fill-rule="evenodd" d="M2.358 12.176c.32.283.38.774.1 1.096l-1.294 1.491c-.441.51-.014 1.284.65 1.17 2.656-.456 7.31-1.338 9.2-2.206C13.94 12.667 16 10.11 16 7.125 16 3.19 12.418 0 8 0S0 3.19 0 7.125c0 1.974.902 3.76 2.358 5.051Z" clip-rule="evenodd"/>
    <path fill="#fff" d="M7.62 3.271c.099-.396.661-.396.76 0l.22.878a3.267 3.267 0 0 0 2.377 2.376l.877.22c.396.099.396.661 0 .76l-.877.22A3.267 3.267 0 0 0 8.6 10.102l-.22.877c-.099.396-.661.396-.76 0l-.22-.877a3.267 3.267 0 0 0-2.376-2.377l-.878-.22c-.396-.099-.396-.661 0-.76l.878-.22A3.267 3.267 0 0 0 7.4 4.15l.22-.878Z"/>
  </g>
  <defs>
    <clipPath id="Ai-Chat-Recolorable-16_svg__a">
      <path fill="#fff" d="M0 0h16v16H0z"/>
    </clipPath>
  </defs>
</svg>
