<svg fill="none" viewBox="0 0 12 12" xmlns="http://www.w3.org/2000/svg">
  <g fill="#000" clip-path="url(#Audio-12_svg__a)">
    <path fill-rule="evenodd" d="M4.29.454C4.92-.18 6 .267 6 1.159v9.682c0 .892-1.08 1.338-1.71.705L1.902 9.143h-.276A1.625 1.625 0 0 1 0 7.518V4.482c0-.897.728-1.625 1.625-1.625h.276L4.291.454Zm.46 1.311L2.604 3.923a.625.625 0 0 1-.443.184h-.536a.375.375 0 0 0-.375.375v3.036c0 .207.168.375.375.375h.536c.167 0 .326.066.443.184l2.146 2.158v-8.47Z" clip-rule="evenodd"/>
    <path d="M7.223 3.595a.625.625 0 0 1 .881-.072 3.25 3.25 0 0 1 .004 4.95.625.625 0 0 1-.811-.95 2 2 0 0 0-.002-3.047.625.625 0 0 1-.072-.881Z"/>
    <path d="M9.944 1.478a.625.625 0 0 0-.822.942 4.75 4.75 0 0 1-.003 7.162.625.625 0 0 0 .821.943 6 6 0 0 0 .004-9.047Z"/>
  </g>
  <defs>
    <clipPath id="Audio-12_svg__a">
      <path fill="#fff" d="M0 0h12v12H0z"/>
    </clipPath>
  </defs>
</svg>
