<svg fill="none" viewBox="0 0 12 12" xmlns="http://www.w3.org/2000/svg">
  <g clip-path="url(#Audio-12_svg__a)">
    <path fill="#000" d="M4.536.308C5.085-.2 6 .185 6 .955v10.049c0 .767-.909 1.152-1.46.651l-.052-.051-2.452-2.602-.52.005A1.5 1.5 0 0 1 0 7.507V4.5A1.5 1.5 0 0 1 1.5 3h.532L4.484.36l.052-.052ZM2.616 3.84A.5.5 0 0 1 2.25 4H1.5a.5.5 0 0 0-.5.5v3.008a.5.5 0 0 0 .505.5L2.245 8l.052.002a.5.5 0 0 1 .317.155L5 10.69V1.273L2.616 3.84Zm6.622-2.314a.5.5 0 0 1 .666-.08l.04.032.12.107a6 6 0 0 1 1.46 6.755l-.064.147a6.001 6.001 0 0 1-1.52 2.038.5.5 0 0 1-.657-.754 5.001 5.001 0 0 0 1.267-1.698l.105-.247a5.002 5.002 0 0 0-1.172-5.413l-.196-.181-.037-.036a.5.5 0 0 1-.012-.67Zm-2 2.245a.5.5 0 0 1 .664-.088l.04.03.121.11a3 3 0 0 1 .66.917l.064.15A3 3 0 0 1 9 5.997l-.004.163a3 3 0 0 1-1.05 2.123l-.041.03a.5.5 0 0 1-.608-.792l.08-.072A2 2 0 0 0 8 5.999l-.003-.109a2 2 0 0 0-.14-.63l-.042-.1a2 2 0 0 0-.439-.612l-.081-.072-.037-.035a.5.5 0 0 1-.02-.67Z"/>
  </g>
  <defs>
    <clipPath id="Audio-12_svg__a">
      <path fill="#fff" d="M0 0h12v12H0z"/>
    </clipPath>
  </defs>
</svg>
