<svg fill="none" viewBox="0 0 16 16" xmlns="http://www.w3.org/2000/svg">
  <path fill="#000" fill-rule="evenodd" d="M2 3.382A3.382 3.382 0 0 1 5.382 0h5.236a3.382 3.382 0 0 1 1.649 6.334L9.282 8l2.985 1.666A3.382 3.382 0 0 1 10.617 16H5.382a3.382 3.382 0 0 1-1.648-6.334L6.718 8 3.734 6.334A3.382 3.382 0 0 1 2 3.382Zm6 3.902 3.657-2.041a2.132 2.132 0 0 0-1.039-3.993H5.382a2.132 2.132 0 0 0-1.04 3.993L8 7.284Zm0 1.432-3.657 2.041a2.132 2.132 0 0 0 1.039 3.993h5.236a2.132 2.132 0 0 0 1.04-3.993L8 8.716Z" clip-rule="evenodd"/>
  <path fill="#000" d="m12.813 14.188-3.175-1.77a3.375 3.375 0 0 0-3.29.002l-3.16 1.768.812.937 4 .375 3.938-.313.874-1ZM8 6 6.167 4.953C5.713 4.693 5.897 4 6.42 4h3.16c.522 0 .707.693.253.953L8 6Z"/>
</svg>
