<svg fill="none" viewBox="0 0 16 16" xmlns="http://www.w3.org/2000/svg">
  <path fill="#000" d="M11.313 3A3.687 3.687 0 0 1 15 6.687V13.8c0 1.69-1.844 2.702-3.258 1.852l-.136-.088-1.085-.762a.907.907 0 0 0-.92-.073l-.122.073-1.085.762C6.965 16.567 5 15.545 5 13.801V6.687A3.687 3.687 0 0 1 8.687 3h2.627Z"/>
  <path fill="#000" d="M7.313 0a3.67 3.67 0 0 1 2.56 1.035c.396.383.061.965-.49.965a.88.88 0 0 1-.545-.212 2.421 2.421 0 0 0-1.525-.538H4.687A2.437 2.437 0 0 0 2.25 3.687V10.8c0 .635.387.934.816.989.37.047.934.348.934.72a.373.373 0 0 1-.259.368C2.433 13.253 1.001 12.29 1 10.8V3.687A3.687 3.687 0 0 1 4.687 0h2.626Z"/>
</svg>
