<svg fill="none" viewBox="0 0 16 16" xmlns="http://www.w3.org/2000/svg">
  <g fill="#000" fill-rule="evenodd" clip-path="url(#VPN-On-16_svg__a)" clip-rule="evenodd">
    <path d="M.017 7.482a8 8 0 0 1 15.966 0c.025.105.038.219.043.336.011.26-.468.38-.64.186a22.961 22.961 0 0 0-.095-.106c-.296-.33-.577-.645-.615-.898a6.758 6.758 0 0 0-4.137-5.256c.153.247.292.51.416.781.45.983.774 2.202.933 3.55.031.262-.156.494-.41.566-.268.076-.524.18-.763.31-.105-1.538-.434-2.894-.897-3.906C9.228 1.755 8.538 1.25 8 1.25s-1.227.504-1.818 1.795c-.468 1.022-.8 2.397-.9 3.955h5.346a3.768 3.768 0 0 0-1.145 1.023.542.542 0 0 1-.431.227h-3.8c.03 1.866.388 3.522.93 4.705.388.847.818 1.356 1.22 1.605.192.12.344.312.352.538.001.05.004.099.007.148.024.363-.245.748-.606.71a8.001 8.001 0 0 1-7.15-8.25.63.63 0 0 1 .012-.224Zm1.238.768a6.753 6.753 0 0 0 4.206 6.006 7.118 7.118 0 0 1-.416-.781c-.63-1.377-1.014-3.217-1.043-5.225H1.255ZM4.03 7H1.324A6.759 6.759 0 0 1 5.46 1.744c-.153.247-.291.51-.416.781C4.495 3.728 4.132 5.285 4.03 7Z"/>
    <path d="M10 10.25a2.5 2.5 0 0 1 5 0V11h.148c.47 0 .852.382.852.852v3.296c0 .47-.382.852-.852.852H9.852A.852.852 0 0 1 9 15.148v-3.296c0-.47.382-.852.852-.852H10v-.75Zm3.75 0V11h-2.5v-.75a1.25 1.25 0 1 1 2.5 0Z"/>
  </g>
  <defs>
    <clipPath id="VPN-On-16_svg__a">
      <path fill="#fff" d="M0 0h16v16H0z"/>
    </clipPath>
  </defs>
</svg>
