<svg fill="none" viewBox="0 0 16 16" xmlns="http://www.w3.org/2000/svg">
  <path fill="#000" d="M5.688 10a.5.5 0 0 0-.5.5v.25a.5.5 0 0 0 .5.5h4.625a.5.5 0 0 0 .5-.5v-.25a.5.5 0 0 0-.5-.5H5.686Zm-.5-5.5a.5.5 0 0 1 .5-.5h.25a.5.5 0 0 1 .5.5v.25a.5.5 0 0 1-.5.5h-.25a.5.5 0 0 1-.5-.5V4.5Zm.5 2.5a.5.5 0 0 0-.5.5v.25a.5.5 0 0 0 .5.5h.25a.5.5 0 0 0 .5-.5V7.5a.5.5 0 0 0-.5-.5h-.25ZM3 10.5a.5.5 0 0 1 .5-.5h.25a.5.5 0 0 1 .5.5v.25a.5.5 0 0 1-.5.5H3.5a.5.5 0 0 1-.5-.5v-.25ZM3.5 4a.5.5 0 0 0-.5.5v.25a.5.5 0 0 0 .5.5h.25a.5.5 0 0 0 .5-.5V4.5a.5.5 0 0 0-.5-.5H3.5ZM3 7.5a.5.5 0 0 1 .5-.5h.25a.5.5 0 0 1 .5.5v.25a.5.5 0 0 1-.5.5H3.5a.5.5 0 0 1-.5-.5V7.5ZM7.875 4a.5.5 0 0 0-.5.5v.25a.5.5 0 0 0 .5.5h.25a.5.5 0 0 0 .5-.5V4.5a.5.5 0 0 0-.5-.5h-.25Zm-.5 3.5a.5.5 0 0 1 .5-.5h.25a.5.5 0 0 1 .5.5v.25a.5.5 0 0 1-.5.5h-.25a.5.5 0 0 1-.5-.5V7.5ZM12.25 10a.5.5 0 0 0-.5.5v.25a.5.5 0 0 0 .5.5h.25a.5.5 0 0 0 .5-.5v-.25a.5.5 0 0 0-.5-.5h-.25ZM9.563 4.5a.5.5 0 0 1 .5-.5h.25a.5.5 0 0 1 .5.5v.25a.5.5 0 0 1-.5.5h-.25a.5.5 0 0 1-.5-.5V4.5Zm.5 2.5a.5.5 0 0 0-.5.5v.25a.5.5 0 0 0 .5.5h.25a.5.5 0 0 0 .5-.5V7.5a.5.5 0 0 0-.5-.5h-.25Zm1.687-2.5a.5.5 0 0 1 .5-.5h.25a.5.5 0 0 1 .5.5v.25a.5.5 0 0 1-.5.5h-.25a.5.5 0 0 1-.5-.5V4.5Zm.5 2.5a.5.5 0 0 0-.5.5v.25a.5.5 0 0 0 .5.5h.25a.5.5 0 0 0 .5-.5V7.5a.5.5 0 0 0-.5-.5h-.25Z"/>
  <path fill="#000" fill-rule="evenodd" d="M4 1a4 4 0 0 0-4 4v6a4 4 0 0 0 4 4h8a4 4 0 0 0 4-4V5a4 4 0 0 0-4-4H4ZM1.25 5A2.75 2.75 0 0 1 4 2.25h8A2.75 2.75 0 0 1 14.75 5v6A2.75 2.75 0 0 1 12 13.75H4A2.75 2.75 0 0 1 1.25 11V5Z" clip-rule="evenodd"/>
</svg>
