<svg fill="none" viewBox="0 0 12 12" xmlns="http://www.w3.org/2000/svg">
  <path fill="#000" fill-rule="evenodd" d="M4 7.75a.25.25 0 0 1 .14-.225l3.5-1.723a.25.25 0 0 1 .36.225V9.75a.25.25 0 0 1-.25.25h-3.5A.25.25 0 0 1 4 9.75v-2Zm1.25 1v-.378l1.5-.739V8.75h-1.5Z" clip-rule="evenodd"/>
  <path fill="#000" fill-rule="evenodd" d="M4.5 0h3a.5.5 0 0 1 .5.5V1h.375C9.272 1 10 1.728 10 2.625v7.75C10 11.273 9.272 12 8.375 12h-4.75A1.625 1.625 0 0 1 2 10.375v-7.75C2 1.728 2.728 1 3.625 1H4V.5a.5.5 0 0 1 .5-.5Zm-.875 2.25a.375.375 0 0 0-.375.375v7.75c0 .207.168.375.375.375h4.75a.375.375 0 0 0 .375-.375v-7.75a.375.375 0 0 0-.375-.375h-4.75Z" clip-rule="evenodd"/>
</svg>
