<svg fill="none" viewBox="0 0 16 16" xmlns="http://www.w3.org/2000/svg">
  <path fill="#000" fill-rule="evenodd" d="M13.875 4C15.049 4 16 4.951 16 6.125v4.75A2.125 2.125 0 0 1 13.875 13h-9.75A2.125 2.125 0 0 1 2 10.875v-4.75C2 4.951 2.951 4 4.125 4h9.75Zm.875 2.125a.875.875 0 0 0-.875-.875h-3.38A2.625 2.625 0 0 1 12 7.625v1.75c0 1.05-.616 1.955-1.505 2.375h3.38a.875.875 0 0 0 .875-.875v-4.75ZM4.125 5.25h3.38A2.625 2.625 0 0 0 6 7.625v1.75c0 1.05.616 1.955 1.506 2.375H4.125a.875.875 0 0 1-.875-.875v-4.75c0-.483.392-.875.875-.875Zm4.5 1c-.76 0-1.375.616-1.375 1.375v1.75c0 .76.616 1.375 1.375 1.375h.75c.76 0 1.375-.616 1.375-1.375v-1.75c0-.76-.616-1.375-1.375-1.375h-.75Z" clip-rule="evenodd"/>
  <path fill="#000" d="M11.375 3.25a.625.625 0 1 0 0-1.25h-8.25A3.125 3.125 0 0 0 0 5.125v4.25a.625.625 0 1 0 1.25 0v-4.25c0-1.036.84-1.875 1.875-1.875h8.25Z"/>
</svg>
