<svg fill="none" viewBox="0 0 16 16" xmlns="http://www.w3.org/2000/svg">
  <g fill="#000" clip-path="url(#Rocket-16_svg__a)">
    <path fill-rule="evenodd" d="M11.547 7.319A1.99 1.99 0 1 1 8.73 4.503a1.99 1.99 0 0 1 2.816 2.816Zm-.884-.884a.74.74 0 1 1-1.048-1.048.74.74 0 0 1 1.048 1.048Z" clip-rule="evenodd"/>
    <path fill-rule="evenodd" d="M14.517.358c-4.59.434-7.724 2.405-9.823 5.074a7.751 7.751 0 0 0-.468-.026c-1.176-.03-2.356.205-3.46.643C.154 6.292.045 7.077.51 7.543l1.91 1.91c-.059.15-.116.3-.172.452a.967.967 0 0 0 .232 1.015l2.649 2.65a.967.967 0 0 0 1.016.231c.15-.055.302-.113.452-.172l1.909 1.909c.466.466 1.25.357 1.494-.256a8.826 8.826 0 0 0 .643-3.46 7.733 7.733 0 0 0-.026-.466c2.669-2.1 4.64-5.234 5.074-9.823.039-.407.065-.824.08-1.254-.43.014-.848.04-1.254.079ZM3.487 10.16l2.402 2.402c2.292-.87 4.357-2.184 5.888-4.098.942-1.177 1.704-2.61 2.186-4.359l-2.018-2.019c-1.75.482-3.182 1.245-4.36 2.187-1.913 1.53-3.228 3.595-4.098 5.887ZM1.756 7.021a7.614 7.614 0 0 1 1.789-.35l-.749 1.39-1.04-1.04Zm7.272 7.271c.189-.589.308-1.19.35-1.789l-1.39.75 1.04 1.04Zm5.255-11.635-.89-.89c.333-.058.678-.105 1.033-.143-.038.355-.086.7-.143 1.033Z" clip-rule="evenodd"/>
    <path d="M4.484 13.664a.625.625 0 0 1-.113.877c-.904.698-2.058 1.076-3.363 1.169l-.718.05.05-.718c.093-1.305.472-2.459 1.17-3.362a.625.625 0 1 1 .989.764c-.39.506-.669 1.149-.814 1.922.773-.146 1.416-.424 1.922-.815a.625.625 0 0 1 .877.113Z"/>
  </g>
  <defs>
    <clipPath id="Rocket-16_svg__a">
      <path fill="#fff" d="M0 0h16v16H0z"/>
    </clipPath>
  </defs>
</svg>
