<svg fill="none" viewBox="0 0 16 16" xmlns="http://www.w3.org/2000/svg">
  <g clip-path="url(#Rocket-16_svg__a)">
    <path fill="#000" d="M.816 11.97a.625.625 0 0 1 1.118.56 7.965 7.965 0 0 0-.34.867 7.296 7.296 0 0 0-.3 1.309 7.31 7.31 0 0 0 1.31-.3 7.931 7.931 0 0 0 .866-.34.625.625 0 0 1 .56 1.118h-.001c-.016.009-.121.06-.295.134-.18.076-.435.176-.744.277-.613.198-1.463.405-2.365.405H0v-.625c0-.902.207-1.752.406-2.365.251-.775.333-.885.41-1.04ZM14.164.055a1.66 1.66 0 0 1 1.782 1.78c-.242 3.012-1.205 5.982-3.18 8.312a12.945 12.945 0 0 1-1.78 1.726 9.899 9.899 0 0 1-.1.835 10.228 10.228 0 0 1-.665 2.34c-.486 1.14-1.88 1.177-2.626.43l-1.123-1.123-.124.045a1.59 1.59 0 0 1-1.655-.382l-2.662-2.662a1.592 1.592 0 0 1-.4-1.598l.063-.18L.52 8.405c-.746-.746-.71-2.14.431-2.626.868-.37 1.715-.563 2.34-.665.405-.066.722-.094.902-.105a12.96 12.96 0 0 1 1.681-1.746c2.042-1.754 4.751-2.94 8.29-3.208ZM9.588 12.86c-.598.37-1.22.697-1.858.985l.749.75c.114.113.254.15.365.135a.27.27 0 0 0 .227-.173c.256-.6.416-1.196.517-1.697Zm4.67-11.56c-3.294.25-5.745 1.344-7.568 2.91-1.83 1.571-3.063 3.648-3.863 5.908a.341.341 0 0 0 .088.354l2.662 2.661a.34.34 0 0 0 .353.088c2.256-.8 4.321-2.043 5.882-3.884 1.81-2.135 2.668-4.837 2.887-7.596a.41.41 0 0 0-.44-.44ZM3.216 6.397c-.516.1-1.143.263-1.774.532a.27.27 0 0 0-.173.227.445.445 0 0 0 .136.365l.797.797c.295-.66.631-1.303 1.014-1.921ZM9.991 4c1.1 0 1.99.891 1.99 1.99A2.031 2.031 0 0 1 9.94 7.982 1.99 1.99 0 0 1 8 5.991 2.03 2.03 0 0 1 9.99 4Zm0 1.25a.74.74 0 1 0 0 1.482.74.74 0 0 0 0-1.482Z"/>
  </g>
  <defs>
    <clipPath id="Rocket-16_svg__a">
      <path fill="#fff" d="M0 0h16v16H0z"/>
    </clipPath>
  </defs>
</svg>
