<svg fill="none" viewBox="0 0 16 16" xmlns="http://www.w3.org/2000/svg">
  <path fill="#000" d="M12 1a4 4 0 0 1 4 4v6a4 4 0 0 1-4 4H4a4 4 0 0 1-4-4V5a4 4 0 0 1 4-4h8ZM4 2.25A2.75 2.75 0 0 0 1.25 5v6A2.75 2.75 0 0 0 4 13.75h8A2.75 2.75 0 0 0 14.75 11V5A2.75 2.75 0 0 0 12 2.25H4Zm1.375 8.5a.625.625 0 1 1 0 1.25h-2.25a.625.625 0 1 1 0-1.25h2.25Zm2.282 0a.625.625 0 0 1 0 1.25h-.282a.625.625 0 1 1 0-1.25h.282Zm5.25 0a.625.625 0 0 1 0 1.25H9.625a.625.625 0 1 1 0-1.25h3.282ZM5.5 7a.5.5 0 0 1 .5.5V9a.5.5 0 0 1-.5.5H3a.5.5 0 0 1-.5-.5V7.5A.5.5 0 0 1 3 7h2.5Z"/>
</svg>
