<svg fill="none" viewBox="0 0 16 16" xmlns="http://www.w3.org/2000/svg">
  <path fill="#000" d="M3.673 5A.673.673 0 0 0 3 5.673v1.654c0 .372.301.673.673.673h2.654A.673.673 0 0 0 7 7.327V5.673A.673.673 0 0 0 6.327 5H3.673Z"/>
  <path fill="#000" fill-rule="evenodd" d="M0 5a4 4 0 0 1 4-4h8a4 4 0 0 1 4 4v6a4 4 0 0 1-4 4H4a4 4 0 0 1-4-4V5Zm4-2.75A2.75 2.75 0 0 0 1.25 5v5h13.5V5A2.75 2.75 0 0 0 12 2.25H4Zm0 11.5A2.751 2.751 0 0 1 1.437 12h13.125A2.751 2.751 0 0 1 12 13.75H4Z" clip-rule="evenodd"/>
</svg>
