<svg fill="none" viewBox="0 0 12 12" xmlns="http://www.w3.org/2000/svg">
  <g clip-path="url(#Car-12_svg__a)">
    <path fill="#000" fill-rule="evenodd" d="M3.435.75A2.5 2.5 0 0 0 .949 2.984L.796 4.409A1.205 1.205 0 0 0 0 5.543v5.144c0 .311.252.563.563.563h1.125c.31 0 .562-.252.562-.563V10.5h7.5v.188c0 .31.252.562.563.562h1.124a.563.563 0 0 0 .563-.563V5.543c0-.509-.32-.962-.796-1.134l-.153-1.425A2.5 2.5 0 0 0 8.565.75h-5.13ZM2.192 3.117A1.25 1.25 0 0 1 3.435 2h5.13a1.25 1.25 0 0 1 1.243 1.117L9.956 4.5H2.044l.148-1.383ZM2.25 6a.75.75 0 0 0 0 1.5H3A.75.75 0 0 0 3 6h-.75Zm6 .75A.75.75 0 0 1 9 6h.75a.75.75 0 0 1 0 1.5H9a.75.75 0 0 1-.75-.75Z" clip-rule="evenodd"/>
  </g>
  <defs>
    <clipPath id="Car-12_svg__a">
      <path fill="#fff" d="M0 0h12v12H0z"/>
    </clipPath>
  </defs>
</svg>
