<svg fill="none" viewBox="0 0 16 16" xmlns="http://www.w3.org/2000/svg">
  <path fill="#000" d="M14.375 10c.345 0 .625.28.625.625V11a4 4 0 0 1-4 4H8.625a.625.625 0 0 1 0-1.25H11A2.75 2.75 0 0 0 13.75 11v-.375c0-.345.28-.625.625-.625Zm-3.62-8.287a2.499 2.499 0 0 1 3.487.045l.045.046a2.5 2.5 0 0 1-.045 3.488l-8.103 8.103a2.614 2.614 0 0 1-.887.582l-.067.025-2.528.92c-.985.358-1.947-.583-1.611-1.575l.788-2.332.025-.07c.131-.353.336-.674.603-.94l8.246-8.247.046-.045Zm-7.41 9.175a1.363 1.363 0 0 0-.314.49l-.013.038-.788 2.33 2.528-.918.035-.013c.173-.069.33-.172.463-.304l6.755-6.756a3.938 3.938 0 0 1-1.766-1.766l-6.9 6.9Zm10.013-8.246a1.249 1.249 0 0 0-1.766 0l-.39.39.017.05a2.687 2.687 0 0 0 1.7 1.699l.05.017.39-.39a1.249 1.249 0 0 0 0-1.766Z"/>
</svg>
