<svg fill="none" viewBox="0 0 20 20" xmlns="http://www.w3.org/2000/svg">
  <circle cx="10" cy="10" r="9" fill="#3969EF"/>
  <path fill="#fff" fill-rule="evenodd" d="M9.25 6.379c0-.543.474-1.129 1.255-1.129.46 0 .995.257.995.886 0 .5-.367 1.114-1.24 1.114-.474 0-1.01-.214-1.01-.871ZM9.054 8.65l1.881-.35s-.456 2.924-.597 3.96c-.142 1.035.048 1.475.912 1.334-.04.668-.219 1.406-1.26 1.406-.913 0-1.49-.594-1.49-1.682 0-1.09.165-2.107.326-3.103.086-.525.17-1.045.228-1.565Z" clip-rule="evenodd"/>
</svg>
