<svg fill="none" viewBox="0 0 16 16" xmlns="http://www.w3.org/2000/svg">
  <g fill="#000" clip-path="url(#Import-Export-16_svg__a)">
    <path d="M4.817 7.308a.625.625 0 0 1-.884.884L1.62 5.878a2.125 2.125 0 0 1 0-3.006L3.933.558a.625.625 0 0 1 .884.884L2.509 3.75h11.866a.625.625 0 1 1 0 1.25H2.509l2.308 2.308ZM1 11.625c0-.345.28-.625.625-.625h11.866l-2.308-2.308a.625.625 0 1 1 .884-.884l2.314 2.314c.83.83.83 2.176 0 3.006l-2.314 2.314a.625.625 0 1 1-.884-.884l2.308-2.308H1.625A.625.625 0 0 1 1 11.625Z"/>
  </g>
  <defs>
    <clipPath id="Import-Export-16_svg__a">
      <path fill="#fff" d="M0 0h16v16H0z"/>
    </clipPath>
  </defs>
</svg>
