<svg fill="none" viewBox="0 0 16 16" xmlns="http://www.w3.org/2000/svg">
  <path fill="#000" fill-rule="evenodd" d="M15.835 11.836a9.174 9.174 0 0 0-.677-2 9.493 9.493 0 0 0-1.467-2.219 8.023 8.023 0 0 0-1.424-1.25c.003-.002.004-.005.005-.008a.029.029 0 0 1 .005-.008c.427-.834.867-1.662 1.298-2.494a.886.886 0 0 0 .072-.625.806.806 0 0 0-.339-.49.68.68 0 0 0-.566-.092.731.731 0 0 0-.446.377c-.447.866-.85 1.76-1.35 2.597a7.258 7.258 0 0 0-2.939-.614c-1.013 0-1.99.226-2.924.608-.399-.888-.9-1.727-1.346-2.591-.197-.366-.651-.526-1.011-.286-.31.204-.427.604-.33.954.047.172.151.331.233.488.376.722.757 1.443 1.128 2.168l.005.005a8.603 8.603 0 0 0-2.315 2.42A9.379 9.379 0 0 0 .17 11.898c-.125.582.349 1.1.944 1.1H15c.552 0 .986-.45.873-.99a23.84 23.84 0 0 0-.038-.173Zm-3.66-1.304c.32-.237.368-.787.102-1.223-.261-.442-.736-.604-1.055-.367-.32.238-.368.787-.102 1.223.262.442.736.604 1.055.367ZM4.822 8.948c.32.237.363.781.101 1.223-.266.436-.735.603-1.055.366-.32-.237-.363-.78-.102-1.223.262-.441.736-.603 1.056-.366Z" clip-rule="evenodd"/>
</svg>
