<svg fill="none" viewBox="0 0 24 24" xmlns="http://www.w3.org/2000/svg">
  <path fill="#000" d="M15.831 13.646c.404-.19.857.153.66.553a5 5 0 0 1-8.982 0c-.197-.4.257-.743.66-.553A8.964 8.964 0 0 0 12 14.5c1.37 0 2.669-.306 3.831-.854Zm-7.81-4.789a.857.857 0 0 1 1.714 0v1.286a.857.857 0 0 1-1.714 0V8.857ZM15.157 8a.857.857 0 0 0-.857.857v1.286a.857.857 0 0 0 1.715 0V8.857A.857.857 0 0 0 15.157 8Z"/>
  <path fill="#000" fill-rule="evenodd" d="M22 12c0 5.523-4.477 10-10 10S2 17.523 2 12 6.477 2 12 2s10 4.477 10 10Zm-1.5 0a8.5 8.5 0 1 1-17 0 8.5 8.5 0 0 1 17 0Z" clip-rule="evenodd"/>
</svg>
