<svg fill="none" viewBox="0 0 16 16" xmlns="http://www.w3.org/2000/svg">
  <path fill="#000" d="M3.625 4a.625.625 0 1 0 0 1.25h8.75a.625.625 0 1 0 0-1.25h-8.75Zm2.759 3.574c-.592-.065-1.186.111-1.442.368a.625.625 0 1 1-.884-.884c.619-.618 1.65-.817 2.464-.726.422.047.862.177 1.214.436.37.272.639.69.639 1.232a1.83 1.83 0 0 1-.579 1.353c.42.354.704.87.704 1.522 0 1.109-.941 1.64-1.739 1.787-.816.15-1.817-.006-2.516-.54a.625.625 0 0 1 .76-.993c.363.278.987.403 1.53.303.562-.103.715-.353.715-.557a.71.71 0 0 0-.323-.616C6.703 10.1 6.368 10 6 10a.625.625 0 1 1 0-1.25c.366 0 .666-.099.857-.239A.599.599 0 0 0 7.125 8c0-.083-.027-.15-.13-.225-.121-.089-.33-.17-.61-.2ZM12 7.125a.625.625 0 0 0-.935-.543l-1.75 1a.625.625 0 0 0 .62 1.086l.815-.466v3.673a.625.625 0 1 0 1.25 0v-4.75Z"/>
  <path fill="#000" fill-rule="evenodd" d="M5.25.625a.625.625 0 1 0-1.25 0V1a4 4 0 0 0-4 4v6a4 4 0 0 0 4 4h8a4 4 0 0 0 4-4V5a4 4 0 0 0-4-4V.625a.625.625 0 1 0-1.25 0V1h-5.5V.625Zm5.5 1.75V2.25h-5.5v.125a.625.625 0 1 1-1.25 0V2.25A2.75 2.75 0 0 0 1.25 5v6A2.75 2.75 0 0 0 4 13.75h8A2.75 2.75 0 0 0 14.75 11V5A2.75 2.75 0 0 0 12 2.25v.125a.625.625 0 1 1-1.25 0Z" clip-rule="evenodd"/>
</svg>
