<svg fill="none" viewBox="0 0 24 24" xmlns="http://www.w3.org/2000/svg">
  <path fill="#6B4EBA" d="M4.948 17.213c.399.354.474.967.125 1.37l-1.617 1.864c-.552.637-.018 1.605.812 1.462 3.32-.57 9.137-1.673 11.5-2.758C19.425 17.826 22 14.631 22 10.9c0-4.918-4.477-8.906-10-8.906S2 5.981 2 10.899c0 2.468 1.127 4.701 2.948 6.314Z"/>
  <path fill="#fff" d="M11.618 6.284c.1-.398.665-.398.764 0l.37 1.483a3.28 3.28 0 0 0 2.387 2.386l1.484.371c.397.1.397.665 0 .764l-1.484.37a3.28 3.28 0 0 0-2.386 2.388l-.37 1.483c-.1.397-.665.397-.765 0l-.37-1.483a3.28 3.28 0 0 0-2.387-2.387l-1.483-.37c-.398-.1-.398-.665 0-.765l1.483-.37a3.28 3.28 0 0 0 2.386-2.387l.371-1.483Z"/>
</svg>
