<svg fill="none" viewBox="0 0 24 24" xmlns="http://www.w3.org/2000/svg">
  <path fill="#000" fill-rule="evenodd" d="M17.748 17.945c-.41.06-.748-.207-.748-.621 0-.415.34-.816.745-.903A3.501 3.501 0 0 0 20.5 13V9H19a4 4 0 0 1-4-4V3.5h-2a3.491 3.491 0 0 0-2.594 1.15.992.992 0 0 1-.736.343c-.591-.006-.977-.6-.613-1.067A4.991 4.991 0 0 1 13 2h3.37c.762 0 1.494.303 2.033.842l2.755 2.755c.54.54.842 1.27.842 2.033V13a5.001 5.001 0 0 1-4.252 4.945ZM16.5 3.506c.317.03.615.17.842.397l2.756 2.755c.227.227.366.525.396.842H19A2.5 2.5 0 0 1 16.5 5V3.506Z" clip-rule="evenodd"/>
  <path fill="#000" fill-rule="evenodd" d="M2 17a5 5 0 0 0 5 5h4a5 5 0 0 0 5-5v-5.37c0-.762-.303-1.494-.842-2.033l-2.755-2.755A2.875 2.875 0 0 0 10.37 6H7a5 5 0 0 0-5 5v6Zm5 3.5A3.5 3.5 0 0 1 3.5 17v-6A3.5 3.5 0 0 1 7 7.5h2V9a4 4 0 0 0 4 4h1.5v4a3.5 3.5 0 0 1-3.5 3.5H7Zm7.494-9a1.375 1.375 0 0 0-.396-.842l-2.756-2.755a1.375 1.375 0 0 0-.842-.397V9a2.5 2.5 0 0 0 2.5 2.5h1.494Z" clip-rule="evenodd"/>
</svg>
