<svg fill="none" viewBox="0 0 16 16" xmlns="http://www.w3.org/2000/svg">
  <g fill="#000" clip-path="url(#Device-Desktop-Lock-16_svg__a)">
    <path d="M3.125 1A3.125 3.125 0 0 0 0 4.125v4.75C0 10.601 1.4 12 3.125 12H6.5v1.75H4.625a.625.625 0 1 0 0 1.25H7.15a.6.6 0 0 0 .6-.6v-2.548c0-.419.123-.81.334-1.137.291-.452.219-.715-.319-.715h-4.64A1.875 1.875 0 0 1 1.25 8.125v-4c0-1.036.84-1.875 1.875-1.875h9.75c1.036 0 1.875.84 1.875 1.875v2.24c0 .557.28 1.063.637 1.491.162.196.618.086.618-.169.001-.658 0-1.316-.002-1.974L16 4.125A3.126 3.126 0 0 0 12.875 1h-9.75Z"/>
    <path fill-rule="evenodd" d="M10 10.25a2.5 2.5 0 0 1 5 0V11h.148c.47 0 .852.382.852.852v3.296c0 .47-.382.852-.852.852H9.852A.852.852 0 0 1 9 15.148v-3.296c0-.47.382-.852.852-.852H10v-.75Zm3.75 0V11h-2.5v-.75a1.25 1.25 0 1 1 2.5 0Z" clip-rule="evenodd"/>
  </g>
  <defs>
    <clipPath id="Device-Desktop-Lock-16_svg__a">
      <path fill="#fff" d="M0 0h16v16H0z"/>
    </clipPath>
  </defs>
</svg>
