<svg fill="none" viewBox="0 0 24 24" xmlns="http://www.w3.org/2000/svg">
  <path fill="#DDD" d="M5.75 4.2c0-.736.597-1.325 1.333-1.325h9.834c.736 0 1.333.597 1.333 1.333v15.584c0 .736-.597 1.333-1.333 1.333H7.083A1.326 1.326 0 0 1 5.75 19.8V4.2Z"/>
  <path fill="#fff" d="M5.75 16h12.5v3.792c0 .736-.597 1.333-1.333 1.333H7.083a1.333 1.333 0 0 1-1.333-1.333V16Z"/>
  <path fill="#888" d="M15.375 17.75a.625.625 0 1 1 0 1.25h-6.75a.625.625 0 1 1 0-1.25h6.75Z"/>
  <path fill="url(#Address-Bar-Bottom-Color-24_svg__a)" d="M16.188 2A2.813 2.813 0 0 1 19 4.813v14.375A2.813 2.813 0 0 1 16.187 22H7.813A2.813 2.813 0 0 1 5 19.187V4.813A2.813 2.813 0 0 1 7.813 2h8.375ZM7.813 3.25c-.863 0-1.563.7-1.563 1.563v14.375c0 .862.7 1.562 1.563 1.562h8.375c.862 0 1.562-.7 1.562-1.563V4.813c0-.862-.7-1.562-1.563-1.562H7.813Z"/>
  <path fill="#3969EF" d="M12 6c.345 0 .625.28.625.625v5.547l1.32-1.25.024-.022a.625.625 0 0 1 .859.906l-.023.023-1.945 1.842a1.25 1.25 0 0 1-1.72 0L9.195 11.83l-.023-.023a.625.625 0 0 1 .859-.906l.024.021 1.32 1.25V6.626c0-.345.28-.625.625-.625Z"/>
  <defs>
    <linearGradient id="Address-Bar-Bottom-Color-24_svg__a" x1="12" x2="12" y1="2" y2="22" gradientUnits="userSpaceOnUse">
      <stop stop-color="#888"/>
      <stop offset="1" stop-color="#333"/>
    </linearGradient>
  </defs>
</svg>
