<svg fill="none" viewBox="0 0 24 24" xmlns="http://www.w3.org/2000/svg">
  <path fill="#8FABF9" d="M9.5 3.875H7A4.375 4.375 0 0 0 2.625 8.25v7.5A4.375 4.375 0 0 0 7 20.125h10a4.375 4.375 0 0 0 4.375-4.375v-5A4.375 4.375 0 0 0 17 6.375h-2.5c-.984 0-1.91-.463-2.5-1.25a3.125 3.125 0 0 0-2.5-1.25Z"/>
  <path fill="#7295F6" d="M9.5 3.875H7A4.375 4.375 0 0 0 2.625 8.25v1.875h18.75l-2.5-3.75H14.5c-.984 0-1.91-.463-2.5-1.25a3.125 3.125 0 0 0-2.5-1.25Z"/>
  <path fill="url(#Folder-Color-24_svg__a)" d="M9.294 3c1.316 0 2.539.678 3.236 1.794A2.567 2.567 0 0 0 14.706 6H17a5 5 0 0 1 5 5v5a5 5 0 0 1-5 5H7a5 5 0 0 1-5-5V8a5 5 0 0 1 5-5h2.294ZM3.25 11v5A3.75 3.75 0 0 0 7 19.75h10A3.75 3.75 0 0 0 20.75 16v-5H3.25ZM7 4.25A3.75 3.75 0 0 0 3.25 8v1.75h17.286A3.751 3.751 0 0 0 17 7.25h-2.294a3.816 3.816 0 0 1-3.236-1.794A2.567 2.567 0 0 0 9.294 4.25H7Z"/>
  <defs>
    <linearGradient id="Folder-Color-24_svg__a" x1="12" x2="12" y1="3" y2="21" gradientUnits="userSpaceOnUse">
      <stop stop-color="#3969EF"/>
      <stop offset="1" stop-color="#1E42A4"/>
    </linearGradient>
  </defs>
</svg>
