<svg fill="none" viewBox="0 0 24 24" xmlns="http://www.w3.org/2000/svg">
  <path fill="#EEE" fill-rule="evenodd" d="M14.239 20.334h4.094a3 3 0 0 0 3-3V6.667a3 3 0 0 0-3-3h-4.105c-2.028 2.17-3.827 6.232-3.395 8.5l2 .167c0 4.577.816 6.91 1.406 8Z" clip-rule="evenodd"/>
  <path fill="#ADC2FC" d="M4.833 3.833h9.334c-1.334 1.611-3.867 5.533-3.334 8.333l2 .167c-.167 6 1.833 8.167 1.833 8.167l-9.333-.167c-2.5-.5-2.667-2.833-2.667-2.833l.167-12.167 2-1.5Z"/>
  <path fill="#1E42A4" d="M8 7.75a.75.75 0 0 0-1.5 0V10A.75.75 0 0 0 8 10V7.75Zm9.5 0a.75.75 0 0 0-1.5 0V10a.75.75 0 0 0 1.5 0V7.75Z"/>
  <path fill="#1E42A4" fill-rule="evenodd" d="M5.75 3A3.75 3.75 0 0 0 2 6.75v10.5A3.75 3.75 0 0 0 5.75 21h12.5A3.75 3.75 0 0 0 22 17.25V6.75A3.75 3.75 0 0 0 18.25 3H5.75ZM3.5 6.75A2.25 2.25 0 0 1 5.75 4.5h6.877c-1.172 1.587-2.71 4.367-2.71 7.75 0 .414.335.75.75.75h1.392c.021 1.175.093 2.165.19 2.995A5.866 5.866 0 0 1 12 16c-2.123 0-3.67-1.11-4.517-1.824a.75.75 0 1 0-.966 1.148C7.448 16.107 9.338 17.5 12 17.5c.162 0 .323-.005.48-.015.041.209.084.402.127.579.17.703.345 1.163.47 1.436H5.75a2.25 2.25 0 0 1-2.25-2.25V6.75ZM14.794 19.5h3.456a2.25 2.25 0 0 0 2.25-2.25V6.75a2.25 2.25 0 0 0-2.25-2.25h-3.685c-.849.91-2.854 3.572-3.12 7h1.357a.75.75 0 0 1 .75.75c0 1.423.073 2.576.179 3.5a7.084 7.084 0 0 0 2.757-1.548.75.75 0 1 1 1.024 1.097 8.59 8.59 0 0 1-3.55 1.944c.163.81.39 1.559.832 2.257Z" clip-rule="evenodd"/>
</svg>
