<svg fill="none" viewBox="0 0 24 24" xmlns="http://www.w3.org/2000/svg">
  <path fill="#F9BE1A" d="M18.548 4.125a2.328 2.328 0 0 1 2.327 2.327v5.802a4.251 4.251 0 0 0-3.766-2.503L17 9.75A4.25 4.25 0 0 0 12.75 14v.865a2.797 2.797 0 0 0-2 2.68v2.33H5.452a2.328 2.328 0 0 1-2.327-2.327V6.452a2.328 2.328 0 0 1 2.327-2.327h13.096Z"/>
  <path fill="#FFDE7A" d="m19 4 2.063 2-3.761 3.76a4.317 4.317 0 0 0-.193-.009L17 9.75A4.251 4.251 0 0 0 12.87 13h-2.745L3 6l2-2h14Z"/>
  <path fill="url(#Email-Protection-Color-24_svg__a)" d="M17 3a5 5 0 0 1 5 5v4.322c0 .559-.718.941-.913.418a5.536 5.536 0 0 0-.337-.741V8c0-.272-.03-.538-.085-.794l-2.709 2.651a4.262 4.262 0 0 0-.847-.106L17 9.75c-.273 0-.54.026-.799.075l3.947-3.862A3.746 3.746 0 0 0 17 4.25H7c-1.32 0-2.48.682-3.148 1.713l5.525 5.408a3.749 3.749 0 0 0 3.741.899c-.188.42-.31.878-.351 1.358a5.005 5.005 0 0 1-2.994-.46l-4.957 5.88A3.732 3.732 0 0 0 7 19.75h3.75c0 .133-.003.267-.004.401-.003.442-.351.849-.793.849H7a5 5 0 0 1-5-5V8a5 5 0 0 1 5-5h10ZM3.334 7.206A3.766 3.766 0 0 0 3.25 8v8c0 .803.253 1.546.683 2.156l4.795-5.686a4.997 4.997 0 0 1-.226-.205L3.334 7.206Z"/>
  <path fill="#888" d="M18.75 14a1.75 1.75 0 1 0-3.5 0v2.875a1.75 1.75 0 1 0 3.5 0V14ZM20 16.875a3 3 0 1 1-6 0V14a3 3 0 1 1 6 0v2.875Z"/>
  <rect width="4.75" height="7.625" x="14.625" y="11.625" stroke="#888" stroke-width="1.25" rx="2.375"/>
  <path fill="#DDD" stroke="#666" stroke-linecap="round" stroke-width="1.25" d="M12.625 17.546a.92.92 0 0 1 .921-.921h6.908a.92.92 0 0 1 .921.921v2.908a.921.921 0 0 1-.921.921h-6.908a.921.921 0 0 1-.921-.921v-2.908Z"/>
  <defs>
    <linearGradient id="Email-Protection-Color-24_svg__a" x1="12.001" x2="12.001" y1="3" y2="21" gradientUnits="userSpaceOnUse">
      <stop stop-color="#C18010"/>
      <stop offset="1" stop-color="#92540C"/>
    </linearGradient>
  </defs>
</svg>
