<svg fill="none" viewBox="0 0 20 20" xmlns="http://www.w3.org/2000/svg">
  <path fill="#888" fill-rule="evenodd" d="M5 6.667a5 5 0 1 1 10 0v4.166a5 5 0 0 1-10 0V6.667Zm5-3.75a3.75 3.75 0 0 0-3.75 3.75v4.166a3.75 3.75 0 1 0 7.5 0V6.667A3.75 3.75 0 0 0 10 2.917Z" clip-rule="evenodd"/>
  <path fill="#F9BE1A" d="M3.056 10.556c0-.46.373-.834.833-.834h12.222c.46 0 .834.373.834.834v6.388c0 .46-.373.834-.834.834H3.89a.833.833 0 0 1-.833-.834v-6.388Z"/>
  <path fill="#FFDE7A" d="M3.056 9.722H10v8.056H3.056V9.722Z"/>
  <path fill="#C18010" fill-rule="evenodd" d="M2.57 10.625c0-.805.652-1.458 1.458-1.458h11.944c.806 0 1.458.653 1.458 1.458v6.25c0 .805-.652 1.458-1.458 1.458H4.028a1.458 1.458 0 0 1-1.459-1.458v-6.25Zm1.458-.208a.208.208 0 0 0-.209.208v6.25c0 .115.094.208.209.208h11.944a.208.208 0 0 0 .208-.208v-6.25a.208.208 0 0 0-.208-.208H4.028Z" clip-rule="evenodd"/>
</svg>
