<svg fill="none" viewBox="0 0 16 16" xmlns="http://www.w3.org/2000/svg">
  <path fill="#F5F5F5" d="M4 1a4 4 0 0 0-4 4v6a4 4 0 0 0 4 4h2.5l.5-.5s.572-.143.416-.5A5 5 0 0 1 15 8c.379.284 0-1 .5-1h.5V5a4 4 0 0 0-4-4H4Z"/>
  <path fill="#DDD" d="M0 6V5a4 4 0 0 1 4-4h8a4 4 0 0 1 4 4v1H0Z"/>
  <path fill="#888" fill-rule="evenodd" d="M15 6H1v5a3 3 0 0 0 3 3h3.416c.191.438-.099 1-.577 1H4a4 4 0 0 1-4-4V5a4 4 0 0 1 4-4h8a4 4 0 0 1 4 4v2.58c0 .456-.636.693-1 .42V6Zm0-1a3 3 0 0 0-3-3H4a3 3 0 0 0-3 3h14Z" clip-rule="evenodd"/>
  <path fill="#7295F6" d="M16 12a4 4 0 1 1-8 0 4 4 0 0 1 8 0Z"/>
  <path fill="#1E42A4" fill-rule="evenodd" d="M12 15a3 3 0 1 0 0-6 3 3 0 0 0 0 6Zm0 1a4 4 0 1 0 0-8 4 4 0 0 0 0 8Z" clip-rule="evenodd"/>
  <path fill="#7295F6" d="M13.818 12c0 2.21-.814 4-1.818 4s-1.818-1.79-1.818-4S10.996 8 12 8s1.818 1.79 1.818 4Z"/>
  <path fill="#1E42A4" fill-rule="evenodd" d="M12.375 14.415c.258-.567.443-1.42.443-2.415 0-.995-.185-1.848-.443-2.415-.17-.372-.31-.51-.375-.56-.066.05-.206.188-.376.56-.257.567-.442 1.42-.442 2.415 0 .995.185 1.848.442 2.415.17.372.31.51.376.56.066-.05.206-.188.375-.56ZM12 16c1.004 0 1.818-1.79 1.818-4S13.004 8 12 8s-1.818 1.79-1.818 4 .814 4 1.818 4Z" clip-rule="evenodd"/>
  <path fill="#1E42A4" fill-rule="evenodd" d="M8.288 12a.5.5 0 0 1 .5-.5h6.424a.5.5 0 1 1 0 1H8.788a.5.5 0 0 1-.5-.5Z" clip-rule="evenodd"/>
</svg>
