<svg fill="none" viewBox="0 0 16 16" xmlns="http://www.w3.org/2000/svg">
  <g clip-path="url(#Settings-16_svg__a)">
    <path fill="#000" fill-rule="evenodd" d="M5.647 14.153c0 1.028.833 1.862 1.862 1.862h.983a1.861 1.861 0 0 0 1.861-1.862c0-.512.592-.797.993-.478a1.861 1.861 0 0 0 2.616-.295l.613-.768a1.861 1.861 0 0 0-.295-2.616.611.611 0 0 1 .245-1.075 1.862 1.862 0 0 0 1.4-2.229l-.218-.958a1.862 1.862 0 0 0-2.23-1.4.611.611 0 0 1-.686-.862 1.862 1.862 0 0 0-.87-2.485l-.886-.426a1.861 1.861 0 0 0-2.484.869.611.611 0 0 1-1.101 0A1.861 1.861 0 0 0 4.965.56L4.08.988a1.861 1.861 0 0 0-.87 2.485.611.611 0 0 1-.686.861 1.861 1.861 0 0 0-2.23 1.4l-.218.96a1.86 1.86 0 0 0 1.4 2.228c.5.114.646.755.245 1.075a1.861 1.861 0 0 0-.295 2.616l.613.768a1.861 1.861 0 0 0 2.616.295c.4-.32.993-.034.993.478Zm1.862.612a.611.611 0 0 1-.612-.612c0-1.56-1.803-2.428-3.022-1.455a.612.612 0 0 1-.86-.097l-.612-.769a.611.611 0 0 1 .097-.859c1.219-.972.774-2.923-.747-3.27a.611.611 0 0 1-.46-.732l.22-.959a.611.611 0 0 1 .731-.46c1.52.347 2.768-1.217 2.092-2.622a.611.611 0 0 1 .286-.816l.886-.427a.611.611 0 0 1 .815.285C7 3.377 9 3.377 9.677 1.972a.611.611 0 0 1 .816-.285l.886.427a.612.612 0 0 1 .285.816c-.676 1.405.571 2.97 2.092 2.622a.61.61 0 0 1 .732.46l.219.959a.611.611 0 0 1-.46.732c-1.52.347-1.966 2.298-.746 3.27.264.21.307.595.096.86l-.612.768a.611.611 0 0 1-.86.097c-1.22-.973-3.022-.104-3.022 1.455a.611.611 0 0 1-.611.612h-.983ZM8 9.75a1.75 1.75 0 1 1 0-3.5 1.75 1.75 0 0 1 0 3.5ZM5 8a3 3 0 1 0 6 0 3 3 0 0 0-6 0Z" clip-rule="evenodd"/>
  </g>
  <defs>
    <clipPath id="Settings-16_svg__a">
      <path fill="#fff" d="M0 0h16v16H0z"/>
    </clipPath>
  </defs>
</svg>
