<svg fill="none" viewBox="0 0 24 24" xmlns="http://www.w3.org/2000/svg">
  <path fill="#000" d="M4 5.75A3.75 3.75 0 0 1 7.75 2h4a3.75 3.75 0 0 1 3.355 2.072c.228.455-.155.928-.664.928-.34 0-.634-.224-.824-.507A2.248 2.248 0 0 0 11.75 3.5h-4A2.25 2.25 0 0 0 5.5 5.75v9.245c0 .375.196.677.47.848l.044.027c.406.251.986.61.986 1.073 0 .295-.208.558-.503.556C5.207 17.492 4 16.469 4 14.995V5.75Z"/>
  <path fill="#000" fill-rule="evenodd" d="M12.25 6.5a3.75 3.75 0 0 0-3.75 3.75v9.244c0 2.059 2.348 3.235 3.997 2.003l1.155-.863a1 1 0 0 1 1.197 0l1.154.863c1.649 1.232 3.997.056 3.997-2.003V10.25a3.75 3.75 0 0 0-3.75-3.75h-4ZM10 10.25A2.25 2.25 0 0 1 12.25 8h4a2.25 2.25 0 0 1 2.25 2.25v9.244a1 1 0 0 1-1.599.802l-1.154-.863a2.5 2.5 0 0 0-2.994 0l-1.154.863A1 1 0 0 1 10 19.494V10.25Z" clip-rule="evenodd"/>
</svg>
