<svg fill="none" viewBox="0 0 24 24" xmlns="http://www.w3.org/2000/svg">
  <path fill="#000" fill-rule="evenodd" d="m22.012 10.075-.029-.84c-.011-.337-.42-.52-.71-.35a4.48 4.48 0 0 1-.381.2.653.653 0 0 0-.392.606c.012.311.022.623.017.934a9.875 9.875 0 0 1-5.743 8.803l-1.78.82a2.365 2.365 0 0 1-.223.09V3.707c.265.107.513.267.728.48l.283.28c.258.256.728.061.795-.296a4.52 4.52 0 0 1 .101-.43.635.635 0 0 0-.157-.646 4.04 4.04 0 0 0-.7-.539 3.72 3.72 0 0 0-4.472.54L8.11 4.299a1.28 1.28 0 0 1-1.265.306l-.376-.114A3.406 3.406 0 0 0 2.07 7.634l-.082 2.44a11.375 11.375 0 0 0 6.61 10.717l1.78.82a3.875 3.875 0 0 0 3.242 0l1.78-.82a11.375 11.375 0 0 0 6.61-10.716ZM11.229 3.663v16.674a2.365 2.365 0 0 1-.222-.089l-1.78-.82a9.875 9.875 0 0 1-5.739-9.303l.082-2.44a1.906 1.906 0 0 1 2.46-1.76l.378.115c.968.295 2.02.04 2.746-.664l1.24-1.203a2.21 2.21 0 0 1 .835-.51Z" clip-rule="evenodd"/>
  <circle cx="19" cy="5" r="3" fill="#000"/>
</svg>
