<svg fill="none" viewBox="0 0 16 16" xmlns="http://www.w3.org/2000/svg">
  <g fill="#000" clip-path="url(#QR-16_svg__a)">
    <path d="M3.5 3a.5.5 0 0 0-.5.5v1a.5.5 0 0 0 .5.5h1a.5.5 0 0 0 .5-.5v-1a.5.5 0 0 0-.5-.5h-1Z"/>
    <path fill-rule="evenodd" d="M2.875.75A2.125 2.125 0 0 0 .75 2.875v2.25c0 1.174.951 2.125 2.125 2.125h2.25A2.125 2.125 0 0 0 7.25 5.125v-2.25A2.125 2.125 0 0 0 5.125.75h-2.25ZM2 2.875C2 2.392 2.392 2 2.875 2h2.25c.483 0 .875.392.875.875v2.25A.875.875 0 0 1 5.125 6h-2.25A.875.875 0 0 1 2 5.125v-2.25Z" clip-rule="evenodd"/>
    <path d="M3 11.5a.5.5 0 0 1 .5-.5h1a.5.5 0 0 1 .5.5v1a.5.5 0 0 1-.5.5h-1a.5.5 0 0 1-.5-.5v-1Z"/>
    <path fill-rule="evenodd" d="M2.875 8.75A2.125 2.125 0 0 0 .75 10.875v2.25c0 1.174.951 2.125 2.125 2.125h2.25a2.125 2.125 0 0 0 2.125-2.125v-2.25A2.125 2.125 0 0 0 5.125 8.75h-2.25ZM2 10.875c0-.483.392-.875.875-.875h2.25c.483 0 .875.392.875.875v2.25a.875.875 0 0 1-.875.875h-2.25A.875.875 0 0 1 2 13.125v-2.25Z" clip-rule="evenodd"/>
    <path d="M11.5 3a.5.5 0 0 0-.5.5v1a.5.5 0 0 0 .5.5h1a.5.5 0 0 0 .5-.5v-1a.5.5 0 0 0-.5-.5h-1Z"/>
    <path fill-rule="evenodd" d="M8.75 2.875c0-1.174.951-2.125 2.125-2.125h2.25c1.174 0 2.125.951 2.125 2.125v2.25a2.125 2.125 0 0 1-2.125 2.125h-2.25A2.125 2.125 0 0 1 8.75 5.125v-2.25ZM10.875 2a.875.875 0 0 0-.875.875v2.25c0 .483.392.875.875.875h2.25A.875.875 0 0 0 14 5.125v-2.25A.875.875 0 0 0 13.125 2h-2.25Z" clip-rule="evenodd"/>
    <path d="M15.25 9.375a.625.625 0 0 0-.625-.625h-1a.625.625 0 1 0 0 1.25H14v1.375a.625.625 0 1 0 1.25 0v-2ZM9.375 12c.345 0 .625.28.625.625v1.25h.375a.625.625 0 1 1 0 1.25h-1a.625.625 0 0 1-.625-.625v-1.875c0-.345.28-.625.625-.625ZM12 14.5c0-.345.28-.625.625-.625H14v-.25a.625.625 0 1 1 1.25 0v.875c0 .345-.28.625-.625.625h-2A.625.625 0 0 1 12 14.5ZM9.5 8.875a.633.633 0 0 0-.063.003.625.625 0 0 0-.688.622v.875a.625.625 0 1 0 1.251 0v-.25h1.375a.625.625 0 1 0 0-1.25H9.5ZM11.625 11a.625.625 0 0 0-.625.625v.75c0 .345.28.625.625.625h.75c.345 0 .625-.28.625-.625v-.75a.625.625 0 0 0-.625-.625h-.75Z"/>
  </g>
  <defs>
    <clipPath id="QR-16_svg__a">
      <path fill="#fff" d="M0 0h16v16H0z"/>
    </clipPath>
  </defs>
</svg>
