<svg fill="none" viewBox="0 0 16 16" xmlns="http://www.w3.org/2000/svg">
  <path fill="#000" d="M4.75 10.75a.5.5 0 0 1 .5.5v1a.5.5 0 0 1-.5.5h-1a.5.5 0 0 1-.5-.5v-1a.5.5 0 0 1 .5-.5h1Z"/>
  <path fill="#000" fill-rule="evenodd" d="M5.375 8.5c1.174 0 2.125.951 2.125 2.125v2.25A2.125 2.125 0 0 1 5.375 15h-2.25A2.125 2.125 0 0 1 1 12.875v-2.25C1 9.451 1.951 8.5 3.125 8.5h2.25Zm-2.25 1.25a.875.875 0 0 0-.875.875v2.25c0 .483.392.875.875.875h2.25a.875.875 0 0 0 .875-.875v-2.25a.875.875 0 0 0-.875-.875h-2.25Z" clip-rule="evenodd"/>
  <path fill="#000" d="M9.125 12c.345 0 .625.28.625.625v1.125H10l.126.013a.625.625 0 0 1 0 1.224L10 15h-.75c-.02 0-.04-.005-.059-.007-.022.002-.043.007-.066.007a.625.625 0 0 1-.612-.499l-.013-.126v-1.75c0-.345.28-.625.625-.625Zm5.25.875c.345 0 .625.28.625.625v.875a.625.625 0 0 1-.499.612l-.126.013h-1.75a.625.625 0 1 1 0-1.25h1.125v-.25c0-.345.28-.625.625-.625ZM12.25 10.75a.5.5 0 0 1 .5.5v1a.5.5 0 0 1-.5.5h-1a.5.5 0 0 1-.5-.5v-1a.5.5 0 0 1 .5-.5h1Zm2.251-2.237a.62.62 0 0 1 .111.034l.034.017a.629.629 0 0 1 .287.285c.008.016.016.031.022.047.009.022.014.045.02.068.004.014.01.027.012.042a.627.627 0 0 1 .013.116v1.753a.625.625 0 1 1-1.25 0V9.75h-.125a.625.625 0 1 1 0-1.25h.75l.126.013ZM10.875 8.5a.625.625 0 1 1 0 1.25H9.75v.125a.625.625 0 1 1-1.25 0v-.75l.013-.126a.62.62 0 0 1 .034-.112c.005-.013.013-.025.02-.037.01-.02.019-.041.03-.06a.623.623 0 0 1 .253-.225.617.617 0 0 1 .046-.021c.022-.009.045-.014.068-.02.014-.004.027-.01.042-.012a.628.628 0 0 1 .119-.012h1.75ZM4.75 3.25a.5.5 0 0 1 .5.5v1a.5.5 0 0 1-.5.5h-1a.5.5 0 0 1-.5-.5v-1a.5.5 0 0 1 .5-.5h1Z"/>
  <path fill="#000" fill-rule="evenodd" d="M5.375 1C6.549 1 7.5 1.951 7.5 3.125v2.25A2.125 2.125 0 0 1 5.375 7.5h-2.25A2.125 2.125 0 0 1 1 5.375v-2.25C1 1.951 1.951 1 3.125 1h2.25Zm-2.25 1.25a.875.875 0 0 0-.875.875v2.25c0 .483.392.875.875.875h2.25a.875.875 0 0 0 .875-.875v-2.25a.875.875 0 0 0-.875-.875h-2.25Z" clip-rule="evenodd"/>
  <path fill="#000" d="M12.25 3.25a.5.5 0 0 1 .5.5v1a.5.5 0 0 1-.5.5h-1a.5.5 0 0 1-.5-.5v-1a.5.5 0 0 1 .5-.5h1Z"/>
  <path fill="#000" fill-rule="evenodd" d="M12.875 1C14.049 1 15 1.951 15 3.125v2.25A2.125 2.125 0 0 1 12.875 7.5h-2.25A2.125 2.125 0 0 1 8.5 5.375v-2.25C8.5 1.951 9.451 1 10.625 1h2.25Zm-2.25 1.25a.875.875 0 0 0-.875.875v2.25c0 .483.392.875.875.875h2.25a.875.875 0 0 0 .875-.875v-2.25a.875.875 0 0 0-.875-.875h-2.25Z" clip-rule="evenodd"/>
</svg>
