<svg fill="none" viewBox="0 0 16 16" xmlns="http://www.w3.org/2000/svg">
  <path fill="#000" fill-rule="evenodd" d="M2 5a4 4 0 0 1 4-4h4a4 4 0 0 1 4 4v1a4 4 0 0 1-4 4H8.625v2.011A1.5 1.5 0 1 1 6.636 14H1.625a.625.625 0 1 1 0-1.25h5.011c.15-.326.413-.59.739-.739V10H6a4 4 0 0 1-4-4V5Zm4-2.75A2.75 2.75 0 0 0 3.25 5v1A2.75 2.75 0 0 0 6 8.75h4A2.75 2.75 0 0 0 12.75 6V5A2.75 2.75 0 0 0 10 2.25H6Z" clip-rule="evenodd"/>
  <path fill="#000" d="M10.625 14h3.75a.625.625 0 1 0 0-1.25h-3.75a.625.625 0 1 0 0 1.25Z"/>
</svg>
