<svg fill="none" viewBox="0 0 16 16" xmlns="http://www.w3.org/2000/svg">
  <g clip-path="url(#Fire-16_svg__a)">
    <path fill="#000" d="M6.588.022a.625.625 0 0 1 .563.124c1.358 1.138 1.597 2.773 1.8 3.901.11.61.2 1.034.36 1.324.071.13.146.21.226.264a.795.795 0 0 0 .389.117c.417.034.626-.076.747-.188.14-.13.247-.341.31-.63.063-.282.07-.584.06-.826a3.631 3.631 0 0 0-.034-.378.625.625 0 0 1 1.088-.514c1.69 1.95 2.744 4.386 2.889 6.619l.008.153c.07 1.581-.396 3.088-1.545 4.206C12.269 15.344 10.45 16 8 16c-2.723 0-4.928-1.126-6.094-2.932-1.175-1.819-1.22-4.21.151-6.553l.07-.118c.725-1.211 1.569-2.222 2.29-3.144C5.175 2.283 5.8 1.41 6.162.412a.638.638 0 0 1 .426-.39ZM9.75 12.625c0-.523-.253-.972-.725-1.563-.295-.368-.688-.803-1.06-1.309-.376.501-.758.938-1.034 1.299-.443.58-.681 1.034-.681 1.573 0 .651.168 1.15.44 1.473.259.309.667.527 1.31.527.707 0 1.106-.225 1.343-.518.257-.317.407-.811.407-1.482Zm1.259-8.895ZM9.89.01c.34-.06.664.166.724.506.02.106.035.218.088.313.034.06.096.09.155.12a.625.625 0 0 1 .27.817c-.162.345-.568.43-.89.271a1.471 1.471 0 0 1-.627-.6 2.188 2.188 0 0 1-.23-.735.625.625 0 0 1 .51-.692ZM11 12.625c0 .624-.103 1.241-.368 1.773.836-.258 1.475-.642 1.945-1.1.844-.821 1.225-1.956 1.168-3.256l-.006-.126c-.095-1.459-.65-3.066-1.58-4.53-.106.375-.295.78-.637 1.096-.418.386-.99.574-1.698.516-.37-.03-.7-.135-.982-.324a1.962 1.962 0 0 1-.627-.701c-.276-.503-.393-1.143-.494-1.705-.165-.914-.318-1.79-.79-2.51-.424.815-.97 1.55-1.53 2.265-.752.962-1.53 1.892-2.2 3.014l-.065.11C1.969 9.14 2.07 11.02 2.956 12.39c.517.8 1.326 1.464 2.378 1.882C5.103 13.775 5 13.21 5 12.625c0-.961.45-1.693.938-2.333.517-.675 1.037-1.214 1.504-1.989A.638.638 0 0 1 7.989 8c.268.005.45.172.574.393.41.714.923 1.245 1.438 1.889.502.628.999 1.367.999 2.343Z"/>
  </g>
  <defs>
    <clipPath id="Fire-16_svg__a">
      <path fill="#fff" d="M0 0h16v16H0z"/>
    </clipPath>
  </defs>
</svg>
