<svg fill="none" viewBox="0 0 16 16" xmlns="http://www.w3.org/2000/svg">
  <g clip-path="url(#Meanings-16_svg__a)">
    <path fill="#000" d="M12.223 1.589a.656.656 0 1 1 .928-.928l2.626 2.625a.656.656 0 0 1 0 .928l-2.625 2.625a.656.656 0 1 1-.928-.928l1.628-1.629H8.984a3.718 3.718 0 1 0 0 7.436h4.868l-1.629-1.629a.656.656 0 1 1 .928-.928l2.626 2.625a.656.656 0 0 1 0 .928l-2.625 2.625a.656.656 0 1 1-.928-.928L13.633 13h-4.65a5 5 0 0 1-4.96-4.375H.624a.625.625 0 1 1 0-1.25h3.398A5 5 0 0 1 8.983 3h4.651l-1.41-1.411Z"/>
  </g>
  <defs>
    <clipPath id="Meanings-16_svg__a">
      <path fill="#fff" d="M0 0h16v16H0z"/>
    </clipPath>
  </defs>
</svg>
