<svg fill="none" viewBox="0 0 16 16" xmlns="http://www.w3.org/2000/svg">
  <g clip-path="url(#Meanings-16_svg__a)">
    <path fill="#000" d="M12.194.423a.623.623 0 0 1 .86-.002l.023.022 1.884 1.974a1.75 1.75 0 0 1 0 2.416l-1.884 1.974-.023.022a.625.625 0 0 1-.903-.862l.022-.024 1.616-1.693H8.984c-.99 0-1.94.395-2.64 1.098a3.758 3.758 0 0 0 0 5.304c.7.704 1.65 1.098 2.64 1.098h4.805l-1.616-1.694-.022-.023a.625.625 0 0 1 .903-.862l.023.022 1.884 1.974a1.75 1.75 0 0 1 0 2.416l-1.884 1.973-.023.023a.625.625 0 0 1-.903-.862l.022-.024L13.789 13H8.984a4.976 4.976 0 0 1-3.525-1.465 5.006 5.006 0 0 1-1.42-2.91H.625a.625.625 0 1 1 0-1.25h3.414a5.006 5.006 0 0 1 1.42-2.91A4.976 4.976 0 0 1 8.984 3h4.805l-1.616-1.693-.022-.024a.625.625 0 0 1 .043-.86Z"/>
  </g>
  <defs>
    <clipPath id="Meanings-16_svg__a">
      <path fill="#fff" d="M0 0h16v16H0z"/>
    </clipPath>
  </defs>
</svg>
