<svg fill="none" viewBox="0 0 12 12" xmlns="http://www.w3.org/2000/svg">
  <g fill="#000" clip-path="url(#Lock-16_svg__a)">
    <path d="M6 7.781c.259 0 .469.21.469.469V9a.469.469 0 0 1-.938 0v-.75c0-.259.21-.469.469-.469Z"/>
    <path fill-rule="evenodd" d="M2.75 5.033V3.25a3.25 3.25 0 1 1 6.5 0v1.783A2.126 2.126 0 0 1 11 7.125V10a2.125 2.125 0 0 1-2.125 2.125h-5.75A2.125 2.125 0 0 1 1 10V7.125c0-1.046.755-1.915 1.75-2.092ZM4 3.25a2 2 0 1 1 4 0V5H4V3.25Zm-.875 3a.875.875 0 0 0-.875.875V10c0 .483.392.875.875.875h5.75A.875.875 0 0 0 9.75 10V7.125a.875.875 0 0 0-.875-.875h-5.75Z" clip-rule="evenodd"/>
  </g>
  <defs>
    <clipPath id="Lock-16_svg__a">
      <path fill="#fff" d="M0 0h12v12H0z"/>
    </clipPath>
  </defs>
</svg>
