<svg fill="none" viewBox="0 0 12 12" xmlns="http://www.w3.org/2000/svg">
  <path fill="#000" d="M8.692.266c-.083-.33-.551-.33-.633 0l-.2.798a2.81 2.81 0 0 1-2.045 2.045l-.798.2c-.33.082-.33.55 0 .633l.798.199a2.81 2.81 0 0 1 2.045 2.045l.2.798c.082.33.55.33.633 0l.199-.798a2.81 2.81 0 0 1 2.045-2.045l.798-.2c.33-.082.33-.55 0-.632l-.798-.2a2.81 2.81 0 0 1-2.045-2.045l-.2-.798ZM.625 2.984h2.57c.215 0 .363.224.337.438a1.665 1.665 0 0 0-.003.383c.023.211-.125.43-.337.43H.625a.625.625 0 0 1 0-1.25ZM.625 6h5.484c.2 0 .393.098.47.283.077.189.127.391.172.592a.308.308 0 0 1-.299.375H.625a.625.625 0 1 1 0-1.25ZM8 9.625c0 .345-.28.625-.625.625H.625a.625.625 0 1 1 0-1.25h6.75C7.72 9 8 9.28 8 9.625Z"/>
</svg>
