<svg fill="none" viewBox="0 0 24 24" xmlns="http://www.w3.org/2000/svg">
  <path fill="url(#Bookmarks-Color-24_svg__a)" d="M16.923 5.75h-3.721A3.452 3.452 0 0 0 9.75 9.202v9.969c0 1.348 1.476 2.176 2.627 1.472l1.785-1.092a1.726 1.726 0 0 1 1.801 0l1.786 1.092c1.15.704 2.626-.124 2.626-1.472v-9.97a3.452 3.452 0 0 0-3.452-3.451Z"/>
  <path fill="url(#Bookmarks-Color-24_svg__b)" d="M13.633 19.367a2.351 2.351 0 0 1 2.734 0l1.642 1.173a1.1 1.1 0 0 0 1.741-.895V9.077a2.827 2.827 0 0 0-2.827-2.827h-3.846a2.827 2.827 0 0 0-2.827 2.827v10.568a1.1 1.1 0 0 0 1.741.895l1.642-1.173Zm7.367.277c0 1.913-2.162 3.026-3.718 1.914l-1.641-1.174a1.102 1.102 0 0 0-1.282 0l-1.641 1.174C11.162 22.669 9 21.557 9 19.645V9.077A4.077 4.077 0 0 1 13.077 5h3.846A4.077 4.077 0 0 1 21 9.077v10.568Z"/>
  <path fill="#1E42A4" fill-opacity=".2" d="M14.976 5A4.062 4.062 0 0 1 16 7.702V18.27c0 .823-.401 1.497-.981 1.91a1.098 1.098 0 0 0-.659.204l-.276.197a2.311 2.311 0 0 1-1.802-.398l-1.641-1.174a1.101 1.101 0 0 0-1.28 0L9 19.266V9.077A4.078 4.078 0 0 1 13.077 5h1.899Z"/>
  <path fill="url(#Bookmarks-Color-24_svg__c)" d="M10.923 2.75H7.202A3.452 3.452 0 0 0 3.75 6.202v9.969c0 1.348 1.476 2.176 2.627 1.472l1.785-1.092a1.726 1.726 0 0 1 1.801 0l1.786 1.092c1.15.704 2.626-.124 2.626-1.472v-9.97a3.452 3.452 0 0 0-3.452-3.451Z"/>
  <path fill="url(#Bookmarks-Color-24_svg__d)" d="M7.633 16.367a2.351 2.351 0 0 1 2.734 0l1.642 1.173a1.1 1.1 0 0 0 1.741-.895V6.077a2.827 2.827 0 0 0-2.827-2.827H7.077A2.827 2.827 0 0 0 4.25 6.077v10.568a1.101 1.101 0 0 0 1.741.895l1.642-1.173Zm7.367.277c0 1.913-2.162 3.026-3.718 1.914l-1.641-1.174a1.102 1.102 0 0 0-1.282 0l-1.641 1.174C5.162 19.669 3 18.557 3 16.645V6.077A4.077 4.077 0 0 1 7.077 2h3.846A4.077 4.077 0 0 1 15 6.077v10.568Z"/>
  <defs>
    <linearGradient id="Bookmarks-Color-24_svg__a" x1="15.063" x2="15.063" y1="5.75" y2="22" gradientUnits="userSpaceOnUse">
      <stop stop-color="#8FABF9"/>
      <stop offset="1" stop-color="#7295F6"/>
    </linearGradient>
    <linearGradient id="Bookmarks-Color-24_svg__b" x1="15" x2="15" y1="5.625" y2="23.067" gradientUnits="userSpaceOnUse">
      <stop stop-color="#3969EF"/>
      <stop offset="1" stop-color="#1E42A4"/>
    </linearGradient>
    <linearGradient id="Bookmarks-Color-24_svg__c" x1="9.063" x2="9.063" y1="2.75" y2="19" gradientUnits="userSpaceOnUse">
      <stop stop-color="#8FABF9"/>
      <stop offset="1" stop-color="#7295F6"/>
    </linearGradient>
    <linearGradient id="Bookmarks-Color-24_svg__d" x1="9" x2="9" y1="2.625" y2="20.067" gradientUnits="userSpaceOnUse">
      <stop stop-color="#3969EF"/>
      <stop offset="1" stop-color="#1E42A4"/>
    </linearGradient>
  </defs>
</svg>
