<svg fill="none" viewBox="0 0 20 20" xmlns="http://www.w3.org/2000/svg">
  <path fill="#000" fill-rule="evenodd" d="M6.75 1A2.75 2.75 0 0 0 4 3.75v13.867a1.333 1.333 0 0 0 1.998 1.155L10 16.47l4.002 2.303A1.333 1.333 0 0 0 16 17.617v-1.492a.75.75 0 0 0-1.5 0v1.203l-3.835-2.208a1.333 1.333 0 0 0-1.33 0L5.5 17.328V3.75c0-.69.56-1.25 1.25-1.25h7.063c.38 0 .687.308.687.688V3.5a.75.75 0 0 0 1.5 0v-.313C16 1.98 15.02 1 13.812 1H6.75Zm9.39 5.338a1 1 0 0 0-1.78 0l-.912 1.774-2.032.283a1 1 0 0 0-.545 1.721l1.444 1.35-.342 1.91a1 1 0 0 0 1.435 1.069l1.842-.929 1.842.929a1 1 0 0 0 1.435-1.07l-.342-1.91 1.444-1.349a1 1 0 0 0-.545-1.72l-2.032-.284-.913-1.774ZM14.662 9.03l.587-1.14.587 1.14a1 1 0 0 0 .751.533l1.25.174-.876.82a1 1 0 0 0-.301.906l.213 1.193-1.174-.592a1 1 0 0 0-.9 0l-1.174.592.213-1.193a1 1 0 0 0-.301-.907l-.877-.819 1.25-.174a1 1 0 0 0 .752-.533Z" clip-rule="evenodd"/>
</svg>
