<svg fill="none" viewBox="0 0 16 16" xmlns="http://www.w3.org/2000/svg">
  <path fill="#000" fill-rule="evenodd" d="M4 2a4 4 0 0 0-4 4v4a4 4 0 0 0 4 4h3.234c.373 0 .638-.36.578-.728-.046-.287-.283-.522-.574-.522H4A2.75 2.75 0 0 1 1.25 10V6c0-.57.173-1.098.47-1.537l4.36 3.396c1.129.88 2.711.88 3.84 0l4.36-3.396c.297.439.47.968.47 1.537v2.015a.54.54 0 0 0 .26.452c.39.243.99-.011.99-.47V6a4 4 0 0 0-4-4H4ZM2.65 3.604c.399-.226.86-.354 1.35-.354h8c.49 0 .951.128 1.35.354L9.152 6.873a1.875 1.875 0 0 1-2.304 0L2.65 3.603Z" clip-rule="evenodd"/>
  <path fill="#000" fill-rule="evenodd" d="M16 12.5a3.5 3.5 0 1 1-7 0 3.5 3.5 0 0 1 7 0Zm-1.375-.625a.5.5 0 0 1 .5.5v.25a.5.5 0 0 1-.5.5h-4.25a.5.5 0 0 1-.5-.5v-.25a.5.5 0 0 1 .5-.5h4.25Z" clip-rule="evenodd"/>
</svg>
