<svg fill="none" viewBox="0 0 16 16" xmlns="http://www.w3.org/2000/svg">
  <g clip-path="url(#Thumbs-Up-16_svg__a)">
    <path fill="#000" fill-rule="evenodd" d="M3.626 5.625h.499c.332 0 .56-.125.75-.35.21-.249.38-.633.502-1.135.245-1.006.248-2.241.248-3.14 0-.362.225-.598.402-.72a1.56 1.56 0 0 1 .568-.223A3.178 3.178 0 0 1 7.89.094c.45.103.94.313 1.325.685.4.385.66.921.66 1.596 0 .31-.04.59-.11.843a3.91 3.91 0 0 0-.132.594.833.833 0 0 0-.005.149c.055.017.168.039.372.039h3.732c.498 0 .974.197 1.326.549l.098.097c.588.589.718 1.494.32 2.224l-.042.077a1.876 1.876 0 0 1-.104 2.84l-.197.157.072.171c.328.79.082 1.701-.6 2.217l-.172.13.06.218a1.61 1.61 0 0 1-.173 1.252 2.202 2.202 0 0 1-2.181 1.05L4.842 14c-.244.58-.817.999-1.5.999H1.625A1.625 1.625 0 0 1 0 13.375v-6.75C0 5.728.728 5 1.625 5h.72c.516 0 .981.242 1.28.625Zm2.966-1.19c.257-1.059.28-2.29.283-3.159.184-.03.453-.029.735.036.3.068.56.195.737.366.163.157.278.371.278.697 0 .204-.026.37-.064.504a5.081 5.081 0 0 0-.17.796c-.027.244-.026.53.087.8.268.644.933.775 1.522.775h3.732c.166 0 .325.066.442.183l.098.097c.196.196.24.498.106.742l-.302.553a.625.625 0 0 0 .193.814l.245.17c.344.237.362.74.035 1.001l-.564.452a.625.625 0 0 0-.187.728l.253.606a.625.625 0 0 1-.2.74l-.51.384a.625.625 0 0 0-.225.663l.17.626a.36.36 0 0 1-.038.28.951.951 0 0 1-.943.453l-7.347-.987a.624.624 0 0 0-.066-.005l-.867-5.875h.1a2.16 2.16 0 0 0 1.706-.794c.388-.46.617-1.056.76-1.646ZM1.25 6.625c0-.207.168-.375.375-.375h.72c.186 0 .344.136.371.32l.997 6.75a.375.375 0 0 1-.371.43H1.625a.375.375 0 0 1-.375-.375v-6.75Z" clip-rule="evenodd"/>
  </g>
  <defs>
    <clipPath id="Thumbs-Up-16_svg__a">
      <path fill="#fff" d="M0 0h16v16H0z"/>
    </clipPath>
  </defs>
</svg>
