<svg fill="none" viewBox="0 0 24 24" xmlns="http://www.w3.org/2000/svg">
  <path fill="#000" d="M7 4a5 5 0 0 0-5 5v6a5 5 0 0 0 5 5h4.024c.477 0 .8-.493.677-.953-.082-.31-.352-.547-.671-.547H7A3.5 3.5 0 0 1 3.5 15V9A3.5 3.5 0 0 1 7 5.5h10A3.5 3.5 0 0 1 20.5 9v2.954c0 .216.118.414.298.533.465.306 1.202.003 1.202-.554V9a5 5 0 0 0-5-5H7Z"/>
  <path fill="#000" d="M11.86 15.45a6.018 6.018 0 0 1 3.503-3.558 1.118 1.118 0 0 0-.4-.756l-3.117-2.598c-.733-.61-1.846-.09-1.846.864v5.196c0 .954 1.113 1.475 1.845.864l.014-.011Z"/>
  <path fill="#000" fill-rule="evenodd" d="M22 17.5a4.5 4.5 0 1 1-9 0 4.5 4.5 0 0 1 9 0Zm-7.25-.25a.5.5 0 0 1 .5-.5h4.5a.5.5 0 0 1 .5.5v.5a.5.5 0 0 1-.5.5h-4.5a.5.5 0 0 1-.5-.5v-.5Z" clip-rule="evenodd"/>
</svg>
