<svg fill="none" viewBox="0 0 16 16" xmlns="http://www.w3.org/2000/svg">
  <g clip-path="url(#Shield-Check-Color-16_svg__a)">
    <path fill="url(#Shield-Check-Color-16_svg__b)" d="M1 9.5v-6l1.5-1H5l3-2 3 2h2.5l1.5 1v6L12 14l-4 1.5L4 14 1 9.5Z"/>
    <path fill="url(#Shield-Check-Color-16_svg__c)" d="M15 9.5 12 14l-3 1H8V.5l3 2h2.5l1.5 1v6Z"/>
    <path fill="url(#Shield-Check-Color-16_svg__d)" d="M6.12.667A2.875 2.875 0 0 1 9.963.8l.96.926c.289.279.705.383 1.091.272l.564-.162a2.625 2.625 0 0 1 3.348 2.449l.065 2.28a9 9 0 0 1-5.142 8.388l-1.562.74a3 3 0 0 1-2.422.065l-.154-.068-1.559-.744A9 9 0 0 1 .03 6.61l.055-2.284.008-.161A2.625 2.625 0 0 1 3.456 1.87l.416.123.071.02c.36.081.74-.02 1.014-.273L6.013.76l.106-.094Zm3.15.853a1.875 1.875 0 0 0-2.508-.087l-.07.061-1.055.98a2.125 2.125 0 0 1-1.914.515l-.136-.036-.416-.123a1.625 1.625 0 0 0-2.087 1.519L1.03 6.634a8 8 0 0 0 4.554 7.41l1.559.743.102.045a2 2 0 0 0 1.615-.043l1.562-.74a8 8 0 0 0 4.57-7.456l-.064-2.28a1.625 1.625 0 0 0-2.073-1.516l-.563.162c-.73.21-1.517.014-2.063-.513l-.96-.926Z"/>
    <path fill="#288419" d="M11.146 5.747a.5.5 0 1 1 .707.707L7.136 11.17a.9.9 0 0 1-1.204.061l-.068-.061-1.718-1.717-.034-.039a.5.5 0 0 1 .703-.703l.038.035L6.5 10.393l4.646-4.646Z"/>
    <path fill="#fff" d="M11.184 5.112a.5.5 0 0 1 .704.703l-.035.039-5 5a.5.5 0 0 1-.669.034l-.038-.034-2-2-.034-.039a.5.5 0 0 1 .703-.703l.038.034L6.5 9.793l4.646-4.647.038-.034Z"/>
  </g>
  <defs>
    <linearGradient id="Shield-Check-Color-16_svg__b" x1="8.004" x2="8.088" y1="1" y2="15.499" gradientUnits="userSpaceOnUse">
      <stop stop-color="#7BD66D"/>
      <stop offset="1" stop-color="#288419"/>
    </linearGradient>
    <linearGradient id="Shield-Check-Color-16_svg__c" x1="11.5" x2="11.5" y1=".5" y2="16" gradientUnits="userSpaceOnUse">
      <stop stop-color="#69CC5B"/>
      <stop offset="1" stop-color="#288419"/>
    </linearGradient>
    <linearGradient id="Shield-Check-Color-16_svg__d" x1="8" x2="8" y1="1" y2="15" gradientUnits="userSpaceOnUse">
      <stop offset=".008" stop-color="#288419"/>
      <stop offset="1" stop-color="#1A690D"/>
    </linearGradient>
    <clipPath id="Shield-Check-Color-16_svg__a">
      <path fill="#fff" d="M0 0h16v16H0z"/>
    </clipPath>
  </defs>
</svg>
