<svg fill="none" viewBox="0 0 24 24" xmlns="http://www.w3.org/2000/svg">
  <path fill="#000" d="M3.217 19.723a.75.75 0 0 0 1.06 1.06L20.783 4.28a.75.75 0 1 0-1.06-1.06L3.216 19.722ZM12 5.5c.84 0 1.621.124 2.344.343a.828.828 0 0 0 .828-.194c.384-.384.265-1.032-.253-1.198A9.528 9.528 0 0 0 12 4C9.112 4 6.815 5.267 5.161 6.855c-1.642 1.577-2.688 3.506-3.09 4.943l-.069.25.099.239a15.796 15.796 0 0 0 1.915 3.367.72.72 0 0 0 1.09.061.789.789 0 0 0 .062-1.026 14.332 14.332 0 0 1-1.577-2.732c.377-1.156 1.255-2.719 2.61-4.02C7.64 6.553 9.582 5.5 12 5.5ZM12 20a9.016 9.016 0 0 1-2.916-.474c-.508-.173-.618-.812-.239-1.191a.831.831 0 0 1 .844-.19A7.546 7.546 0 0 0 12 18.5c2.406 0 4.322-1.091 5.758-2.504 1.354-1.33 2.245-2.915 2.666-4.022-.254-.816-.745-1.81-1.466-2.772a.795.795 0 0 1 .057-1.038c.309-.308.816-.292 1.08.055.934 1.224 1.555 2.519 1.842 3.586l.06.222-.075.217c-.45 1.308-1.486 3.223-3.112 4.822C17.174 18.674 14.9 20 12 20Z"/>
  <path fill="#000" d="M12 16c-.256 0-.507-.024-.75-.07l4.68-4.68A4 4 0 0 1 12 16Zm.75-7.93-4.68 4.68a4 4 0 0 1 4.68-4.68Z"/>
</svg>
