<svg fill="none" viewBox="0 0 24 24" xmlns="http://www.w3.org/2000/svg">
  <path fill="#000" d="M5 5.75A.75.75 0 0 1 5.75 5h1.5a.75.75 0 0 1 .75.75v1.5a.75.75 0 0 1-.75.75h-1.5A.75.75 0 0 1 5 7.25v-1.5Z"/>
  <path fill="#000" fill-rule="evenodd" d="M2 5a3 3 0 0 1 3-3h3a3 3 0 0 1 3 3v3a3 3 0 0 1-3 3H5a3 3 0 0 1-3-3V5Zm3-1.5A1.5 1.5 0 0 0 3.5 5v3A1.5 1.5 0 0 0 5 9.5h3A1.5 1.5 0 0 0 9.5 8V5A1.5 1.5 0 0 0 8 3.5H5Z" clip-rule="evenodd"/>
  <path fill="#000" d="M5.75 16a.75.75 0 0 0-.75.75v1.5c0 .414.336.75.75.75h1.5a.75.75 0 0 0 .75-.75v-1.5a.75.75 0 0 0-.75-.75h-1.5Z"/>
  <path fill="#000" fill-rule="evenodd" d="M2 16a3 3 0 0 1 3-3h3a3 3 0 0 1 3 3v3a3 3 0 0 1-3 3H5a3 3 0 0 1-3-3v-3Zm3-1.5A1.5 1.5 0 0 0 3.5 16v3A1.5 1.5 0 0 0 5 20.5h3A1.5 1.5 0 0 0 9.5 19v-3A1.5 1.5 0 0 0 8 14.5H5Z" clip-rule="evenodd"/>
  <path fill="#000" d="M16.75 5a.75.75 0 0 0-.75.75v1.5c0 .414.336.75.75.75h1.5a.75.75 0 0 0 .75-.75v-1.5a.75.75 0 0 0-.75-.75h-1.5Z"/>
  <path fill="#000" fill-rule="evenodd" d="M16 2a3 3 0 0 0-3 3v3a3 3 0 0 0 3 3h3a3 3 0 0 0 3-3V5a3 3 0 0 0-3-3h-3Zm-1.5 3A1.5 1.5 0 0 1 16 3.5h3A1.5 1.5 0 0 1 20.5 5v3A1.5 1.5 0 0 1 19 9.5h-3A1.5 1.5 0 0 1 14.5 8V5Z" clip-rule="evenodd"/>
  <path fill="#000" d="M16 16.75a.75.75 0 0 1 .75-.75h1.5a.75.75 0 0 1 .75.75v1.5a.75.75 0 0 1-.75.75h-1.5a.75.75 0 0 1-.75-.75v-1.5Zm6-3a.75.75 0 0 0-.75-.75h-1.5a.75.75 0 0 0 0 1.5h.75v1.75a.75.75 0 0 0 1.5 0v-2.5Zm-9 7.5v-2.5a.75.75 0 0 1 1.5 0v1.75h.75a.75.75 0 1 1 0 1.5h-1.5a.75.75 0 0 1-.75-.75Zm5 0a.75.75 0 0 1 .75-.75h1.75v-.75a.75.75 0 0 1 1.5 0v1.5a.75.75 0 0 1-.75.75h-2.5a.75.75 0 0 1-.75-.75Zm-5-7.5a.75.75 0 0 1 .75-.75h2.5a.75.75 0 1 1 0 1.5H14.5v.75a.75.75 0 1 1-1.5 0v-1.5Z"/>
</svg>
