<svg fill="none" viewBox="0 0 16 16" xmlns="http://www.w3.org/2000/svg">
  <g clip-path="url(#Home-16_svg__a)">
    <path fill="#000" fill-rule="evenodd" d="M9.819.756a2.625 2.625 0 0 0-3.638 0L1.192 5.549l-.009.009-.937.937A.625.625 0 0 0 1 7.48V12a4 4 0 0 0 4 4h1.857l.018.001H11a4 4 0 0 0 4-4V7.479a.625.625 0 0 0 .754-.984l-.937-.937-.009-.009L9.818.756Zm1.074 13.994H11A2.75 2.75 0 0 0 13.75 12V6.266l-4.797-4.61a1.375 1.375 0 0 0-1.906 0L2.25 6.267V12A2.75 2.75 0 0 0 5 14.75h.107A1.872 1.872 0 0 1 5 14.125v-5.25C5 7.839 5.84 7 6.875 7h2.25C10.161 7 11 7.84 11 8.875v5.25c0 .22-.038.43-.107.625Zm-1.758 0h-2.27a.625.625 0 0 1-.615-.625v-5.25c0-.345.28-.625.625-.625h2.25c.345 0 .625.28.625.625v5.25c0 .342-.274.62-.615.625Z" clip-rule="evenodd"/>
  </g>
  <defs>
    <clipPath id="Home-16_svg__a">
      <path fill="#fff" d="M0 0h16v16H0z"/>
    </clipPath>
  </defs>
</svg>
