<svg fill="none" viewBox="0 0 12 12" xmlns="http://www.w3.org/2000/svg">
  <g clip-path="url(#Info-Solid-12_svg__a)">
    <path fill="#000" fill-rule="evenodd" d="M12 6A6 6 0 1 1 0 6a6 6 0 0 1 12 0ZM6.362 2.734a.88.88 0 0 0-.897.864c0 .503.383.667.722.667.624 0 .886-.47.886-.853 0-.481-.383-.678-.71-.678Zm.323 2.175-1.37.222c-.042.331-.103.666-.164 1.007-.118.658-.24 1.335-.24 2.042 0 .703.42 1.086 1.085 1.086.759 0 .889-.476.918-.908-.63.092-.767-.192-.665-.86.103-.669.436-2.589.436-2.589Z" clip-rule="evenodd"/>
  </g>
  <defs>
    <clipPath id="Info-Solid-12_svg__a">
      <path fill="#fff" d="M0 0h12v12H0z"/>
    </clipPath>
  </defs>
</svg>
