<svg fill="none" viewBox="0 0 16 16" xmlns="http://www.w3.org/2000/svg">
  <g fill="#000" clip-path="url(#Timer-16_svg__a)">
    <path d="M8.52.017a.627.627 0 0 0-.77.608v2.75a.625.625 0 0 0 1.25 0v-2.05a6.75 6.75 0 1 1-7.742 6.337.625.625 0 1 0-1.248-.063A8 8 0 1 0 8.52.017ZM4.587.764a.625.625 0 1 1 .534 1.131c-.18.085-.354.177-.525.276a.625.625 0 1 1-.63-1.08 8.73 8.73 0 0 1 .621-.327ZM1.369 3.525a.625.625 0 0 1 1.036.7c-.11.163-.214.331-.31.504a.625.625 0 0 1-1.093-.605c.114-.206.236-.405.367-.599Z"/>
    <path d="M3 7.625C3 7.28 3.28 7 3.625 7h4.75a.625.625 0 1 1 0 1.25h-4.75A.625.625 0 0 1 3 7.625Z"/>
  </g>
  <defs>
    <clipPath id="Timer-16_svg__a">
      <path fill="#fff" d="M0 0h16v16H0z"/>
    </clipPath>
  </defs>
</svg>
