<svg fill="none" viewBox="0 0 24 24" xmlns="http://www.w3.org/2000/svg">
  <path fill="url(#Bookmark-Import-Color-24_svg__a)" d="M13.406 2.625c2.138 0 3.817 1.313 4.094 3.375-.193-.018-.302.25-.5.25a6.25 6.25 0 1 0 0 12.5l.5.25.125.132c0 1.616-1.742 2.632-3.148 1.836l-2.438-1.38a2.11 2.11 0 0 0-2.078 0l-2.438 1.38c-1.406.796-3.148-.22-3.148-1.836V6.844a4.219 4.219 0 0 1 4.219-4.219h4.812Z"/>
  <path fill="url(#Bookmark-Import-Color-24_svg__b)" d="M13.406 2a4.843 4.843 0 0 1 4.528 3.124c.227.598-.345 1.122-.984 1.127a3.594 3.594 0 0 0-3.544-3.001H8.594A3.594 3.594 0 0 0 5 6.844v12.4c0 1.14 1.23 1.854 2.22 1.29l2.478-1.413a2.735 2.735 0 0 1 2.728.01l2.345 1.362.045.027A1.485 1.485 0 0 0 17 19.21v-.46h.25c.552 0 1.035.453.939.997a2.471 2.471 0 0 1-.189.615c-.629 1.359-2.33 2.034-3.773 1.26l-.084-.048-2.345-1.361a1.484 1.484 0 0 0-1.48-.006l-2.48 1.413c-1.822 1.04-4.088-.278-4.088-2.376v-12.4A4.844 4.844 0 0 1 8.594 2h4.812Z"/>
  <path fill="#F5F5F5" d="M21.625 12.5a4.625 4.625 0 1 1-9.25 0 4.625 4.625 0 0 1 9.25 0Z"/>
  <path fill="url(#Bookmark-Import-Color-24_svg__c)" d="M20.75 12.5A3.75 3.75 0 1 0 17 16.25v1.25a5 5 0 1 1 0-10 5 5 0 0 1 0 10v-1.25a3.75 3.75 0 0 0 3.75-3.75Z"/>
  <path fill="#2B55CA" d="M14.66 12.919a.625.625 0 0 1 .907-.86l.808.807v-2.273a.625.625 0 0 1 1.25 0v2.273l.808-.808.023-.022a.625.625 0 0 1 .883.883l-.022.023-1.875 1.875a.625.625 0 0 1-.884 0l-1.875-1.875-.022-.023Z"/>
  <defs>
    <linearGradient id="Bookmark-Import-Color-24_svg__a" x1="11" x2="11" y1="2.625" y2="23.25" gradientUnits="userSpaceOnUse">
      <stop stop-color="#8FABF9"/>
      <stop offset="1" stop-color="#7295F6"/>
    </linearGradient>
    <linearGradient id="Bookmark-Import-Color-24_svg__b" x1="11" x2="11" y1="2.625" y2="23.25" gradientUnits="userSpaceOnUse">
      <stop stop-color="#3969EF"/>
      <stop offset="1" stop-color="#1E42A4"/>
    </linearGradient>
    <linearGradient id="Bookmark-Import-Color-24_svg__c" x1="17" x2="17" y1="7.5" y2="17.5" gradientUnits="userSpaceOnUse">
      <stop stop-color="#AAA"/>
      <stop offset="1" stop-color="#666"/>
    </linearGradient>
  </defs>
</svg>
