<svg fill="none" viewBox="0 0 16 16" xmlns="http://www.w3.org/2000/svg">
  <g clip-path="url(#Bookmark-Favorite-Color-16_svg__a)">
    <path fill="url(#Bookmark-Favorite-Color-16_svg__b)" d="M10.125.5h-4.25A3.375 3.375 0 0 0 2.5 3.875v9.948c0 1.353 1.512 2.155 2.632 1.398l1.923-1.3a1.688 1.688 0 0 1 1.89 0l1.923 1.3c1.12.758 2.632-.045 2.632-1.398V3.875A3.375 3.375 0 0 0 10.125.5Z"/>
    <path fill="url(#Bookmark-Favorite-Color-16_svg__c)" d="M6.775 13.507c.74-.5 1.71-.5 2.45 0l1.923 1.3A1.188 1.188 0 0 0 13 13.823V3.875A2.875 2.875 0 0 0 10.125 1h-4.25A2.875 2.875 0 0 0 3 3.875v9.948a1.188 1.188 0 0 0 1.853.984l1.922-1.3Zm7.225.316c0 1.753-1.96 2.794-3.412 1.812l-1.923-1.3a1.188 1.188 0 0 0-1.33 0l-1.923 1.3C3.96 16.617 2 15.576 2 13.823V3.875A3.875 3.875 0 0 1 5.875 0h4.25A3.875 3.875 0 0 1 14 3.875v9.948Z"/>
    <path fill="#fff" d="M7.532 4.314a.5.5 0 0 1 .928 0l.582 1.449a.5.5 0 0 0 .43.312l1.558.106a.5.5 0 0 1 .287.882l-1.199 1.001a.5.5 0 0 0-.164.506l.38 1.514a.5.5 0 0 1-.75.546L8.262 9.8a.5.5 0 0 0-.532 0l-1.322.83a.5.5 0 0 1-.751-.546l.38-1.514a.5.5 0 0 0-.163-.506l-1.199-1a.5.5 0 0 1 .287-.883l1.558-.106a.5.5 0 0 0 .43-.312l.582-1.45Z"/>
    <path fill="url(#Bookmark-Favorite-Color-16_svg__d)" d="M6.655 3.827c.545-1.103 2.138-1.103 2.682 0l.051.114.465 1.158 1.245.084.124.013c1.217.178 1.71 1.692.829 2.551l-.093.084-.958.8.305 1.21.026.121c.208 1.213-1.081 2.149-2.17 1.577l-.108-.063-1.057-.663-1.056.663c-1.145.72-2.582-.325-2.253-1.636l.305-1.21-.957-.8c-1.038-.866-.49-2.555.86-2.647L6.139 5.1l.465-1.158.051-.114Zm1.805.486a.5.5 0 0 0-.928 0l-.581 1.45-.032.064a.5.5 0 0 1-.399.248l-1.558.106a.5.5 0 0 0-.286.882l1.198 1.001a.5.5 0 0 1 .164.506l-.38 1.514a.5.5 0 0 0 .677.584l.073-.038L7.73 9.8a.5.5 0 0 1 .532 0l1.322.83a.5.5 0 0 0 .765-.465l-.014-.08-.38-1.515a.5.5 0 0 1 .163-.506l1.199-1a.5.5 0 0 0-.206-.872l-.08-.011-1.559-.106a.5.5 0 0 1-.399-.248l-.031-.064-.582-1.45Z"/>
  </g>
  <defs>
    <linearGradient id="Bookmark-Favorite-Color-16_svg__b" x1="8" x2="8" y1=".5" y2="17" gradientUnits="userSpaceOnUse">
      <stop stop-color="#8FABF9"/>
      <stop offset="1" stop-color="#7295F6"/>
    </linearGradient>
    <linearGradient id="Bookmark-Favorite-Color-16_svg__c" x1="8" x2="8" y1=".5" y2="17" gradientUnits="userSpaceOnUse">
      <stop stop-color="#3969EF"/>
      <stop offset="1" stop-color="#1E42A4"/>
    </linearGradient>
    <linearGradient id="Bookmark-Favorite-Color-16_svg__d" x1="7.996" x2="7.996" y1="4" y2="10.708" gradientUnits="userSpaceOnUse">
      <stop stop-color="#7295F6"/>
      <stop offset="1" stop-color="#557FF3"/>
    </linearGradient>
    <clipPath id="Bookmark-Favorite-Color-16_svg__a">
      <path fill="#fff" d="M0 0h16v16H0z"/>
    </clipPath>
  </defs>
</svg>
