<svg fill="none" viewBox="0 0 24 24" xmlns="http://www.w3.org/2000/svg">
  <path fill="#000" fill-rule="evenodd" d="M7 3a5 5 0 0 0-5 5v8a5 5 0 0 0 5 5h6.771a1 1 0 0 0 .769-.36l.13-.156a.6.6 0 0 0-.461-.984H7A3.5 3.5 0 0 1 3.5 16v-5.5h17v.571c0 .33.114.648.323.903.396.481 1.177.202 1.177-.422v-.964a5 5 0 0 0-5-5h-2.46a2.39 2.39 0 0 1-1.933-.985A3.89 3.89 0 0 0 9.46 3H7ZM3.5 8A3.5 3.5 0 0 1 7 4.5h2.46a2.39 2.39 0 0 1 1.934.985 3.89 3.89 0 0 0 3.147 1.603H17A3.5 3.5 0 0 1 20.12 9H3.5V8Z" clip-rule="evenodd"/>
  <path fill="#000" d="M14.5 15.5a.75.75 0 0 0 0 1.5h5.092l-2.074 2.489a.75.75 0 0 0 1.152.96l3.117-3.74a.745.745 0 0 0 .182-.49.748.748 0 0 0-.182-.49l-3.117-3.74a.75.75 0 0 0-1.152.96l2.126 2.551H14.5Z"/>
</svg>
