<svg fill="none" viewBox="0 0 24 24" xmlns="http://www.w3.org/2000/svg">
  <path fill="#DDD" fill-rule="evenodd" d="M18.97 13.15c.044.26.35.374.533.185a6.25 6.25 0 1 0-10.57-2.829c.092.372.009.774-.262 1.046l-5.053 5.076a2.98 2.98 0 0 0-.868 2.103v.532c0 1.097.89 1.987 1.987 1.987H5.76a1.49 1.49 0 0 0 1.49-1.49v-.765c0-.411.334-.745.745-.745h.986c.332 0 .65-.133.884-.37l1.147-1.161c.031-.328.137-.723.479-1.046.351-.333.837-.456 1.148-.533.187-.098.403-.136.617-.117.337-.053.75-.109 1.169-.162a.504.504 0 0 0 .436-.436c.093-.736.195-1.45.276-1.775l.002-.008c.078-.311.2-.799.534-1.151.424-.447.968-.491 1.327-.491.537 0 1.026.182 1.378.615.247.305.375.692.448.915l.015.047c.055.164.097.386.129.573ZM17.333 8.5a1.833 1.833 0 1 1-3.666 0 1.833 1.833 0 0 1 3.666 0Z" clip-rule="evenodd"/>
  <path fill="#666" d="M15 2a7 7 0 0 0-6.795 8.686c.04.16-.008.28-.065.337l-5.053 5.076A3.731 3.731 0 0 0 2 18.73v.532A2.737 2.737 0 0 0 4.737 22H5.76A2.24 2.24 0 0 0 8 19.76V19h.981a1.99 1.99 0 0 0 1.417-.592l.484-.49a.597.597 0 0 0 .145-.514A2.679 2.679 0 0 1 11 17c0-.359.043-.903.49-1.327.353-.334.841-.456 1.152-.534l.008-.002c.335-.084 1.088-.19 1.848-.285a.408.408 0 0 0 .354-.354 5.51 5.51 0 0 1-1.215-.168c-.593-.151-1.29-.03-1.78.465l-2.526 2.559a.492.492 0 0 1-.35.146h-.986c-.826 0-1.495.67-1.495 1.495v.764a.74.74 0 0 1-.74.741H4.737A1.237 1.237 0 0 1 3.5 19.263v-.532c0-.59.234-1.156.65-1.574l5.053-5.076c.484-.486.602-1.17.458-1.755a5.5 5.5 0 1 1 9.255 2.536c.063.299.11.601.151.905.051.38.485.564.763.3A6.97 6.97 0 0 0 22 9a7 7 0 0 0-7-7.001Z"/>
  <path fill="#666" fill-rule="evenodd" d="M15.5 5.917a2.583 2.583 0 1 0 0 5.166 2.583 2.583 0 0 0 0-5.166ZM14.417 8.5a1.083 1.083 0 1 1 2.166 0 1.083 1.083 0 0 1-2.166 0Z" clip-rule="evenodd"/>
  <path fill="#6B4EBA" d="M12.893 16.107c-.714.179-.893.301-.893.893 0 .592.179.714.893.893.422.105 1.78.273 2.82.393.12 1.04.289 2.399.394 2.821.179.714.301.893.893.893.592 0 .714-.179.893-.893.105-.421.273-1.776.392-2.815 1.081-.12 2.5-.292 2.822-.4.536-.178.893-.3.893-.892 0-.592-.179-.714-.893-.893-.421-.105-1.776-.273-2.815-.392-.12-1.081-.292-2.5-.4-2.822-.178-.536-.3-.893-.892-.893-.592 0-.714.179-.893.893-.105.422-.273 1.78-.393 2.82-1.04.12-2.399.289-2.821.394Z"/>
  <path fill="#7295F6" d="M12.893 16.107c-.714.179-.893.301-.893.893 0 .592.179.714.893.893.422.105 1.78.273 2.82.393.12 1.04.289 2.399.394 2.821.179.714.301.893.893.893.592 0 .714-.179.893-.893.105-.421.273-1.776.392-2.815 1.081-.12 2.5-.292 2.822-.4.536-.178.893-.3.893-.892 0-.592-.179-.714-.893-.893-.421-.105-1.776-.273-2.815-.392-.12-1.081-.292-2.5-.4-2.822-.178-.536-.3-.893-.892-.893-.592 0-.714.179-.893.893-.105.422-.273 1.78-.393 2.82-1.04.12-2.399.289-2.821.394Z"/>
  <path fill="#ADC2FC" d="M14 20.5a1.5 1.5 0 1 1-3 0 1.5 1.5 0 0 1 3 0Z"/>
</svg>
