<svg fill="none" viewBox="0 0 24 24" xmlns="http://www.w3.org/2000/svg">
  <path fill="#FFD65C" d="M15 2.625A6.375 6.375 0 0 1 21.375 9c0 1.86-.478 3.21-1.75 4.375-.188-.063-.408-.2-.438-.375-.03-.185-.047-.317-.108-.502l-.065-.194c-.081-.234-.217-.569-.442-.847-.408-.501-.974-.707-1.572-.707-.374 0-1.01.043-1.509.569-.34.36-.485.834-.566 1.147l-.03.124c-.092.366-.206 1.195-.306 2-.732.09-1.485.193-1.89.28l-.11.024c-.298.075-.859.207-1.27.597-.518.49-.818 1.383-.819 1.759l-.76.756a1.245 1.245 0 0 1-.884.369H7.87a.745.745 0 0 0-.745.745v.764a1.49 1.49 0 0 1-1.49 1.491H4.612a1.987 1.987 0 0 1-1.987-1.987v-.532c0-.789.312-1.545.868-2.103l5.076-5.1c.273-.274.355-.68.258-1.054A6.375 6.375 0 0 1 15 2.625Zm.5 4.042a1.833 1.833 0 1 0 0 3.667 1.833 1.833 0 0 0 0-3.667Z"/>
  <path fill="url(#Key-Auto-Color-24_svg__a)" d="M15.09 2A7 7 0 0 1 22 9v.09a6.97 6.97 0 0 1-1.635 4.406c-.378.451-1.049.187-1.15-.393l-.029-.162a5.75 5.75 0 0 0-4.112-9.691H15A5.75 5.75 0 0 0 9.25 9v.093c.008.435.063.858.16 1.263l.022.087.013.052c.12.524.012 1.12-.392 1.556l-.041.043-5.076 5.1a2.356 2.356 0 0 0-.686 1.662v.532c0 .752.61 1.362 1.362 1.362h1.023a.865.865 0 0 0 .865-.866v-.764c0-.757.613-1.37 1.37-1.37h1.016a.617.617 0 0 0 .387-.162l.022-.021 1.813-1.837c-.315.433-.418 1.04-.35 1.593.035.277-.024.569-.22.768-.454.464-.929.89-1.635.908L8.856 19H7.87a.12.12 0 0 0-.12.12v.764A2.115 2.115 0 0 1 5.635 22H4.612A2.612 2.612 0 0 1 2 19.388v-.532c0-.954.378-1.868 1.05-2.544l5.076-5.1.017-.018a.485.485 0 0 0 .08-.439l-.027-.105A7.01 7.01 0 0 1 8 9.113V9a7 7 0 0 1 7-7h.09Zm-3.202 12.942c.455-.428 1.087-.529 1.631-.384l.089.022c.13.033.262.06.396.084-.525.07-1.008.142-1.305.205l-.11.025c-.262.066-.73.177-1.118.47l.373-.38.044-.042Zm3.612-8.9a2.458 2.458 0 1 1 0 4.916 2.458 2.458 0 0 1 0-4.916Zm0 1.25A1.208 1.208 0 1 0 16.708 8.5l-.001-.062A1.208 1.208 0 0 0 15.5 7.292Z"/>
  <path fill="#557FF3" d="M12.893 16.107c-.714.179-.893.301-.893.893 0 .592.179.714.893.893.422.105 1.78.273 2.82.393.12 1.04.289 2.399.394 2.821.179.714.301.893.893.893.592 0 .714-.179.893-.893.105-.421.273-1.776.392-2.815 1.081-.12 2.5-.292 2.822-.4.536-.178.893-.3.893-.892 0-.592-.179-.714-.893-.893-.421-.105-1.776-.273-2.815-.392-.12-1.081-.292-2.5-.4-2.822-.178-.536-.3-.893-.892-.893-.592 0-.714.179-.893.893-.105.422-.273 1.78-.393 2.82-1.04.12-2.399.289-2.821.394Z"/>
  <path fill="#8FABF9" d="M14 20.5a1.5 1.5 0 1 1-3 0 1.5 1.5 0 0 1 3 0Z"/>
  <defs>
    <linearGradient id="Key-Auto-Color-24_svg__a" x1="12" x2="12" y1="2.75" y2="21.25" gradientUnits="userSpaceOnUse">
      <stop stop-color="#C18010"/>
      <stop offset="1" stop-color="#92540C"/>
    </linearGradient>
  </defs>
</svg>
