<svg fill="none" viewBox="0 0 16 16" xmlns="http://www.w3.org/2000/svg">
  <path fill="#000" d="M3.625 11a.625.625 0 1 0 0 1.25h8.75a.625.625 0 1 0 0-1.25h-8.75Z"/>
  <path fill="#000" fill-rule="evenodd" d="M5.125 1.006A3.125 3.125 0 0 0 2 4.13v5.283L.496 11.385C-.634 12.865.42 15 2.284 15h11.432c1.863 0 2.918-2.134 1.788-3.615L14 9.414V4.13c0-1.726-1.4-3.125-3.125-3.125h-5.75ZM1.489 12.143l1.445-1.893h10.132l1.445 1.893a1 1 0 0 1-.795 1.607H2.284a1 1 0 0 1-.795-1.607ZM12.75 4.131V9h-9.5V4.13c0-1.035.84-1.874 1.875-1.874h5.75c1.036 0 1.875.84 1.875 1.875Z" clip-rule="evenodd"/>
</svg>
