<svg fill="none" viewBox="0 0 16 16" xmlns="http://www.w3.org/2000/svg">
  <path fill="#000" d="M3.625 7.75a.625.625 0 1 0 0 1.25h.75a.625.625 0 1 0 0-1.25h-.75ZM3 11.375c0-.345.28-.625.625-.625h.75a.625.625 0 1 1 0 1.25h-.75A.625.625 0 0 1 3 11.375ZM7.625 7.75a.625.625 0 1 0 0 1.25h.75a.625.625 0 1 0 0-1.25h-.75ZM7 11.375c0-.345.28-.625.625-.625h.75a.625.625 0 1 1 0 1.25h-.75A.625.625 0 0 1 7 11.375Zm4.625-3.625a.625.625 0 1 0 0 1.25h.75a.625.625 0 1 0 0-1.25h-.75Z"/>
  <path fill="#000" fill-rule="evenodd" d="M5.25.625a.625.625 0 1 0-1.25 0V1a4 4 0 0 0-4 4v6a4 4 0 0 0 4 4h8a4 4 0 0 0 4-4V5a4 4 0 0 0-4-4V.625a.625.625 0 1 0-1.25 0V1h-5.5V.625ZM10.75 3v-.75h-5.5V3A.625.625 0 1 1 4 3v-.75a2.75 2.75 0 0 0-2.739 2.5H14.74A2.75 2.75 0 0 0 12 2.25V3a.625.625 0 1 1-1.25 0Zm-9.5 8V6h13.5v5A2.75 2.75 0 0 1 12 13.75H4A2.75 2.75 0 0 1 1.25 11Z" clip-rule="evenodd"/>
</svg>
