<svg fill="none" viewBox="0 0 16 16" xmlns="http://www.w3.org/2000/svg">
  <g clip-path="url(#Jump-Solid-16_svg__a)">
    <path fill="#000" fill-rule="evenodd" d="M16 8A8 8 0 1 1 0 8a8 8 0 0 1 16 0Zm-3.625-3c.345 0 .625.28.625.625V9.75c0 .69-.56 1.25-1.25 1.25H8.625a.625.625 0 1 1 0-1.25h2.476c-.108-.725-.47-1.464-1.071-2.085a4.52 4.52 0 0 0-2.468-1.307c-.922-.156-1.783.011-2.437.412A2.626 2.626 0 0 0 3.9 8.497a.625.625 0 0 1-1.225-.253 3.876 3.876 0 0 1 1.796-2.54c.937-.574 2.11-.78 3.298-.579a5.77 5.77 0 0 1 3.158 1.671c.325.336.6.705.822 1.094V5.625c0-.345.28-.625.625-.625Z" clip-rule="evenodd"/>
  </g>
  <defs>
    <clipPath id="Jump-Solid-16_svg__a">
      <path fill="#fff" d="M0 0h16v16H0z"/>
    </clipPath>
  </defs>
</svg>
