<svg fill="none" viewBox="0 0 24 24" xmlns="http://www.w3.org/2000/svg">
  <path fill="#FFDE7A" d="M10.651 3.44c.547-1.125 2.15-1.125 2.698 0l1.635 3.363a1.5 1.5 0 0 0 1.13.827l3.693.545c1.224.18 1.715 1.68.836 2.55l-2.7 2.67a1.5 1.5 0 0 0-.424 1.317l.634 3.748c.207 1.228-1.086 2.16-2.185 1.573l-3.262-1.74a1.5 1.5 0 0 0-1.412 0l-3.262 1.74c-1.099.587-2.392-.345-2.185-1.573l.634-3.748a1.5 1.5 0 0 0-.424-1.316l-2.7-2.67c-.88-.87-.388-2.37.836-2.551l3.693-.545a1.5 1.5 0 0 0 1.13-.827L10.65 3.44Z"/>
  <path fill="#C18010" fill-rule="evenodd" d="M10.052 3.148c.79-1.625 3.106-1.625 3.896 0l1.636 3.363c.12.247.355.42.628.46l3.692.544c1.768.26 2.478 2.428 1.208 3.684l-2.7 2.67a.833.833 0 0 0-.235.732l.633 3.748c.3 1.774-1.569 3.12-3.156 2.272l-3.262-1.74a.833.833 0 0 0-.784 0l-3.262 1.74c-1.588.847-3.456-.498-3.156-2.272l.633-3.748a.833.833 0 0 0-.235-.732l-2.7-2.67c-1.27-1.256-.56-3.423 1.208-3.684l3.692-.544a.833.833 0 0 0 .628-.46l1.636-3.363Zm2.697.584a.833.833 0 0 0-1.498 0L9.615 7.094A2.167 2.167 0 0 1 7.983 8.29l-3.693.544a.833.833 0 0 0-.464 1.417l2.7 2.67c.501.497.73 1.206.612 1.902l-.633 3.748a.833.833 0 0 0 1.213.874l3.262-1.74a2.167 2.167 0 0 1 2.04 0l3.261 1.74a.833.833 0 0 0 1.214-.874l-.633-3.748a2.167 2.167 0 0 1 .613-1.902l2.7-2.67a.833.833 0 0 0-.465-1.417l-3.693-.544a2.167 2.167 0 0 1-1.632-1.196l-1.636-3.362Z" clip-rule="evenodd"/>
</svg>
