<svg fill="none" viewBox="0 0 24 24" xmlns="http://www.w3.org/2000/svg">
  <path fill="#DDD" d="M12 3.25a8.75 8.75 0 0 1 8.749 8.749A6.25 6.25 0 0 0 12 20.75a8.75 8.75 0 1 1 0-17.5Z"/>
  <path fill="url(#Identity-Blocked-PIR-Grayscale-Color-24_svg__a)" d="M11.06 15.056a6.247 6.247 0 0 0 .945 5.7H12a8.724 8.724 0 0 1-6.217-2.591c1.182-1.674 3.082-2.846 5.277-3.11ZM12 6.875a3.125 3.125 0 0 1 2.923 4.229 6.262 6.262 0 0 0-2.823 2.018l-.1.003a3.125 3.125 0 1 1 0-6.25Z"/>
  <path fill="url(#Identity-Blocked-PIR-Grayscale-Color-24_svg__b)" d="M12 2c4.972 0 9.097 3.629 9.87 8.383.07.429.11.871.123 1.316.015.537-.67.757-1.089.42a6.073 6.073 0 0 0-.155-.12 8.75 8.75 0 1 0-15.644 5.39 8.608 8.608 0 0 1 2.633-2.283l.12-.065a8.673 8.673 0 0 1 3.65-1.028c-.223.409-.4.846-.527 1.304a7.417 7.417 0 0 0-2.631.88 7.355 7.355 0 0 0-2.388 2.136A8.72 8.72 0 0 0 12 20.75l.12.154c.336.419.116 1.104-.421 1.09a9.917 9.917 0 0 1-1.199-.106C5.689 21.164 2 17.013 2 12 2 6.477 6.477 2 12 2Zm0 4a4 4 0 0 1 3.91 4.847 6.201 6.201 0 0 0-1.491.46A2.75 2.75 0 1 0 12 12.75c.157.001.31-.016.459-.041-.36.38-.672.803-.928 1.264A4 4 0 0 1 12 6Z"/>
  <path fill="#888" d="M21.375 17a4.375 4.375 0 1 1-8.75 0 4.375 4.375 0 0 1 8.75 0Z"/>
  <path fill="#666" d="M21.125 17A4.125 4.125 0 1 0 17 21.125v.25l-.113-.002a4.375 4.375 0 0 1-4.26-4.26L12.624 17A4.375 4.375 0 0 1 17 12.625l.113.002A4.375 4.375 0 0 1 21.375 17l-.002.113A4.375 4.375 0 0 1 17 21.375v-.25A4.125 4.125 0 0 0 21.125 17Z"/>
  <path fill="url(#Identity-Blocked-PIR-Grayscale-Color-24_svg__c)" d="M17 12a5 5 0 1 1 0 10 5 5 0 0 1 0-10Zm0 1.25a3.75 3.75 0 1 0 0 7.5 3.75 3.75 0 0 0 0-7.5Z"/>
  <path fill="#fff" d="M19 16.375h.032a.625.625 0 0 1 0 1.25H15a.625.625 0 1 1 0-1.25h4Z"/>
  <defs>
    <linearGradient id="Identity-Blocked-PIR-Grayscale-Color-24_svg__a" x1="12" x2="12" y1="6.375" y2="21.382" gradientUnits="userSpaceOnUse">
      <stop stop-color="#CCC"/>
      <stop offset="1" stop-color="#888"/>
    </linearGradient>
    <linearGradient id="Identity-Blocked-PIR-Grayscale-Color-24_svg__b" x1="12" x2="12" y1="1.861" y2="22.278" gradientUnits="userSpaceOnUse">
      <stop stop-color="#888"/>
      <stop offset="1" stop-color="#444"/>
    </linearGradient>
    <linearGradient id="Identity-Blocked-PIR-Grayscale-Color-24_svg__c" x1="17" x2="17" y1="12" y2="22" gradientUnits="userSpaceOnUse">
      <stop stop-color="#666"/>
      <stop offset="1" stop-color="#444"/>
    </linearGradient>
  </defs>
</svg>
