<svg fill="none" viewBox="0 0 24 24" xmlns="http://www.w3.org/2000/svg">
  <path fill="url(#Browser-Globe-Color-24_svg__a)" d="M12 2.625A9.375 9.375 0 0 1 21.375 12c0 .288-.35-.281-.375 0-.2-.209-.08.45-.308.272a6 6 0 0 0-8.376 8.475c.166.207-.508.07-.316.253-.281.025.288.375 0 .375a9.375 9.375 0 1 1 0-18.75Z"/>
  <path fill="url(#Browser-Globe-Color-24_svg__b)" fill-rule="evenodd" d="M12 2c5.523 0 10 4.477 10 10 0 .556-.722.76-1.147.402a5.992 5.992 0 0 0-.558-.416c.048-.015.095-.027.139-.042.145-.05.247-.096.314-.132a8.754 8.754 0 0 0-5.89-8.084c.301.413.57.88.802 1.378.732 1.57 1.207 3.627 1.316 5.894-.427.002-.844.05-1.245.136-.096-2.167-.545-4.09-1.204-5.501C13.76 3.988 12.821 3.25 12 3.25c-.821 0-1.759.738-2.527 2.385C8.728 7.23 8.25 9.48 8.25 12c0 .213.004.425.01.635 1.14.074 2.406.115 3.74.115.26 0 .517-.004.771-.007-.374.373-.7.795-.966 1.255a59.858 59.858 0 0 1-3.462-.105c.172 1.745.577 3.288 1.13 4.472.768 1.647 1.706 2.385 2.527 2.385l.155-.009a1.5 1.5 0 0 0 .138-.023c.036.045.072.09.11.134.357.426.152 1.148-.403 1.148-5.523 0-10-4.477-10-10S6.477 2 12 2ZM3.33 13.182a8.76 8.76 0 0 0 5.814 7.09 8.284 8.284 0 0 1-.804-1.378c-.645-1.383-1.09-3.145-1.262-5.096a32.326 32.326 0 0 1-1.798-.207c-.772-.114-1.44-.25-1.95-.41Zm5.814-9.454a8.754 8.754 0 0 0-5.892 8.085c.067.035.169.08.314.131.42.146 1.062.287 1.896.41.466.068.984.13 1.545.182A21.03 21.03 0 0 1 7 12c0-2.66.502-5.097 1.34-6.894a8.3 8.3 0 0 1 .804-1.378Z" clip-rule="evenodd"/>
  <circle cx="17" cy="17" r="5" fill="#7295F6"/>
  <circle cx="17" cy="17" r="4.375" stroke="url(#Browser-Globe-Color-24_svg__c)" stroke-width="1.25"/>
  <path fill="#DE5833" d="m15.74 15.74 3.71-1.687a.375.375 0 0 1 .497.496L18.26 18.26l-2.52-2.52Z"/>
  <path fill="#fff" d="m18.26 18.26-3.71 1.687a.375.375 0 0 1-.497-.496l1.687-3.711 2.52 2.52Z"/>
  <defs>
    <linearGradient id="Browser-Globe-Color-24_svg__a" x1="4.5" x2="19.5" y1="4.5" y2="19.5" gradientUnits="userSpaceOnUse">
      <stop stop-color="#8FABF9"/>
      <stop offset="1" stop-color="#557FF3"/>
    </linearGradient>
    <linearGradient id="Browser-Globe-Color-24_svg__b" x1="12" x2="12" y1="2" y2="22" gradientUnits="userSpaceOnUse">
      <stop stop-color="#3969EF"/>
      <stop offset="1" stop-color="#14307E"/>
    </linearGradient>
    <linearGradient id="Browser-Globe-Color-24_svg__c" x1="17" x2="17" y1="12" y2="22" gradientUnits="userSpaceOnUse">
      <stop stop-color="#3969EF"/>
      <stop offset="1" stop-color="#2B55CA"/>
    </linearGradient>
  </defs>
</svg>
