<svg fill="none" viewBox="0 0 18 18" xmlns="http://www.w3.org/2000/svg">
  <path fill="#fff" d="M1 4.333A3.333 3.333 0 0 1 4.333 1h6A6.667 6.667 0 0 1 17 7.667v2.666A6.667 6.667 0 0 1 10.333 17h-6A3.333 3.333 0 0 1 1 13.667V4.333Z"/>
  <path stroke="#000" stroke-opacity=".1" stroke-width=".667" d="M10.333.667a7 7 0 0 1 7 7v2.666a7 7 0 0 1-7 7h-6a3.666 3.666 0 0 1-3.666-3.666V4.333A3.666 3.666 0 0 1 4.333.667h6Z"/>
  <path fill="#ADC2FC" d="m14.881 8.046-.957-1.162a.333.333 0 0 0-.59.212v3.808c0 .313.391.453.59.212l.957-1.163a1.5 1.5 0 0 0 0-1.907Z"/>
  <path fill="#3969EF" d="M3.91 5.336h2.063l1.559 4.583h.018l1.475-4.583h2.063V12H9.716V7.277h-.02L8.065 12h-1.13L5.301 7.324h-.019V12H3.91V5.336Z"/>
</svg>
