<svg fill="none" viewBox="0 0 16 16" xmlns="http://www.w3.org/2000/svg">
  <path fill="#000" fill-rule="evenodd" d="M0 5a4 4 0 0 1 4-4h8a4 4 0 0 1 4 4v1.792c0 .478-.681.721-1.053.422a.516.516 0 0 1-.197-.4v-.819H1.25V11A2.75 2.75 0 0 0 4 13.75h2.135a.57.57 0 0 1 .497.312c.21.398-.055.938-.506.938H4a4 4 0 0 1-4-4V5Zm1.262-.255h13.476A2.75 2.75 0 0 0 12 2.25H4a2.75 2.75 0 0 0-2.738 2.495Z" clip-rule="evenodd"/>
  <path fill="#000" fill-rule="evenodd" d="M11.5 7a4.5 4.5 0 1 0 0 9 4.5 4.5 0 0 0 0-9Zm-1.972 7.084A3.248 3.248 0 0 1 8.288 12h.85a7.61 7.61 0 0 0 .39 2.084ZM8.337 10.75h.818a7.48 7.48 0 0 1 .373-1.834 3.252 3.252 0 0 0-1.191 1.834Zm2.495 3.233c-.226-.5-.392-1.19-.441-1.983h2.218c-.05.793-.215 1.482-.441 1.983-.299.66-.583.767-.668.767-.085 0-.37-.106-.668-.767Zm0-4.966c-.202.447-.356 1.045-.422 1.733h2.18c-.066-.688-.22-1.286-.422-1.733-.299-.66-.583-.767-.668-.767-.085 0-.37.106-.668.767Zm2.64 5.067c.213-.606.348-1.32.39-2.084h.85a3.248 3.248 0 0 1-1.24 2.084Zm.373-3.334h.818a3.252 3.252 0 0 0-1.19-1.834c.188.54.316 1.164.371 1.834Z" clip-rule="evenodd"/>
</svg>
