<svg fill="none" viewBox="0 0 16 16" xmlns="http://www.w3.org/2000/svg">
  <path fill="#000" d="M1 3.625A2.625 2.625 0 0 1 3.625 1h7a2.62 2.62 0 0 1 1.648.581c.304.246.084.669-.307.669H3.625c-.76 0-1.375.616-1.375 1.375v3.75c0 .76.616 1.375 1.375 1.375H6v4a.5.5 0 0 1-.5.5H3.625a.625.625 0 1 1 0-1.25H5v-1.375H3.625A2.625 2.625 0 0 1 1 8V3.625Z"/>
  <path fill="#000" d="M10.5 5a.5.5 0 0 0 0 1h1a.5.5 0 0 0 0-1h-1Z"/>
  <path fill="#000" fill-rule="evenodd" d="M7 5.625A2.625 2.625 0 0 1 9.625 3h2.75A2.625 2.625 0 0 1 15 5.625v6.75A2.625 2.625 0 0 1 12.375 15h-2.75A2.625 2.625 0 0 1 7 12.375v-6.75ZM9.625 4.25c-.76 0-1.375.616-1.375 1.375v6.75c0 .76.616 1.375 1.375 1.375h2.75c.76 0 1.375-.616 1.375-1.375v-6.75c0-.76-.616-1.375-1.375-1.375h-2.75Z" clip-rule="evenodd"/>
</svg>
