<svg fill="none" viewBox="0 0 16 16" xmlns="http://www.w3.org/2000/svg">
  <g fill="#000" fill-rule="evenodd" clip-path="url(#Key-Login-16_svg__a)" clip-rule="evenodd">
    <path d="M11 3a2 2 0 1 0 0 4 2 2 0 0 0 0-4Zm-.75 2a.75.75 0 1 1 1.5 0 .75.75 0 0 1-1.5 0Z"/>
    <path d="M10.5-.01a5.51 5.51 0 0 0-5.448 6.342c.058.381-.037.702-.224.89l-4.03 4.03a2.761 2.761 0 0 0-.809 1.952v.046a2.76 2.76 0 0 0 2.761 2.76H3a2.01 2.01 0 0 0 2.01-2h.408c.301 0 .59-.119.803-.332l2.514-2.514c.188-.188.512-.282.896-.221A5.51 5.51 0 1 0 10.5-.01ZM6.26 5.5a4.24 4.24 0 1 1 3.57 4.187c-.658-.104-1.437.02-1.994.578L5.362 12.74h-.737a.886.886 0 0 0-.886.886V14a.74.74 0 0 1-.739.74h-.25a1.49 1.49 0 0 1-1.49-1.49v-.046c0-.395.158-.774.437-1.054l4.03-4.03c.553-.553.681-1.325.582-1.978A4.278 4.278 0 0 1 6.26 5.5Z"/>
  </g>
  <defs>
    <clipPath id="Key-Login-16_svg__a">
      <path fill="#fff" d="M0 0h16v16H0z"/>
    </clipPath>
  </defs>
</svg>
