<svg fill="none" viewBox="0 0 12 12" xmlns="http://www.w3.org/2000/svg">
  <g fill="#000" clip-path="url(#Platform-12_svg__a)">
    <path fill-rule="evenodd" d="M5.713.07a.625.625 0 0 1 .574 0L11.6 2.82a.625.625 0 0 1 0 1.11L6.287 6.68a.625.625 0 0 1-.574 0L.4 3.93a.625.625 0 0 1 0-1.11L5.713.07ZM2.047 3.375 6 5.421l3.953-2.046L6 1.329 2.047 3.375Z" clip-rule="evenodd"/>
    <path d="M.133 8.338a.625.625 0 0 1 .842-.268L6 10.671l5.025-2.601a.625.625 0 1 1 .575 1.11l-5.313 2.75a.625.625 0 0 1-.574 0L.4 9.18a.625.625 0 0 1-.267-.842Z"/>
    <path d="M.975 5.445A.625.625 0 0 0 .4 6.555l5.313 2.75c.18.093.394.093.574 0l5.313-2.75a.625.625 0 1 0-.575-1.11L6 8.046.975 5.445Z"/>
  </g>
  <defs>
    <clipPath id="Platform-12_svg__a">
      <path fill="#fff" d="M0 0h12v12H0z"/>
    </clipPath>
  </defs>
</svg>
