<svg fill="none" viewBox="0 0 24 24" xmlns="http://www.w3.org/2000/svg">
  <path fill="#fff" d="M3.75 4.5A3.75 3.75 0 0 1 7.5.75h4.447a3.75 3.75 0 0 1 2.651 1.098l4.554 4.554a3.75 3.75 0 0 1 1.098 2.651V19.5a3.75 3.75 0 0 1-3.75 3.75h-9a3.75 3.75 0 0 1-3.75-3.75v-15Z"/>
  <path fill="#DADADA" fill-rule="evenodd" d="M20.25 8.25h-4.5a3 3 0 0 1-3-3V.75h.193c.597 0 1.17.237 1.591.659l5.057 5.057c.422.422.659.994.659 1.591v.193Z" clip-rule="evenodd"/>
  <path fill="#888" fill-rule="evenodd" d="M7.5 0A4.5 4.5 0 0 0 3 4.5v15A4.5 4.5 0 0 0 7.5 24h9a4.5 4.5 0 0 0 4.5-4.5V8.678a4.5 4.5 0 0 0-1.318-3.182l-4.178-4.178A4.5 4.5 0 0 0 12.322 0H7.5Zm-3 4.5a3 3 0 0 1 3-3H12v3A4.5 4.5 0 0 0 16.5 9h3v10.5a3 3 0 0 1-3 3h-9a3 3 0 0 1-3-3v-15Zm14.759 3a3 3 0 0 0-.638-.943l-4.178-4.178a3 3 0 0 0-.943-.638V4.5a3 3 0 0 0 3 3h2.759Z" clip-rule="evenodd"/>
</svg>
