<svg fill="none" viewBox="0 0 24 24" xmlns="http://www.w3.org/2000/svg">
  <path fill="#000" d="M21.25 8.473a.75.75 0 0 1 .75.75V13a5 5 0 0 1-5 5h-6a5 5 0 0 1-5-5V7a5 5 0 0 1 5-5h3.778a.75.75 0 1 1 0 1.5H11A3.5 3.5 0 0 0 7.5 7v6a3.5 3.5 0 0 0 3.5 3.5h6a3.5 3.5 0 0 0 3.5-3.5V9.223a.75.75 0 0 1 .75-.75Z"/>
  <path fill="#000" d="M4.5 7.57c0-.612-.623-1.015-1.089-.62A3.991 3.991 0 0 0 2.001 10v5a7 7 0 0 0 7 7h5a3.99 3.99 0 0 0 3.048-1.41c.396-.467-.007-1.09-.619-1.09-.27 0-.52.135-.717.32-.447.422-1.05.68-1.713.68H9A5.5 5.5 0 0 1 3.5 15v-5c0-.663.258-1.266.68-1.714.186-.197.32-.446.32-.717ZM23 4a3 3 0 1 1-6 0 3 3 0 0 1 6 0Z"/>
</svg>
