<svg fill="none" viewBox="0 0 20 20" xmlns="http://www.w3.org/2000/svg">
  <path fill="#000" d="M15.84 17.589c-.031.205.114.411.321.411h2.204a.75.75 0 0 0 .75-.75c0-2.074-.877-3.936-2.105-5.277-1.055-1.151-2.427-1.978-3.814-2.177a3.917 3.917 0 0 0-.915-7.778c-.234.022-.318.303-.17.485.212.261.4.543.562.842.052.096.15.158.259.17a2.417 2.417 0 0 1 0 4.803.336.336 0 0 0-.259.17 5.47 5.47 0 0 1-.593.88.325.325 0 0 0 .051.463 9.38 9.38 0 0 1 1.656 1.62.316.316 0 0 0 .125.094c.686.287 1.382.775 1.992 1.441.856.935 1.488 2.161 1.663 3.514H16.16a.309.309 0 0 0-.305.326c.007.14.01.282.01.424 0 .115-.008.229-.025.339Z"/>
  <path fill="#000" fill-rule="evenodd" d="M8.446 9.796a3.917 3.917 0 1 0-1.18-.015c-1.41.16-2.87.925-4.014 2.075C1.948 13.17 1 15.04 1 17.25c0 .414.336.75.75.75h11.865a.75.75 0 0 0 .75-.75c0-2.074-.877-3.936-2.105-5.277-1.055-1.151-2.427-1.978-3.814-2.177Zm-5.9 6.704h10.27c-.174-1.353-.806-2.58-1.662-3.514-1.024-1.117-2.288-1.736-3.345-1.736-1.084 0-2.417.581-3.492 1.664-.909.914-1.592 2.146-1.77 3.586Zm7.776-10.583a2.417 2.417 0 1 1-4.834 0 2.417 2.417 0 0 1 4.834 0Z" clip-rule="evenodd"/>
</svg>
