<svg fill="none" viewBox="0 0 16 16" xmlns="http://www.w3.org/2000/svg">
  <path fill="#000" fill-rule="evenodd" d="M6.303 1.028a1.454 1.454 0 0 1 1.49.618c.16.238.245.519.245.805v.486l.007.134A1.373 1.373 0 0 0 9.41 4.308h.141a4.252 4.252 0 0 1 3.023 1.252 1.454 1.454 0 0 1 .097 1.947l-.096.106-2.04 2.038 4.282 4.282.08.098a.626.626 0 0 1-.866.867l-.099-.08-4.28-4.282-2.039 2.038a1.452 1.452 0 0 1-1.99.062l-.002-.003a3.966 3.966 0 0 1-1.313-3.084V9.41L4.3 9.275a1.373 1.373 0 0 0-1.229-1.23l-.135-.007h-.485A1.452 1.452 0 0 1 1.425 5.56l4.134-4.135.08-.073c.189-.163.418-.275.664-.324Zm.244 1.226a.204.204 0 0 0-.104.056v-.001L2.307 6.443h.001a.204.204 0 0 0-.044.221.202.202 0 0 0 .187.124h.484l.259.013a2.625 2.625 0 0 1 2.362 2.608v.165a2.715 2.715 0 0 0 .897 2.126.203.203 0 0 0 .275-.01l4.961-4.96.026-.032a.204.204 0 0 0 .034-.112.204.204 0 0 0-.06-.143 3.004 3.004 0 0 0-2.137-.885H9.41A2.623 2.623 0 0 1 6.8 3.195l-.013-.258v-.485l-.009-.058a.203.203 0 0 0-.024-.054.204.204 0 0 0-.208-.086Z" clip-rule="evenodd"/>
</svg>
