<svg fill="none" viewBox="0 0 16 16" xmlns="http://www.w3.org/2000/svg">
  <g fill="#000" clip-path="url(#Arrow-Circle-Up-16_svg__a)">
    <path d="M11.452 8.105a.625.625 0 0 1-.883 0L8.63 6.166v5.209a.625.625 0 1 1-1.25 0V6.166L5.442 8.105a.625.625 0 1 1-.884-.884l2.298-2.298a1.625 1.625 0 0 1 2.298 0l2.298 2.298a.625.625 0 0 1 0 .884Z"/>
    <path fill-rule="evenodd" d="M0 8a8 8 0 1 0 16 0A8 8 0 0 0 0 8Zm8 6.75a6.75 6.75 0 1 1 0-13.5 6.75 6.75 0 0 1 0 13.5Z" clip-rule="evenodd"/>
  </g>
  <defs>
    <clipPath id="Arrow-Circle-Up-16_svg__a">
      <path fill="#fff" d="M0 0h16v16H0z"/>
    </clipPath>
  </defs>
</svg>
