<svg fill="none" viewBox="0 0 24 24" xmlns="http://www.w3.org/2000/svg">
  <path fill="#000" fill-rule="evenodd" d="M7 3a5 5 0 0 0-5 5v8a5 5 0 0 0 5 5h4.38c.52 0 .84-.6.63-1.077a.69.69 0 0 0-.62-.423H7A3.5 3.5 0 0 1 3.5 16v-5.5h17v1.454c0 .216.118.414.298.533.465.306 1.202.003 1.202-.554v-1.345a5 5 0 0 0-5-5h-2.46a2.39 2.39 0 0 1-1.933-.985A3.89 3.89 0 0 0 9.46 3H7Zm13.12 6H3.5V8A3.5 3.5 0 0 1 7 4.5h2.46a2.39 2.39 0 0 1 1.934.985 3.89 3.89 0 0 0 3.147 1.603H17A3.5 3.5 0 0 1 20.12 9Z" clip-rule="evenodd"/>
  <path fill="#000" fill-rule="evenodd" d="M22 17.5a4.5 4.5 0 1 1-9 0 4.5 4.5 0 0 1 9 0Zm-3.75-2.25a.5.5 0 0 0-.5-.5h-.5a.5.5 0 0 0-.5.5v1.5h-1.5a.5.5 0 0 0-.5.5v.5a.5.5 0 0 0 .5.5h1.5v1.5a.5.5 0 0 0 .5.5h.5a.5.5 0 0 0 .5-.5v-1.5h1.5a.5.5 0 0 0 .5-.5v-.5a.5.5 0 0 0-.5-.5h-1.5v-1.5Z" clip-rule="evenodd"/>
</svg>
