<svg fill="none" viewBox="0 0 24 24" xmlns="http://www.w3.org/2000/svg">
  <path fill="#000" d="M2 5.75A.75.75 0 0 1 2.75 5h3.5a.75.75 0 0 1 0 1.5h-3.5A.75.75 0 0 1 2 5.75Zm0 8a.75.75 0 0 1 .75-.75h4.5a.75.75 0 0 1 0 1.5h-4.5a.75.75 0 0 1-.75-.75ZM2.75 9a.75.75 0 0 0 0 1.5h1.5a.75.75 0 0 0 0-1.5h-1.5ZM2 17.75a.75.75 0 0 1 .75-.75h2.5a.75.75 0 0 1 0 1.5h-2.5a.75.75 0 0 1-.75-.75ZM10.75 13a.75.75 0 0 0 0 1.5h5.5a.75.75 0 1 0 0-1.5h-5.5ZM7 9.75A.75.75 0 0 1 7.75 9h3.5a.75.75 0 1 1 0 1.5h-3.5A.75.75 0 0 1 7 9.75ZM14.75 9a.75.75 0 0 0 0 1.5h1.5a.75.75 0 1 0 0-1.5h-1.5ZM17 17.75a.75.75 0 0 1 .75-.75h3.5a.75.75 0 1 1 0 1.5h-3.5a.75.75 0 0 1-.75-.75ZM19.75 9a.75.75 0 0 0 0 1.5h1.5a.75.75 0 1 0 0-1.5h-1.5ZM8 17.75a.75.75 0 0 1 .75-.75h5.5a.75.75 0 1 1 0 1.5h-5.5a.75.75 0 0 1-.75-.75ZM19.75 13a.75.75 0 0 0 0 1.5h1.5a.75.75 0 1 0 0-1.5h-1.5ZM9 5.75A.75.75 0 0 1 9.75 5h1a.75.75 0 1 1 0 1.5h-1A.75.75 0 0 1 9 5.75ZM14.75 5a.75.75 0 0 0 0 1.5h6.5a.75.75 0 1 0 0-1.5h-6.5Z"/>
</svg>
