<svg fill="none" viewBox="0 0 24 24" xmlns="http://www.w3.org/2000/svg">
  <path fill="#000" d="M18 10a1 1 0 1 1-2 0 1 1 0 0 1 2 0Zm-8.25 7a.75.75 0 0 0 0 1.5h4.5a.75.75 0 1 0 0-1.5h-4.5Z"/>
  <path fill="#000" fill-rule="evenodd" d="M6 6.094V4.86A2.86 2.86 0 0 1 8.86 2h6.264a2.86 2.86 0 0 1 2.86 2.86v1.23A4.97 4.97 0 0 1 22 10.97v5.172A2.86 2.86 0 0 1 19.14 19H18v.11a2.86 2.86 0 0 1-2.86 2.859H8.86A2.86 2.86 0 0 1 6 19.109V19H4.86A2.86 2.86 0 0 1 2 16.14v-5.17a4.97 4.97 0 0 1 4-4.875ZM7.5 4.86c0-.75.609-1.359 1.36-1.359h6.264c.75 0 1.36.609 1.36 1.36V6H7.5V4.86ZM19.14 17.5H18v-1.61a2.86 2.86 0 0 0-2.86-2.859H8.86A2.86 2.86 0 0 0 6 15.891V17.5H4.86a1.36 1.36 0 0 1-1.36-1.36v-5.17A3.469 3.469 0 0 1 6.97 7.5h10.063a3.469 3.469 0 0 1 3.468 3.469v5.172a1.36 1.36 0 0 1-1.36 1.359ZM8.86 14.531a1.36 1.36 0 0 0-1.36 1.36v3.218c0 .751.609 1.36 1.36 1.36h6.28a1.36 1.36 0 0 0 1.36-1.36v-3.218a1.36 1.36 0 0 0-1.36-1.36H8.86Z" clip-rule="evenodd"/>
</svg>
