<svg width="16" height="16" viewBox="0 0 16 16" fill="none" xmlns="http://www.w3.org/2000/svg">
<path d="M11.1033 1.00134C13.2647 1.05612 15 2.82539 15 5V11L14.9987 11.1033C14.9448 13.2304 13.2304 14.9448 11.1033 14.9987L11 15H5L4.89673 14.9987C2.76964 14.9448 1.05525 13.2304 1.00134 11.1033L1 11V5C1 2.82539 2.73532 1.05612 4.89673 1.00134L5 1H11L11.1033 1.00134ZM5 2.25C3.48122 2.25 2.25 3.48122 2.25 5V11C2.25 12.5188 3.48122 13.75 5 13.75H11C12.5188 13.75 13.75 12.5188 13.75 11V5C13.75 3.48122 12.5188 2.25 11 2.25H5ZM4.68311 4.68311C4.91954 4.44667 5.29823 4.43927 5.54358 4.66089L5.56689 4.68311L8 7.11621L10.4331 4.68311L10.4564 4.66089C10.7018 4.43925 11.0805 4.4467 11.3169 4.68311C11.5533 4.91955 11.5607 5.29824 11.3391 5.54358L11.3169 5.56689L8.88379 8L11.3169 10.4331L11.3391 10.4564C11.5607 10.7018 11.5533 11.0805 11.3169 11.3169C11.0805 11.5533 10.7018 11.5607 10.4564 11.3391L10.4331 11.3169L8 8.88379L5.56689 11.3169L5.54358 11.3391C5.29824 11.5607 4.91955 11.5533 4.68311 11.3169C4.4467 11.0805 4.43925 10.7018 4.66089 10.4564L4.68311 10.4331L7.11621 8L4.68311 5.56689L4.66089 5.54358C4.43927 5.29823 4.44667 4.91954 4.68311 4.68311Z" fill="black" fill-opacity="0.84"/>
</svg>
