<svg fill="none" viewBox="0 0 20 20" xmlns="http://www.w3.org/2000/svg">
  <path fill="#000" d="M14.189 1.381c-.122-.49-.818-.49-.94 0l-.287 1.145a4.121 4.121 0 0 1-2.998 2.999l-1.145.286c-.49.122-.49.818 0 .94l1.145.287a4.121 4.121 0 0 1 2.998 2.998l.287 1.146c.122.49.818.49.94 0l.286-1.146a4.121 4.121 0 0 1 2.999-2.998l1.145-.286c.49-.123.49-.819 0-.941l-1.145-.286a4.121 4.121 0 0 1-2.999-2.999l-.286-1.145ZM6.507 5.5c.285 0 .482.294.454.577a2.2 2.2 0 0 0-.004.363c.021.278-.174.56-.453.56H1.75a.75.75 0 1 1 0-1.5h4.757Zm5.145 5.533a.68.68 0 0 0-.667-.533H1.75a.75.75 0 0 0 0 1.5h9.559c.299 0 .506-.324.428-.613a8.37 8.37 0 0 1-.085-.354ZM14 16.25a.75.75 0 0 1-.75.75H1.75a.75.75 0 1 1 0-1.5h11.5a.75.75 0 0 1 .75.75Z"/>
</svg>
