<svg fill="none" viewBox="0 0 16 16" xmlns="http://www.w3.org/2000/svg">
  <path fill="#000" d="M12.104 1.001a4 4 0 0 1 3.895 3.895L16 5v6l-.001.104a4 4 0 0 1-3.896 3.895L12 15H4a4 4 0 0 1-3.999-3.896L0 11V5l.001-.104A4 4 0 0 1 4 1h8l.104.001ZM4 2.25A2.75 2.75 0 0 0 1.25 5v6A2.75 2.75 0 0 0 4 13.75h8A2.75 2.75 0 0 0 14.75 11V5A2.75 2.75 0 0 0 12 2.25H4Zm2 1.625c.264 0 .5.166.589.415l2.5 7 .01.03a.626.626 0 0 1-1.176.42l-.012-.03-.521-1.46H4.61l-.521 1.46a.626.626 0 0 1-1.178-.42l2.5-7 .009-.023A.625.625 0 0 1 6 3.875Zm4.716.818a.625.625 0 0 1 .825.245l.016.028 1.375 2.687a.626.626 0 0 1 .02.526l-.015.033-1.375 2.812a.625.625 0 1 1-1.123-.548l1.237-2.533-1.233-2.408-.013-.03a.626.626 0 0 1 .286-.812ZM5.056 9h1.887L6 6.358 5.057 9Z"/>
</svg>
