<svg fill="none" viewBox="0 0 24 24" xmlns="http://www.w3.org/2000/svg">
  <path fill="#F5F5F5" d="M11.5 2H7a4 4 0 0 0-4 4v12a4 4 0 0 0 4 4h10a4 4 0 0 0 4-4v-2.316c0-1.286-1.47-1.891-1.53-1.434-.068.505-.138.956-.196 1.189-.098.391-.223.789-.507 1.088-.411.434-.938.473-1.267.473-.508 0-.979-.173-1.317-.59-.213-.263-.33-.58-.435-.897a3.863 3.863 0 0 1-.12-.532 20.405 20.405 0 0 1-.098-.665c-.032-.24-.065-.5-.096-.76-.627-.076-1.273-.132-1.887-.286-.277-.069-.738-.184-1.074-.503-.434-.411-.473-.938-.473-1.267 0-.33.04-.856.473-1.267.3-.284.697-.409 1.088-.507.337-.084 1.13-.192 1.881-.284.077-.63.134-1.278.288-1.895 0-.5-.73-.547-1.23-.547a2.5 2.5 0 0 1-2.292-3.5C12.594 2.617 12 2 11.5 2Z"/>
  <path fill="#666" d="M12.801 2.838c.275-.203.14-.838-.202-.838H7a4 4 0 0 0-4 4v12a4 4 0 0 0 4 4h10a4 4 0 0 0 4-4v-3.498c0-.554-.45-1.004-1.003-.973-.157.01-.31.021-.44.037-.179 1.456-.057 2.969-.057 4.434a2.5 2.5 0 0 1-2.5 2.5H7A2.5 2.5 0 0 1 4.5 18V6A2.5 2.5 0 0 1 7 3.5h5.208c.106-.243.328-.466.593-.662Z"/>
  <path fill="#DDD" d="M15.632 15c.028.164.066.362.116.513l.014.042c.065.2.185.565.42.855.34.417.81.59 1.318.59.14 0 .314-.007.5-.048V18a1 1 0 0 1-1 1H7a1 1 0 0 1-1-1v-2a1 1 0 0 1 1-1h8.632Z"/>
  <path fill="#DE5833" d="M12.05 5a2.5 2.5 0 0 0 2.45 2c1 0 1.242.047 1.242.5H7a1 1 0 0 1-1-1V6a1 1 0 0 1 1-1h5.05Z"/>
  <path fill="#AAA" d="M12.048 12c.056.254.175.53.425.767.158.15.344.255.525.331a.75.75 0 0 1-.665.402H6.75a.75.75 0 0 1 0-1.5h5.298ZM6 9.75A.75.75 0 0 1 6.75 9h4.5a.75.75 0 0 1 0 1.5h-4.5A.75.75 0 0 1 6 9.75Z"/>
  <path fill="#6B4EBA" d="M18.304 7.804C18.143 7.16 18.033 7 17.5 7s-.643.16-.804.804c-.095.38-.246 1.602-.354 2.538-.936.108-2.158.26-2.538.354-.643.161-.804.271-.804.804s.16.643.804.804c.379.094 1.598.245 2.533.353.108.973.263 2.25.36 2.54.16.482.27.803.803.803s.643-.16.804-.804c.094-.379.245-1.598.353-2.533.973-.108 2.25-.263 2.54-.36.482-.16.803-.27.803-.803s-.16-.643-.804-.804c-.38-.095-1.602-.246-2.539-.354-.107-.936-.258-2.158-.353-2.538Z"/>
  <path fill="#FFD65C" d="M16 4.5a1.5 1.5 0 1 1-3 0 1.5 1.5 0 0 1 3 0Z"/>
  <path fill="#7295F6" d="m20.333 3.667-.235-1.177a.61.61 0 0 0-1.196 0l-.235 1.177-1.177.235a.61.61 0 0 0 0 1.196l1.177.235.235 1.177a.61.61 0 0 0 1.196 0l.235-1.177 1.177-.235a.61.61 0 0 0 0-1.196l-1.177-.235Z"/>
</svg>
