<svg fill="none" viewBox="0 0 16 16" xmlns="http://www.w3.org/2000/svg">
  <path fill="#000" d="M14 7.625a.625.625 0 1 0-1.25 0v.75a.625.625 0 1 0 1.25 0v-.75Z"/>
  <path fill="#000" fill-rule="evenodd" d="M3.125 2A3.125 3.125 0 0 0 0 5.125v5.75C0 12.601 1.4 14 3.125 14h9.75C14.601 14 16 12.6 16 10.875v-5.75C16 3.399 14.6 2 12.875 2h-9.75ZM1.25 5.125c0-1.036.84-1.875 1.875-1.875h9.75c1.036 0 1.875.84 1.875 1.875v5.75c0 1.036-.84 1.875-1.875 1.875h-9.75a1.875 1.875 0 0 1-1.875-1.875v-5.75Z" clip-rule="evenodd"/>
</svg>
