<svg fill="none" viewBox="0 0 16 16" xmlns="http://www.w3.org/2000/svg">
  <path fill="#000" fill-rule="evenodd" d="M8 4a4 4 0 1 0 0 8 4 4 0 0 0 0-8ZM5.25 8a2.75 2.75 0 1 1 5.5 0 2.75 2.75 0 0 1-5.5 0Z" clip-rule="evenodd"/>
  <path fill="#000" fill-rule="evenodd" d="M6.89 0a2.508 2.508 0 0 0-2.322 1.559A1.917 1.917 0 0 1 2.793 2.75h-.135A2.658 2.658 0 0 0 0 5.408V11a4 4 0 0 0 4 4h8a4 4 0 0 0 4-4V5.435a2.685 2.685 0 0 0-2.685-2.685h-.09c-.8 0-1.525-.473-1.847-1.206A2.583 2.583 0 0 0 9.013 0H6.89ZM5.724 2.032a1.258 1.258 0 0 1 1.164-.782h2.124c.53 0 1.008.313 1.22.797A3.268 3.268 0 0 0 13.227 4h.09c.792 0 1.434.642 1.434 1.435V11A2.75 2.75 0 0 1 12 13.75H4A2.75 2.75 0 0 1 1.25 11V5.408C1.25 4.63 1.88 4 2.658 4h.135a3.167 3.167 0 0 0 2.932-1.968Z" clip-rule="evenodd"/>
</svg>
