<svg fill="none" viewBox="0 0 24 24" xmlns="http://www.w3.org/2000/svg">
  <path fill="#000" d="M21.279 12.18a.75.75 0 0 1 .67.822 10.001 10.001 0 0 1-2.595 5.776l-.281.293a10 10 0 0 1-11.535 1.878l-.358-.187a10 10 0 0 1-3.68-3.497v3.485a.75.75 0 0 1-1.5 0V17a2.5 2.5 0 0 1 2.5-2.5h3.75a.75.75 0 0 1 0 1.5H4.502l.058.11a8.5 8.5 0 0 0 3.343 3.338l.305.16a8.5 8.5 0 0 0 9.804-1.598l.238-.249a8.501 8.501 0 0 0 2.207-4.91.75.75 0 0 1 .822-.67ZM10.192 2.165a10.01 10.01 0 0 1 6.27.886l.359.188a9.998 9.998 0 0 1 3.68 3.496V3.25a.75.75 0 0 1 1.5 0V7a2.5 2.5 0 0 1-2.5 2.5h-3.75a.75.75 0 0 1 0-1.5h3.747l-.057-.11a8.5 8.5 0 0 0-3.343-3.337l-.306-.16A8.5 8.5 0 0 0 5.99 5.99l-.239.249a8.502 8.502 0 0 0-2.207 4.909.75.75 0 0 1-1.492-.15 10.001 10.001 0 0 1 2.596-5.776l.281-.293a10 10 0 0 1 5.264-2.765Z"/>
</svg>
