<svg fill="none" viewBox="0 0 24 24" xmlns="http://www.w3.org/2000/svg">
  <path fill="#000" d="M12.382 6.284c-.1-.398-.664-.398-.764 0l-.37 1.483a3.28 3.28 0 0 1-2.387 2.387l-1.483.37c-.398.1-.398.665 0 .764l1.483.371a3.28 3.28 0 0 1 2.386 2.387l.371 1.483c.1.397.665.397.764 0l.37-1.483a3.28 3.28 0 0 1 2.387-2.387l1.484-.37c.397-.1.397-.665 0-.764l-1.484-.371a3.28 3.28 0 0 1-2.386-2.387l-.37-1.483Z"/>
  <path fill="#000" fill-rule="evenodd" d="M4.268 21.916c3.32-.57 9.137-1.673 11.5-2.758C19.425 17.833 22 14.638 22 10.906 22 5.987 17.523 2 12 2S2 5.987 2 10.906c0 2.468 1.127 4.701 2.948 6.314.399.354.474.967.125 1.37l-1.617 1.864c-.552.637-.018 1.604.812 1.462Zm10.875-4.12.056-.027.058-.02c3.167-1.149 5.243-3.847 5.243-6.843C20.5 6.974 16.863 3.5 12 3.5c-4.862 0-8.5 3.474-8.5 7.406 0 1.992.906 3.83 2.442 5.191.94.833 1.215 2.378.264 3.475l-.489.564c1.345-.246 2.87-.544 4.333-.87 2.176-.485 4.074-1.003 5.093-1.47Z" clip-rule="evenodd"/>
</svg>
