<svg fill="none" viewBox="0 0 24 24" xmlns="http://www.w3.org/2000/svg">
  <path fill="url(#Bookmark-Favorite-Color-24_svg__a)" d="M14.406 2.625H9.594a4.219 4.219 0 0 0-4.219 4.219v12.288c0 1.616 1.742 2.632 3.148 1.836l2.438-1.38a2.11 2.11 0 0 1 2.078 0l2.438 1.38c1.406.796 3.148-.22 3.148-1.836V6.844a4.219 4.219 0 0 0-4.219-4.219Z"/>
  <path fill="url(#Bookmark-Favorite-Color-24_svg__b)" d="M10.698 19.12a2.735 2.735 0 0 1 2.728.012l2.344 1.361.046.027A1.484 1.484 0 0 0 18 19.21V6.844a3.594 3.594 0 0 0-3.594-3.594H9.594A3.594 3.594 0 0 0 6 6.844v12.4a1.484 1.484 0 0 0 2.22 1.29l2.478-1.413Zm8.552.09c0 2.075-2.214 3.382-4.022 2.412l-.086-.048-2.344-1.361a1.484 1.484 0 0 0-1.48-.006l-2.48 1.413c-1.822 1.04-4.088-.277-4.088-2.376v-12.4A4.844 4.844 0 0 1 9.594 2h4.812a4.844 4.844 0 0 1 4.844 4.844V19.21Z"/>
  <path fill="#fff" d="M11.415 7.392a.625.625 0 0 1 1.16 0l.727 1.811c.09.223.299.375.538.39l1.947.133a.625.625 0 0 1 .359 1.103l-1.498 1.252a.625.625 0 0 0-.205.632l.476 1.893a.625.625 0 0 1-.939.681l-1.653-1.038a.625.625 0 0 0-.664 0l-1.653 1.038a.625.625 0 0 1-.939-.682l.476-1.892a.625.625 0 0 0-.205-.632l-1.498-1.252a.625.625 0 0 1 .359-1.103l1.947-.132a.625.625 0 0 0 .538-.39l.727-1.812Z"/>
  <path fill="url(#Bookmark-Favorite-Color-24_svg__c)" d="M10.286 6.854c.657-1.472 2.76-1.472 3.418 0l.03.072.582 1.447 1.556.106.078.007c1.603.17 2.253 2.17 1.056 3.251l-.059.052-1.196 1 .38 1.511.018.077c.333 1.577-1.369 2.814-2.766 2.01l-.067-.041-1.321-.83-1.32.83c-1.432.899-3.228-.406-2.816-2.046l.38-1.512-1.196-1c-1.297-1.083-.611-3.195 1.075-3.31l1.556-.105.581-1.447.03-.072Zm2.289.538a.625.625 0 0 0-1.16 0l-.727 1.811-.018.041a.625.625 0 0 1-.52.35l-1.947.132a.625.625 0 0 0-.359 1.103l1.498 1.252a.623.623 0 0 1 .205.632l-.476 1.893a.625.625 0 0 0 .916.695l.023-.014 1.653-1.038a.625.625 0 0 1 .664 0l1.653 1.038a.625.625 0 0 0 .945-.656l-.006-.026-.476-1.892a.625.625 0 0 1 .205-.632l1.498-1.252a.625.625 0 0 0-.333-1.1l-.026-.003-1.947-.132a.625.625 0 0 1-.52-.35l-.018-.04-.727-1.812Z"/>
  <defs>
    <linearGradient id="Bookmark-Favorite-Color-24_svg__a" x1="12" x2="12" y1="2.625" y2="23.25" gradientUnits="userSpaceOnUse">
      <stop stop-color="#8FABF9"/>
      <stop offset="1" stop-color="#7295F6"/>
    </linearGradient>
    <linearGradient id="Bookmark-Favorite-Color-24_svg__b" x1="12" x2="12" y1="2.625" y2="23.25" gradientUnits="userSpaceOnUse">
      <stop stop-color="#3969EF"/>
      <stop offset="1" stop-color="#1E42A4"/>
    </linearGradient>
    <linearGradient id="Bookmark-Favorite-Color-24_svg__c" x1="11.995" x2="11.995" y1="7" y2="15.385" gradientUnits="userSpaceOnUse">
      <stop stop-color="#7295F6"/>
      <stop offset="1" stop-color="#557FF3"/>
    </linearGradient>
  </defs>
</svg>
