<svg fill="none" viewBox="0 0 16 16" xmlns="http://www.w3.org/2000/svg">
  <g clip-path="url(#Paste-Go-16_svg__a)">
    <path fill="#000" d="M4.5 7a3.5 3.5 0 0 1 2.877 5.493l2.44 2.44.022.023a.625.625 0 0 1-.883.883l-.023-.022-2.44-2.44A3.5 3.5 0 1 1 4.5 7ZM9.938-.125c.834 0 1.552.496 1.877 1.208A4.001 4.001 0 0 1 15 5v7a4 4 0 0 1-2.407 3.67c-.413.18-.802-.23-.873-.675a2.354 2.354 0 0 0-.075-.321A2.75 2.75 0 0 0 13.75 12V5a2.751 2.751 0 0 0-1.806-2.584A2.063 2.063 0 0 1 9.937 4H6.063a2.063 2.063 0 0 1-2.007-1.584A2.751 2.751 0 0 0 2.25 5v.618c-.08.037-.164.078-.249.123C1.53 5.992.875 5.674.875 5.14v-.06c0-1.93 1.492-3.62 3.31-3.996A2.063 2.063 0 0 1 6.063-.125h3.875ZM4.5 8.25a2.25 2.25 0 1 0 0 4.5 2.25 2.25 0 0 0 0-4.5Zm1.563-7.125a.813.813 0 0 0 0 1.625h3.875a.813.813 0 0 0 0-1.625H6.062Z"/>
  </g>
  <defs>
    <clipPath id="Paste-Go-16_svg__a">
      <path fill="#fff" d="M0 0h16v16H0z"/>
    </clipPath>
  </defs>
</svg>
