<svg fill="none" viewBox="0 0 16 16" xmlns="http://www.w3.org/2000/svg">
  <path fill="#000" fill-rule="evenodd" d="M5.854 2.25A1.875 1.875 0 0 0 4 4.125v1.25a.625.625 0 1 1-1.25 0v-1.25a3.125 3.125 0 0 1 3.025-3.123A1.25 1.25 0 0 1 7 0h3.5c.605 0 1.11.43 1.225 1h.15C13.601 1 15 2.4 15 4.125v7.75C15 13.601 13.6 15 11.875 15h-.25a.625.625 0 1 1 0-1.25h.25c1.036 0 1.875-.84 1.875-1.875v-7.75c0-1.036-.84-1.875-1.875-1.875h-.229A1.25 1.25 0 0 1 10.5 3H7a1.25 1.25 0 0 1-1.146-.75Zm.896-1A.25.25 0 0 1 7 1h3.5a.25.25 0 0 1 .25.25v.5a.25.25 0 0 1-.25.25H7a.25.25 0 0 1-.25-.25v-.5Z" clip-rule="evenodd"/>
  <path fill="#000" fill-rule="evenodd" d="M7.377 12.493a3.5 3.5 0 1 0-.884.884l2.44 2.44a.625.625 0 1 0 .884-.884l-2.44-2.44ZM4.5 12.75a2.25 2.25 0 1 0 0-4.5 2.25 2.25 0 0 0 0 4.5Z" clip-rule="evenodd"/>
</svg>
