<svg fill="none" viewBox="0 0 24 24" xmlns="http://www.w3.org/2000/svg">
  <path fill="#000" d="M14.213 9.994a.154.154 0 1 0 0-.308.154.154 0 0 0 0 .308Zm-4.563.396c.1 0 .18-.079.18-.18 0-.1-.08-.18-.18-.18-.1 0-.18.08-.18.18 0 .101.08.18.18.18Z"/>
  <path fill="#000" fill-rule="evenodd" d="M12.005 21.336c.704 0 1.466-.142 2.124-.293-.176-.384-.44-.965-.62-1.389-.291.09-.704.133-1 .143-.226 0-.408-.01-.504-.143-.576.492-1.741 1.149-1.974.995-.445-.286-.863-2.488-.53-2.948.075-.106.213-.159.382-.175-.159.651.212 2.26.418 2.425.201.158 1.642-.7 1.579-.9a2.956 2.956 0 0 1-.111-1.043c.058-.08.236-.201.358-.254-.01.058-.016.122-.01.196 0 .248.031.677.095.863.085.227.175.375.577.37.408-.005 1.064-.095 1.165-.275.1-.18-.032-.91-.117-1.144l-.048-.11c-.005-.011-.01-.022-.015-.027h.141c.212.047.393.137.446 1.113 0 .196 1.371.57 1.62.464.021-.01.032-.021.037-.032.116-.598.047-2.085-.482-2.715-.106-.127-1.19.561-1.842 1.048-.138-.148-.381-.233-.842-.159a2.031 2.031 0 0 0-.12.022l-.08.015c-.228-.74-.36-1.392-.308-1.815-.508-.27-.847-.583-.91-.704-.111-.201.074-.297.17-.244.005.006.015.01.031.016.535.291 1.392.609 2.557.667.137.005.28.01.423.01 1.88-.015 2.975-.746 2.784-1.111-.09-.17-.48-.126-1.063-.062-.654.073-1.551.173-2.541.03-1.387-.2-1.525-.836-1.35-1.106.267-.409.767-.387 1.482-.355.379.016.817.035 1.313-.005 1.434-.116 2.25-.519 2.7-1.032.237-.27.343-.561.253-.736-.084-.153-.323-.212-1 .048-.471.18-1.18.413-2.128.524.164-1.054-.328-4.87-3.022-5.447a.11.11 0 0 1-.032-.021c-.82-1.048-2.488-1.525-4.076-1.313-.01 0-.016.005-.021.01-.048.022-.048.112.005.133.18.063.392.159.55.302-.227.121-.56.323-.746.582-.01.01-.01.021-.01.032 0 .031.026.058.063.053.773-.154 1.562-.08 2.028.344.031.026.015.074-.027.084-4.033 1.096-3.234 4.606-2.16 8.909.767 3.07 1.287 4.92 1.493 5.633.926.317 1.862.527 2.896.527Zm2.25-12.983-.02-.01a1.397 1.397 0 0 0-.61-.144 1.229 1.229 0 0 0-.635.143c-.042.022-.106-.02-.085-.063.106-.17.34-.302.72-.302.381 0 .561.154.683.318.027.031-.016.074-.053.058Zm.286 1.683a.59.59 0 0 1-.593.588.59.59 0 0 1-.593-.588.59.59 0 0 1 .593-.587c.328 0 .593.259.593.587Zm-5.198-.28c.381 0 .688.307.688.688a.687.687 0 0 1-.688.688.687.687 0 0 1-.688-.688.683.683 0 0 1 .688-.688Zm-.72-1.26c-.37.153-.487.323-.561.434-.026.042-.127.037-.127-.01 0-.212.196-.535.609-.689.466-.174.82-.016.979.117.037.026.005.074-.037.063a1.364 1.364 0 0 0-.863.085Z" clip-rule="evenodd"/>
  <path fill="#000" fill-rule="evenodd" d="M12 21a9 9 0 1 0 0-18 9 9 0 0 0 0 18Zm0 1c5.523 0 10-4.477 10-10S17.523 2 12 2 2 6.477 2 12s4.477 10 10 10Z" clip-rule="evenodd"/>
</svg>
