<svg fill="none" viewBox="0 0 16 16" xmlns="http://www.w3.org/2000/svg">
  <path fill="#000" fill-rule="evenodd" d="M3.125 3.25c-1.036 0-1.875.84-1.875 1.875v5.75c0 1.036.84 1.875 1.875 1.875h5.75c1.036 0 1.875-.84 1.875-1.875v-1.07a.625.625 0 0 1 .938-.542l3.062 1.768V4.97l-3.063 1.768a.625.625 0 0 1-.937-.541V5.125c0-1.036-.84-1.875-1.875-1.875h-5.75ZM0 5.125C0 3.399 1.4 2 3.125 2h5.75A3.125 3.125 0 0 1 12 5.113l2.125-1.227A1.25 1.25 0 0 1 16 4.97v6.062a1.25 1.25 0 0 1-1.875 1.083L12 10.887A3.125 3.125 0 0 1 8.875 14h-5.75A3.125 3.125 0 0 1 0 10.875v-5.75Z" clip-rule="evenodd"/>
</svg>
