<svg fill="none" viewBox="0 0 16 16" xmlns="http://www.w3.org/2000/svg">
  <path fill="#000" fill-rule="evenodd" d="M8.875 2a3.124 3.124 0 0 1 3.124 3.113l2.126-1.226.158-.078A1.25 1.25 0 0 1 16 4.969v6.062l-.012.176c-.11.8-.957 1.29-1.705.984l-.158-.078-2.126-1.227a3.124 3.124 0 0 1-2.963 3.11L8.875 14h-5.75a3.125 3.125 0 0 1-3.121-2.964L0 10.875v-5.75C0 3.399 1.4 2 3.125 2h5.75Zm-5.75 1.25c-1.036 0-1.875.84-1.875 1.875v5.75l.01.191a1.875 1.875 0 0 0 1.865 1.684h5.75l.191-.01a1.875 1.875 0 0 0 1.684-1.865V9.804a.625.625 0 0 1 .938-.541l3.062 1.768V4.97l-3.063 1.767a.625.625 0 0 1-.937-.54V5.124l-.01-.191A1.875 1.875 0 0 0 8.875 3.25h-5.75Z" clip-rule="evenodd"/>
</svg>
