<svg fill="none" viewBox="0 0 16 16" xmlns="http://www.w3.org/2000/svg">
  <path fill="#F5F5F5" d="M2.5 1A2.5 2.5 0 0 0 0 3.5v9A2.5 2.5 0 0 0 2.5 15H8a5 5 0 0 1 8-6V3.5A2.5 2.5 0 0 0 13.5 1h-11Z"/>
  <path fill="#666" d="M2.5 2h11A1.5 1.5 0 0 1 15 3.5V8c.379.284.716.62 1 1V3.5A2.5 2.5 0 0 0 13.5 1h-11A2.5 2.5 0 0 0 0 3.5v9A2.5 2.5 0 0 0 2.5 15H8a4.995 4.995 0 0 1-.584-1H2.5A1.5 1.5 0 0 1 1 12.5v-9A1.5 1.5 0 0 1 2.5 2Z"/>
  <path fill="#DDD" d="M0 5.8V3.5A2.5 2.5 0 0 1 2.5 1h11A2.5 2.5 0 0 1 16 3.5v2.3H0Z"/>
  <path fill="#666" fill-rule="evenodd" d="M0 5.8V3.5A2.5 2.5 0 0 1 2.5 1h11A2.5 2.5 0 0 1 16 3.5v2.3H0Zm15-1V3.5A1.5 1.5 0 0 0 13.5 2h-11A1.5 1.5 0 0 0 1 3.5v1.3h14Z" clip-rule="evenodd"/>
  <path fill="#4CBA3C" d="M16 12a4 4 0 1 1-8 0 4 4 0 0 1 8 0Z"/>
  <path fill="#288419" fill-rule="evenodd" d="M12 15a3 3 0 1 0 0-6 3 3 0 0 0 0 6Zm0 1a4 4 0 1 0 0-8 4 4 0 0 0 0 8Z" clip-rule="evenodd"/>
  <path fill="#fff" fill-rule="evenodd" d="M13.854 10.896a.5.5 0 0 1 0 .708l-1.875 1.875a.5.5 0 0 1-.708 0l-1.125-1.125a.5.5 0 0 1 .708-.708l.771.772 1.521-1.522a.5.5 0 0 1 .708 0Z" clip-rule="evenodd"/>
</svg>
