<svg fill="none" viewBox="0 0 16 16" xmlns="http://www.w3.org/2000/svg">
  <path fill="#000" d="M3 4.625C3 4.28 3.28 4 3.625 4h8.75a.625.625 0 1 1 0 1.25h-8.75A.625.625 0 0 1 3 4.625Zm8.443 3.441a.625.625 0 0 0-.886-.882l-3.47 3.484a.25.25 0 0 1-.358-.005L5.33 9.177a.625.625 0 0 0-.91.857l1.398 1.486a1.5 1.5 0 0 0 2.156.03l3.469-3.484Z"/>
  <path fill="#000" fill-rule="evenodd" d="M4.625 0c.345 0 .625.28.625.625V1h5.5V.625a.625.625 0 1 1 1.25 0V1a4 4 0 0 1 4 4v6a4 4 0 0 1-4 4H4a4 4 0 0 1-4-4V5a4 4 0 0 1 4-4V.625C4 .28 4.28 0 4.625 0Zm6.125 2.25v.125a.625.625 0 1 0 1.25 0V2.25A2.75 2.75 0 0 1 14.75 5v6A2.75 2.75 0 0 1 12 13.75H4A2.75 2.75 0 0 1 1.25 11V5A2.75 2.75 0 0 1 4 2.25v.125a.625.625 0 1 0 1.25 0V2.25h5.5Z" clip-rule="evenodd"/>
</svg>
