<svg fill="none" viewBox="0 0 16 16" xmlns="http://www.w3.org/2000/svg">
  <path fill="#000" fill-rule="evenodd" d="M2.25 1C1.56 1 1 1.56 1 2.25v1.5C1 4.44 1.56 5 2.25 5h1.5C4.44 5 5 4.44 5 3.75v-1.5C5 1.56 4.44 1 3.75 1h-1.5Zm1.5 1.25h-1.5v1.5h1.5v-1.5ZM2.25 6C1.56 6 1 6.56 1 7.25v1.5C1 9.44 1.56 10 2.25 10h1.5C4.44 10 5 9.44 5 8.75v-1.5C5 6.56 4.44 6 3.75 6h-1.5Zm1.5 1.25h-1.5v1.5h1.5v-1.5Zm-2.75 5c0-.69.56-1.25 1.25-1.25h1.5c.69 0 1.25.56 1.25 1.25v1.5C5 14.44 4.44 15 3.75 15h-1.5C1.56 15 1 14.44 1 13.75v-1.5Zm1.25 0h1.5v1.5h-1.5v-1.5ZM12.25 1C11.56 1 11 1.56 11 2.25v1.5c0 .69.56 1.25 1.25 1.25h1.5C14.44 5 15 4.44 15 3.75v-1.5C15 1.56 14.44 1 13.75 1h-1.5Zm1.5 1.25h-1.5v1.5h1.5v-1.5Zm-2.75 5c0-.69.56-1.25 1.25-1.25h1.5c.69 0 1.25.56 1.25 1.25v1.5c0 .69-.56 1.25-1.25 1.25h-1.5C11.56 10 11 9.44 11 8.75v-1.5Zm1.25 0h1.5v1.5h-1.5v-1.5Zm0 3.75c-.69 0-1.25.56-1.25 1.25v1.5c0 .69.56 1.25 1.25 1.25h1.5c.69 0 1.25-.56 1.25-1.25v-1.5c0-.69-.56-1.25-1.25-1.25h-1.5Zm1.5 1.25h-1.5v1.5h1.5v-1.5ZM6 2.25C6 1.56 6.56 1 7.25 1h1.5C9.44 1 10 1.56 10 2.25v1.5C10 4.44 9.44 5 8.75 5h-1.5C6.56 5 6 4.44 6 3.75v-1.5Zm1.25 0h1.5v1.5h-1.5v-1.5Zm0 3.75C6.56 6 6 6.56 6 7.25v1.5C6 9.44 6.56 10 7.25 10h1.5C9.44 10 10 9.44 10 8.75v-1.5C10 6.56 9.44 6 8.75 6h-1.5Zm1.5 1.25h-1.5v1.5h1.5v-1.5Zm-2.75 5c0-.69.56-1.25 1.25-1.25h1.5c.69 0 1.25.56 1.25 1.25v1.5c0 .69-.56 1.25-1.25 1.25h-1.5C6.56 15 6 14.44 6 13.75v-1.5Zm1.25 0h1.5v1.5h-1.5v-1.5Z" clip-rule="evenodd"/>
</svg>
