<svg fill="none" viewBox="0 0 16 16" xmlns="http://www.w3.org/2000/svg">
  <g clip-path="url(#Shield-16_svg__a)">
    <path fill="#000" fill-rule="evenodd" d="M10.061.88a3 3 0 0 0-4.2-.02l-.99.962a1 1 0 0 1-.988.239l-.275-.084a2.75 2.75 0 0 0-3.55 2.564L.009 6.553a9.125 9.125 0 0 0 5.264 8.49l1.406.655a3.124 3.124 0 0 0 2.643 0l1.405-.656a9.125 9.125 0 0 0 5.264-8.489l-.05-2.038a2.75 2.75 0 0 0-3.525-2.572l-.42.124a1 1 0 0 1-.987-.248L10.061.88Zm-1.436.517c.202.085.392.208.557.372l.948.938a2.25 2.25 0 0 0 2.218.56l.42-.125a1.5 1.5 0 0 1 1.924 1.403l.05 2.038a7.875 7.875 0 0 1-4.543 7.326l-1.406.656a1.83 1.83 0 0 1-.168.07V1.396Zm-1.25-.037a1.744 1.744 0 0 0-.643.397l-.991.962a2.25 2.25 0 0 1-2.222.537l-.275-.083a1.5 1.5 0 0 0-1.937 1.399L1.26 6.583A7.875 7.875 0 0 0 5.8 13.91l1.406.656c.055.026.111.05.168.07V1.36Z" clip-rule="evenodd"/>
  </g>
  <defs>
    <clipPath id="Shield-16_svg__a">
      <path fill="#fff" d="M0 0h16v16H0z"/>
    </clipPath>
  </defs>
</svg>
