<svg fill="none" viewBox="0 0 16 16" xmlns="http://www.w3.org/2000/svg">
  <g fill="#000" clip-path="url(#Location-Blocked-16_svg__a)">
    <path d="M14.649 1.861c.185-.33-.18-.695-.51-.51L1.319 8.528c-.04.022-.051.043-.056.055a.131.131 0 0 0-.002.078.131.131 0 0 0 .04.068c.01.008.03.021.075.021h3.549a2.325 2.325 0 0 1 2.325 2.325v3.549c0 .046.013.065.021.075a.132.132 0 0 0 .068.04c.033.008.06.005.078-.002.012-.005.033-.015.055-.055l.199-.355c.1-.18.38-.148.46.042.236.55.326 1.27-.22 1.515a1.284 1.284 0 0 1-.572.11C6.659 15.972 6 15.46 6 14.624v-3.549C6 10.481 5.519 10 4.925 10H1.376C-.034 10-.523 8.126.708 7.437L13.528.26c1.43-.8 3.013.781 2.212 2.212l-2.7 4.824c-.159.283-.47.444-.794.46-.373.021-.677-.393-.494-.72l2.897-5.174Z"/>
    <path fill-rule="evenodd" d="M16 12.5a3.5 3.5 0 1 1-7 0 3.5 3.5 0 0 1 7 0Zm-1.375-.625a.5.5 0 0 1 .5.5v.25a.5.5 0 0 1-.5.5h-4.25a.5.5 0 0 1-.5-.5v-.25a.5.5 0 0 1 .5-.5h4.25Z" clip-rule="evenodd"/>
  </g>
  <defs>
    <clipPath id="Location-Blocked-16_svg__a">
      <path fill="#fff" d="M0 0h16v16H0z"/>
    </clipPath>
  </defs>
</svg>
