<svg fill="none" viewBox="0 0 16 16" xmlns="http://www.w3.org/2000/svg">
  <path fill="#000" d="M10.97.382c-.122-.49-.818-.49-.94 0l-.311 1.242a4.254 4.254 0 0 1-3.095 3.095l-1.242.31c-.49.123-.49.819 0 .941l1.242.31a4.25 4.25 0 0 1 1.501.71l-3.897 3.898c.255.332.552.629.884.883l3.897-3.897c.328.442.572.95.71 1.502l.31 1.242c.123.49.819.49.941 0l.31-1.242a4.254 4.254 0 0 1 3.096-3.095l1.242-.31c.49-.123.49-.82 0-.942l-1.242-.31a4.254 4.254 0 0 1-3.095-3.095L10.97.382ZM3.338 11.778c.263.324.56.62.884.883l-2.155 2.156a.625.625 0 1 1-.884-.884l2.155-2.155Z"/>
</svg>
