<svg fill="none" viewBox="0 0 24 24" xmlns="http://www.w3.org/2000/svg">
  <path fill="url(#AskSiri-Color-24_svg__a)" fill-rule="evenodd" d="M4.84 17.117c.468.427.564 1.154.154 1.638l-1.247 1.471c-.651.77.002 1.918.992 1.732 3.402-.635 8.864-1.764 11.085-2.827C19.45 17.794 22 14.611 22 10.899c0-4.918-4.477-8.906-10-8.906S2 5.981 2 10.9c0 2.42 1.083 4.613 2.84 6.218Z" clip-rule="evenodd"/>
  <path fill="url(#AskSiri-Color-24_svg__b)" fill-rule="evenodd" d="M4.84 17.117c.468.427.564 1.154.154 1.638l-1.247 1.471c-.651.77.002 1.918.992 1.732 3.402-.635 8.864-1.764 11.085-2.827C19.45 17.794 22 14.611 22 10.899c0-4.918-4.477-8.906-10-8.906S2 5.981 2 10.9c0 2.42 1.083 4.613 2.84 6.218Z" clip-rule="evenodd"/>
  <path fill="#040B24" fill-opacity=".3" fill-rule="evenodd" d="m15.24 17.748-.063.03c-.949.454-2.724.971-4.801 1.468-1.569.375-3.229.72-4.682 1.003l.445-.524c1.005-1.186.689-2.824-.288-3.716C4.371 14.657 3.5 12.852 3.5 10.9c0-3.931 3.638-7.406 8.5-7.406 4.863 0 8.5 3.475 8.5 7.406 0 2.98-2.055 5.666-5.195 6.825l-.065.024Zm.584 1.383c-2.22 1.063-7.683 2.192-11.085 2.827-.99.186-1.643-.963-.992-1.732l1.247-1.47c.41-.485.314-1.212-.154-1.64C3.083 15.513 2 13.319 2 10.9c0-4.918 4.477-8.906 10-8.906S22 5.981 22 10.9c0 3.713-2.55 6.895-6.176 8.232Z" clip-rule="evenodd"/>
  <path fill="#fff" fill-rule="evenodd" d="M20.66 11.176h.007c0 .283-.031.549-.092.796-.411 2.436-2.168 4.45-4.514 5.515l-.01.004-.009.004c-3.498 1.48-7.11 2.159-8.698 2.45l-1.576.291.787-1.396c.29-.514.225-1.112-.068-1.752-.292-.636-.754-1.181-1.006-1.444-1.015-1.06-1.706-2.38-1.915-3.84-.033-.2-.054-.41-.062-.628H3.5l.001-.1v-.201c0-4.224 3.955-7.458 8.583-7.458 4.627 0 8.583 3.234 8.583 7.458a6.304 6.304 0 0 1-.007.3Zm-15.657-.14C5.045 9.87 5.615 9.161 6.33 8.8c.785-.396 1.793-.4 2.609-.01.935.447 2.242 1.404 3.53 2.39.242.185.484.372.721.555.375.29.736.568 1.063.814.526.397 1.016.75 1.382.953.661.367 1.603.574 2.496.472-.646.89-1.566 1.634-2.683 2.144-2.66 1.124-5.406 1.768-7.208 2.13.026-.655-.157-1.274-.39-1.784a6.87 6.87 0 0 0-.99-1.528 6.161 6.161 0 0 0 2.611-.189c.698-.202 1.456-.558 2.167-.967a.723.723 0 0 0 .236-1.02.782.782 0 0 0-1.046-.245c-.62.352-1.24.637-1.774.791-.977.283-2.033.262-2.803-.1-.58-.274-1.05-.76-1.2-1.612a5.057 5.057 0 0 1-.05-.559Zm14.101.633a1.04 1.04 0 0 1-.198.383c-.145.174-.365.305-.662.38-.624.16-1.408.02-1.88-.241-.26-.145-.671-.436-1.207-.84a94.8 94.8 0 0 1-1.037-.794l-.738-.568c-1.259-.964-2.693-2.025-3.795-2.552a4.573 4.573 0 0 0-3-.315c1.28-1.331 3.236-2.205 5.497-2.205 3.056 0 5.554 1.598 6.58 3.761-.895-.204-1.94-.076-2.714.352-.324.18-.405.603-.202.912l.15.229c.169.256.51.32.779.171.447-.247 1.148-.335 1.717-.185.275.072.47.187.59.314a.678.678 0 0 1 .182.472 5.042 5.042 0 0 1-.062.726Z" clip-rule="evenodd"/>
  <defs>
    <radialGradient id="AskSiri-Color-24_svg__b" cx="0" cy="0" r="1" gradientTransform="matrix(6.24999 -9.9926 9.99583 6.252 7 17.607)" gradientUnits="userSpaceOnUse">
      <stop stop-color="#FEAA37"/>
      <stop offset=".965" stop-color="#FEAA37" stop-opacity="0"/>
    </radialGradient>
    <linearGradient id="AskSiri-Color-24_svg__a" x1="3.563" x2="21.99" y1="4.179" y2="18.556" gradientUnits="userSpaceOnUse">
      <stop offset=".085" stop-color="#2CC1FF"/>
      <stop offset=".835" stop-color="#FF2C63"/>
    </linearGradient>
  </defs>
</svg>
