<svg fill="none" viewBox="0 0 16 16" xmlns="http://www.w3.org/2000/svg">
  <g fill="#000" clip-path="url(#Tab-Mobile-16_svg__a)">
    <path fill-rule="evenodd" d="M3 3.75A3.75 3.75 0 0 1 6.75 0h5.5A3.75 3.75 0 0 1 16 3.75v5.5A3.75 3.75 0 0 1 12.25 13h-5.5A3.75 3.75 0 0 1 3 9.25v-5.5Zm3.75-2.5h5.5a2.5 2.5 0 0 1 2.5 2.5v5.5a2.5 2.5 0 0 1-2.5 2.5h-5.5a2.5 2.5 0 0 1-2.5-2.5v-5.5a2.5 2.5 0 0 1 2.5-2.5Z" clip-rule="evenodd"/>
    <path d="M.87 3.604c.381-.328.88.022.88.524 0 .234-.122.447-.26.636-.15.206-.24.46-.24.736v5a4.25 4.25 0 0 0 4.25 4.25h5c.275 0 .53-.089.737-.24.189-.138.401-.26.635-.26.502 0 .852.499.524.88A2.494 2.494 0 0 1 10.5 16h-5A5.5 5.5 0 0 1 0 10.5v-5c0-.758.338-1.437.87-1.896Z"/>
  </g>
  <defs>
    <clipPath id="Tab-Mobile-16_svg__a">
      <path fill="#fff" d="M0 0h16v16H0z"/>
    </clipPath>
  </defs>
</svg>
