<svg fill="none" viewBox="0 0 24 24" xmlns="http://www.w3.org/2000/svg">
  <path fill="#000" fill-rule="evenodd" d="M12 22c5.523 0 10-4.477 10-10S17.523 2 12 2 2 6.477 2 12s4.477 10 10 10Zm.626-16.36c-.935 0-1.504.798-1.504 1.537 0 .895.642 1.187 1.21 1.187 1.046 0 1.486-.837 1.486-1.518 0-.856-.641-1.206-1.192-1.206Zm.72 4.25-2.488.403c-.058.464-.133.971-.211 1.502-.219 1.486-.465 3.156-.465 4.593 0 1.276.763 1.972 1.97 1.972 1.377 0 1.613-.865 1.666-1.648-1.142.166-1.393-.35-1.206-1.563.187-1.214.734-5.258.734-5.258Z" clip-rule="evenodd"/>
</svg>
