<svg fill="none" viewBox="0 0 16 16" xmlns="http://www.w3.org/2000/svg">
  <g fill="#000" clip-path="url(#Folder-Move-16_svg__a)">
    <path fill-rule="evenodd" d="M4 1a4 4 0 0 0-4 4v6a4 4 0 0 0 4 4h5.666a.625.625 0 1 0 0-1.25H4A2.75 2.75 0 0 1 1.25 11V7.25h13.5v.13a.625.625 0 0 0 1.25 0V7a4 4 0 0 0-4-4h-2c-.59 0-1.146-.278-1.5-.75A3.125 3.125 0 0 0 6 1H4Zm10.563 5H1.25V5A2.75 2.75 0 0 1 4 2.25h2c.59 0 1.146.278 1.5.75A3.125 3.125 0 0 0 10 4.25h2A2.75 2.75 0 0 1 14.563 6Z" clip-rule="evenodd"/>
    <path d="M9.875 10.75a.625.625 0 1 0 0 1.25h4.166l-1.646 1.975a.625.625 0 1 0 .96.8l2.493-2.992a.617.617 0 0 0 .152-.408.622.622 0 0 0-.152-.409l-2.493-2.991a.625.625 0 1 0-.96.8l1.646 1.975H9.875Z"/>
  </g>
  <defs>
    <clipPath id="Folder-Move-16_svg__a">
      <path fill="#fff" d="M0 0h16v16H0z"/>
    </clipPath>
  </defs>
</svg>
