<svg fill="none" viewBox="0 0 24 24" xmlns="http://www.w3.org/2000/svg">
  <path fill="#000" d="M8.75 2A3.75 3.75 0 0 0 5 5.75v12.5A3.75 3.75 0 0 0 8.75 22h3.183c.557 0 .86-.737.554-1.202a.645.645 0 0 0-.533-.298H8.75a2.25 2.25 0 0 1-2.25-2.25V5.75A2.25 2.25 0 0 1 8.75 3.5h6.5a2.25 2.25 0 0 1 2.25 2.25v5.088c0 .366.306.659.67.699.43.048.83-.27.83-.702V5.75A3.75 3.75 0 0 0 15.25 2h-6.5Z"/>
  <path fill="#000" d="M10.5 5a.5.5 0 0 0 0 1h3a.5.5 0 1 0 0-1h-3Z"/>
  <path fill="#000" fill-rule="evenodd" d="M22 17.5a4.5 4.5 0 1 1-9 0 4.5 4.5 0 0 1 9 0Zm-5.92 1.761.006.007.354.353a.5.5 0 0 0 .707 0l3.182-3.182a.5.5 0 0 0 0-.707l-.354-.353a.5.5 0 0 0-.707 0l-2.475 2.474-1.06-1.06a.5.5 0 0 0-.708 0l-.353.353a.5.5 0 0 0 0 .707l1.408 1.408Z" clip-rule="evenodd"/>
</svg>
