<svg fill="none" viewBox="0 0 16 16" xmlns="http://www.w3.org/2000/svg">
  <path fill="#000" d="M.778 5.07c.376-.426.972-.08.972.488a.981.981 0 0 1-.186.536 1.863 1.863 0 0 0-.314 1.038v3.747a2.874 2.874 0 0 0 2.875 2.872h5.75a1.87 1.87 0 0 0 1.039-.313.982.982 0 0 1 .537-.186c.568 0 .914.595.488.97A3.115 3.115 0 0 1 9.875 15h-5.75A4.123 4.123 0 0 1 0 10.879V7.132c0-.79.294-1.512.778-2.062ZM7.444 1c.091.002.18.006.267.012h5.164A3.124 3.124 0 0 1 16 4.135V8.88c0 1.725-1.4 3.123-3.125 3.123h-6.75A3.124 3.124 0 0 1 3 8.88V4.135C3 2.41 4.4 1.012 6.125 1.012h1.112A.642.642 0 0 1 7.363 1h.08ZM6.125 2.262A1.874 1.874 0 0 0 4.25 4.135V8.88c0 1.035.84 1.874 1.875 1.874h6.75A1.874 1.874 0 0 0 14.75 8.88V5.271h-3.067c-.85 0-1.466-.221-1.916-.638-.417-.387-.626-.892-.78-1.24-.172-.39-.293-.635-.492-.81-.162-.142-.44-.29-1.014-.307l-.118-.002-.033-.001a.64.64 0 0 1-.094-.012H6.125Zm3.725 0c.13.22.224.437.304.617.177.402.29.645.48.82.157.146.432.3 1.049.3h3.062a1.874 1.874 0 0 0-1.87-1.737H9.85Z"/>
</svg>
