<svg fill="none" viewBox="0 0 16 16" xmlns="http://www.w3.org/2000/svg">
  <g fill="#000" clip-path="url(#Window-Duplicate-16_svg__a)">
    <path fill-rule="evenodd" d="M3.028 4.176A3.187 3.187 0 0 1 6.215.988h6.63a3.188 3.188 0 0 1 3.188 3.188v4.59a3.188 3.188 0 0 1-3.188 3.187h-6.63a3.188 3.188 0 0 1-3.187-3.187v-4.59Zm4.335-1.913H6.215a1.912 1.912 0 0 0-1.912 1.913v4.59c0 1.056.856 1.912 1.912 1.912h6.63a1.913 1.913 0 0 0 1.913-1.912V5.263h-3.075c-.85 0-1.466-.221-1.916-.638-.396-.368-.604-.843-.756-1.188l-.024-.054c-.172-.39-.293-.635-.492-.81-.173-.152-.477-.31-1.132-.31Zm7.385 1.725h-3.065c-.617 0-.892-.153-1.049-.298-.19-.176-.303-.42-.48-.822l-.01-.02a5.652 5.652 0 0 0-.287-.585h2.988c.993 0 1.81.757 1.903 1.725Z" clip-rule="evenodd"/>
    <path d="M1.825 4.969a.637.637 0 0 1-.009.901c-.355.348-.573.83-.573 1.366v4.59c0 1.056.856 1.912 1.912 1.912h6.63a1.902 1.902 0 0 0 1.454-.67.638.638 0 0 1 .968.83 3.177 3.177 0 0 1-2.422 1.115h-6.63a3.188 3.188 0 0 1-3.187-3.187v-4.59c0-.892.366-1.699.956-2.276a.637.637 0 0 1 .901.009Z"/>
  </g>
  <defs>
    <clipPath id="Window-Duplicate-16_svg__a">
      <path fill="#fff" d="M0 0h16v16H0z"/>
    </clipPath>
  </defs>
</svg>
