<svg fill="none" viewBox="0 0 24 24" xmlns="http://www.w3.org/2000/svg">
  <path fill="#F9BE1A" d="M14.758 2H9.243a3 3 0 0 0-2.121.879L2.879 7.12A3 3 0 0 0 2 9.243v5.514a3 3 0 0 0 .879 2.122l4.243 4.242a3 3 0 0 0 2.12.879h5.516a3 3 0 0 0 2.12-.879l4.244-4.242A3 3 0 0 0 22 14.757V9.243a3 3 0 0 0-.878-2.122L16.879 2.88A3 3 0 0 0 14.758 2Z"/>
  <path fill="#000" d="M12 15a1.5 1.5 0 1 1 0 3 1.5 1.5 0 0 1 0-3Zm.655-9c.535 0 1.018.43.964.907l-.642 5.966c-.108.43-.536.764-1.017.764-.481 0-.91-.335-.963-.764l-.643-5.966c-.053-.477.376-.907.964-.907h1.337Z"/>
</svg>
