<svg fill="none" viewBox="0 0 16 16" xmlns="http://www.w3.org/2000/svg">
  <g fill="#000" clip-path="url(#Image-Link-16_svg__a)">
    <path d="M0 5a4 4 0 0 1 4-4h8a4 4 0 0 1 4 4v1.343c0 .426-.565.674-.947.487a.52.52 0 0 1-.303-.457V5A2.75 2.75 0 0 0 12 2.25H4A2.75 2.75 0 0 0 1.25 5v6c0 .533.152 1.03.414 1.452l4.394-4.394a.625.625 0 0 1 .884 0L8 9.116l3.058-3.058a.625.625 0 0 1 .884 0l.62.62c-.577.2-1.08.557-1.458 1.02l-3.192 3.098L6.5 9.384l-3.952 3.952A2.74 2.74 0 0 0 4 13.75h1.886c.274 0 .496.227.548.497.072.367-.184.753-.557.753H4a4 4 0 0 1-4-4V5Z"/>
    <path d="M6 5.5a1.5 1.5 0 1 1-3 0 1.5 1.5 0 0 1 3 0Zm6.338 2.675a1.965 1.965 0 0 1 2.779 0l.31.31a1.965 1.965 0 0 1 0 2.78l-1.86 1.86a1.965 1.965 0 0 1-2.778 0l-.156-.156a.594.594 0 1 1 .84-.84l.156.156a.778.778 0 0 0 1.1 0l1.86-1.86a.778.778 0 0 0 0-1.1l-.312-.31a.778.778 0 0 0-1.1 0l-.595.594a.594.594 0 1 1-.84-.84l.596-.594Z"/>
    <path d="M8.486 15.428a1.965 1.965 0 0 0 2.779 0l.607-.608a.594.594 0 1 0-.84-.84l-.607.608a.778.778 0 0 1-1.1 0l-.31-.31a.778.778 0 0 1 0-1.1l1.843-1.845a.777.777 0 0 1 1.1 0l.156.156a.594.594 0 1 0 .84-.84l-.156-.155a1.965 1.965 0 0 0-2.78 0l-1.843 1.844a1.965 1.965 0 0 0 0 2.779l.31.31Z"/>
  </g>
  <defs>
    <clipPath id="Image-Link-16_svg__a">
      <path fill="#fff" d="M0 0h16v16H0z"/>
    </clipPath>
  </defs>
</svg>
