<svg fill="none" viewBox="0 0 16 16" xmlns="http://www.w3.org/2000/svg">
  <g clip-path="url(#Export-Right-16_svg__a)">
    <path fill="#000" d="M1.625 2c.345 0 .625.28.625.625v10.157a.625.625 0 0 1-1.25 0V2.625C1 2.28 1.28 2 1.625 2Zm9.558.808a.625.625 0 0 1 .86-.022l.024.022 3.314 3.314c.83.83.83 2.176 0 3.006l-3.314 3.314a.625.625 0 1 1-.884-.884l3.308-3.308H5.125a.625.625 0 1 1 0-1.25h9.366l-3.308-3.308-.022-.023a.625.625 0 0 1 .022-.86Z"/>
  </g>
  <defs>
    <clipPath id="Export-Right-16_svg__a">
      <path fill="#fff" d="M0 0h16v16H0z"/>
    </clipPath>
  </defs>
</svg>
