<svg fill="none" viewBox="0 0 12 12" xmlns="http://www.w3.org/2000/svg">
  <g clip-path="url(#Shield-Filled-12E_svg__a)">
    <path fill="#000" d="M7.635.686A2.367 2.367 0 0 0 4.31.67l-.697.681a.567.567 0 0 1-.562.136l-.167-.05A2.183 2.183 0 0 0 .061 3.47L.026 4.933a6.858 6.858 0 0 0 3.94 6.372l.988.464a2.458 2.458 0 0 0 2.091 0l.989-.464a6.858 6.858 0 0 0 3.94-6.372l-.036-1.48a2.183 2.183 0 0 0-2.804-2.041l-.272.08A.567.567 0 0 1 8.3 1.35L7.635.686Z"/>
  </g>
  <defs>
    <clipPath id="Shield-Filled-12E_svg__a">
      <path fill="#fff" d="M0 0h12v12H0z"/>
    </clipPath>
  </defs>
</svg>
