<svg fill="none" viewBox="0 0 16 16" xmlns="http://www.w3.org/2000/svg">
  <g clip-path="url(#Clear-Recolorable-16_svg__a)">
    <path fill="#EE1025" d="M16 8A8 8 0 1 1 0 8a8 8 0 0 1 16 0Z"/>
    <path fill="#fff" fill-rule="evenodd" d="M11.442 5.442a.625.625 0 1 0-.884-.884L8 7.116 5.442 4.558a.625.625 0 1 0-.884.884L7.116 8l-2.558 2.558a.625.625 0 1 0 .884.884L8 8.884l2.558 2.558a.625.625 0 1 0 .884-.884L8.884 8l2.558-2.558Z" clip-rule="evenodd"/>
  </g>
  <defs>
    <clipPath id="Clear-Recolorable-16_svg__a">
      <path fill="#fff" d="M0 0h16v16H0z"/>
    </clipPath>
  </defs>
</svg>
