<svg fill="none" viewBox="0 0 16 16" xmlns="http://www.w3.org/2000/svg">
  <g clip-path="url(#Support-16_svg__a)">
    <path fill="#000" fill-rule="evenodd" d="M0 4.125C0 2.399 1.4 1 3.125 1h9.75C14.601 1 16 2.4 16 4.125v4.75A3.125 3.125 0 0 1 12.875 12H9.884c-.382 0-.761.165-1.06.458-1.528 1.497-3.3 2.68-4.454 3.378-.993.6-2.073-.326-1.853-1.35.17-.793.357-1.754.44-2.486C1.186 11.993 0 10.543 0 8.875v-4.75ZM3.125 2.25c-1.036 0-1.875.84-1.875 1.875v4.75c0 1.09.735 1.875 1.719 1.875.284 0 .572.106.791.263.206.147.503.458.46.918-.077.83-.295 1.954-.48 2.817a.091.091 0 0 0-.002.01c1.116-.677 2.787-1.798 4.21-3.193a2.777 2.777 0 0 1 1.936-.815h2.991c1.036 0 1.875-.84 1.875-1.875v-4.75c0-1.036-.84-1.875-1.875-1.875h-9.75ZM5.5 5.375c0-.345.28-.625.625-.625h5.75a.625.625 0 1 1 0 1.25h-5.75a.625.625 0 0 1-.625-.625ZM4.125 7a.625.625 0 1 0 0 1.25h5.75a.625.625 0 1 0 0-1.25h-5.75Z" clip-rule="evenodd"/>
  </g>
  <defs>
    <clipPath id="Support-16_svg__a">
      <path fill="#fff" d="M0 0h16v16H0z"/>
    </clipPath>
  </defs>
</svg>
