<svg fill="none" viewBox="0 0 16 16" xmlns="http://www.w3.org/2000/svg">
  <path fill="#000" d="M9.375 7.75a.625.625 0 1 1 0 1.25h-5.75a.625.625 0 1 1 0-1.25h5.75Zm3-3a.625.625 0 1 1 0 1.25h-5.75a.625.625 0 1 1 0-1.25h5.75Z"/>
  <path fill="#000" fill-rule="evenodd" d="M12 1a4 4 0 0 1 4 4v4.012a4 4 0 0 1-4 4H9.005a.593.593 0 0 0-.326.103l-.1.08c-1.084 1.042-2.278 1.843-3.268 2.41l-.412.23a1.28 1.28 0 0 1-1.535-.213 1.398 1.398 0 0 1-.311-1.494c.15-.4.278-.796.36-1.138C1.476 12.787 0 11.146 0 9.166V5a4 4 0 0 1 4-4h8ZM4 2.25A2.75 2.75 0 0 0 1.25 5v4.166a2.573 2.573 0 0 0 2.568 2.596c.24 0 .466.094.633.247.15.137.281.353.285.618l-.007.116c-.069.566-.286 1.242-.507 1.827-.03.08-.005.137.022.164a.069.069 0 0 0 .017.013.019.019 0 0 0 .005.002l.005-.001a.11.11 0 0 0 .033-.013l.386-.215c.93-.533 2.033-1.274 3.023-2.226l.132-.116c.32-.258.724-.416 1.16-.416H12a2.75 2.75 0 0 0 2.75-2.75V5A2.75 2.75 0 0 0 12 2.25H4Z" clip-rule="evenodd"/>
</svg>
