<svg fill="none" viewBox="0 0 16 16" xmlns="http://www.w3.org/2000/svg">
  <path fill="#000" d="M3.125 1A3.125 3.125 0 0 0 0 4.125v4.75C0 10.601 1.4 12 3.125 12H6.5v1.75H4.625a.625.625 0 1 0 0 1.25H7.15a.6.6 0 0 0 .6-.6v-2.548c0-.445.138-.857.374-1.197.148-.214.001-.655-.259-.655h-4.74A1.875 1.875 0 0 1 1.25 8.125v-4c0-1.036.84-1.875 1.875-1.875h9.75c1.036 0 1.875.84 1.875 1.875v.625c0 .315.154.605.378.825.061.06.12.122.177.186.184.207.695.074.695-.203V4.125A3.126 3.126 0 0 0 12.875 1h-9.75Z"/>
  <path fill="#000" d="M10 8.25a2.5 2.5 0 0 1 5 0V11h.148c.47 0 .852.382.852.852v3.296c0 .47-.382.852-.852.852H9.852A.852.852 0 0 1 9 15.148v-3.296c0-.47.382-.852.852-.852h3.898V8.25a1.25 1.25 0 1 0-2.5 0V9H10v-.75Z"/>
</svg>
