<svg fill="none" viewBox="0 0 16 16" xmlns="http://www.w3.org/2000/svg">
  <path fill="#000" d="M3.25 1A3.25 3.25 0 0 0 0 4.25v5.493c0 .642.19 1.269.546 1.803l.08.12a.75.75 0 1 0 1.248-.832l-.08-.12a1.75 1.75 0 0 1-.294-.97V4.25c0-.966.784-1.75 1.75-1.75h7.493c.346 0 .683.102.97.294l.121.08a.75.75 0 1 0 .832-1.248l-.12-.08A3.25 3.25 0 0 0 10.743 1H3.25Z"/>
  <path fill="#000" fill-rule="evenodd" d="M6.25 4A3.25 3.25 0 0 0 3 7.25v4.5A3.25 3.25 0 0 0 6.25 15h6.5A3.25 3.25 0 0 0 16 11.75v-4.5A3.25 3.25 0 0 0 12.75 4h-6.5ZM4.5 7.25c0-.966.784-1.75 1.75-1.75h6.5c.966 0 1.75.784 1.75 1.75v4.5a1.75 1.75 0 0 1-1.75 1.75h-6.5a1.75 1.75 0 0 1-1.75-1.75v-4.5Z" clip-rule="evenodd"/>
</svg>
