<svg fill="none" viewBox="0 0 16 16" xmlns="http://www.w3.org/2000/svg">
  <g clip-path="url(#Accessibility-Color-16_svg__a)">
    <path fill="#7295F6" d="M0 8a8 8 0 1 1 16 0A8 8 0 0 1 0 8Z"/>
    <path fill="#3969EF" fill-rule="evenodd" d="M1 8a7 7 0 1 0 14 0A7 7 0 0 0 1 8Zm7-8a8 8 0 1 0 0 16A8 8 0 0 0 8 0Z" clip-rule="evenodd"/>
    <path fill="#fff" d="M8 5a1 1 0 1 0 0-2 1 1 0 0 0 0 2ZM4.57 6.005a.5.5 0 1 0-.14.99l2.355.337A.25.25 0 0 1 7 7.579v1.418c0 .002.002.003.003.003.003 0 .004.002.003.005l-1.463 3.292a.5.5 0 0 0 .914.406l1.315-2.958a.25.25 0 0 1 .456 0l1.315 2.958a.5.5 0 1 0 .914-.406L8.994 9.005A.003.003 0 0 1 8.997 9 .003.003 0 0 0 9 8.997V7.579a.25.25 0 0 1 .215-.247l2.356-.337a.5.5 0 0 0-.142-.99l-3.394.485a.25.25 0 0 1-.07 0L4.57 6.005Z"/>
    <path fill="#3969EF" fill-rule="evenodd" d="M6.45 5.263a2 2 0 1 1 3.101 0l1.737-.248a1.5 1.5 0 1 1 .424 2.97L10 8.23v.577l1.37 3.084a1.5 1.5 0 1 1-2.741 1.218l-.63-1.416-.629 1.416a1.5 1.5 0 1 1-2.741-1.218l1.37-3.084V8.23l-1.711-.245a1.5 1.5 0 1 1 .424-2.97l1.737.248Zm.15 4.653-1.057 2.38a.5.5 0 0 0 .913.407l1.315-2.958a.25.25 0 0 1 .457 0l1.315 2.958a.5.5 0 0 0 .914-.406l-1.058-2.38-.257-.578-.149-.334A.003.003 0 0 1 8.996 9 .003.003 0 0 0 9 8.997V7.579a.25.25 0 0 1 .214-.247l2.356-.337a.5.5 0 0 0-.141-.99l-2.356.337-1.038.148a.25.25 0 0 1-.07 0L4.57 6.005a.5.5 0 0 0-.141.99l2.356.337A.25.25 0 0 1 7 7.579v1.418C7 8.999 7 9 7.003 9s.004.002.003.005l-.405.911ZM9 4a1 1 0 1 1-2 0 1 1 0 0 1 2 0Z" clip-rule="evenodd"/>
  </g>
  <defs>
    <clipPath id="Accessibility-Color-16_svg__a">
      <path fill="#fff" d="M0 0h16v16H0z"/>
    </clipPath>
  </defs>
</svg>
