<svg width="16" height="16" viewBox="0 0 16 16" fill="none" xmlns="http://www.w3.org/2000/svg">
<g clip-path="url(#clip0_9701_4813)">
<path d="M0 8C0 3.58172 3.58172 0 8 0V0C12.4183 0 16 3.58172 16 8V8C16 12.4183 12.4183 16 8 16V16C3.58172 16 0 12.4183 0 8V8Z" fill="#7295F6"/>
<path fill-rule="evenodd" clip-rule="evenodd" d="M1 8C1 11.866 4.13401 15 8 15C11.866 15 15 11.866 15 8C15 4.13401 11.866 1 8 1C4.13401 1 1 4.13401 1 8ZM8 0C3.58172 0 0 3.58172 0 8C0 12.4183 3.58172 16 8 16C12.4183 16 16 12.4183 16 8C16 3.58172 12.4183 0 8 0Z" fill="url(#paint0_linear_9701_4813)"/>
<path d="M11.4751 5.87549C11.7917 5.86248 12.0729 6.09119 12.1187 6.41162C12.1644 6.73191 11.9587 7.03012 11.6514 7.10644L11.5884 7.11865L9.21466 7.45762C9.09149 7.47521 9.00001 7.5807 9.00001 7.70511V8.60134C9.00001 8.63814 9.00813 8.67449 9.0238 8.70779L10.5654 11.9839L10.5898 12.043C10.6951 12.3418 10.5589 12.6776 10.2661 12.8154C9.9734 12.9532 9.62806 12.8441 9.46485 12.5727L9.43457 12.5161L8.22622 9.94803C8.13615 9.75662 7.86386 9.75662 7.7738 9.94803L6.56544 12.5161C6.41845 12.8284 6.04621 12.9624 5.7339 12.8154C5.4216 12.6684 5.28762 12.2962 5.43458 11.9839L6.97621 8.70779C6.99188 8.67449 7.00001 8.63814 7.00001 8.60134V7.70511C7.00001 7.5807 6.90852 7.47521 6.78535 7.45762L4.41163 7.11865L4.34865 7.10644C4.04129 7.03011 3.83561 6.7319 3.88136 6.41162C3.92714 6.09119 4.20831 5.86249 4.52491 5.87549L4.58839 5.88135L7.96466 6.3636C7.9881 6.36695 8.01191 6.36695 8.03536 6.3636L11.4116 5.88135L11.4751 5.87549ZM8.00001 3C8.55227 3.00003 9.00001 3.44773 9.00001 4C9.00001 4.55227 8.55227 4.99997 8.00001 5C7.44772 5 7.00001 4.55228 7.00001 4C7.00001 3.44771 7.44772 3 8.00001 3Z" fill="white"/>
<path d="M8.99996 4C8.99996 3.48219 8.60633 3.05652 8.10201 3.00537L7.99996 3C7.44768 3.00001 6.99996 3.44772 6.99996 4L7.00533 4.10205C7.05305 4.57282 7.42713 4.94689 7.8979 4.99463L7.99996 5C8.51776 4.99998 8.94345 4.60637 8.99458 4.10205L8.99996 4ZM6.99996 8.60156L6.9941 8.65576C6.99011 8.67366 6.98389 8.69131 6.97603 8.70801L5.43453 11.9839C5.28757 12.2962 5.42156 12.6684 5.73384 12.8154C6.02656 12.9532 6.3719 12.8441 6.53511 12.5728L6.56539 12.5161L7.77388 9.94824C7.86395 9.75683 8.13596 9.75683 8.22603 9.94824L9.43453 12.5161L9.4648 12.5728C9.61777 12.8271 9.93073 12.9388 10.2104 12.8384L10.2661 12.8154C10.5405 12.6863 10.6775 12.3831 10.6069 12.0996L10.5898 12.043L10.5654 11.9839L9.02388 8.70801C9.01602 8.69131 9.0098 8.67366 9.00581 8.65576L8.99996 8.60156V7.70508C8.99997 7.58068 9.09164 7.47511 9.2148 7.45752L11.5883 7.11865L11.6513 7.10645C11.9587 7.03012 12.1644 6.73191 12.1186 6.41162C12.0728 6.09119 11.7917 5.86248 11.4751 5.87549L11.4116 5.88135L8.03511 6.36377L7.99996 6.36621L7.9648 6.36377L4.58833 5.88135L4.52486 5.87549C4.20826 5.8625 3.92708 6.0912 3.8813 6.41162C3.83556 6.7319 4.04124 7.03011 4.34859 7.10645L4.41158 7.11865L6.78511 7.45752C6.90827 7.47511 6.99994 7.58068 6.99996 7.70508V8.60156ZM9.99996 4C9.99996 4.416 9.87258 4.80207 9.65523 5.12207L11.27 4.8916L11.2949 4.8877L11.3198 4.88574L11.3833 4.87988L11.4086 4.87744L11.434 4.87646C12.2068 4.84472 12.8975 5.3647 13.0791 6.1167L13.1084 6.27002L13.1235 6.42578C13.1598 7.19805 12.6427 7.89079 11.8925 8.07715L11.8671 8.08301L11.8418 8.08838L11.7788 8.10059L11.7543 8.10498L11.7299 8.1084L9.99996 8.35547V8.43359L11.4702 11.5581L11.4804 11.5796L11.5141 11.6611L11.5244 11.6855L11.5332 11.7104C11.7902 12.4399 11.4953 13.2528 10.83 13.647L10.6918 13.7202C9.93028 14.0786 9.03281 13.7947 8.60787 13.0884L8.59468 13.0664L8.58296 13.0439L8.55269 12.9873L8.54048 12.9648L8.52974 12.9419L7.99996 11.8159L7.47017 12.9419C7.09995 13.7285 6.18006 14.08 5.38472 13.7539L5.30806 13.7202C4.49603 13.338 4.14767 12.3701 4.52974 11.5581L5.99996 8.43359V8.35547L4.27046 8.1084L4.24556 8.10498L4.22115 8.10059L4.15816 8.08838L4.13277 8.08301L4.10738 8.07715C3.30714 7.87834 2.77255 7.10317 2.89156 6.27002L2.92085 6.1167C3.10237 5.36469 3.79315 4.84475 4.56587 4.87646L4.59126 4.87744L4.61665 4.87988L4.68013 4.88574L4.70503 4.8877L4.72994 4.8916L6.34419 5.12207C6.12694 4.80211 5.99996 4.41589 5.99996 4C5.99996 2.89543 6.89539 2.00001 7.99996 2L8.10298 2.00244C9.15961 2.05607 9.99996 2.92993 9.99996 4Z" fill="#3969EF"/>
</g>
<defs>
<linearGradient id="paint0_linear_9701_4813" x1="8" y1="0" x2="8" y2="16" gradientUnits="userSpaceOnUse">
<stop stop-color="#3969EF"/>
<stop offset="1" stop-color="#1E42A4"/>
</linearGradient>
<clipPath id="clip0_9701_4813">
<rect width="16" height="16" fill="white"/>
</clipPath>
</defs>
</svg>
