<svg fill="none" viewBox="0 0 24 24" xmlns="http://www.w3.org/2000/svg">
  <path fill="#000" fill-rule="evenodd" d="M4 17a5 5 0 0 0 5 5h6a5 5 0 0 0 5-5V9.38c0-.762-.303-1.494-.842-2.033l-4.505-4.505A2.875 2.875 0 0 0 12.62 2H9a5 5 0 0 0-5 5v3.25a.75.75 0 0 0 1.5 0V7A3.5 3.5 0 0 1 9 3.5h3v2.75A3.75 3.75 0 0 0 15.75 10h2.75v7a3.5 3.5 0 0 1-3.5 3.5H9A3.5 3.5 0 0 1 5.5 17a2.25 2.25 0 0 1 2.25-2.25h3.414l-1.948 1.973a.75.75 0 1 0 1.068 1.054l1.994-2.02a2.5 2.5 0 0 0 0-3.513l-1.994-2.02a.75.75 0 0 0-1.068 1.053l1.948 1.973H7.75A3.75 3.75 0 0 0 4 17Zm9.5-10.75V3.819c.032.026.063.054.092.084l4.505 4.505c.03.03.058.06.085.092H15.75a2.25 2.25 0 0 1-2.25-2.25Z" clip-rule="evenodd"/>
</svg>
