<svg fill="none" viewBox="0 0 24 24" xmlns="http://www.w3.org/2000/svg">
  <path fill="#000" d="M19.78 4.263a4.305 4.305 0 0 0-6.088 0l-1.45 1.45a.75.75 0 1 0 1.062 1.06l1.448-1.449a2.805 2.805 0 0 1 3.968 3.968L14.81 13.2a2.875 2.875 0 0 1-4.066 0 .75.75 0 1 0-1.061 1.06 4.376 4.376 0 0 0 6.188 0l3.909-3.908a4.305 4.305 0 0 0 0-6.089Z"/>
  <path fill="#000" d="M4.263 19.739a4.305 4.305 0 0 0 6.089 0l1.449-1.45a.75.75 0 1 0-1.06-1.06l-1.45 1.449a2.805 2.805 0 1 1-3.967-3.968l3.908-3.908a2.875 2.875 0 0 1 4.067 0 .75.75 0 0 0 1.06-1.06 4.376 4.376 0 0 0-6.187 0L4.263 13.65a4.305 4.305 0 0 0 0 6.089Z"/>
</svg>
