<svg fill="none" viewBox="0 0 24 24" xmlns="http://www.w3.org/2000/svg">
  <path fill="#000" fill-rule="evenodd" d="M22 6.286a4.286 4.286 0 0 1-7.724 2.558l-3.88 1.94a4.287 4.287 0 0 1 0 2.433l3.88 1.94a4.286 4.286 0 1 1-.672 1.341l-3.88-1.94a4.286 4.286 0 1 1 0-5.116l3.88-1.94A4.286 4.286 0 1 1 22 6.286Zm-1.5 0a2.786 2.786 0 1 1-5.571 0 2.786 2.786 0 0 1 5.571 0Zm0 11.428a2.786 2.786 0 1 1-5.571 0 2.786 2.786 0 0 1 5.571 0ZM6.286 14.786a2.786 2.786 0 1 0 0-5.572 2.786 2.786 0 0 0 0 5.572Z" clip-rule="evenodd"/>
</svg>
