<svg fill="none" viewBox="0 0 16 16" xmlns="http://www.w3.org/2000/svg">
  <path fill="#000" d="M11.25 1a.75.75 0 0 0 0 1.5h2.19L10.5 5.44 9.28 4.22a.75.75 0 0 0-1.06 0L4.75 7.69 3.53 6.47a.75.75 0 0 0-1.06 0L.22 8.72a.75.75 0 0 0-.22.53v2.5A3.25 3.25 0 0 0 3.25 15h9.5A3.25 3.25 0 0 0 16 11.75v-3a.75.75 0 0 0-1.5 0v3a1.75 1.75 0 0 1-1.75 1.75h-9.5a1.75 1.75 0 0 1-1.75-1.75V9.56L3 8.06l1.22 1.22a.75.75 0 0 0 1.06 0l3.47-3.47 1.22 1.22a.75.75 0 0 0 1.06 0l3.47-3.47v1.69a.75.75 0 0 0 1.5 0v-3.5a.75.75 0 0 0-.75-.75h-4Z"/>
</svg>
