<svg fill="none" viewBox="0 0 16 16" xmlns="http://www.w3.org/2000/svg">
  <path fill="#000" d="M13.875 1C15.049 1 16 1.951 16 3.125v2.25a.625.625 0 1 1-1.25 0v-2.24l-3.808 3.807a.627.627 0 0 1-.786.08l-.098-.08L8.75 5.635 5.192 9.192a.626.626 0 0 1-.884 0L3 7.885l-1.75 1.75V11A2.75 2.75 0 0 0 4 13.75h8A2.75 2.75 0 0 0 14.75 11V9.375a.625.625 0 1 1 1.25 0V11a4 4 0 0 1-4 4H4a4 4 0 0 1-4-4V9.375c0-.172.07-.33.183-.442l2.375-2.375.095-.078a.625.625 0 0 1 .79.078L4.75 7.865l3.558-3.557.095-.078a.625.625 0 0 1 .79.078L10.5 5.615l3.365-3.365h-2.49a.625.625 0 1 1 0-1.25h2.5Z"/>
</svg>
