<svg fill="none" viewBox="0 0 16 16" xmlns="http://www.w3.org/2000/svg">
  <g fill="#000" clip-path="url(#Arrow-Circle-Left-16_svg__a)">
    <path d="m6.134 7.38 1.938-1.938a.625.625 0 1 0-.884-.884L4.89 6.856a1.625 1.625 0 0 0 0 2.298l2.298 2.298a.625.625 0 1 0 .884-.883L6.134 8.63h5.209a.625.625 0 0 0 0-1.25h-5.21Z"/>
    <path fill-rule="evenodd" d="M0 8a8 8 0 1 1 16 0A8 8 0 0 1 0 8Zm8-6.75a6.75 6.75 0 1 0 0 13.5 6.75 6.75 0 0 0 0-13.5Z" clip-rule="evenodd"/>
  </g>
  <defs>
    <clipPath id="Arrow-Circle-Left-16_svg__a">
      <path fill="#fff" d="M0 0h16v16H0z"/>
    </clipPath>
  </defs>
</svg>
