<svg fill="none" viewBox="0 0 16 16" xmlns="http://www.w3.org/2000/svg">
  <path fill="#000" d="M9.2 3.867a1.2 1.2 0 1 1-2.4 0 1.2 1.2 0 0 1 2.4 0ZM3.38 6.05a.625.625 0 0 1 .703-.536l3.888.518c.02.003.039.003.058 0l3.889-.518a.625.625 0 0 1 .165 1.239l-2.561.341a.217.217 0 0 0-.189.215V9.17c0 .021.003.042.01.063l.856 2.854a.625.625 0 1 1-1.198.36l-.914-3.05a.09.09 0 0 0-.174 0L7 12.448a.625.625 0 0 1-1.198-.36l.856-2.854a.217.217 0 0 0 .01-.062V7.31a.217.217 0 0 0-.189-.215l-2.56-.341a.625.625 0 0 1-.537-.702Z"/>
  <path fill="#000" fill-rule="evenodd" d="M0 8a8 8 0 1 1 16 0A8 8 0 0 1 0 8Zm8 6.75a6.75 6.75 0 1 1 0-13.5 6.75 6.75 0 0 1 0 13.5Z" clip-rule="evenodd"/>
</svg>
