<svg fill="none" viewBox="0 0 24 24" xmlns="http://www.w3.org/2000/svg">
  <path fill="#000" fill-rule="evenodd" d="M14.555 3.122a3.719 3.719 0 0 0-5.206-.025L8.11 4.299a1.28 1.28 0 0 1-1.265.306l-.376-.114A3.406 3.406 0 0 0 2.07 7.634l-.082 2.44a11.375 11.375 0 0 0 6.61 10.717l1.78.82a3.875 3.875 0 0 0 3.242 0l1.78-.82a11.375 11.375 0 0 0 6.61-10.716l-.083-2.473a3.406 3.406 0 0 0-4.367-3.153l-.558.165c-.448.131-.931.01-1.263-.319l-1.185-1.173Zm-1.784.586c.265.107.513.267.728.48l1.186 1.174a2.78 2.78 0 0 0 2.742.69l.558-.164a1.906 1.906 0 0 1 2.444 1.764l.083 2.473a9.875 9.875 0 0 1-5.738 9.303l-1.78.82a2.365 2.365 0 0 1-.223.09V3.707Zm-1.542-.045a2.21 2.21 0 0 0-.835.51l-1.24 1.203a2.781 2.781 0 0 1-2.746.664l-.377-.114a1.906 1.906 0 0 0-2.46 1.759l-.083 2.44a9.875 9.875 0 0 0 5.739 9.303l1.78.82c.073.034.147.063.222.09V3.662Z" clip-rule="evenodd"/>
</svg>
