<svg fill="none" viewBox="0 0 16 16" xmlns="http://www.w3.org/2000/svg">
  <path fill="#000" d="M6.577.033a.663.663 0 0 1 .597.132c1.304 1.092 1.58 2.64 1.777 3.752l.026.15c.11.61.2 1.022.354 1.304.068.124.138.2.21.249a.752.752 0 0 0 .368.109c.405.033.601-.074.712-.176.13-.12.234-.322.296-.604a3.25 3.25 0 0 0 .058-.812 4.008 4.008 0 0 0-.021-.28l-.01-.073-.002-.017v-.002l-.01-.11a.663.663 0 0 1 1.164-.434 12.578 12.578 0 0 1 1.93 2.998c.357.784-.543 1.554-1.404 1.532a4.75 4.75 0 0 0-4.316 2.515 13.074 13.074 0 0 1-.35-.448c-.203.27-.409.52-.596.749-.147.18-.282.345-.398.497-.44.574-.67 1.018-.67 1.539 0 .64.166 1.126.428 1.438.249.296.643.51 1.272.51.076 0 .149-.004.218-.01.072.152.151.298.239.44.254.413.028 1.018-.458 1.018-2.718 0-4.924-1.124-6.093-2.933-1.178-1.823-1.22-4.218.15-6.559.623-1.064 1.343-1.974 1.997-2.8.12-.152.237-.3.351-.447.754-.963 1.372-1.829 1.73-2.813a.664.664 0 0 1 .45-.414Z"/>
  <path fill="#000" d="M9.815.01a.663.663 0 0 1 .769.537c.03.174.056.252.082.298.01.018.02.03.03.04.011.01.033.028.076.048a.663.663 0 0 1-.564 1.2 1.517 1.517 0 0 1-.7-.643 2.247 2.247 0 0 1-.23-.712.663.663 0 0 1 .537-.768Z"/>
  <path fill="#000" fill-rule="evenodd" d="M12.5 9a3.5 3.5 0 1 1 0 7 3.5 3.5 0 0 1 0-7Zm-2.125 2.875a.5.5 0 0 0-.5.5v.25a.5.5 0 0 0 .5.5h4.25a.5.5 0 0 0 .5-.5v-.25a.5.5 0 0 0-.5-.5h-4.25Z" clip-rule="evenodd"/>
</svg>
