<svg fill="none" viewBox="0 0 24 24" xmlns="http://www.w3.org/2000/svg">
  <path fill="#000" d="M6.762 4.299A.75.75 0 0 0 5.74 3.201l-1.847 1.72a2.5 2.5 0 0 0 0 3.659l1.847 1.719a.75.75 0 0 0 1.022-1.098L4.934 7.5H16.25a3.25 3.25 0 0 1 3.25 3.25.75.75 0 0 0 1.5 0A4.75 4.75 0 0 0 16.25 6H4.934l1.828-1.701Zm10.478 10.5a.75.75 0 1 1 1.02-1.099l1.847 1.72a2.5 2.5 0 0 1 0 3.659l-1.847 1.719a.75.75 0 1 1-1.02-1.098l1.826-1.7H7.75A4.75 4.75 0 0 1 3 13.25a.75.75 0 0 1 1.5 0 3.25 3.25 0 0 0 3.25 3.25h11.316l-1.827-1.701Z"/>
</svg>
