<svg fill="none" viewBox="0 0 16 16" xmlns="http://www.w3.org/2000/svg">
  <path fill="#000" d="M5.573 1a3.34 3.34 0 0 1 2.986 1.845A2.089 2.089 0 0 0 10.427 4h3.26A2.312 2.312 0 0 1 16 6.313V11a4 4 0 0 1-4 4H4a4 4 0 0 1-4-4V5a4 4 0 0 1 4-4h1.573ZM4 2.25A2.75 2.75 0 0 0 1.25 5v6A2.75 2.75 0 0 0 4 13.75h8A2.75 2.75 0 0 0 14.75 11V6.312c0-.586-.476-1.062-1.063-1.062h-3.26a3.338 3.338 0 0 1-2.986-1.845A2.089 2.089 0 0 0 5.573 2.25H4ZM8 10c1.697 0 2.726.585 3.11 1.103l.035.05.017.027a.625.625 0 0 1-1.039.693l-.018-.026-.005-.007a.71.71 0 0 0-.112-.1 1.84 1.84 0 0 0-.38-.212c-.343-.146-.866-.278-1.608-.278-.742 0-1.265.132-1.607.278a1.84 1.84 0 0 0-.38.212c-.09.067-.12.109-.118.107a.625.625 0 1 1-1.04-.694C5.208 10.624 6.248 10 8 10ZM5.816 7.345a.625.625 0 0 1 1.118.56l-.001.002-.002.003-.003.006a1.054 1.054 0 0 1-.034.06 2.124 2.124 0 0 1-.425.498A2.213 2.213 0 0 1 5 9a2.213 2.213 0 0 1-1.47-.526 2.124 2.124 0 0 1-.424-.497 1.312 1.312 0 0 1-.034-.06l-.003-.007-.002-.003v-.001l-.001-.001a.625.625 0 0 1 1.118-.56l-.001-.002-.003-.005c0-.002-.001-.003-.002-.003 0-.002 0 0 .002.003.004.006.012.02.026.038a.872.872 0 0 0 .138.15A.966.966 0 0 0 5 7.75a.966.966 0 0 0 .656-.224.872.872 0 0 0 .166-.191l-.002.003-.003.005v.002Zm6 0a.625.625 0 0 1 1.118.56l-.001.002-.002.003-.003.006-.009.016a1.777 1.777 0 0 1-.112.176 2.12 2.12 0 0 1-.338.366A2.213 2.213 0 0 1 11 9a2.213 2.213 0 0 1-1.47-.526 2.124 2.124 0 0 1-.424-.497 1.312 1.312 0 0 1-.034-.06l-.003-.007-.002-.003v-.001l-.001-.001a.625.625 0 0 1 1.118-.56l-.001-.002-.003-.005a.036.036 0 0 0-.002-.003c0-.002 0 0 .002.003.004.006.012.02.026.038a.875.875 0 0 0 .138.15.966.966 0 0 0 .656.224.966.966 0 0 0 .656-.224.875.875 0 0 0 .164-.188c.002-.004.002-.005.002-.003l-.002.003-.003.005v.002Z"/>
</svg>
