<svg fill="none" viewBox="0 0 16 16" xmlns="http://www.w3.org/2000/svg">
  <path fill="#000" d="M3.346 7.066a.625.625 0 0 1 .833.27l.001.002c.004.006.012.02.026.038a.873.873 0 0 0 .138.15A.966.966 0 0 0 5 7.75a.966.966 0 0 0 .656-.224.873.873 0 0 0 .164-.188l.001-.003a.625.625 0 0 1 1.113.57 2.352 2.352 0 0 1-.465.57A2.213 2.213 0 0 1 5 9a2.213 2.213 0 0 1-1.47-.525 1.908 1.908 0 0 1-.463-.568v-.002a.625.625 0 0 1 .279-.839Zm6.833.269a.625.625 0 0 0-1.113.57l.001.002c.11.218.28.41.464.568.314.269.797.525 1.47.525a2.21 2.21 0 0 0 1.468-.525c.15-.13.38-.399.465-.57a.625.625 0 0 0-1.113-.57l-.001.003a.87.87 0 0 1-.164.188.966.966 0 0 1-.656.224.965.965 0 0 1-.656-.224.876.876 0 0 1-.164-.188l-.001-.003Zm-4.284 4.511a.639.639 0 0 1 .118-.106 1.84 1.84 0 0 1 .38-.212c.342-.146.865-.278 1.607-.278s1.265.132 1.607.278c.172.073.296.15.38.212.082.062.114.102.118.106a.625.625 0 0 0 1.04-.693C10.792 10.624 9.752 10 8 10s-2.792.624-3.145 1.153a.625.625 0 1 0 1.04.693Z"/>
  <path fill="#000" fill-rule="evenodd" d="M0 2.767C0 1.791.791 1 1.767 1h4.63c.86 0 1.556.696 1.556 1.556 0 .245.199.444.444.444H14a2 2 0 0 1 2 2v8a2 2 0 0 1-2 2H2a2 2 0 0 1-2-2V2.767ZM14 13.75H2a.75.75 0 0 1-.75-.75V2.767c0-.285.232-.517.517-.517h4.63c.169 0 .306.137.306.306 0 .935.758 1.694 1.694 1.694H14a.75.75 0 0 1 .75.75v8a.75.75 0 0 1-.75.75Z" clip-rule="evenodd"/>
</svg>
