<svg fill="none" viewBox="0 0 16 16" xmlns="http://www.w3.org/2000/svg">
  <path fill="#DDD" d="M3 1a3 3 0 0 0-3 3v8a3 3 0 0 0 3 3h3.4c.386 0 .642-.436.608-.82a1.997 1.997 0 0 1 .8-1.786 1.463 1.463 0 0 1-.295-.894c0-.898.73-1.436 1.43-1.599.267-.062.863-.14 1.45-.208l.054-.385c.05-.35.11-.725.167-.942.195-.728.777-1.382 1.65-1.353.798.027 1.364.622 1.597 1.276.052.144.087.326.11.455.028.153.057.336.084.527.02.135.04.278.058.423.368.042.759.067 1.136.135.36.065.751-.194.751-.56V4a3 3 0 0 0-3-3H3Zm12.258 12.975c.286-.327-.098-.77-.53-.724-.208.022-.417.04-.623.063-.026.193-.047.39-.073.588-.054.412.345.796.685.558.2-.14.381-.302.541-.485Z"/>
  <path fill="#666" fill-rule="evenodd" d="M3 1a3 3 0 0 0-3 3v8a3 3 0 0 0 3 3h3.4c.386 0 .642-.436.608-.82A2.023 2.023 0 0 1 7 14H3a2 2 0 0 1-2-2V7h14v2.806l.246.037c.361.059.754-.208.754-.574V4a3 3 0 0 0-3-3H3Zm10 1H3a2 2 0 0 0-2 2v1h14V4a2 2 0 0 0-2-2Z" clip-rule="evenodd"/>
  <path fill="#666" d="M15.258 13.975c.286-.327-.1-.785-.532-.735l-.173.02c-.141.174-.31.324-.502.442-.01.065-.018.131-.027.198-.057.412.353.798.693.56.2-.14.381-.303.541-.485Z"/>
  <path fill="#fff" d="M9.17 10.875c-.876.204-.876 1.046 0 1.25.316.074 1.335.191 2.115.275.09.728.216 1.68.295 1.975.223.83 1.117.83 1.34 0 .078-.295.204-1.243.294-1.97.81-.085 1.874-.205 2.116-.28.828-.258.896-1.041 0-1.25-.316-.074-1.332-.191-2.111-.275-.09-.756-.22-1.75-.3-1.975-.279-.78-1.11-.853-1.339 0-.08.296-.205 1.247-.295 1.975-.78.084-1.799.201-2.116.275Z"/>
  <path fill="#666" d="M9.17 10.875c-.876.204-.876 1.046 0 1.25.316.074 1.335.191 2.115.275.09.728.216 1.68.295 1.975.223.83 1.117.83 1.34 0 .078-.295.204-1.243.294-1.97.81-.085 1.874-.205 2.116-.28.828-.258.896-1.041 0-1.25-.316-.074-1.332-.191-2.111-.275-.09-.756-.22-1.75-.3-1.975-.279-.78-1.11-.853-1.339 0-.08.296-.205 1.247-.295 1.975-.78.084-1.799.201-2.116.275Z"/>
  <path fill="#888" d="M10 14a1 1 0 1 1-2 0 1 1 0 0 1 2 0Z"/>
</svg>
