<svg fill="none" viewBox="0 0 20 20" xmlns="http://www.w3.org/2000/svg">
  <path fill="#000" d="M10 6a.75.75 0 0 1 .75.75v2.5h2.5a.75.75 0 0 1 0 1.5h-2.5v2.5a.75.75 0 0 1-1.5 0v-2.5h-2.5a.75.75 0 0 1 0-1.5h2.5v-2.5A.75.75 0 0 1 10 6Z"/>
  <path fill="#000" fill-rule="evenodd" d="M8.347 1.665A2.32 2.32 0 0 1 9.997 1a2.318 2.318 0 0 1 1.647.674c.775.79 1.457 1.21 2.152 1.425.694.215 1.525.263 2.673.117a2.372 2.372 0 0 1 1.716.442c.492.37.808.934.814 1.562.036 4.296-.59 7.081-1.934 9.09-1.417 2.12-3.528 3.189-5.71 4.295l-.277.14c-.67.34-1.486.34-2.156 0l-.276-.14C6.463 17.5 4.352 16.43 2.935 14.31 1.592 12.301.965 9.516 1.002 5.22c.005-.627.32-1.191.811-1.56a2.372 2.372 0 0 1 1.716-.444c1.154.146 1.988.089 2.683-.134.692-.22 1.368-.644 2.135-1.417Zm1.647.835a.823.823 0 0 0-.583.222c-.89.896-1.764 1.477-2.743 1.79-.97.31-2.039.355-3.327.193a.873.873 0 0 0-.626.153c-.154.116-.213.258-.214.375-.035 4.178.584 6.603 1.68 8.243 1.182 1.766 2.949 2.679 5.223 3.832l.196.1a.908.908 0 0 0 .8 0l.196-.1c2.274-1.153 4.041-2.066 5.222-3.832 1.097-1.64 1.716-4.065 1.68-8.243 0-.117-.059-.26-.213-.375a.873.873 0 0 0-.627-.154c-1.272.162-2.337.128-3.307-.173-.986-.305-1.874-.886-2.777-1.806a.82.82 0 0 0-.58-.225Z" clip-rule="evenodd"/>
</svg>
