<svg fill="none" viewBox="0 0 16 16" xmlns="http://www.w3.org/2000/svg">
  <g fill-rule="evenodd" clip-path="url(#Settings-Color-16_svg__a)" clip-rule="evenodd">
    <path fill="#D9D9D9" d="M9.764 14.28c0 .697-.565 1.263-1.262 1.263H7.498a1.262 1.262 0 0 1-1.262-1.263c0-1.057-1.222-1.646-2.05-.986a1.262 1.262 0 0 1-1.773-.2l-.626-.785a1.262 1.262 0 0 1 .2-1.774c.827-.659.525-1.982-.506-2.217a1.262 1.262 0 0 1-.95-1.511l.224-.979a1.262 1.262 0 0 1 1.512-.95c1.03.236 1.876-.825 1.418-1.777a1.262 1.262 0 0 1 .59-1.685l.904-.435a1.262 1.262 0 0 1 1.684.589c.458.952 1.815.952 2.273 0A1.262 1.262 0 0 1 10.82.98l.905.436c.628.302.892 1.057.59 1.685-.459.953.387 2.013 1.418 1.778.68-.155 1.356.27 1.511.95l.224.978c.155.68-.27 1.356-.95 1.511-1.03.236-1.333 1.558-.506 2.217.545.435.634 1.23.2 1.774l-.626.785a1.262 1.262 0 0 1-1.773.2c-.827-.66-2.05-.071-2.05.986ZM8 5.5a2.5 2.5 0 1 1 0 5 2.5 2.5 0 0 1 0-5Z"/>
    <path fill="url(#Settings-Color-16_svg__b)" d="M5.736 14.28c0 .974.789 1.763 1.762 1.763h1.004c.973 0 1.762-.79 1.762-1.763a.762.762 0 0 1 1.237-.595c.76.606 1.87.481 2.476-.28l.626-.784a1.76 1.76 0 0 0-.28-2.476.762.762 0 0 1 .306-1.34 1.762 1.762 0 0 0 1.326-2.11l-.223-.978a1.762 1.762 0 0 0-2.11-1.326.762.762 0 0 1-.857-1.073 1.762 1.762 0 0 0-.823-2.352L11.037.53a1.762 1.762 0 0 0-2.351.823.762.762 0 0 1-1.373 0A1.762 1.762 0 0 0 4.962.53l-.905.436a1.762 1.762 0 0 0-.823 2.352.762.762 0 0 1-.856 1.073 1.762 1.762 0 0 0-2.11 1.326l-.223.978a1.762 1.762 0 0 0 1.325 2.11.763.763 0 0 1 .306 1.34 1.762 1.762 0 0 0-.28 2.476l.626.784a1.764 1.764 0 0 0 2.477.28.762.762 0 0 1 1.237.595Zm1.762.763a.762.762 0 0 1-.762-.763c0-1.476-1.707-2.298-2.86-1.377a.762.762 0 0 1-1.072-.121l-.626-.785a.762.762 0 0 1 .121-1.07c1.154-.921.733-2.768-.706-3.096a.762.762 0 0 1-.573-.913l.223-.978a.762.762 0 0 1 .912-.574c1.44.329 2.62-1.152 1.98-2.482a.762.762 0 0 1 .356-1.017l.905-.436a.762.762 0 0 1 1.016.356c.64 1.33 2.535 1.33 3.175 0a.762.762 0 0 1 1.017-.356l.904.436a.76.76 0 0 1 .356 1.017c-.64 1.33.541 2.81 1.98 2.482.41-.093.82.163.913.574l.223.978a.762.762 0 0 1-.573.913c-1.44.328-1.86 2.175-.707 3.095a.762.762 0 0 1 .121 1.071l-.626.785a.762.762 0 0 1-1.07.12c-1.155-.92-2.861-.098-2.861 1.378a.763.763 0 0 1-.762.763H7.498ZM8 10a2 2 0 1 1 0-4 2 2 0 0 1 0 4ZM5 8a3 3 0 1 0 6 0 3 3 0 0 0-6 0Z"/>
  </g>
  <defs>
    <linearGradient id="Settings-Color-16_svg__b" x1="8" x2="8" y1=".855" y2="15.543" gradientUnits="userSpaceOnUse">
      <stop stop-color="#888"/>
      <stop offset="1" stop-color="#444"/>
    </linearGradient>
    <clipPath id="Settings-Color-16_svg__a">
      <path fill="#fff" d="M0 0h16v16H0z"/>
    </clipPath>
  </defs>
</svg>
