<svg fill="none" viewBox="0 0 24 24" xmlns="http://www.w3.org/2000/svg">
  <path fill="#000" d="M10 9.75c0 .414.336.75.75.75h2.5V13a.75.75 0 0 0 1.5 0v-2.5h2.5a.75.75 0 0 0 0-1.5h-2.5V6.75a.75.75 0 0 0-1.5 0V9h-2.5a.75.75 0 0 0-.75.75Z"/>
  <path fill="#000" fill-rule="evenodd" d="M11 2a5 5 0 0 0-5 5v6a5 5 0 0 0 5 5h6a5 5 0 0 0 5-5V7a5 5 0 0 0-5-5h-6Zm6 1.5h-6A3.5 3.5 0 0 0 7.5 7v6a3.5 3.5 0 0 0 3.5 3.5h6a3.5 3.5 0 0 0 3.5-3.5V7A3.5 3.5 0 0 0 17 3.5Z" clip-rule="evenodd"/>
  <path fill="#000" d="M4.5 7.569c0-.611-.623-1.015-1.089-.619A3.991 3.991 0 0 0 2.001 10v5a7 7 0 0 0 7 7h5a3.991 3.991 0 0 0 3.048-1.411c.396-.466-.007-1.089-.618-1.089-.271 0-.52.135-.718.32-.447.421-1.05.68-1.713.68H9A5.5 5.5 0 0 1 3.5 15v-5c0-.664.258-1.266.68-1.714.186-.197.32-.446.32-.717Z"/>
</svg>
