<svg fill="none" viewBox="0 0 24 24" xmlns="http://www.w3.org/2000/svg">
  <path fill="#000" fill-rule="evenodd" d="M10.268 2.025a.752.752 0 0 1 .684.157c1.644 1.418 1.933 3.454 2.18 4.87.13.744.212 2.08 1.199 2.163.745.062 1.148-.348 1.297-1.048.119-.555.066-1.1.022-1.656a.75.75 0 0 1 1.323-.482c2.039 2.423 3.387 5.477 3.526 8.656.04 1.9-.53 3.702-1.878 5.052C17.186 21.175 14.973 22 11.983 22c-3.323 0-6.005-1.416-7.42-3.67-1.42-2.265-1.477-5.243.186-8.168.853-1.439 1.861-2.757 2.872-4.087.923-1.215 1.69-2.317 2.132-3.574a.773.773 0 0 1 .514-.476ZM12 14.228c-.395.599-.81 1.142-1.13 1.613-.547.806-.87 1.458-.87 2.159 0 .793.236 1.376.573 1.752.33.369.806.59 1.41.59.777 0 1.239-.24 1.521-.575.3-.355.496-.93.496-1.767 0-.701-.322-1.353-.87-2.16-.32-.47-.734-1.013-1.13-1.612Z" clip-rule="evenodd"/>
  <path fill="#000" d="M14.435 2a.751.751 0 0 1 .708.548l.072.335c.046.162.138.245.285.327.482.298.445 1.033-.04 1.295-.278.15-.557.084-.82-.057a1.784 1.784 0 0 1-.688-.705c-.16-.295-.225-.616-.28-.942A.76.76 0 0 1 14.434 2Z"/>
</svg>
