<svg fill="none" viewBox="0 0 16 16" xmlns="http://www.w3.org/2000/svg">
  <path fill="#000" d="M2.921 8.853a.626.626 0 0 1 .866.866l-.08.099-.933.932h11.601a.625.625 0 0 1 0 1.25H2.774l.933.933.08.098a.626.626 0 0 1-.866.867l-.099-.08-1.38-1.382a1.5 1.5 0 0 1 0-2.121l1.38-1.382.099-.08Zm9.372-6.67a.627.627 0 0 1 .786-.08l.099.08 1.38 1.382a1.5 1.5 0 0 1 0 2.12l-1.38 1.383-.099.08a.626.626 0 0 1-.866-.867l.08-.098.934-.933H1.625a.625.625 0 1 1 0-1.25h11.602l-.934-.933-.08-.098a.627.627 0 0 1 .08-.786Z"/>
</svg>
