<svg fill="none" viewBox="0 0 24 24" xmlns="http://www.w3.org/2000/svg">
  <path fill="#000" d="M6.262 3.008A3.25 3.25 0 0 0 3 6.258V7.75A3.25 3.25 0 0 0 6.25 11h1.5A3.25 3.25 0 0 0 11 7.75V6.263a3.25 3.25 0 0 0-3.238-3.25l-1.5-.005Zm0 10A3.25 3.25 0 0 0 3 16.258v1.492A3.25 3.25 0 0 0 6.25 21h1.5A3.25 3.25 0 0 0 11 17.75v-1.487a3.25 3.25 0 0 0-3.238-3.25l-1.5-.005Zm10-10A3.25 3.25 0 0 0 13 6.258V7.75A3.25 3.25 0 0 0 16.25 11h1.5A3.25 3.25 0 0 0 21 7.75V6.263a3.25 3.25 0 0 0-3.238-3.25l-1.5-.005Zm0 10A3.25 3.25 0 0 0 13 16.258v1.492A3.25 3.25 0 0 0 16.25 21h1.5A3.25 3.25 0 0 0 21 17.75v-1.487a3.25 3.25 0 0 0-3.238-3.25l-1.5-.005Z"/>
</svg>
