<svg fill="none" viewBox="0 0 16 16" xmlns="http://www.w3.org/2000/svg">
  <path fill="#000" fill-rule="evenodd" d="M3.125 1A2.125 2.125 0 0 0 1 3.125v1.75C1 6.049 1.951 7 3.125 7h9.75A2.125 2.125 0 0 0 15 4.875v-1.75A2.125 2.125 0 0 0 12.875 1h-9.75ZM2.25 3.125c0-.483.392-.875.875-.875h9.75c.483 0 .875.392.875.875v1.75a.875.875 0 0 1-.875.875h-9.75a.875.875 0 0 1-.875-.875v-1.75ZM3.125 9A2.125 2.125 0 0 0 1 11.125v1.75C1 14.049 1.951 15 3.125 15h9.75A2.125 2.125 0 0 0 15 12.875v-1.75A2.125 2.125 0 0 0 12.875 9h-9.75Zm-.875 2.125c0-.483.392-.875.875-.875h9.75c.483 0 .875.392.875.875v1.75a.875.875 0 0 1-.875.875h-9.75a.875.875 0 0 1-.875-.875v-1.75Z" clip-rule="evenodd"/>
</svg>
