<svg fill="none" viewBox="0 0 20 20" xmlns="http://www.w3.org/2000/svg">
  <path fill="#000" d="M13.5 1.75a.75.75 0 0 0-1.5 0v2.5a.75.75 0 0 0 1.5 0v-2.5Zm0 9a.75.75 0 0 0-1.5 0v2.5a.75.75 0 0 0 1.5 0v-2.5Zm5.5-3.5a.75.75 0 0 1-.75.75h-2.5a.75.75 0 0 1 0-1.5h2.5a.75.75 0 0 1 .75.75ZM9.25 8a.75.75 0 0 0 0-1.5h-2.5a.75.75 0 0 0 0 1.5h2.5Zm8.03 3.78a.75.75 0 0 1-1.06 0l-1.75-1.75a.75.75 0 1 1 1.06-1.06l1.75 1.75a.75.75 0 0 1 0 1.06Zm-7.56-6.5a.75.75 0 1 0 1.06-1.06L9.03 2.47a.75.75 0 0 0-1.06 1.06l1.75 1.75Zm4.75.25a.75.75 0 0 1 0-1.06l1.75-1.75a.75.75 0 1 1 1.06 1.06l-1.75 1.75a.75.75 0 0 1-1.06 0Zm-1.19 2.25a.75.75 0 0 0-1.06-1.06l-7.656 7.655 1.061 1.06L13.28 7.78ZM4.56 16.5 3.5 15.44l-2.277 2.277h-.001l-.002.002a.75.75 0 1 0 1.06 1.061h.001l.001-.001L4.561 16.5Z"/>
</svg>
