<svg fill="none" viewBox="0 0 16 16" xmlns="http://www.w3.org/2000/svg">
  <path fill="#000" fill-rule="evenodd" d="M7.72 1.141C7.965.635 7.575-.014 6.95.068A8.001 8.001 0 1 0 15.6 10.5c.198-.601-.37-1.102-.91-.956A6 6 0 0 1 7.72 1.14ZM1.25 8a6.753 6.753 0 0 1 4.987-6.518 7.25 7.25 0 0 0 7.842 9.455A6.75 6.75 0 0 1 1.25 8Z" clip-rule="evenodd"/>
  <path fill="#000" d="M12.5.875c.414 0 .5.09.625.446.07.2.178.813.26 1.318.471.079.989.173 1.169.236.357.125.446.21.446.625 0 .414-.179.5-.446.625-.142.066-.71.167-1.212.248-.075.438-.16.89-.217 1.056-.125.357-.21.446-.625.446-.414 0-.5-.179-.625-.446-.06-.128-.148-.602-.224-1.062-.48-.08-1.02-.178-1.205-.242C10.09 4 10 3.915 10 3.5c0-.414.09-.5.446-.625.18-.063.698-.157 1.169-.236.082-.505.19-1.119.26-1.318.125-.357.21-.446.625-.446Z"/>
</svg>
