<svg fill="none" viewBox="0 0 16 16" xmlns="http://www.w3.org/2000/svg">
  <g clip-path="url(#Check-Gray-16_svg__a)">
    <path fill="#AAA" fill-rule="evenodd" d="M8 16A8 8 0 1 0 8 0a8 8 0 0 0 0 16Z" clip-rule="evenodd"/>
    <path fill="#fff" d="M11.456 5.037a.625.625 0 0 1 .884.88l-.022.024-4.35 4.365a1.5 1.5 0 0 1-2.119.006l-.027-.028-2.149-2.247-.021-.024a.625.625 0 0 1 .902-.862l.023.022L6.725 9.42l.019.018a.25.25 0 0 0 .339-.014l4.35-4.365.023-.022Z"/>
  </g>
  <defs>
    <clipPath id="Check-Gray-16_svg__a">
      <path fill="#fff" d="M0 0h16v16H0z"/>
    </clipPath>
  </defs>
</svg>
