<svg fill="none" viewBox="0 0 16 16" xmlns="http://www.w3.org/2000/svg">
  <g fill="#000" clip-path="url(#Device-Laptop-Unlock-16_svg__a)">
    <path d="M5.125.88A3.125 3.125 0 0 0 2 4.007V9.29L.496 11.26c-1.13 1.48-.075 3.615 1.788 3.615H7.05a.7.7 0 0 0 .7-.7v-.55H2.284a1 1 0 0 1-.795-1.607l1.445-1.893h5.72c.107-.075.222-.14.343-.194A1.866 1.866 0 0 1 8.75 9v-.125h-5.5v-4.87c0-1.035.84-1.874 1.875-1.874h5.75c1.036 0 1.875.84 1.875 1.875v.502c.075.005.149.012.222.021.5.063 1.054-.283 1.01-.786a3.118 3.118 0 0 0-.127-.68 3.127 3.127 0 0 0-2.98-2.182h-5.75Z"/>
    <path d="M7.75 11.852c0-.353.087-.685.24-.977H3.625a.625.625 0 1 0 0 1.25H7.75v-.273ZM10 8.25a2.5 2.5 0 0 1 5 0V11h.148c.47 0 .852.382.852.852v3.296c0 .47-.382.852-.852.852H9.852A.852.852 0 0 1 9 15.148v-3.296c0-.47.382-.852.852-.852h3.898V8.25a1.25 1.25 0 1 0-2.5 0V9H10v-.75Z"/>
  </g>
  <defs>
    <clipPath id="Device-Laptop-Unlock-16_svg__a">
      <path fill="#fff" d="M0 0h16v16H0z"/>
    </clipPath>
  </defs>
</svg>
