<svg fill="none" viewBox="0 0 16 16" xmlns="http://www.w3.org/2000/svg">
  <path fill="#000" fill-rule="evenodd" d="M8 0a3 3 0 0 1 3 3v1h2.205c.907 0 1.685.65 1.845 1.544l.853 4.749A4 4 0 0 1 11.965 15h-7.93a4 4 0 0 1-3.937-4.707L.95 5.544l.008-.042A1.875 1.875 0 0 1 2.795 4H5V3a3 3 0 0 1 3-3ZM2.795 5.25a.625.625 0 0 0-.615.515l-.852 4.75a2.75 2.75 0 0 0 2.707 3.235h7.93a2.75 2.75 0 0 0 2.707-3.235l-.852-4.75a.625.625 0 0 0-.615-.515H11v1.125a.625.625 0 0 1-1.25 0V5.25h-3.5v1.125a.625.625 0 0 1-1.25 0V5.25H2.794ZM8 1.25A1.75 1.75 0 0 0 6.25 3v1h3.5V3A1.75 1.75 0 0 0 8 1.25Z" clip-rule="evenodd"/>
</svg>
