<svg fill="none" viewBox="0 0 24 24" xmlns="http://www.w3.org/2000/svg">
  <path fill="#000" fill-rule="evenodd" d="M17.5 11a3.5 3.5 0 0 1 3.5 3.5V16a1 1 0 0 1 1 1v4a1 1 0 0 1-1 1h-7a1 1 0 0 1-1-1v-4a1 1 0 0 1 1-1v-1.5a3.5 3.5 0 0 1 3.5-3.5Zm0 1.5a2 2 0 0 0-2 2V16h4v-1.5a2 2 0 0 0-2-2Z" clip-rule="evenodd"/>
  <path fill="#000" fill-rule="evenodd" d="M12 2c4.829 0 8.858 3.422 9.795 7.974.153.745-.711 1.133-1.257.602a.91.91 0 0 1-.249-.453 8.512 8.512 0 0 0-5.434-6.13c.213.364.403.765.57 1.194.427 1.094.733 2.422.906 3.888.037.314-.18.6-.478.703-.443.154-.961-.121-1.018-.587-.162-1.336-.44-2.516-.807-3.459-.306-.781-.657-1.36-1.02-1.731-.355-.363-.69-.501-1.008-.501-.317 0-.652.138-1.008.501-.363.371-.714.95-1.02 1.731-.6 1.541-.963 3.718-.972 6.173 1.02.06 2.042.087 3.063.085.49 0 .815.536.668 1.003-.089.28-.338.496-.632.496-1.02.002-2.04-.023-3.06-.08.11 1.914.442 3.599.934 4.859.305.781.656 1.36 1.02 1.731l.012.013c.267.269.495.609.495.988 0 .475-.34.973-.811.911C5.786 21.27 2 17.078 2 12 2 6.477 6.477 2 12 2ZM3.54 12.816a8.506 8.506 0 0 0 5.605 7.19 8.536 8.536 0 0 1-.57-1.192c-.58-1.486-.938-3.402-1.043-5.507a53.346 53.346 0 0 1-3.993-.49Zm5.605-8.824a8.505 8.505 0 0 0-5.614 7.305c1.318.218 2.643.385 3.971.5.02-2.536.394-4.87 1.073-6.61a8.58 8.58 0 0 1 .57-1.195Z" clip-rule="evenodd"/>
</svg>
