<svg fill="none" viewBox="0 0 16 16" xmlns="http://www.w3.org/2000/svg">
  <g fill="#000" clip-path="url(#Arrow-Circle-Right-16_svg__a)">
    <path d="M7.895 10.569a.625.625 0 0 0 .884.883l2.298-2.298a1.625 1.625 0 0 0 0-2.298L8.78 4.558a.625.625 0 0 0-.884.884L9.834 7.38H4.625a.625.625 0 1 0 0 1.25h5.209l-1.939 1.938Z"/>
    <path fill-rule="evenodd" d="M0 8a8 8 0 1 1 16 0A8 8 0 0 1 0 8Zm8-6.75a6.75 6.75 0 1 0 0 13.5 6.75 6.75 0 0 0 0-13.5Z" clip-rule="evenodd"/>
  </g>
  <defs>
    <clipPath id="Arrow-Circle-Right-16_svg__a">
      <path fill="#fff" d="M0 0h16v16H0z"/>
    </clipPath>
  </defs>
</svg>
