<svg fill="none" viewBox="0 0 24 24" xmlns="http://www.w3.org/2000/svg">
  <path fill="#000" d="M13.5 7.5a1.5 1.5 0 1 1-3 0 1.5 1.5 0 0 1 3 0Z"/>
  <path fill="#000" d="M7.026 9.557a.75.75 0 0 1 .917-.532l3.529.941c.084.023.17.034.258.034h.541a.999.999 0 0 0 .258-.034l3.528-.94a.75.75 0 1 1 .387 1.449l-2.451.653a1 1 0 0 0-.743.966v.566a1 1 0 0 0 .073.374l1.623 4.018a.75.75 0 0 1-1.391.562l-.869-2.151a.74.74 0 0 0-1.371 0l-.87 2.151a.75.75 0 1 1-1.39-.562l1.623-4.018a1 1 0 0 0 .072-.374v-.566a1 1 0 0 0-.742-.966l-2.451-.653a.75.75 0 0 1-.531-.918Z"/>
  <path fill="#000" fill-rule="evenodd" d="M22 12c0 5.523-4.477 10-10 10S2 17.523 2 12 6.477 2 12 2s10 4.477 10 10Zm-1.5 0a8.5 8.5 0 1 1-17 0 8.5 8.5 0 0 1 17 0Z" clip-rule="evenodd"/>
</svg>
