<svg fill="none" viewBox="0 0 16 16" xmlns="http://www.w3.org/2000/svg">
  <path fill="#000" d="M11.453 3.717a.01.01 0 0 1 .01-.014c.342.051.7.166 1.106.376.23.12.444.279.65.48.191.187.403.603.193.77a5.138 5.138 0 0 0-.562.526c-.215.23-.38.51-.546.872-.165.362-.231.773-.231 1.25 0 .56.099 1.02.297 1.415.199.394.43.69.695.937.264.247.495.411.694.51.216.107.29.31.207.537l-.125.335c-.165.444-.413.904-.776 1.43-.314.461-.662.872-1.025 1.267-.364.395-.81.576-1.306.576-.347 0-.628-.05-.843-.148a27.183 27.183 0 0 0-.678-.296c-.23-.1-.545-.148-.942-.148-.396 0-.694.049-.958.148a7.381 7.381 0 0 0-.728.312c-.23.115-.495.148-.81.148-.479 0-.892-.18-1.239-.56a13.983 13.983 0 0 1-1.09-1.331 8.97 8.97 0 0 1-1.108-2.254 8.489 8.489 0 0 1-.463-2.697c0-.97.182-1.776.545-2.45A3.782 3.782 0 0 1 3.842 4.21a3.443 3.443 0 0 1 1.801-.51c.331 0 .645.05.926.164.28.115.562.214.826.33.265.114.48.164.695.164.214 0 .43-.066.694-.181.264-.115.562-.23.892-.346.33-.115.678-.164 1.058-.164.146 0 .372.016.709.063a.01.01 0 0 0 .01-.014ZM9.238 3.15a.076.076 0 0 1-.018.013c-.377.194-.737.291-1.08.291-.034 0-.067 0-.1-.002-.059-.004-.097-.057-.116-.113-.016-.05 0-.099 0-.165 0-.378.083-.756.248-1.118.165-.362.364-.658.579-.905.264-.329.611-.592 1.024-.806.304-.157.599-.26.878-.311.169-.03.329.09.329.262 0 .378-.066.757-.215 1.119a3.78 3.78 0 0 1-.578.97 3.074 3.074 0 0 1-.932.751.077.077 0 0 0-.019.014Z"/>
</svg>
