<svg fill="none" viewBox="0 0 24 24" xmlns="http://www.w3.org/2000/svg">
  <path fill="#000" fill-rule="evenodd" d="M11 2a5 5 0 0 0-5 5v6a5 5 0 0 0 5 5h6a5 5 0 0 0 5-5V7a5 5 0 0 0-5-5h-6Zm3 11.75a.75.75 0 0 0 .75-.75v-2.5h2.5a.75.75 0 1 0 0-1.5h-2.5V6.75a.75.75 0 0 0-1.5 0V9h-2.5a.75.75 0 0 0 0 1.5h2.5V13c0 .414.336.75.75.75Z" clip-rule="evenodd"/>
  <path fill="#000" d="M4.5 7.57c0-.612-.623-1.015-1.089-.62A3.991 3.991 0 0 0 2.001 10v5a7 7 0 0 0 7 7h5a3.99 3.99 0 0 0 3.048-1.41c.396-.467-.007-1.09-.619-1.09-.27 0-.52.135-.717.32-.447.422-1.05.68-1.713.68H9A5.5 5.5 0 0 1 3.5 15v-5c0-.663.258-1.266.68-1.714.186-.197.32-.446.32-.717Z"/>
</svg>
