<svg fill="none" viewBox="0 0 24 24" xmlns="http://www.w3.org/2000/svg">
  <path fill="#000" fill-rule="evenodd" d="m12.102 4.226.112.071.063-.046a6.38 6.38 0 0 1 1.617-.82c1.45-.5 3.588-.722 6.472.202C21.387 3.961 22 4.925 22 5.933V18.9c0 .833-.491 1.471-1.102 1.807a2.357 2.357 0 0 1-2.083.094c-2.642-1.18-4.633-.524-5.55-.064a2.3 2.3 0 0 1-2.029 0c-.918-.46-2.908-1.116-5.55.064-.7.312-1.48.237-2.083-.094-.611-.336-1.103-.974-1.103-1.807V5.882c0-.968.567-1.917 1.557-2.26 2.655-.92 4.81-.681 6.316-.19.748.243 1.33.547 1.73.794ZM13 5.583v13.625c1.307-.55 3.59-1.045 6.427.222a.857.857 0 0 0 .749-.04c.219-.12.324-.299.324-.491V5.933c0-.421-.252-.762-.591-.871-2.595-.831-4.4-.602-5.525-.213a4.884 4.884 0 0 0-1.237.624 3.56 3.56 0 0 0-.147.11Zm-1.5 13.625c-1.306-.55-3.59-1.045-6.426.222a.857.857 0 0 1-.75-.04C4.107 19.27 4 19.092 4 18.9V5.882c0-.41.235-.734.548-.842 2.317-.803 4.135-.582 5.36-.182a6.523 6.523 0 0 1 1.592.766v13.584Z" clip-rule="evenodd"/>
</svg>
