<svg fill="none" viewBox="0 0 16 16" xmlns="http://www.w3.org/2000/svg">
  <path fill="#000" d="M5 4.625a.625.625 0 1 0-1.25 0v1.75a.625.625 0 1 0 1.25 0v-1.75Zm7.25 0a.625.625 0 1 0-1.25 0v1.75a.625.625 0 1 0 1.25 0v-1.75Z"/>
  <path fill="#000" fill-rule="evenodd" d="M3.125 1A3.125 3.125 0 0 0 0 4.125v7.75C0 13.601 1.4 15 3.125 15h9.75C14.601 15 16 13.6 16 11.875v-7.75C16 2.399 14.6 1 12.875 1h-9.75ZM1.25 4.125c0-1.036.84-1.875 1.875-1.875h4.892C7.122 3.479 6 5.607 6 8.375c0 .345.28.625.625.625h1.13c.013.648.043 1.227.086 1.744-1.933-.086-3.329-1.087-3.76-1.546a.625.625 0 1 0-.912.854c.632.675 2.402 1.906 4.816 1.947.067.449.143.829.22 1.148.056.232.113.432.167.603H3.125a1.875 1.875 0 0 1-1.875-1.875v-7.75ZM9.7 13.75h3.175c1.036 0 1.875-.84 1.875-1.875v-7.75c0-1.036-.84-1.875-1.875-1.875h-3.24c-.639.664-2.162 2.651-2.363 5.5h1.103c.345 0 .625.28.625.625 0 .887.035 1.646.09 2.293 1.51-.259 2.493-1.06 2.8-1.437a.625.625 0 0 1 .97.788c-.486.6-1.756 1.59-3.624 1.892.058.371.121.683.184.942a6.044 6.044 0 0 0 .28.897Z" clip-rule="evenodd"/>
</svg>
