<svg fill="none" viewBox="0 0 24 24" xmlns="http://www.w3.org/2000/svg">
  <circle cx="12" cy="12" r="10" fill="#3969EF"/>
  <path fill="#fff" d="M8.437 10.082a3.697 3.697 0 0 1 5.09-.13l.139.13.126.127.052.057a.751.751 0 0 1-1.056 1.054l-.057-.05-.127-.127-.165-.15a2.198 2.198 0 0 0-2.942.15l-1.354 1.355a2.198 2.198 0 0 0-.152 2.94l.152.168.252.252c.859.858 2.25.858 3.108 0l.098-.098a.75.75 0 1 1 1.061 1.06l-.099.1-.137.13a3.698 3.698 0 0 1-5.091-.13l-.253-.254-.132-.138a3.698 3.698 0 0 1 .132-5.09l1.355-1.356Z"/>
  <path fill="#fff" d="M11.434 7.105a3.698 3.698 0 0 1 5.23 0l.252.253a3.697 3.697 0 0 1 0 5.228l-1.334 1.335a3.698 3.698 0 0 1-5.23 0l-.126-.127-.051-.057a.751.751 0 0 1 1.055-1.054l.057.05.127.127c.858.858 2.25.859 3.107 0l1.334-1.335a2.197 2.197 0 0 0 0-3.107l-.253-.253a2.198 2.198 0 0 0-3.107 0l-.078.078a.75.75 0 1 1-1.06-1.06l.078-.078Z"/>
</svg>
