<svg fill="none" viewBox="0 0 16 16" xmlns="http://www.w3.org/2000/svg">
  <path fill="#000" d="M10.854.463a.625.625 0 1 1 1.167.449L9.833 6.599a.625.625 0 1 1-1.166-.448L10.854.463Z"/>
  <path fill="#000" fill-rule="evenodd" d="M5.207.46a.625.625 0 1 0-1.164.456l3.26 8.307-.805 2.115a3 3 0 1 0 .369 2.546l1.115-2.93 1.155 2.944A3.001 3.001 0 0 0 15 13a3 3 0 0 0-5.515-1.636L5.207.459ZM5.75 13c0 .169-.024.332-.069.487l-.015.04a.63.63 0 0 0-.025.083A1.75 1.75 0 1 1 5.75 13Zm4.61.61a.623.623 0 0 0-.028-.088l-.012-.03a1.75 1.75 0 1 1 .04.118Z" clip-rule="evenodd"/>
</svg>
