<svg fill="none" viewBox="0 0 16 16" xmlns="http://www.w3.org/2000/svg">
  <g fill="#000" clip-path="url(#Audio-Solid-16_svg__a)">
    <path d="M9 2.895C9 1.324 7.091.548 5.996 1.675L3.61 4.124h-.36A3.25 3.25 0 0 0 0 7.375v1.5a3.25 3.25 0 0 0 3.25 3.25h.361l2.385 2.45C7.09 15.703 9 14.927 9 13.356V2.895Zm1.357 1.366a.625.625 0 0 1 .88-.071 4.998 4.998 0 0 1 .006 7.616.625.625 0 0 1-.811-.951 3.75 3.75 0 0 0-.004-5.713.625.625 0 0 1-.071-.88Z"/>
    <path d="M13.258 1.971a.625.625 0 0 0-.821.942 6.75 6.75 0 0 1-.004 10.178.625.625 0 0 0 .82.942 8.001 8.001 0 0 0 .005-12.062Z"/>
  </g>
  <defs>
    <clipPath id="Audio-Solid-16_svg__a">
      <path fill="#fff" d="M0 0h16v16H0z"/>
    </clipPath>
  </defs>
</svg>
