<svg fill="none" viewBox="0 0 24 24" xmlns="http://www.w3.org/2000/svg">
  <path fill="#000" d="M16.547 6.956a.013.013 0 0 1 .013-.018c.448.068.917.22 1.448.5.303.16.585.375.855.644.252.25.526.8.25 1.023a6.772 6.772 0 0 0-.737.702c-.281.307-.498.68-.714 1.162-.217.483-.303 1.031-.303 1.667 0 .746.13 1.36.39 1.886.26.526.563.921.909 1.25.346.33.65.548.91.68.283.144.381.412.273.71l-.166.452c-.216.592-.54 1.206-1.017 1.908a14.727 14.727 0 0 1-1.343 1.689 2.228 2.228 0 0 1-1.71.767c-.455 0-.823-.066-1.104-.197-.281-.132-.585-.263-.888-.395-.303-.131-.714-.197-1.234-.197s-.91.066-1.256.197c-.346.132-.65.263-.952.417-.303.153-.65.197-1.061.197-.628 0-1.17-.241-1.624-.745a18.575 18.575 0 0 1-1.429-1.777 12.047 12.047 0 0 1-1.45-3.004C4.216 15.29 4 14.084 4 12.877c0-1.293.238-2.368.715-3.267a5.006 5.006 0 0 1 1.862-1.996c.757-.46 1.537-.68 2.36-.68.433 0 .844.066 1.212.22.368.153.736.285 1.083.438.346.154.628.22.909.22s.563-.088.91-.242c.346-.153.735-.307 1.168-.46.434-.154.888-.22 1.386-.22.191 0 .487.022.928.085.01.001.018-.01.014-.019ZM13.646 6.2a.099.099 0 0 1-.025.018c-.493.258-.965.387-1.415.387-.043 0-.085 0-.127-.002-.08-.005-.13-.076-.155-.151-.021-.066 0-.132 0-.22 0-.504.109-1.008.325-1.49a4.96 4.96 0 0 1 .758-1.207c.346-.438.801-.79 1.342-1.074a4.076 4.076 0 0 1 1.143-.414.363.363 0 0 1 .438.348c0 .504-.087 1.009-.282 1.491a5.06 5.06 0 0 1-.757 1.294c-.322.391-.729.74-1.22 1.002a.103.103 0 0 0-.025.018Z"/>
</svg>
