<svg fill="none" viewBox="0 0 16 16" xmlns="http://www.w3.org/2000/svg">
  <path fill="#000" fill-rule="evenodd" d="M3.125 1.013A3.125 3.125 0 0 0 0 4.138v7.715c0 1.726 1.4 3.125 3.125 3.125h3.25a.625.625 0 1 0 0-1.25h-3.25a1.875 1.875 0 0 1-1.875-1.875V5.25h13.5v3.125a.625.625 0 1 0 1.25 0V4.138c0-1.726-1.4-3.125-3.125-3.125h-9.75ZM14.745 4H1.255c.07-.971.88-1.737 1.87-1.737h9.75c.99 0 1.8.766 1.87 1.737Z" clip-rule="evenodd"/>
  <path fill="#000" fill-rule="evenodd" d="M7 10.812a3.813 3.813 0 1 1 6.914 2.218l1.903 1.903a.625.625 0 1 1-.884.884l-1.903-1.903A3.813 3.813 0 0 1 7 10.813Zm3.813-2.562a2.563 2.563 0 1 0 0 5.125 2.563 2.563 0 0 0 0-5.125Z" clip-rule="evenodd"/>
</svg>
