<svg fill="none" viewBox="0 0 16 16" xmlns="http://www.w3.org/2000/svg">
  <path fill="#000" d="M10.5 7a3.5 3.5 0 0 1 2.877 5.493l2.462 2.463a.625.625 0 0 1-.883.883l-2.463-2.462A3.5 3.5 0 1 1 10.5 7ZM12 1a4 4 0 0 1 4 4v2.006c0 .653-.876.868-1.179.29l-.071-.136V5.25H1.25V11A2.75 2.75 0 0 0 4 13.75h2.14l.182.178A.625.625 0 0 1 5.885 15H4a4 4 0 0 1-4-4V5a4 4 0 0 1 4-4h8Zm-1.5 7.25a2.25 2.25 0 1 0 0 4.5 2.25 2.25 0 0 0 0-4.5Zm-6.5-6A2.75 2.75 0 0 0 1.438 4h13.124A2.75 2.75 0 0 0 12 2.25H4Z"/>
</svg>
