<svg fill="none" viewBox="0 0 16 16" xmlns="http://www.w3.org/2000/svg">
  <path fill="#000" d="M3.625 7c.345 0 .625.28.625.625v3.75a.625.625 0 1 1-1.25 0v-3.75C3 7.28 3.28 7 3.625 7Zm9.25.625a.625.625 0 1 0-1.25 0v3.75a.625.625 0 1 0 1.25 0v-3.75ZM9.375 7c.345 0 .625.28.625.625v3.75a.625.625 0 1 1-1.25 0v-3.75c0-.345.28-.625.625-.625Zm-2.25.625a.625.625 0 1 0-1.25 0v3.75a.625.625 0 1 0 1.25 0v-3.75ZM3.625 4a.625.625 0 1 0 0 1.25h8.75a.625.625 0 1 0 0-1.25h-8.75Z"/>
  <path fill="#000" fill-rule="evenodd" d="M5.25.625a.625.625 0 1 0-1.25 0V1a4 4 0 0 0-4 4v6a4 4 0 0 0 4 4h8a4 4 0 0 0 4-4V5a4 4 0 0 0-4-4V.625a.625.625 0 1 0-1.25 0V1h-5.5V.625Zm5.5 1.75V2.25h-5.5v.125a.625.625 0 1 1-1.25 0V2.25A2.75 2.75 0 0 0 1.25 5v6A2.75 2.75 0 0 0 4 13.75h8A2.75 2.75 0 0 0 14.75 11V5A2.75 2.75 0 0 0 12 2.25v.125a.625.625 0 1 1-1.25 0Z" clip-rule="evenodd"/>
</svg>
