<svg fill="none" viewBox="0 0 16 16" xmlns="http://www.w3.org/2000/svg">
  <g clip-path="url(#Location-16_svg__a)">
    <path fill="#000" fill-rule="evenodd" d="M14.649 1.861c.185-.33-.18-.695-.51-.51L1.319 8.528c-.04.022-.051.043-.056.055a.131.131 0 0 0-.002.078.131.131 0 0 0 .04.068c.01.008.03.021.075.021h3.549a2.325 2.325 0 0 1 2.325 2.325v3.549c0 .046.013.065.021.075a.132.132 0 0 0 .068.04c.033.008.06.005.078-.002.012-.005.033-.015.055-.055l7.177-12.82Zm-1.121-1.6c1.43-.802 3.013.78 2.212 2.211l-7.177 12.82C7.874 16.522 6 16.034 6 14.624v-3.549C6 10.481 5.519 10 4.925 10H1.376C-.034 10-.523 8.126.708 7.437L13.528.26Z" clip-rule="evenodd"/>
  </g>
  <defs>
    <clipPath id="Location-16_svg__a">
      <path fill="#fff" d="M0 0h16v16H0z"/>
    </clipPath>
  </defs>
</svg>
