<svg fill="none" viewBox="0 0 12 12" xmlns="http://www.w3.org/2000/svg">
  <path fill="#000" d="M1.561 1.215C.561 2.246 0 3.595 0 5c0 1.406.562 2.754 1.562 3.785a.625.625 0 1 0 .897-.87C1.676 7.108 1.25 6.07 1.25 5s.426-2.109 1.208-2.916a.625.625 0 1 0-.897-.87ZM12 5c0-1.406-.56-2.754-1.561-3.785a.625.625 0 1 0-.897.87c.782.807 1.208 1.846 1.208 2.916 0 1.069-.426 2.108-1.209 2.914a.625.625 0 0 0 .897.871c1-1.03 1.562-2.379 1.562-3.785Z"/>
  <path fill="#000" d="M9.563 5a3.37 3.37 0 0 0-.928-2.313.625.625 0 1 0-.91.858c.381.403.588.922.588 1.455a2.12 2.12 0 0 1-.588 1.456.625.625 0 0 0 .909.858A3.37 3.37 0 0 0 9.562 5ZM2.438 5c0-.859.333-1.683.927-2.313a.625.625 0 1 1 .91.858A2.12 2.12 0 0 0 3.687 5c0 .533.207 1.052.588 1.456a.625.625 0 0 1-.909.858A3.37 3.37 0 0 1 2.437 5Zm4.187.936A1.124 1.124 0 0 0 6 3.875a1.125 1.125 0 0 0-.625 2.06v4.44a.625.625 0 1 0 1.25 0v-4.44Z"/>
</svg>
