<svg fill="none" viewBox="0 0 12 12" xmlns="http://www.w3.org/2000/svg">
  <g fill-rule="evenodd" clip-path="url(#Shield-Check-Color-12E_svg__a)" clip-rule="evenodd">
    <path fill="url(#Shield-Check-Color-12E_svg__b)" d="M4.406.664a2.212 2.212 0 0 1 3.19.031l.674.717a.654.654 0 0 0 .658.18l.425-.123a2.034 2.034 0 0 1 2.596 1.898l.048 1.66a6.613 6.613 0 0 1-3.767 6.164l-1.232.586a2.3 2.3 0 0 1-1.977 0l-1.25-.595A6.613 6.613 0 0 1 0 5.051l.04-1.66a2.034 2.034 0 0 1 2.61-1.906l.36.106a.654.654 0 0 0 .653-.17l.744-.758Z"/>
    <path fill="url(#Shield-Check-Color-12E_svg__c)" d="M6.867 1.381a1.212 1.212 0 0 0-1.747-.017l-.744.758-.714-.7.744-.758a2.212 2.212 0 0 1 3.19.031l.674.717a.654.654 0 0 0 .658.18l.425-.123a2.034 2.034 0 0 1 2.596 1.898l.048 1.66a6.613 6.613 0 0 1-3.767 6.164l-1.232.586a2.3 2.3 0 0 1-1.977 0l-1.25-.595A6.613 6.613 0 0 1 0 5.051l.04-1.66a2.034 2.034 0 0 1 2.61-1.906l.36.106a.654.654 0 0 0 .653-.17l.714.7a1.654 1.654 0 0 1-1.648.43l-.362-.107a1.034 1.034 0 0 0-1.324.97l-.04 1.66A5.613 5.613 0 0 0 4.2 10.279l1.25.595c.354.168.765.168 1.118 0l1.232-.586a5.613 5.613 0 0 0 3.198-5.231l-.048-1.661a1.034 1.034 0 0 0-1.32-.966l-.425.123a1.654 1.654 0 0 1-1.663-.456l-.675-.716Z"/>
    <path fill="#fff" d="M8.302 4.103a.5.5 0 0 1 .098.7L5.95 8.05a.5.5 0 0 1-.773.03L3.622 6.32a.5.5 0 0 1 .749-.661l1.15 1.3 2.08-2.758a.5.5 0 0 1 .7-.098Z"/>
  </g>
  <defs>
    <linearGradient id="Shield-Check-Color-12E_svg__b" x1="6" x2="6" y1="-.048" y2="12.207" gradientUnits="userSpaceOnUse">
      <stop stop-color="#7BD66D"/>
      <stop offset="1" stop-color="#288419"/>
    </linearGradient>
    <linearGradient id="Shield-Check-Color-12E_svg__c" x1="6" x2="6" y1=".138" y2="11.908" gradientUnits="userSpaceOnUse">
      <stop stop-color="#4CBA3C"/>
      <stop offset="1" stop-color="#1A690D"/>
    </linearGradient>
    <clipPath id="Shield-Check-Color-12E_svg__a">
      <path fill="#fff" d="M0 0h12v12H0z"/>
    </clipPath>
  </defs>
</svg>
