<svg fill="none" viewBox="0 0 16 16" xmlns="http://www.w3.org/2000/svg">
  <g fill="#000" clip-path="url(#Audio-Mute-16_svg__a)">
    <path d="M9 4.348V2.77C9 1.199 7.091.423 5.996 1.55L3.61 4h-.36A3.25 3.25 0 0 0 0 7.25v1.5c0 1.245.7 2.326 1.727 2.872l.954-.954A2 2 0 0 1 1.25 8.75v-1.5a2 2 0 0 1 2-2h.625c.169 0 .33-.068.448-.19l2.569-2.64a.5.5 0 0 1 .858.35v2.828L9 4.348Zm5.825-.521-.914.914a6.734 6.734 0 0 1 .839 3.262 6.749 6.749 0 0 1-2.317 5.088.625.625 0 0 0 .82.942 8.001 8.001 0 0 0 1.572-10.206Z"/>
    <path d="m12.603 6.048-.98.981a3.749 3.749 0 0 1-1.191 3.825.625.625 0 0 0 .81.952 5 5 0 0 0 1.361-5.758ZM9 9.652l-1.25 1.25v2.329a.5.5 0 0 1-.858.348l-.897-.922-.884.884.885.91C7.09 15.577 9 14.8 9 13.23V9.65Zm4.808-8.344a.625.625 0 1 1 .884.884l-12.5 12.5a.625.625 0 1 1-.884-.884l12.5-12.5Z"/>
  </g>
  <defs>
    <clipPath id="Audio-Mute-16_svg__a">
      <path fill="#fff" d="M0 0h16v16H0z"/>
    </clipPath>
  </defs>
</svg>
