<svg fill="none" viewBox="0 0 24 24" xmlns="http://www.w3.org/2000/svg">
  <path fill="#000" d="M17.5 9a3.5 3.5 0 0 1 3.5 3.5V16a1 1 0 0 1 1 1v4a1 1 0 0 1-1 1h-7a1 1 0 0 1-1-1v-4a1 1 0 0 1 1-1h5.5v-3.5a2 2 0 1 0-4 0v1a.5.5 0 0 1-.5.5h-.5a.5.5 0 0 1-.5-.5v-1A3.5 3.5 0 0 1 17.5 9Z"/>
  <path fill="#000" fill-rule="evenodd" d="M12 1.999a9.995 9.995 0 0 1 8.766 5.187c.454.824-.484 1.433-1.195.817a1.045 1.045 0 0 1-.218-.267 8.52 8.52 0 0 0-4.498-3.744c.212.365.403.766.57 1.195.229.585.422 1.237.58 1.942.07.319-.131.63-.432.756-.425.176-.947-.053-1.05-.501a11.784 11.784 0 0 0-.495-1.652c-.306-.781-.657-1.36-1.02-1.731-.355-.363-.69-.501-1.008-.501-.317 0-.652.138-1.008.501-.363.371-.714.95-1.02 1.731-.6 1.541-.963 3.718-.972 6.173 1.003.058 2.008.086 3.012.085.274 0 .488.236.488.51 0 .546-.44.992-.986.987a52.387 52.387 0 0 1-2.475-.078c.11 1.914.442 3.599.934 4.859.305.781.656 1.36 1.02 1.731l.011.012c.268.27.496.61.496.989 0 .475-.34.972-.81.91C5.786 21.27 2 17.078 2 12 2 6.477 6.477 1.999 12 1.999ZM3.54 12.816a8.506 8.506 0 0 0 5.605 7.19 8.54 8.54 0 0 1-.57-1.192c-.58-1.485-.938-3.402-1.043-5.507a53.346 53.346 0 0 1-3.993-.49Zm5.605-8.824a8.505 8.505 0 0 0-5.614 7.305c1.318.218 2.643.385 3.971.5.02-2.536.394-4.87 1.073-6.61a8.58 8.58 0 0 1 .57-1.195Z" clip-rule="evenodd"/>
</svg>
