<svg fill="none" viewBox="0 0 24 24" xmlns="http://www.w3.org/2000/svg">
  <path fill="#000" fill-rule="evenodd" d="M6 7a5 5 0 0 1 5-5h6a5 5 0 0 1 5 5v6a5 5 0 0 1-5 5h-6a5 5 0 0 1-5-5V7Zm5-3.5h6A3.5 3.5 0 0 1 20.5 7v6a3.5 3.5 0 0 1-3.5 3.5h-6A3.5 3.5 0 0 1 7.5 13V7A3.5 3.5 0 0 1 11 3.5Z" clip-rule="evenodd"/>
  <path fill="#000" d="M3.411 6.95c.466-.396 1.09.008 1.09.619 0 .271-.135.52-.321.717A2.491 2.491 0 0 0 3.5 10v5A5.5 5.5 0 0 0 9 20.5h5c.663 0 1.266-.259 1.713-.68.198-.185.447-.32.718-.32.61 0 1.014.623.618 1.089A3.991 3.991 0 0 1 14 21.999H9a7 7 0 0 1-7-7v-5c0-1.221.548-2.315 1.411-3.049Z"/>
</svg>
