<svg fill="none" viewBox="0 0 24 24" xmlns="http://www.w3.org/2000/svg">
  <path fill="#000" fill-rule="evenodd" d="M3.915 7.322A3.453 3.453 0 0 0 3.5 8.97v6.062A3.469 3.469 0 0 0 6.97 18.5h4.281a.75.75 0 1 1 0 1.5H6.97A4.969 4.969 0 0 1 2 15.031V8.97A4.969 4.969 0 0 1 6.97 4h10.063A4.969 4.969 0 0 1 22 8.969v3.095a.75.75 0 1 1-1.5 0V8.97c0-.596-.15-1.157-.415-1.647l-5.715 4.419a3.875 3.875 0 0 1-4.74 0L3.915 7.323ZM6.969 5.5h10.063c.776 0 1.493.255 2.07.686l-5.65 4.368a2.375 2.375 0 0 1-2.904 0l-5.65-4.368A3.453 3.453 0 0 1 6.969 5.5Z" clip-rule="evenodd"/>
  <path fill="#000" d="M18.168 21.54a.75.75 0 0 1-.02-1.06l1.906-1.98H14a.75.75 0 0 1 0-1.5h6.27a1.123 1.123 0 0 0-.125-.155l-1.997-2.075a.75.75 0 1 1 1.08-1.04l1.998 2.074a2.625 2.625 0 0 1 0 3.642l-1.998 2.074a.75.75 0 0 1-1.06.02Z"/>
</svg>
