<svg fill="none" viewBox="0 0 12 12" xmlns="http://www.w3.org/2000/svg">
  <g clip-path="url(#Shield-12E_svg__a)">
    <path fill="#000" fill-rule="evenodd" d="M5.5 1.101a1.21 1.21 0 0 0-.38.263l-.744.758-.714-.7.744-.758a2.212 2.212 0 0 1 3.19.031l.674.717a.654.654 0 0 0 .658.18l.425-.123a2.034 2.034 0 0 1 2.596 1.898l.048 1.66a6.613 6.613 0 0 1-3.767 6.164l-1.232.586a2.3 2.3 0 0 1-1.977 0l-1.25-.595A6.613 6.613 0 0 1 0 5.051l.04-1.66a2.034 2.034 0 0 1 2.61-1.906l.36.106a.654.654 0 0 0 .653-.17l.714.7a1.654 1.654 0 0 1-1.648.43l-.362-.107a1.034 1.034 0 0 0-1.324.97l-.04 1.66A5.613 5.613 0 0 0 4.2 10.279l1.25.595.05.022V1.101Zm1 .013c.134.063.26.152.367.267l.675.716a1.654 1.654 0 0 0 1.663.456l.425-.123c.648-.187 1.3.288 1.32.966l.048 1.66A5.613 5.613 0 0 1 7.8 10.289l-1.232.586a1.27 1.27 0 0 1-.068.03v-9.79Z" clip-rule="evenodd"/>
  </g>
  <defs>
    <clipPath id="Shield-12E_svg__a">
      <path fill="#fff" d="M0 0h12v12H0z"/>
    </clipPath>
  </defs>
</svg>
