<svg fill="none" viewBox="0 0 16 16" xmlns="http://www.w3.org/2000/svg">
  <g clip-path="url(#Globe-16_svg__a)">
    <path fill="#000" fill-rule="evenodd" d="M.017 7.482a8 8 0 0 1 15.967 0c.017.076.02.152.01.225a8 8 0 1 1-15.99 0 .622.622 0 0 1 .013-.225Zm1.247.951a6.754 6.754 0 0 0 4.197 5.823 7.118 7.118 0 0 1-.416-.781c-.555-1.213-.92-2.787-1.018-4.518a28.8 28.8 0 0 1-2.763-.524Zm2.739-.742a27.55 27.55 0 0 1-2.7-.535A6.757 6.757 0 0 1 5.46 1.744c-.153.247-.291.51-.416.781-.623 1.363-1.006 3.18-1.042 5.166Zm1.286 1.413c.109 1.516.436 2.852.893 3.85.59 1.292 1.28 1.796 1.818 1.796s1.228-.504 1.818-1.795c.457-1 .784-2.335.893-3.85-1.803.17-3.619.17-5.422 0Zm5.46-1.26a27.45 27.45 0 0 1-5.498 0c.018-1.904.38-3.596.93-4.799C6.774 1.755 7.462 1.25 8 1.25s1.228.504 1.818 1.795c.55 1.203.913 2.895.931 4.8Zm1.224 1.113c-.099 1.731-.463 3.305-1.018 4.518a7.111 7.111 0 0 1-.416.781 6.754 6.754 0 0 0 4.197-5.823c-.914.22-1.836.395-2.763.524Zm2.725-1.801c-.893.224-1.795.402-2.7.535-.037-1.985-.42-3.803-1.043-5.166a7.109 7.109 0 0 0-.416-.781 6.757 6.757 0 0 1 4.159 5.412Z" clip-rule="evenodd"/>
  </g>
  <defs>
    <clipPath id="Globe-16_svg__a">
      <path fill="#fff" d="M0 0h16v16H0z"/>
    </clipPath>
  </defs>
</svg>
