<svg fill="none" viewBox="0 0 16 16" xmlns="http://www.w3.org/2000/svg">
  <path fill="#000" d="M9.125 0C10.161 0 11 .84 11 1.875V2h3.375l.126.013a.625.625 0 0 1 0 1.224l-.126.013H14v9.625C14 14.601 12.6 16 10.875 16h-5.75A3.125 3.125 0 0 1 2 12.875V3.25h-.375a.625.625 0 1 1 0-1.25H5v-.125C5 .839 5.84 0 6.875 0h2.25ZM3.25 3.25v9.625c0 1.036.84 1.875 1.875 1.875h5.75c1.036 0 1.875-.84 1.875-1.875V3.25h-9.5ZM5.625 5c.345 0 .625.28.625.625v6.75a.625.625 0 1 1-1.25 0v-6.75C5 5.28 5.28 5 5.625 5Zm4.75 0c.345 0 .625.28.625.625v6.75a.625.625 0 1 1-1.25 0v-6.75c0-.345.28-.625.625-.625Zm-3.5-3.75a.625.625 0 0 0-.625.625V2h3.5v-.125a.625.625 0 0 0-.625-.625h-2.25Z"/>
</svg>
