<svg fill="none" viewBox="0 0 24 24" xmlns="http://www.w3.org/2000/svg">
  <path fill="#000" fill-rule="evenodd" d="M3.031 7a4.969 4.969 0 0 1 4.97-4.969h8A4.969 4.969 0 0 1 20.968 7v5A4.969 4.969 0 0 1 16 16.969H8c-1.29 0-2.416.704-3.014 1.75A3.468 3.468 0 0 0 8 20.469h8a3.47 3.47 0 0 0 3.389-2.725c.082-.378.277-.73.577-.973l.133-.111c.306-.265.87-.065.87.34A4.969 4.969 0 0 1 16 21.969H8A4.969 4.969 0 0 1 3.031 17V7ZM19.47 7v5A3.469 3.469 0 0 1 16 15.469H8c-1.35 0-2.573.538-3.469 1.41V7A3.472 3.472 0 0 1 7 3.678v6.62c0 1.488 1.785 2.247 2.857 1.216l1.013-.974a.187.187 0 0 1 .26 0l1.013.974c1.072 1.031 2.857.272 2.857-1.216V3.531h1A3.469 3.469 0 0 1 19.47 7ZM13.5 3.531v6.767c0 .165-.198.25-.317.135L12.17 9.46a1.688 1.688 0 0 0-2.34 0l-1.012.974a.187.187 0 0 1-.318-.135V3.531h5Z" clip-rule="evenodd"/>
</svg>
