<svg fill="none" viewBox="0 0 16 16" xmlns="http://www.w3.org/2000/svg">
  <path fill="#000" d="M9.815.01a.663.663 0 0 1 .768.537c.027.15.04.316.19.386a.663.663 0 1 1-.566 1.2 1.516 1.516 0 0 1-.7-.643 2.244 2.244 0 0 1-.229-.712.663.663 0 0 1 .537-.768Z"/>
  <path fill="#000" fill-rule="evenodd" d="M6.576.033a.663.663 0 0 1 .598.132c1.304 1.092 1.58 2.641 1.777 3.753.121.683.212 1.15.38 1.453.126.23.317.337.578.358.406.033.601-.074.712-.176.13-.121.234-.322.296-.604a3.24 3.24 0 0 0 .025-1.181v-.003a.663.663 0 0 1 1.154-.543c1.685 1.944 2.737 4.375 2.882 6.604.106 1.637-.351 3.21-1.54 4.367C12.253 15.345 10.434 16 7.99 16c-2.718 0-4.924-1.125-6.093-2.934-1.178-1.823-1.221-4.218.15-6.558.737-1.26 1.61-2.303 2.348-3.248.754-.963 1.372-1.829 1.73-2.813a.663.663 0 0 1 .45-.414Zm-.283 12.57c0-.521.23-.965.669-1.539.264-.345.63-.765.994-1.246.362.486.74.905 1.022 1.257.468.586.712 1.023.712 1.528 0 .662-.149 1.143-.395 1.447-.227.28-.61.5-1.304.5-.629 0-1.022-.213-1.27-.509-.263-.313-.428-.797-.428-1.438Z" clip-rule="evenodd"/>
</svg>
