<svg fill="none" viewBox="0 0 16 16" xmlns="http://www.w3.org/2000/svg">
  <g clip-path="url(#Link-16_svg__a)">
    <path fill="#000" d="M4.05 6.056a4.16 4.16 0 0 1 6.406.63c.207.309.13.714-.134.976-.237.238-.653.133-.825-.156a2.911 2.911 0 0 0-4.562-.567L2.438 9.442l-.053.053a2.911 2.911 0 0 0 4.173 4.059l1.054-1.057a.625.625 0 0 1 .884 0l.08.098a.625.625 0 0 1-.079.785l-1.055 1.057a4.16 4.16 0 0 1-5.964-5.802l.075-.076L4.05 6.056Zm4.508-4.498a4.16 4.16 0 0 1 5.883 5.884l-2.5 2.5a4.16 4.16 0 0 1-6.405-.636c-.206-.31-.129-.714.134-.977.238-.238.655-.133.827.157a2.91 2.91 0 0 0 4.56.572l2.5-2.5a2.91 2.91 0 0 0-4.116-4.116L8.384 3.499a.625.625 0 1 1-.884-.884l1.058-1.057Z"/>
  </g>
  <defs>
    <clipPath id="Link-16_svg__a">
      <path fill="#fff" d="M0 0h16v16H0z"/>
    </clipPath>
  </defs>
</svg>
