<svg fill="none" viewBox="0 0 12 12" xmlns="http://www.w3.org/2000/svg">
  <g clip-path="url(#Ai-Chat-12_svg__a)">
    <path fill="#000" d="M6 0c3.314 0 6 2.392 6 5.344 0 2.239-1.546 4.156-3.74 4.95-1.418.652-4.907 1.313-6.899 1.655a.531.531 0 0 1-.488-.877l.97-1.118c.21-.242.165-.61-.074-.822C.676 8.164 0 6.824 0 5.344 0 2.392 2.686 0 6 0Zm0 1C3.127 1 1 3.05 1 5.344c0 1.163.529 2.24 1.432 3.04.6.531.778 1.52.167 2.225l-.106.122a68.182 68.182 0 0 0 2.316-.47c1.305-.29 2.434-.6 3.035-.875l.038-.017.038-.015C9.787 8.677 11 7.092 11 5.344 11 3.05 8.873 1 6 1Zm-.285 1.453c.074-.296.496-.296.57 0l.164.658c.22.878.906 1.564 1.783 1.784l.659.164c.296.074.296.495 0 .57l-.659.165A2.45 2.45 0 0 0 6.45 7.576l-.164.658c-.074.297-.496.297-.57 0l-.165-.658a2.45 2.45 0 0 0-1.782-1.782l-.659-.165c-.296-.074-.296-.496 0-.57l.659-.164A2.45 2.45 0 0 0 5.55 3.11l.165-.658Z"/>
  </g>
  <defs>
    <clipPath id="Ai-Chat-12_svg__a">
      <path fill="#fff" d="M0 0h12v12H0z"/>
    </clipPath>
  </defs>
</svg>
