<svg fill="none" viewBox="0 0 12 12" xmlns="http://www.w3.org/2000/svg">
  <g clip-path="url(#Ai-Chat-12_svg__a)">
    <path fill="#000" fill-rule="evenodd" d="m7.844 9.386.037-.017.04-.014C9.787 8.678 11 7.092 11 5.344 11 3.05 8.873 1 6 1S1 3.05 1 5.344c0 1.163.529 2.24 1.432 3.04.6.531.778 1.52.167 2.225l-.106.122a68.173 68.173 0 0 0 2.315-.469c1.306-.29 2.436-.6 3.036-.876ZM1.361 11.95c1.992-.343 5.482-1.004 6.9-1.655C10.454 9.5 12 7.583 12 5.344 12 2.392 9.314 0 6 0S0 2.393 0 5.344c0 1.48.676 2.82 1.768 3.788.24.212.285.58.075.822l-.97 1.119a.531.531 0 0 0 .488.877Zm4.924-9.497c-.074-.297-.496-.297-.57 0l-.165.658a2.45 2.45 0 0 1-1.783 1.783l-.658.165c-.297.074-.297.496 0 .57l.658.164A2.45 2.45 0 0 1 5.55 7.576l.165.658c.074.297.496.297.57 0l.164-.658a2.45 2.45 0 0 1 1.783-1.783l.658-.164c.297-.074.297-.496 0-.57l-.658-.165A2.45 2.45 0 0 1 6.45 3.111l-.165-.658Z" clip-rule="evenodd"/>
  </g>
  <defs>
    <clipPath id="Ai-Chat-12_svg__a">
      <path fill="#fff" d="M0 0h12v12H0z"/>
    </clipPath>
  </defs>
</svg>
