<svg fill="none" viewBox="0 0 16 16" xmlns="http://www.w3.org/2000/svg">
  <path fill="#000" d="M8 0c1.524 0 2.927.172 3.969.462.516.144.98.327 1.328.557.323.214.703.575.703 1.106v3.857c0 .463-.285.798-.574 1.02a.625.625 0 0 1 .574.623v2.099c0 .447-.268.79-.547 1.03a.625.625 0 0 1 .547.621v2.028c0 .499-.345.885-.651 1.136-.337.277-.793.526-1.315.736C10.984 15.697 9.56 16 8 16c-1.56 0-2.983-.303-4.034-.725-.523-.21-.978-.46-1.315-.736-.306-.251-.651-.637-.651-1.136v-2.028c0-.319.239-.582.547-.62C2.268 10.515 2 10.17 2 9.724V7.625c0-.328.253-.597.574-.623C2.285 6.78 2 6.445 2 5.982V2.125c0-.531.38-.892.703-1.106.349-.23.812-.413 1.328-.557C5.073.172 6.476 0 8 0Zm4.777 11.194a6.23 6.23 0 0 1-.77.323c-1.049.366-2.463.608-4.007.608-1.544 0-2.958-.242-4.006-.607a6.233 6.233 0 0 1-.77-.324.626.626 0 0 1 .026.181v1.993c.01.018.052.088.194.205.207.17.539.362.988.543.895.359 2.16.634 3.568.634 1.409 0 2.673-.275 3.568-.634.45-.181.781-.374.988-.543a.777.777 0 0 0 .194-.205v-1.993c0-.063.01-.124.027-.181ZM4.89 13.082a.625.625 0 0 1 .717-.476l.032.007.112.025c.264.057.541.106.83.144a.625.625 0 1 1-.164 1.24 11.51 11.51 0 0 1-.931-.163l-.127-.028-.031-.008a.625.625 0 0 1-.438-.741Zm7.918-5.723a6.125 6.125 0 0 1-.838.298c-1.043.294-2.446.468-3.971.468s-2.928-.174-3.97-.468a6.121 6.121 0 0 1-.84-.298c.039.08.06.17.06.266v2.063a.7.7 0 0 0 .175.17c.2.152.528.322.98.479.897.313 2.17.538 3.595.538 1.425 0 2.698-.225 3.595-.538.452-.157.78-.327.98-.48a.695.695 0 0 0 .175-.169V7.625a.61.61 0 0 1 .06-.266ZM4.886 9.276a.625.625 0 0 1 .7-.5l.032.005.113.021c.266.048.546.09.837.121l.032.004a.625.625 0 0 1-.168 1.239l-.136-.016a13.025 13.025 0 0 1-.789-.118l-.125-.024-.032-.007a.625.625 0 0 1-.464-.725Zm7.864-5.758a6.321 6.321 0 0 1-.781.27c-1.042.29-2.445.462-3.969.462s-2.927-.172-3.969-.462a6.322 6.322 0 0 1-.781-.27v2.416a.682.682 0 0 0 .144.12c.196.13.52.271.975.4.903.255 2.187.421 3.631.421s2.728-.166 3.63-.421c.457-.129.78-.27.976-.4a.683.683 0 0 0 .144-.12V3.518ZM4.882 5.36a.625.625 0 0 1 .678-.53l.032.004.114.016c.23.032.47.06.72.082l.125.011.032.004a.625.625 0 0 1-.102 1.244l-.032-.002-.135-.012a15.97 15.97 0 0 1-.781-.089l-.125-.018-.032-.005a.625.625 0 0 1-.494-.705ZM8 1.25c-1.444 0-2.729.164-3.633.416-.456.128-.78.268-.975.397a1.066 1.066 0 0 0-.086.062c.022.018.05.038.086.062.195.129.519.27.975.397C5.271 2.836 6.556 3 8 3s2.729-.164 3.633-.416c.456-.128.78-.268.975-.397.036-.024.064-.044.086-.062a1.054 1.054 0 0 0-.086-.062c-.195-.129-.519-.27-.975-.397C10.729 1.414 9.444 1.25 8 1.25Z"/>
</svg>
