<svg fill="none" viewBox="0 0 16 16" xmlns="http://www.w3.org/2000/svg">
  <path fill="#000" d="M5.592 4.833a.625.625 0 1 0-.184 1.236c.33.05.679.09 1.041.12a.625.625 0 0 0 .102-1.247 14.714 14.714 0 0 1-.959-.109Zm.026 3.948a.625.625 0 0 0-.236 1.227c.333.065.685.118 1.05.158a.625.625 0 0 0 .136-1.243 11.78 11.78 0 0 1-.95-.142Zm.022 3.832a.625.625 0 0 0-.28 1.218c.335.077.69.142 1.058.19a.625.625 0 0 0 .164-1.239c-.33-.044-.645-.101-.942-.17Z"/>
  <path fill="#000" fill-rule="evenodd" d="M4.031.462C5.073.172 6.476 0 8 0s2.927.172 3.969.462c.516.144.98.327 1.328.557.324.214.703.575.703 1.106v3.857c0 .463-.285.798-.574 1.02a.625.625 0 0 1 .574.623v2.099c0 .446-.268.79-.547 1.03a.625.625 0 0 1 .547.621v2.028c0 .499-.345.885-.651 1.136-.337.277-.792.526-1.315.736C10.984 15.697 9.56 16 8 16c-1.56 0-2.983-.303-4.034-.725-.523-.21-.978-.46-1.315-.736-.306-.251-.651-.637-.651-1.136v-2.028c0-.319.239-.582.547-.62C2.268 10.515 2 10.17 2 9.724V7.625c0-.328.252-.597.574-.623C2.284 6.78 2 6.445 2 5.982V2.125c0-.531.38-.892.703-1.106.349-.23.812-.413 1.328-.557Zm7.938 3.326a6.31 6.31 0 0 0 .781-.27v2.416a.691.691 0 0 1-.144.12c-.196.13-.52.271-.975.4-.903.255-2.187.421-3.631.421s-2.728-.166-3.63-.421c-.457-.129-.78-.27-.976-.4a.689.689 0 0 1-.144-.12V3.518c.238.102.502.192.781.27 1.042.29 2.445.462 3.969.462s2.927-.172 3.969-.462Zm.002 3.869c.301-.085.585-.184.838-.298a.624.624 0 0 0-.059.266v2.063a.7.7 0 0 1-.175.17c-.2.152-.528.322-.98.479-.897.313-2.17.538-3.595.538-1.425 0-2.698-.225-3.595-.538-.452-.157-.78-.327-.98-.48a.698.698 0 0 1-.175-.169V7.625a.623.623 0 0 0-.06-.266c.254.114.538.213.84.298 1.042.294 2.445.468 3.97.468 1.525 0 2.928-.174 3.97-.468ZM3.306 2.125a1.07 1.07 0 0 1 .086-.062c.195-.13.519-.27.975-.397C5.271 1.414 6.556 1.25 8 1.25s2.729.164 3.633.416c.456.128.78.268.975.397.036.024.064.044.086.062a1.06 1.06 0 0 1-.086.062c-.195.13-.519.27-.975.397C10.729 2.836 9.444 3 8 3s-2.729-.164-3.633-.416c-.456-.128-.78-.268-.975-.397a1.07 1.07 0 0 1-.086-.062Zm-.056 9.25a.625.625 0 0 0-.027-.18c.234.118.494.226.77.322 1.049.366 2.463.608 4.007.608 1.544 0 2.958-.242 4.006-.608a6.25 6.25 0 0 0 .77-.323.627.627 0 0 0-.026.181v1.993a.783.783 0 0 1-.194.205c-.207.17-.538.362-.988.542-.895.36-2.16.635-3.568.635-1.409 0-2.673-.275-3.568-.635-.45-.18-.781-.373-.988-.542a.781.781 0 0 1-.194-.205v-1.993Z" clip-rule="evenodd"/>
</svg>
