<svg fill="none" viewBox="0 0 16 16" xmlns="http://www.w3.org/2000/svg">
  <path fill="#000" fill-rule="evenodd" d="M4 1a4 4 0 0 0-4 4v6a4 4 0 0 0 4 4h3.562c.392 0 .64-.438.5-.804a4.823 4.823 0 0 1-.03-.082.537.537 0 0 0-.498-.364H4A2.75 2.75 0 0 1 1.25 11V6.25h13.5v1.767c0 .184.102.351.258.448.075.047.15.096.222.147.298.21.77.014.77-.35V5a4 4 0 0 0-4-4H4ZM1.25 5A2.75 2.75 0 0 1 4 2.25h8A2.75 2.75 0 0 1 14.75 5H1.25Z" clip-rule="evenodd"/>
  <path fill="#000" fill-rule="evenodd" d="M16 12.5a3.5 3.5 0 1 1-7 0 3.5 3.5 0 0 1 7 0Zm-3.625-2.625a.5.5 0 0 0-.5.5v1.5h-1.5a.5.5 0 0 0-.5.5v.25a.5.5 0 0 0 .5.5h1.5v1.5a.5.5 0 0 0 .5.5h.25a.5.5 0 0 0 .5-.5v-1.5h1.5a.5.5 0 0 0 .5-.5v-.25a.5.5 0 0 0-.5-.5h-1.5v-1.5a.5.5 0 0 0-.5-.5h-.25Z" clip-rule="evenodd"/>
</svg>
