<svg fill="none" viewBox="0 0 16 16" xmlns="http://www.w3.org/2000/svg">
  <g fill="#000" clip-path="url(#Key-Login-Autofill-16_svg__a)">
    <path fill-rule="evenodd" d="M4.047.625C3.937.125 3.862 0 3.5 0c-.362 0-.438.125-.547.625-.068.31-.177 1.339-.251 2.077-.738.074-1.767.183-2.077.251-.5.11-.625.185-.625.547 0 .362.125.438.625.547.31.068 1.336.177 2.074.25.073.767.185 1.842.254 2.078.11.375.185.625.547.625.362 0 .438-.125.547-.625.068-.31.177-1.336.25-2.074.767-.073 1.842-.185 2.078-.254C6.75 3.937 7 3.862 7 3.5c0-.362-.125-.438-.625-.547-.31-.068-1.339-.177-2.077-.251-.074-.738-.183-1.767-.251-2.077Z" clip-rule="evenodd"/>
    <path d="M7.211 1.091c-.318.238-.162.708.188.897.225.12.51.133.721-.01a4.25 4.25 0 1 1 1.71 7.719c-.656-.104-1.431.022-1.986.576L5.367 12.75h-.74a.875.875 0 0 0-.876.875V14a.75.75 0 0 1-.75.75h-.25a1.5 1.5 0 0 1-1.5-1.5v-.046c0-.398.158-.78.44-1.061l4.03-4.03c.55-.55.677-1.318.578-1.97a4.253 4.253 0 0 1-.035-.308.462.462 0 0 0-.501-.43.412.412 0 0 0-.363.364c-.049.445-.105.896-.25 1.32a1.838 1.838 0 0 1-.318.584 1.543 1.543 0 0 1-.832.52.584.584 0 0 0-.275.147L.806 11.26A2.75 2.75 0 0 0 0 13.204v.046A2.75 2.75 0 0 0 2.75 16H3a2 2 0 0 0 2-2h.418c.298 0 .585-.118.796-.33l2.513-2.513c.192-.192.52-.286.906-.225a5.5 5.5 0 1 0-2.422-9.84Z"/>
    <path fill-rule="evenodd" d="M11 3a2 2 0 1 0 0 4 2 2 0 0 0 0-4Zm0 2.75a.75.75 0 1 1 0-1.5.75.75 0 0 1 0 1.5ZM4.047.625C3.937.125 3.862 0 3.5 0c-.362 0-.438.125-.547.625-.068.31-.177 1.339-.251 2.077-.738.074-1.767.183-2.077.251-.5.11-.625.185-.625.547 0 .362.125.438.625.547.31.068 1.336.177 2.074.25.073.767.185 1.842.254 2.078.11.375.185.625.547.625.362 0 .438-.125.547-.625.068-.31.177-1.336.25-2.074.767-.073 1.842-.185 2.078-.254C6.75 3.937 7 3.862 7 3.5c0-.362-.125-.438-.625-.547-.31-.068-1.339-.177-2.077-.251-.074-.738-.183-1.767-.251-2.077Z" clip-rule="evenodd"/>
    <path d="M1.25 7.5A.625.625 0 1 1 0 7.5a.625.625 0 0 1 1.25 0Z"/>
  </g>
  <defs>
    <clipPath id="Key-Login-Autofill-16_svg__a">
      <path fill="#fff" d="M0 0h16v16H0z"/>
    </clipPath>
  </defs>
</svg>
