<svg fill="none" viewBox="0 0 16 16" xmlns="http://www.w3.org/2000/svg">
  <path fill="#000" d="M5.125 0c-1.22 0-2.275.698-2.79 1.716C2.122 2.096 2 2.534 2 3v1.111a.625.625 0 1 0 1.25 0v-.986c0-.294.068-.572.188-.82.24-.407.681-.68 1.187-.68h6.75c.506 0 .948.273 1.187.68.12.248.188.526.188.82v9.75c0 .294-.068.572-.188.82-.24.407-.681.68-1.187.68h-6.75c-.506 0-.948-.273-1.187-.68a1.868 1.868 0 0 1-.188-.82v-.986a.625.625 0 1 0-1.25 0V13c0 .466.122.904.335 1.284A3.125 3.125 0 0 0 5.125 16h5.75c1.22 0 2.275-.698 2.79-1.716.213-.38.335-.818.335-1.284V3c0-.466-.122-.904-.335-1.284A3.125 3.125 0 0 0 10.875 0h-5.75Z"/>
  <path fill="#000" d="M10.942 9.433a.625.625 0 0 1 0 .884l-2.475 2.475a.625.625 0 0 1-.884 0l-2.475-2.475a.625.625 0 1 1 .884-.884l1.383 1.383V9.125c0-1.036-.84-1.875-1.875-1.875H1.625a.625.625 0 1 1 0-1.25H5.5c1.726 0 3.125 1.4 3.125 3.125v1.741l1.433-1.433a.625.625 0 0 1 .884 0Z"/>
</svg>
