<svg fill="none" viewBox="0 0 24 24" xmlns="http://www.w3.org/2000/svg">
  <path fill="#000" d="M10.783 7.656A.625.625 0 0 1 11.407 7h1.186c.358 0 .642.3.624.656l-.25 5a.625.625 0 0 1-.624.594h-.686a.625.625 0 0 1-.624-.594l-.25-5Zm2.467 8.094a1.25 1.25 0 1 1-2.5 0 1.25 1.25 0 0 1 2.5 0Z"/>
  <path fill="#000" fill-rule="evenodd" d="M15.843 4.273c-1.664-3.034-6.022-3.034-7.686 0L2.543 14.509C.941 17.43 3.055 21 6.386 21h11.228c3.332 0 5.445-3.57 3.843-6.49L15.843 4.272Zm-6.37.721c1.094-1.996 3.96-1.996 5.055 0l5.614 10.237c1.054 1.92-.336 4.269-2.528 4.269H6.386c-2.191 0-3.581-2.348-2.528-4.27L9.472 4.995Z" clip-rule="evenodd"/>
</svg>
