<svg fill="none" viewBox="0 0 24 24" xmlns="http://www.w3.org/2000/svg">
  <path fill="#000" fill-rule="evenodd" d="M8 6a4 4 0 1 1 8 0v5c0 .24-.021.476-.062.705A6.015 6.015 0 0 0 12.044 15H12a4 4 0 0 1-4-4V6Zm4-2.5A2.5 2.5 0 0 0 9.5 6v5a2.5 2.5 0 1 0 5 0V6A2.5 2.5 0 0 0 12 3.5Z" clip-rule="evenodd"/>
  <path fill="#000" d="M11.5 17.481A6.5 6.5 0 0 1 5.5 11v-.25a.75.75 0 0 0-1.5 0V11a8 8 0 0 0 7.25 7.965V20.5h-4.5a.75.75 0 1 0 0 1.5h6.781a5.985 5.985 0 0 1-2.03-4.5v-.019ZM20 11c0 .344-.021.683-.064 1.015a5.953 5.953 0 0 0-1.461-.436c.017-.19.025-.384.025-.579v-.25a.75.75 0 0 1 1.5 0V11Z"/>
  <path fill="#000" fill-rule="evenodd" d="M22 17.5a4.5 4.5 0 1 1-9 0 4.5 4.5 0 0 1 9 0Zm-7.25-.25a.5.5 0 0 1 .5-.5h4.5a.5.5 0 0 1 .5.5v.5a.5.5 0 0 1-.5.5h-4.5a.5.5 0 0 1-.5-.5v-.5Z" clip-rule="evenodd"/>
</svg>
