<svg fill="none" viewBox="0 0 24 24" xmlns="http://www.w3.org/2000/svg">
  <path fill="#000" d="M20.412 4.265a.5.5 0 0 0-.677-.676L3.622 12.17c-.164.088-.092.33.083.33h4.92a2.875 2.875 0 0 1 2.875 2.875v4.92c0 .186.248.237.33.083.085-.16.32-.154.407.005l.01.018c.34.614.343 1.48-.354 1.56-.913.107-1.893-.536-1.893-1.666v-4.92C10 14.615 9.385 14 8.625 14h-4.92c-1.745 0-2.327-2.334-.788-3.154L19.03 2.265c1.743-.929 3.634.962 2.705 2.705l-3.179 5.969c-.194.365-.593.565-1.007.562h-.026c-.414-.002-.727-.448-.532-.814l3.42-6.422Z"/>
  <path fill="#000" fill-rule="evenodd" d="M22 17.5a4.5 4.5 0 1 1-9 0 4.5 4.5 0 0 1 9 0Zm-7.25-.25a.5.5 0 0 1 .5-.5h4.5a.5.5 0 0 1 .5.5v.5a.5.5 0 0 1-.5.5h-4.5a.5.5 0 0 1-.5-.5v-.5Z" clip-rule="evenodd"/>
</svg>
