<svg fill="none" viewBox="0 0 16 16" xmlns="http://www.w3.org/2000/svg">
  <path fill="#000" fill-rule="evenodd" d="M3.25 1A3.25 3.25 0 0 0 0 4.25v7.5A3.25 3.25 0 0 0 3.25 15h9.5A3.25 3.25 0 0 0 16 11.75v-1a.75.75 0 0 0-1.5 0v1a1.75 1.75 0 0 1-1.75 1.75H6v-11h6.75c.966 0 1.75.784 1.75 1.75v1A1.75 1.75 0 0 1 12.75 7H9.56l1.22-1.22a.75.75 0 1 0-1.06-1.06l-2.5 2.5a.75.75 0 0 0 0 1.06l2.5 2.5a.75.75 0 1 0 1.06-1.06L9.56 8.5h3.19A3.25 3.25 0 0 0 16 5.25v-1A3.25 3.25 0 0 0 12.75 1h-9.5ZM4.5 2.5H3.25A1.75 1.75 0 0 0 1.5 4.25v7.5c0 .966.784 1.75 1.75 1.75H4.5v-11Z" clip-rule="evenodd"/>
</svg>
