<svg fill="none" viewBox="0 0 24 24" xmlns="http://www.w3.org/2000/svg">
  <path fill="#000" fill-rule="evenodd" d="M8.001 5.001a.75.75 0 0 1 .692.46l5.249 12.498a.75.75 0 1 1-1.383.581l-1.695-4.035H5.137L3.442 18.54a.75.75 0 1 1-1.383-.58l5.25-12.5a.75.75 0 0 1 .692-.459Zm0 2.687 2.233 5.317H5.767l2.234-5.317Zm6.837 8.725a.25.25 0 0 1-.461 0l-.583-1.387 2.766-6.567a.75.75 0 0 1 1.382 0l4 9.5a.75.75 0 0 1-1.383.582l-1.312-3.117h-3.993l-.416.989Zm3.777-2.49-1.364-3.24-1.365 3.24h2.73Z" clip-rule="evenodd"/>
</svg>
