<svg fill="none" viewBox="0 0 24 24" xmlns="http://www.w3.org/2000/svg">
  <path fill="#000" d="M12 16a4 4 0 1 0 0-8 4 4 0 0 0 0 8Z"/>
  <path fill="#000" fill-rule="evenodd" d="M12 4C9.112 4 6.815 5.267 5.161 6.855c-1.642 1.577-2.688 3.506-3.09 4.943l-.069.25.099.239c.544 1.315 1.567 3.222 3.168 4.813C6.88 18.7 9.101 20 12 20c2.9 0 5.174-1.326 6.81-2.934 1.626-1.6 2.662-3.514 3.112-4.822l.075-.217-.06-.222c-.4-1.49-1.45-3.422-3.097-4.988C17.182 5.239 14.884 4 12 4ZM6.326 16.035c-1.322-1.313-2.219-2.898-2.735-4.078.377-1.156 1.255-2.719 2.61-4.02C7.64 6.553 9.582 5.5 12 5.5c2.421 0 4.365 1.033 5.805 2.403 1.366 1.3 2.246 2.876 2.618 4.071-.421 1.107-1.312 2.691-2.666 4.022C16.322 17.41 14.406 18.5 12 18.5s-4.267-1.067-5.674-2.465Z" clip-rule="evenodd"/>
</svg>
