<svg fill="none" viewBox="0 0 16 16" xmlns="http://www.w3.org/2000/svg">
  <path fill="#000" fill-rule="evenodd" d="M4 1a4 4 0 0 0-4 4v6a4 4 0 0 0 4 4h3.5c.42 0 .686-.465.542-.858a.582.582 0 0 0-.534-.392H4A2.75 2.75 0 0 1 1.25 11V7.25h13.5v.765a.54.54 0 0 0 .26.452c.39.243.99-.011.99-.47V7a4 4 0 0 0-4-4h-2c-.59 0-1.146-.278-1.5-.75A3.125 3.125 0 0 0 6 1H4Zm10.563 5H1.25V5A2.75 2.75 0 0 1 4 2.25h2c.59 0 1.146.278 1.5.75A3.125 3.125 0 0 0 10 4.25h2A2.75 2.75 0 0 1 14.563 6Z" clip-rule="evenodd"/>
  <path fill="#000" fill-rule="evenodd" d="M16 12.5a3.5 3.5 0 1 1-7 0 3.5 3.5 0 0 1 7 0Zm-3.625-2.625a.5.5 0 0 0-.5.5v1.5h-1.5a.5.5 0 0 0-.5.5v.25a.5.5 0 0 0 .5.5h1.5v1.5a.5.5 0 0 0 .5.5h.25a.5.5 0 0 0 .5-.5v-1.5h1.5a.5.5 0 0 0 .5-.5v-.25a.5.5 0 0 0-.5-.5h-1.5v-1.5a.5.5 0 0 0-.5-.5h-.25Z" clip-rule="evenodd"/>
</svg>
