<svg fill="none" viewBox="0 0 24 24" xmlns="http://www.w3.org/2000/svg">
  <path fill="#000" fill-rule="evenodd" d="M6.969 5.5h10.063c.776 0 1.493.255 2.07.686l-5.65 4.368a2.375 2.375 0 0 1-2.904 0l-5.65-4.368A3.453 3.453 0 0 1 6.969 5.5ZM3.915 7.322A3.453 3.453 0 0 0 3.5 8.97v6.062A3.469 3.469 0 0 0 6.97 18.5h10.063a3.469 3.469 0 0 0 3.468-3.469V8.97c0-.596-.15-1.157-.415-1.647l-5.715 4.419a3.875 3.875 0 0 1-4.74 0L3.915 7.323ZM17.032 4H6.969A4.969 4.969 0 0 0 2 8.969v6.062A4.969 4.969 0 0 0 6.97 20h10.063A4.969 4.969 0 0 0 22 15.031V8.97A4.969 4.969 0 0 0 17.032 4Z" clip-rule="evenodd"/>
</svg>
