<svg fill="none" viewBox="0 0 24 24" xmlns="http://www.w3.org/2000/svg">
  <path fill="#000" fill-rule="evenodd" d="M21.794 16.542a11.508 11.508 0 0 0-.847-2.504 11.898 11.898 0 0 0-1.833-2.781 10.04 10.04 0 0 0-1.78-1.566.036.036 0 0 0 .007-.01.02.02 0 0 1 .006-.01c.533-1.046 1.084-2.082 1.621-3.125.126-.234.157-.528.091-.783a1.01 1.01 0 0 0-.423-.615.849.849 0 0 0-.708-.114.915.915 0 0 0-.557.472c-.56 1.085-1.062 2.205-1.688 3.254a9.054 9.054 0 0 0-3.674-.77c-1.266 0-2.488.283-3.655.763C7.856 7.64 7.23 6.589 6.672 5.506c-.247-.458-.815-.659-1.265-.358-.387.256-.533.756-.411 1.195.058.216.188.415.29.61.471.906.947 1.809 1.41 2.718l.006.006a10.768 10.768 0 0 0-2.892 3.031 11.764 11.764 0 0 0-1.58 3.834c-.172.77.458 1.458 1.247 1.458h17.048c.815 0 1.444-.662 1.27-1.458Zm-4.574-1.634c.399-.296.46-.985.127-1.532-.327-.553-.92-.756-1.32-.459-.399.297-.46.986-.127 1.533.327.553.92.756 1.32.459Zm-9.193-1.984c.4.297.454.979.128 1.532-.333.547-.92.756-1.32.46-.399-.298-.454-.98-.127-1.533.327-.553.92-.756 1.32-.459Z" clip-rule="evenodd"/>
</svg>
