<svg fill="none" viewBox="0 0 24 24" xmlns="http://www.w3.org/2000/svg">
  <path fill="#000" fill-rule="evenodd" d="M16.5 2A2.5 2.5 0 0 1 19 4.5v9.33l-.006.144c-.109 1.414-1.8 2.113-2.876 1.19l-.105-.098-2.147-2.143c-3.43 2.261-4.37 5.45-4.598 7.513l-.038.403a1.322 1.322 0 0 1-.908 1.156c-.44.145-1.02.06-1.372-.428l-.066-.102c-.785-1.331-1.78-3.488-1.89-6.033-.11-2.527.655-5.386 3.241-8.133L5.921 4.987C4.818 3.885 5.598 2.001 7.157 2H16.5ZM7.157 3.5a.25.25 0 0 0-.176.427l2.48 2.477c.478.476.467 1.205.086 1.685l-.081.093c-2.415 2.491-3.068 5.008-2.974 7.184.08 1.836.697 3.466 1.316 4.664.311-2.384 1.478-5.982 5.43-8.489l.095-.055a1.242 1.242 0 0 1 1.366.156l.08.07 2.294 2.294.064.046a.252.252 0 0 0 .351-.146l.012-.077V4.5a1 1 0 0 0-1-1H7.157Z" clip-rule="evenodd"/>
</svg>
