<svg fill="none" viewBox="0 0 24 24" xmlns="http://www.w3.org/2000/svg">
  <path fill="#000" d="M10.268 2.025a.751.751 0 0 1 .683.157c1.645 1.418 1.934 3.454 2.181 4.87.134.764.244 1.303.443 1.674.163.306.41.46.755.489.505.042.759-.095.91-.239.176-.167.31-.44.388-.81.077-.36.087-.745.074-1.05-.008-.204-.037-.403-.052-.605a.75.75 0 0 1 1.323-.482c2.039 2.423 3.387 5.477 3.525 8.656.04 1.9-.53 3.702-1.878 5.052C17.186 21.175 14.973 22 11.984 22c-3.324 0-6.005-1.416-7.42-3.67-1.42-2.265-1.477-5.243.186-8.168l.344-.58c.819-1.327 1.733-2.461 2.527-3.507.924-1.215 1.69-2.317 2.133-3.574a.773.773 0 0 1 .514-.476ZM14 18c0-.701-.322-1.353-.87-2.16-.32-.47-.735-1.013-1.13-1.612-.395.599-.81 1.142-1.13 1.613-.548.806-.87 1.458-.87 2.159 0 .793.236 1.376.572 1.752.331.369.806.59 1.412.59.776 0 1.238-.24 1.52-.575.3-.355.496-.93.496-1.767Zm.293-15.99a.75.75 0 0 1 .849.538l.072.335c.047.166.135.243.285.327a.75.75 0 0 1-.721 1.312c-.346-.184-.637-.429-.827-.779a2.476 2.476 0 0 1-.233-.668l-.047-.274a.75.75 0 0 1 .622-.79ZM15.5 18c0 .76-.13 1.481-.434 2.096 1.078-.323 1.896-.82 2.493-1.418 1.001-1.004 1.473-2.382 1.44-3.96-.093-2.146-.828-4.215-1.954-6.034-.125.47-.352.98-.771 1.38-.506.48-1.204.718-2.07.645a2.433 2.433 0 0 1-1.196-.405 2.413 2.413 0 0 1-.757-.871c-.332-.623-.473-1.417-.596-2.124-.202-1.15-.392-2.262-.976-3.172C10.165 5.158 9.5 6.08 8.816 6.982c-.827 1.089-1.68 2.148-2.442 3.382l-.32.54c-1.43 2.514-1.307 4.894-.219 6.628.665 1.06 1.721 1.923 3.096 2.44-.284-.574-.43-1.245-.43-1.972 0-1.18.552-2.153 1.13-3.002.61-.9 1.228-1.642 1.698-2.583.145-.245.375-.415.671-.415a.75.75 0 0 1 .671.415c.47.94 1.088 1.684 1.7 2.583.576.849 1.13 1.822 1.13 3.002Z"/>
</svg>
