<svg fill="none" viewBox="0 0 16 16" xmlns="http://www.w3.org/2000/svg">
  <path fill="#000" fill-rule="evenodd" d="M5 3.25A1.75 1.75 0 0 1 3.25 5h-.5A1.75 1.75 0 0 1 1 3.25v-.5C1 1.784 1.784 1 2.75 1h.5C4.216 1 5 1.784 5 2.75v.5Zm-1.75.5h-.5a.5.5 0 0 1-.5-.5v-.5a.5.5 0 0 1 .5-.5h.5a.5.5 0 0 1 .5.5v.5a.5.5 0 0 1-.5.5ZM5 8.25A1.75 1.75 0 0 1 3.25 10h-.5A1.75 1.75 0 0 1 1 8.25v-.5C1 6.784 1.784 6 2.75 6h.5C4.216 6 5 6.784 5 7.75v.5Zm-1.75.5h-.5a.5.5 0 0 1-.5-.5v-.5a.5.5 0 0 1 .5-.5h.5a.5.5 0 0 1 .5.5v.5a.5.5 0 0 1-.5.5Zm0 6.25A1.75 1.75 0 0 0 5 13.25v-.5A1.75 1.75 0 0 0 3.25 11h-.5A1.75 1.75 0 0 0 1 12.75v.5c0 .966.784 1.75 1.75 1.75h.5Zm-.5-1.25h.5a.5.5 0 0 0 .5-.5v-.5a.5.5 0 0 0-.5-.5h-.5a.5.5 0 0 0-.5.5v.5a.5.5 0 0 0 .5.5ZM10 3.25A1.75 1.75 0 0 1 8.25 5h-.5A1.75 1.75 0 0 1 6 3.25v-.5C6 1.784 6.784 1 7.75 1h.5C9.216 1 10 1.784 10 2.75v.5Zm-1.75.5h-.5a.5.5 0 0 1-.5-.5v-.5a.5.5 0 0 1 .5-.5h.5a.5.5 0 0 1 .5.5v.5a.5.5 0 0 1-.5.5Zm0 6.25A1.75 1.75 0 0 0 10 8.25v-.5A1.75 1.75 0 0 0 8.25 6h-.5A1.75 1.75 0 0 0 6 7.75v.5C6 9.216 6.784 10 7.75 10h.5Zm-.5-1.25h.5a.5.5 0 0 0 .5-.5v-.5a.5.5 0 0 0-.5-.5h-.5a.5.5 0 0 0-.5.5v.5a.5.5 0 0 0 .5.5Zm2.25 4.5A1.75 1.75 0 0 1 8.25 15h-.5A1.75 1.75 0 0 1 6 13.25v-.5c0-.966.784-1.75 1.75-1.75h.5c.966 0 1.75.784 1.75 1.75v.5Zm-1.75.5h-.5a.5.5 0 0 1-.5-.5v-.5a.5.5 0 0 1 .5-.5h.5a.5.5 0 0 1 .5.5v.5a.5.5 0 0 1-.5.5Zm5-8.75A1.75 1.75 0 0 0 15 3.25v-.5A1.75 1.75 0 0 0 13.25 1h-.5A1.75 1.75 0 0 0 11 2.75v.5c0 .966.784 1.75 1.75 1.75h.5Zm-.5-1.25h.5a.5.5 0 0 0 .5-.5v-.5a.5.5 0 0 0-.5-.5h-.5a.5.5 0 0 0-.5.5v.5a.5.5 0 0 0 .5.5ZM15 8.25A1.75 1.75 0 0 1 13.25 10h-.5A1.75 1.75 0 0 1 11 8.25v-.5c0-.966.784-1.75 1.75-1.75h.5c.966 0 1.75.784 1.75 1.75v.5Zm-1.75.5h-.5a.5.5 0 0 1-.5-.5v-.5a.5.5 0 0 1 .5-.5h.5a.5.5 0 0 1 .5.5v.5a.5.5 0 0 1-.5.5Z" clip-rule="evenodd"/>
</svg>
