<svg fill="none" viewBox="0 0 24 24" xmlns="http://www.w3.org/2000/svg">
  <path fill="#000" d="M7.75 7a.75.75 0 0 0 0 1.5h8.5a.75.75 0 1 0 0-1.5h-8.5ZM7 11.75a.75.75 0 0 1 .75-.75h8.5a.75.75 0 1 1 0 1.5h-8.5a.75.75 0 0 1-.75-.75ZM7.75 15a.75.75 0 0 0 0 1.5h1.5a.75.75 0 0 0 0-1.5h-1.5Z"/>
  <path fill="#000" fill-rule="evenodd" d="M3 7a5 5 0 0 1 5-5h8a5 5 0 0 1 5 5v7.539a2.88 2.88 0 0 1-.977 2.16l-5.22 4.586a2.876 2.876 0 0 1-1.897.715H8a5 5 0 0 1-5-5V7Zm5-3.5A3.5 3.5 0 0 0 4.5 7v10A3.5 3.5 0 0 0 8 20.5h4.906c.032 0 .063-.001.094-.003V17.75A3.75 3.75 0 0 1 16.75 14h2.75V7A3.5 3.5 0 0 0 16 3.5H8Zm11.033 12.071L14.5 19.555V17.75a2.25 2.25 0 0 1 2.25-2.25h2.358a1.258 1.258 0 0 1-.075.071Z" clip-rule="evenodd"/>
</svg>
