<svg fill="none" viewBox="0 0 24 24" xmlns="http://www.w3.org/2000/svg">
  <path fill="#DE5833" d="M15.875 3.625a4.5 4.5 0 0 1 4.5 4.5v2.625c0 .25-.344.78-.524.688a6.25 6.25 0 0 0-8.423 8.392c.095.187-.428.545-.678.545H8.125a4.5 4.5 0 0 1-4.5-4.5v-7.75a4.5 4.5 0 0 1 4.5-4.5h7.75Z"/>
  <path fill="url(#Add-To-Dock-Color-24-1_svg__a)" d="M16.257 3.007A5 5 0 0 1 21 8v2.916c0 .509-.612.806-1.06.567a6.467 6.467 0 0 0-.19-.097V8A3.75 3.75 0 0 0 16 4.25H8A3.75 3.75 0 0 0 4.25 8v8A3.75 3.75 0 0 0 8 19.75h3.387a6.1 6.1 0 0 0 .096.189c.24.449-.058 1.061-.566 1.061H8l-.257-.007a5 5 0 0 1-4.736-4.736L3 16V8a5 5 0 0 1 4.743-4.993L8 3h8l.257.007Z"/>
  <path fill="#EB876C" d="M12 5.75a6.25 6.25 0 0 1 6.144 5.105 6.25 6.25 0 0 0-7.288 7.288A6.25 6.25 0 0 1 12 5.75Z"/>
  <path fill="#F8BBAA" d="M12 5.75a6.25 6.25 0 0 1 6.144 5.105A6.282 6.282 0 0 0 17 10.75c-.053 0-.105.002-.157.003A5.002 5.002 0 0 0 7 12a5.002 5.002 0 0 0 3.753 4.843c-.001.052-.003.104-.003.157 0 .39.037.773.105 1.144A6.25 6.25 0 0 1 12 5.75Z"/>
  <path fill="#4CBA3C" d="M22 17a5 5 0 1 1-10 0 5 5 0 0 1 10 0Z"/>
  <path fill="url(#Add-To-Dock-Color-24-1_svg__b)" d="M20.75 17A3.75 3.75 0 1 0 17 20.75V22a5 5 0 1 1 0-10 5 5 0 0 1 0 10v-1.25A3.75 3.75 0 0 0 20.75 17Z"/>
  <path fill="#fff" d="M17 14.375c.345 0 .625.28.625.625v1.375H19l.126.013a.625.625 0 0 1 0 1.224l-.126.013h-1.375V19l-.013.126a.625.625 0 0 1-1.224 0L16.375 19v-1.375H15a.625.625 0 1 1 0-1.25h1.375V15c0-.345.28-.625.625-.625Z"/>
  <defs>
    <linearGradient id="Add-To-Dock-Color-24-1_svg__a" x1="12" x2="12" y1="3" y2="21" gradientUnits="userSpaceOnUse">
      <stop stop-color="#9A3216"/>
      <stop offset="1" stop-color="#551605"/>
    </linearGradient>
    <linearGradient id="Add-To-Dock-Color-24-1_svg__b" x1="17" x2="17" y1="12" y2="22" gradientUnits="userSpaceOnUse">
      <stop stop-color="#399F29"/>
      <stop offset="1" stop-color="#288419"/>
    </linearGradient>
  </defs>
</svg>
