<svg fill="none" viewBox="0 0 16 16" xmlns="http://www.w3.org/2000/svg">
  <path fill="#000" fill-rule="evenodd" d="M4 1a4 4 0 0 0-4 4v4.375a.625.625 0 1 0 1.25 0V7.25h13.5V11A2.75 2.75 0 0 1 12 13.75H7.158a.625.625 0 1 0 0 1.25H12a4 4 0 0 0 4-4V7a4 4 0 0 0-4-4h-2c-.59 0-1.146-.278-1.5-.75A3.125 3.125 0 0 0 6 1H4Zm10.563 5H1.25V5A2.75 2.75 0 0 1 4 2.25h2c.59 0 1.146.278 1.5.75A3.125 3.125 0 0 0 10 4.25h2A2.75 2.75 0 0 1 14.563 6Z" clip-rule="evenodd"/>
  <path fill="#000" d="M0 14.375a.625.625 0 1 0 1.25 0v-.5c0-.898.728-1.625 1.625-1.625h2.166l-1.646 1.975a.625.625 0 1 0 .96.8l2.493-2.992a.62.62 0 0 0 .091-.677.62.62 0 0 0-.09-.14l-2.495-2.99a.625.625 0 1 0-.96.8L5.04 11H2.875A2.875 2.875 0 0 0 0 13.875v.5Z"/>
</svg>
