<svg fill="none" viewBox="0 0 12 12" xmlns="http://www.w3.org/2000/svg">
  <g fill="#000" clip-path="url(#Assist-Alt-12_svg__a)">
    <path d="M8.228.287c-.092-.368-.614-.368-.706 0l-.233.93A3.19 3.19 0 0 1 4.967 3.54l-.93.233c-.368.092-.368.614 0 .706l.93.233c.362.09.698.241.998.441L3.066 8.055l.885.884 2.898-2.902c.2.3.35.635.44.995l.233.931c.092.368.614.368.706 0l.232-.93a3.19 3.19 0 0 1 2.322-2.322l.931-.233c.368-.092.368-.614 0-.706l-.931-.233A3.19 3.19 0 0 1 8.46 1.218L8.228.287ZM1.487 11.396l1.563-1.53-.874-.894-1.564 1.531a.625.625 0 0 0 .875.893Z"/>
  </g>
  <defs>
    <clipPath id="Assist-Alt-12_svg__a">
      <path fill="#fff" d="M0 0h12v12H0z"/>
    </clipPath>
  </defs>
</svg>
