<svg fill="none" viewBox="0 0 24 24" xmlns="http://www.w3.org/2000/svg">
  <path fill="#000" d="M11 7a1 1 0 1 1-2 0 1 1 0 0 1 2 0Zm6 2a1 1 0 1 1-2 0 1 1 0 0 1 2 0Zm-9 2a1 1 0 1 1-2 0 1 1 0 0 1 2 0Zm1 4a1 1 0 1 1-2 0 1 1 0 0 1 2 0Zm4 2a1 1 0 1 1-2 0 1 1 0 0 1 2 0Zm0-5a1 1 0 1 1-2 0 1 1 0 0 1 2 0Zm5 2a1 1 0 1 1-2 0 1 1 0 0 1 2 0Z"/>
  <path fill="#000" fill-rule="evenodd" d="M12 2C6.477 2 2 6.477 2 12s4.477 10 10 10 10-4.477 10-10S17.523 2 12 2ZM3.5 12a8.5 8.5 0 1 1 17 0 8.5 8.5 0 0 1-17 0Z" clip-rule="evenodd"/>
</svg>
