<svg fill="none" viewBox="0 0 16 16" xmlns="http://www.w3.org/2000/svg">
  <path fill="#000" d="M5 1a4 4 0 0 0-4 4v6a4 4 0 0 0 4 4h6a3.998 3.998 0 0 0 3.739-2.583c.21-.566-.453-.894-.904-.492l-.13.115a3.115 3.115 0 0 0-.46.55A2.747 2.747 0 0 1 11 13.75H5A2.75 2.75 0 0 1 2.25 11V5A2.75 2.75 0 0 1 5 2.25h6c.639 0 1.227.218 1.694.583.074.059.15.117.229.168l.67.433c.513.331 1.096-.1.763-.612A3.997 3.997 0 0 0 11 1H5Z"/>
  <path fill="#000" fill-rule="evenodd" d="M14.07 8.25H9A2.75 2.75 0 0 0 6.25 11 .625.625 0 1 1 5 11a4 4 0 0 1 4-4h5.07l-1.877-1.799a.625.625 0 1 1 .864-.902L15.563 6.7a1.281 1.281 0 0 1 0 1.85l-2.506 2.401a.625.625 0 1 1-.864-.902L14.07 8.25Z" clip-rule="evenodd"/>
</svg>
