<svg fill="none" viewBox="0 0 24 24" xmlns="http://www.w3.org/2000/svg">
  <path fill="#000" fill-rule="evenodd" d="M12 7a5 5 0 1 1 0 10 5 5 0 0 1 0-10Zm0 1.5a3.5 3.5 0 1 0 0 7 3.5 3.5 0 0 0 0-7Z" clip-rule="evenodd"/>
  <path fill="#000" fill-rule="evenodd" d="M12.875 2a3.73 3.73 0 0 1 3.451 2.315l.018.044.033.076A2.159 2.159 0 0 0 18.342 5.7 3.658 3.658 0 0 1 22 9.358V16a5 5 0 0 1-5 5H7a5 5 0 0 1-5-5V9.328A3.63 3.63 0 0 1 5.63 5.7c.88 0 1.672-.544 1.985-1.367A3.624 3.624 0 0 1 11.001 2h1.874Zm-1.874 1.5c-.88 0-1.67.544-1.984 1.367A3.626 3.626 0 0 1 5.629 7.2 2.13 2.13 0 0 0 3.5 9.328V16A3.5 3.5 0 0 0 7 19.5h10a3.5 3.5 0 0 0 3.5-3.5V9.358A2.158 2.158 0 0 0 18.342 7.2a3.66 3.66 0 0 1-3.331-2.144l-.055-.127-.017-.044A2.23 2.23 0 0 0 12.875 3.5h-1.874Z" clip-rule="evenodd"/>
</svg>
