<svg fill="none" viewBox="0 0 24 24" xmlns="http://www.w3.org/2000/svg">
  <path fill="#63C853" fill-rule="evenodd" d="M12 22c5.523 0 10-4.477 10-10S17.523 2 12 2 2 6.477 2 12s4.477 10 10 10Z" clip-rule="evenodd"/>
  <path fill="#fff" d="M8.767 6.173a.75.75 0 0 1 .96 1.153L8.436 8.404a2.6 2.6 0 0 0 .076 4.053l.175.124c.42.273.91.42 1.414.42h6.073l-2.175-2.51-.047-.06a.75.75 0 0 1 1.127-.978l.053.055 2.257 2.604c.763.88.812 2.162.144 3.094l-.144.181-2.257 2.604a.75.75 0 0 1-1.133-.983l2.173-2.508H10.1a4.101 4.101 0 0 1-2.23-.66l-.276-.195a4.1 4.1 0 0 1-.12-6.394l1.293-1.078Z"/>
</svg>
