<svg fill="none" viewBox="0 0 12 12" xmlns="http://www.w3.org/2000/svg">
  <g fill="#000" clip-path="url(#Maps-12_svg__a)">
    <path d="M6 6.25a1.25 1.25 0 1 0 0-2.5 1.25 1.25 0 0 0 0 2.5Z"/>
    <path fill-rule="evenodd" d="M10.62 3.087a5 5 0 1 0-8.156 5.449 75.277 75.277 0 0 1 2.499 2.59 16.314 16.314 0 0 1 .519.6l.014.018v.001a.625.625 0 0 0 .995.017l.005-.006.021-.027.104-.123a23.5 23.5 0 0 1 .486-.549 75.763 75.763 0 0 1 2.429-2.521 5 5 0 0 0 1.083-5.45Zm-4.438 7.13c-.065.07-.124.136-.179.197l-.114-.127a76.533 76.533 0 0 0-2.54-2.635 3.75 3.75 0 1 1 5.303 0 76.959 76.959 0 0 0-2.47 2.564Z" clip-rule="evenodd"/>
  </g>
  <defs>
    <clipPath id="Maps-12_svg__a">
      <path fill="#fff" d="M0 0h12v12H0z"/>
    </clipPath>
  </defs>
</svg>
