<svg fill="none" viewBox="0 0 16 16" xmlns="http://www.w3.org/2000/svg">
  <path fill="#000" fill-rule="evenodd" d="M3.031.462C4.073.172 5.476 0 7 0s2.927.172 3.969.462c.516.144.98.327 1.328.557.324.214.703.575.703 1.106v2.299c0 .35-.321.61-.67.587-.315-.02-.58-.27-.58-.585v-.908a6.322 6.322 0 0 1-.781.27c-1.042.29-2.445.462-3.969.462s-2.927-.172-3.969-.462a6.321 6.321 0 0 1-.781-.27v2.416a.689.689 0 0 0 .144.12c.196.13.52.271.975.4.903.255 2.187.421 3.631.421.429 0 .707.525.516.91l-.015.03a.532.532 0 0 1-.471.31c-.323 0-.645-.007-.968-.022-1.157-.056-2.208-.213-3.033-.446a6.128 6.128 0 0 1-.838-.298.624.624 0 0 1 .059.266v2.063a.698.698 0 0 0 .175.17c.2.152.528.322.98.479.792.276 1.878.484 3.102.529.3.01.57.187.69.46l.011.025c.157.355-.101.779-.489.771-.26-.005-.521-.017-.782-.036-1.124-.082-2.141-.29-2.943-.569a6.248 6.248 0 0 1-.77-.323.625.625 0 0 1 .026.181v1.993a.75.75 0 0 0 .194.205c.207.17.539.362.988.542.895.36 2.16.635 3.568.635.706 0 1.376-.07 1.98-.183a.766.766 0 0 1 .706.253c.303.36.098.862-.364.954A11.97 11.97 0 0 1 7 16c-1.56 0-2.983-.303-4.034-.725-.523-.21-.978-.46-1.315-.736-.306-.251-.651-.637-.651-1.136v-2.028c0-.319.238-.582.547-.62C1.268 10.515 1 10.17 1 9.724V7.625c0-.328.252-.597.574-.623C1.284 6.78 1 6.445 1 5.982V2.125c0-.531.38-.892.703-1.106.349-.23.812-.413 1.328-.557Zm-.725 1.663a1.07 1.07 0 0 1 .086-.062c.195-.13.519-.27.975-.397C4.271 1.414 5.556 1.25 7 1.25s2.729.164 3.633.416c.456.128.78.268.975.397.036.024.064.044.086.062a1.06 1.06 0 0 1-.086.062c-.195.13-.519.27-.975.397C9.729 2.836 8.444 3 7 3s-2.729-.164-3.633-.416c-.456-.128-.78-.268-.975-.397a1.07 1.07 0 0 1-.086-.062Zm-.068 3.792.002.003a.02.02 0 0 1-.002-.003Z" clip-rule="evenodd"/>
  <path fill="#000" fill-rule="evenodd" d="M8 10a4 4 0 1 1 8 0c0 1.255-.75 2.226-1.466 3.05-.134.155-.268.306-.4.455-.618.694-1.196 1.345-1.569 2.136a.625.625 0 0 1-1.13 0c-.373-.791-.951-1.441-1.568-2.136-.133-.149-.267-.3-.402-.455C8.75 12.226 8 11.255 8 10Zm4 1.375a1.375 1.375 0 1 0 0-2.75 1.375 1.375 0 0 0 0 2.75Z" clip-rule="evenodd"/>
</svg>
