<svg fill="none" viewBox="0 0 16 16" xmlns="http://www.w3.org/2000/svg">
  <path fill="#000" fill-rule="evenodd" d="M7 0c1.524 0 2.927.172 3.969.462.516.144.98.327 1.328.557.323.214.703.575.703 1.106v2.299c0 .35-.321.61-.67.587-.315-.02-.58-.27-.58-.585v-.908a6.321 6.321 0 0 1-.781.27c-1.042.29-2.445.462-3.969.462s-2.927-.172-3.969-.462a6.322 6.322 0 0 1-.781-.27v2.416a.682.682 0 0 0 .144.12c.196.13.52.271.975.4 1.158.327 2.384.437 3.596.428.443-.003.731.534.537.932a.537.537 0 0 1-.471.311c-1.343.007-2.71-.103-4.002-.468a6.121 6.121 0 0 1-.838-.298c.038.08.059.17.059.266v2.063a.7.7 0 0 0 .175.17c.2.152.528.322.98.479 1.033.36 2.146.51 3.241.534.26.006.487.2.569.447.127.386-.13.813-.537.806-1.25-.021-2.508-.197-3.684-.607a6.233 6.233 0 0 1-.77-.323.626.626 0 0 1 .026.181v1.993c.01.018.052.088.194.205.207.17.539.362.988.543.895.359 2.16.634 3.568.634.706 0 1.376-.07 1.98-.183a.765.765 0 0 1 .706.253c.303.36.097.862-.364.954A11.96 11.96 0 0 1 7 16c-1.56 0-2.983-.303-4.034-.725-.523-.21-.978-.46-1.315-.736-.306-.251-.651-.637-.651-1.136v-2.028c0-.319.239-.582.547-.62C1.268 10.515 1 10.17 1 9.724V7.625c0-.328.253-.597.574-.623C1.285 6.78 1 6.445 1 5.982V2.125c0-.531.38-.892.703-1.106.349-.23.812-.413 1.328-.557C4.073.172 5.476 0 7 0Zm0 1.25c-1.444 0-2.729.164-3.633.416-.456.128-.78.268-.975.397a1.066 1.066 0 0 0-.086.062c.022.018.05.038.086.062.195.129.519.27.975.397C4.271 2.836 5.556 3 7 3s2.729-.164 3.633-.416c.456-.128.78-.268.975-.397.036-.024.064-.044.086-.062a1.054 1.054 0 0 0-.086-.062c-.195-.129-.519-.27-.975-.397C9.729 1.414 8.444 1.25 7 1.25Z" clip-rule="evenodd"/>
  <path fill="#000" fill-rule="evenodd" d="M12 6a4 4 0 0 1 4 4c0 1.255-.75 2.226-1.466 3.05-.76.877-1.516 1.63-1.968 2.591a.625.625 0 0 1-1.132 0c-.452-.961-1.208-1.714-1.969-2.59C8.75 12.225 8 11.254 8 10a4 4 0 0 1 4-4Zm0 2.625a1.375 1.375 0 1 0 0 2.75 1.375 1.375 0 0 0 0-2.75Z" clip-rule="evenodd"/>
</svg>
