<svg fill="none" viewBox="0 0 12 12" xmlns="http://www.w3.org/2000/svg">
  <g fill="#000" clip-path="url(#Wand-12_svg__a)">
    <path d="M2.579 10.344a.625.625 0 1 0-.884-.884l-.501.501a.625.625 0 0 0 .884.884l.5-.501Zm5.488-5.527a.625.625 0 0 0-.884-.884L5.125 5.991a.635.635 0 0 0-.03.028l-.568.569a.635.635 0 0 0-.028.03L3.183 7.932a.625.625 0 1 0 .884.884l4-4Zm2.673-3.529a.625.625 0 0 1 0 .884l-.57.57a.625.625 0 0 1-.883-.884l.569-.57a.625.625 0 0 1 .884 0ZM7.644-.003c.345 0 .625.28.625.625v.806a.625.625 0 0 1-1.25 0V.622c0-.345.28-.625.625-.625Zm.604 7.336a.625.625 0 1 0-1.25 0v.805a.625.625 0 1 0 1.25 0v-.805ZM4.541 1.274a.625.625 0 0 1 .884 0l.57.569a.625.625 0 1 1-.884.884l-.57-.57a.625.625 0 0 1 0-.883Zm5.615 4.76a.625.625 0 0 0-.884.883l.569.57a.625.625 0 0 0 .884-.884l-.57-.57ZM3.25 4.37c0-.345.28-.625.625-.625h.805a.625.625 0 0 1 0 1.25h-.805a.625.625 0 0 1-.625-.625Zm7.336-.604a.625.625 0 1 0 0 1.25h.805a.625.625 0 1 0 0-1.25h-.805Z"/>
  </g>
  <defs>
    <clipPath id="Wand-12_svg__a">
      <path fill="#fff" d="M0 0h12v12H0z"/>
    </clipPath>
  </defs>
</svg>
