<svg fill="none" viewBox="0 0 24 24" xmlns="http://www.w3.org/2000/svg">
  <path fill="url(#Siri-Color-24_svg__a)" d="M2 12C2 6.477 6.477 2 12 2s10 4.477 10 10-4.477 10-10 10S2 17.523 2 12Z"/>
  <path fill="url(#Siri-Color-24_svg__b)" d="M2 12C2 6.477 6.477 2 12 2s10 4.477 10 10-4.477 10-10 10S2 17.523 2 12Z"/>
  <path fill="#040B24" fill-opacity=".3" fill-rule="evenodd" d="M3.5 12a8.5 8.5 0 1 0 17 0 8.5 8.5 0 0 0-17 0ZM12 2C6.477 2 2 6.477 2 12s4.477 10 10 10 10-4.477 10-10S17.523 2 12 2Z" clip-rule="evenodd"/>
  <path fill="#fff" fill-rule="evenodd" d="M20.667 12v.005a8.667 8.667 0 1 1-17.332-.148l-.002-.128h.005a8.667 8.667 0 0 1 17.305-.379c.016.123.024.25.024.38h-.004c.002.09.004.18.004.27Zm-15.832-.133c.037-1.424.655-2.266 1.38-2.679.778-.442 1.77-.447 2.58-.011.943.508 2.265 1.597 3.567 2.718.245.211.49.424.728.631.38.33.745.647 1.075.927.531.45 1.026.852 1.396 1.083.767.48 1.918.725 2.946.471a7.168 7.168 0 0 1-12.473.965c1.083.369 2.3.296 3.35-.047 1.022-.334 2.176-1.038 3.145-1.774.33-.25.37-.725.104-1.043A.782.782 0 0 0 11.564 13c-.874.657-1.853 1.24-2.647 1.5-.973.318-2.019.293-2.781-.113-.686-.364-1.266-1.102-1.3-2.52ZM19.167 12c0 .546-.135.884-.293 1.096a1.219 1.219 0 0 1-.667.44c-.608.173-1.38.023-1.851-.272-.264-.165-.679-.495-1.221-.955-.325-.276-.677-.581-1.049-.904l-.745-.646c-1.271-1.095-2.72-2.302-3.835-2.903a4.223 4.223 0 0 0-3.08-.361A7.169 7.169 0 0 1 18.599 9.2c-.908-.214-1.95-.059-2.72.422-.19.119-.47.319-.765.544a.724.724 0 0 0-.104 1.043.78.78 0 0 0 1.068.108 9.09 9.09 0 0 1 .596-.422c.444-.278 1.13-.373 1.684-.209.266.079.464.207.593.361a.93.93 0 0 1 .2.46c.011.163.017.327.017.493Z" clip-rule="evenodd"/>
  <defs>
    <radialGradient id="Siri-Color-24_svg__b" cx="0" cy="0" r="1" gradientTransform="rotate(57.995 -2.251 9.502) scale(11.7925)" gradientUnits="userSpaceOnUse">
      <stop stop-color="#FEAA37"/>
      <stop offset=".965" stop-color="#FEAA37" stop-opacity="0"/>
    </radialGradient>
    <linearGradient id="Siri-Color-24_svg__a" x1="3.563" x2="22" y1="19.813" y2="5.438" gradientUnits="userSpaceOnUse">
      <stop offset=".085" stop-color="#2CC1FF"/>
      <stop offset=".835" stop-color="#FF2C63"/>
    </linearGradient>
  </defs>
</svg>
