<svg fill="none" viewBox="0 0 24 24" xmlns="http://www.w3.org/2000/svg">
  <path fill="#000" d="M17.5 11.25v1.5a.75.75 0 0 0 1.5 0v-1.5a.75.75 0 1 0-1.5 0Z"/>
  <path fill="#000" fill-rule="evenodd" d="M5.875 4A3.875 3.875 0 0 0 2 7.875v8.25A3.875 3.875 0 0 0 5.875 20h12.25A3.875 3.875 0 0 0 22 16.125v-8.25A3.875 3.875 0 0 0 18.125 4H5.875ZM3.5 7.875A2.375 2.375 0 0 1 5.875 5.5h12.25A2.375 2.375 0 0 1 20.5 7.875v8.25a2.375 2.375 0 0 1-2.375 2.375H5.875A2.375 2.375 0 0 1 3.5 16.125v-8.25Z" clip-rule="evenodd"/>
</svg>
