<svg fill="none" viewBox="0 0 16 16" xmlns="http://www.w3.org/2000/svg">
  <g fill="#000" clip-path="url(#Fire-Tab-16_svg__a)">
    <path d="M10.177.013a.625.625 0 0 1 .738.487c.035.171.065.248.095.294.018.029.055.076.18.127a.625.625 0 0 1-.47 1.158 1.578 1.578 0 0 1-.76-.607A2.065 2.065 0 0 1 9.69.75a.625.625 0 0 1 .487-.738Zm-3.81.01a.625.625 0 0 1 .535.096c1.5 1.084 1.82 2.64 2.054 3.77l.03.141c.127.61.23 1.023.41 1.306.139.218.338.383.806.416.533.037.82-.087.983-.218.173-.137.29-.347.36-.62.069-.272.079-.565.067-.802a3.378 3.378 0 0 0-.036-.35l-.002-.009v-.007l-.001-.002a.625.625 0 0 1 1.054-.562c1.952 1.944 3.185 4.388 3.355 6.646.1 1.311-.216 2.567-1.016 3.6a.52.52 0 0 1-.414.197.552.552 0 0 1-.552-.552v-.19c0-.162.055-.318.144-.454.473-.723.662-1.578.592-2.507-.114-1.506-.805-3.188-1.978-4.707l-.002.008c-.112.439-.339.928-.791 1.289-.462.368-1.08.541-1.851.487-.836-.06-1.407-.417-1.773-.992-.325-.51-.462-1.16-.58-1.722l-.01-.05c-.198-.952-.388-1.862-1.023-2.595-.504.879-1.176 1.66-1.863 2.418l-.429.47c-.762.831-1.529 1.667-2.198 2.654-1.265 1.864-1.23 3.606-.377 4.931A.83.83 0 0 1 2 12.56v.315c0 .414-.395.826-.7.547a2.318 2.318 0 0 1-.271-.318c-1.376-1.837-1.425-4.267.175-6.624.725-1.069 1.561-1.98 2.324-2.812a49.8 49.8 0 0 0 .41-.45C4.82 2.247 5.543 1.374 5.96.384a.625.625 0 0 1 .408-.36Z"/>
    <path d="M5.875 8A2.875 2.875 0 0 0 3 10.875v2.25c0 .898-.728 1.625-1.625 1.625H1A.625.625 0 1 0 1 16h.375a2.875 2.875 0 0 0 2.875-2.875v-2.25c0-.897.728-1.625 1.625-1.625h4.25c.898 0 1.625.728 1.625 1.625v2.25A2.875 2.875 0 0 0 14.625 16H15a.625.625 0 1 0 0-1.25h-.375A1.625 1.625 0 0 1 13 13.125v-2.25A2.875 2.875 0 0 0 10.125 8h-4.25Z"/>
  </g>
  <defs>
    <clipPath id="Fire-Tab-16_svg__a">
      <path fill="#fff" d="M0 0h16v16H0z"/>
    </clipPath>
  </defs>
</svg>
