<svg fill="none" viewBox="0 0 12 12" xmlns="http://www.w3.org/2000/svg">
  <path fill="#000" d="M6.001 1C3.837 1 1.768 1.928.19 3.575a.625.625 0 1 0 .903.865c1.362-1.42 3.113-2.19 4.91-2.19 1.796 0 3.547.77 4.908 2.192a.625.625 0 0 0 .903-.865C10.235 1.93 8.166 1 6.001 1Z"/>
  <path fill="#000" d="M6.001 3.875c-1.546 0-3.018.665-4.137 1.835a.625.625 0 0 0 .903.864c.903-.944 2.057-1.45 3.234-1.449 1.177 0 2.33.506 3.233 1.45a.625.625 0 1 0 .904-.863C9.019 4.54 7.547 3.875 6.001 3.875Z"/>
  <path fill="#000" d="M3.537 7.846c.66-.694 1.535-1.096 2.464-1.096.928 0 1.804.403 2.463 1.097a.625.625 0 0 1-.907.86C7.114 8.24 6.557 8 6 8c-.556 0-1.113.24-1.557.707a.625.625 0 0 1-.906-.86Zm2.465 1.779a.642.642 0 0 0-.555.314.87.87 0 0 0-.103.24l-.008.027-.003.009v.005h-.001l.606.155-.606-.154a.625.625 0 0 0 .668.776.625.625 0 0 0 .668-.776l-.602.153.602-.153v-.003l-.001-.003-.003-.01a1.313 1.313 0 0 0-.036-.113.875.875 0 0 0-.075-.153.642.642 0 0 0-.551-.314Z"/>
</svg>
