<svg fill="none" viewBox="0 0 24 24" xmlns="http://www.w3.org/2000/svg">
  <path fill="#000" fill-rule="evenodd" d="m15.425 12.485 1.045 1.045a.75.75 0 1 0 1.06-1.06l-1.05-1.05 1.108-1.119 2.528-2.528c.102-.102.195-.21.277-.323a2.732 2.732 0 0 0-3.8-3.873c-.129.09-.251.192-.366.307l-2.831 2.831-.814.806-1.051-1.052A.75.75 0 1 0 10.47 7.53l1.046 1.047L3.84 16.18a2.815 2.815 0 1 0 3.98 3.98l7.606-7.676Zm-1.06-1.06-7.611 7.681a1.315 1.315 0 1 1-1.86-1.86l7.683-7.609 1.787 1.787Z" clip-rule="evenodd"/>
</svg>
