<svg fill="none" viewBox="0 0 16 16" xmlns="http://www.w3.org/2000/svg">
  <g fill="#000" clip-path="url(#Ai-Chat-Solid-New-16_svg__a)">
    <path d="M2.458 13.272c.28-.322.22-.813-.1-1.096C.902 10.886 0 9.1 0 7.125 0 3.19 3.582 0 8 0s8 3.19 8 7.125c0 .377-.033.748-.096 1.11-.064.362-.504.485-.812.284a4.728 4.728 0 0 0-3.177-.733.146.146 0 0 1-.165-.144v-.004c0-.063.043-.117.104-.133.396-.099.396-.661 0-.76l-.877-.22A3.267 3.267 0 0 1 8.6 4.15l-.22-.878c-.099-.396-.661-.396-.76 0l-.22.878a3.267 3.267 0 0 1-2.376 2.376l-.878.22c-.396.099-.396.661 0 .76l.878.22A3.267 3.267 0 0 1 7.4 10.102l.22.877c.02.08.055.163.091.247.066.154.134.312.108.463a4.78 4.78 0 0 0 .188 2.357c.104.301-.052.645-.362.72-1.985.477-4.258.897-5.83 1.167-.665.114-1.092-.66-.65-1.17l1.293-1.491Z"/>
    <path fill-rule="evenodd" d="M16 12.5a3.5 3.5 0 1 1-7 0 3.5 3.5 0 0 1 7 0Zm-3.625-2.625a.5.5 0 0 0-.5.5v1.5h-1.5a.5.5 0 0 0-.5.5v.25a.5.5 0 0 0 .5.5h1.5v1.5a.5.5 0 0 0 .5.5h.25a.5.5 0 0 0 .5-.5v-1.5h1.5a.5.5 0 0 0 .5-.5v-.25a.5.5 0 0 0-.5-.5h-1.5v-1.5a.5.5 0 0 0-.5-.5h-.25Z" clip-rule="evenodd"/>
  </g>
  <defs>
    <clipPath id="Ai-Chat-Solid-New-16_svg__a">
      <path fill="#fff" d="M0 0h16v16H0z"/>
    </clipPath>
  </defs>
</svg>
