<svg fill="none" viewBox="0 0 16 16" xmlns="http://www.w3.org/2000/svg">
  <g fill="#000" clip-path="url(#Player-Video-Auto-16_svg__a)">
    <path d="M10.933.182a.626.626 0 0 1 .786-.08l.098.08 2 2a.626.626 0 0 1 0 .885l-2 2a.626.626 0 0 1-.884-.885l.932-.932H4A2.75 2.75 0 0 0 1.25 6v4A2.75 2.75 0 0 0 4 12.75h8A2.75 2.75 0 0 0 14.75 10V6A.625.625 0 0 1 16 6v4a4 4 0 0 1-4 4H4a4 4 0 0 1-4-4V6a4 4 0 0 1 4-4h7.865l-.932-.933-.08-.098a.626.626 0 0 1 .08-.787Z"/>
    <path d="M6 5.786c0-.6.67-.958 1.169-.622l3.284 2.215a.75.75 0 0 1 0 1.243L7.17 10.837A.75.75 0 0 1 6 10.215v-4.43Z"/>
  </g>
  <defs>
    <clipPath id="Player-Video-Auto-16_svg__a">
      <path fill="#fff" d="M0 0h16v16H0z"/>
    </clipPath>
  </defs>
</svg>
