<svg fill="none" viewBox="0 0 24 24" xmlns="http://www.w3.org/2000/svg">
  <path fill="#000" fill-rule="evenodd" d="M9.942 3.284c.846-1.7 3.27-1.7 4.117 0l1.639 3.289a.8.8 0 0 0 .602.435l3.64.524c1.894.272 2.646 2.602 1.27 3.93l-2.615 2.525a.8.8 0 0 0-.232.712l.62 3.58c.324 1.875-1.64 3.311-3.329 2.432l-3.284-1.71a.8.8 0 0 0-.74 0l-3.284 1.71c-1.688.88-3.653-.557-3.328-2.433l.62-3.579a.8.8 0 0 0-.233-.712l-2.614-2.524c-1.377-1.329-.624-3.659 1.27-3.931l3.64-.524a.8.8 0 0 0 .602-.435l1.639-3.29Zm2.774.669a.8.8 0 0 0-1.432 0L9.645 7.242a2.3 2.3 0 0 1-1.73 1.25l-3.641.524a.8.8 0 0 0-.442 1.368l2.615 2.524a2.3 2.3 0 0 1 .669 2.047l-.62 3.58a.8.8 0 0 0 1.158.846l3.284-1.71a2.3 2.3 0 0 1 2.124 0l3.285 1.71a.8.8 0 0 0 1.157-.847l-.62-3.579a2.3 2.3 0 0 1 .67-2.047l2.614-2.524a.8.8 0 0 0-.441-1.368l-3.64-.524a2.3 2.3 0 0 1-1.732-1.25l-1.639-3.29Z" clip-rule="evenodd"/>
</svg>
