<svg fill="none" viewBox="0 0 16 16" xmlns="http://www.w3.org/2000/svg">
  <path fill="#000" d="M2.625 6c.345 0 .625.28.625.625V7a4.75 4.75 0 0 0 4.56 4.745 4.724 4.724 0 0 0 .661 3.27c.242.387-.01.985-.465.985H3.625a.625.625 0 1 1 0-1.25h3.75v-1.783A6 6 0 0 1 2 7v-.375C2 6.28 2.28 6 2.625 6Z"/>
  <path fill="#000" fill-rule="evenodd" d="M8.125 0A2.875 2.875 0 0 1 11 2.875v4.25c0 .322-.056.632-.153.92a4.765 4.765 0 0 0-2.371 1.93 2.896 2.896 0 0 1-.351.025h-.25A2.875 2.875 0 0 1 5 7.125v-4.25A2.875 2.875 0 0 1 7.875 0h.25Zm-.25 1.25c-.897 0-1.625.728-1.625 1.625v4.25c0 .897.728 1.625 1.625 1.625h.25c.897 0 1.625-.728 1.625-1.625v-4.25c0-.897-.728-1.625-1.625-1.625h-.25Z" clip-rule="evenodd"/>
  <path fill="#000" d="M13.375 6c.345 0 .625.28.625.625V7c0 .132-.005.264-.014.394-.02.304-.326.49-.626.434a4.735 4.735 0 0 0-.67-.074c.039-.246.06-.497.06-.754v-.375c0-.345.28-.625.625-.625Z"/>
  <path fill="#000" fill-rule="evenodd" d="M12.5 9a3.5 3.5 0 1 1 0 7 3.5 3.5 0 0 1 0-7Zm-2.125 2.875a.5.5 0 0 0-.5.5v.25a.5.5 0 0 0 .5.5h4.25a.5.5 0 0 0 .5-.5v-.25a.5.5 0 0 0-.5-.5h-4.25Z" clip-rule="evenodd"/>
</svg>
