<svg fill="none" viewBox="0 0 24 24" xmlns="http://www.w3.org/2000/svg">
  <path fill="#000" fill-rule="evenodd" d="M12 22c5.523 0 10-4.477 10-10S17.523 2 12 2 2 6.477 2 12s4.477 10 10 10Zm-.565-14.895a3.697 3.697 0 0 1 5.229 0l.253.253a3.697 3.697 0 0 1 0 5.229l-1.335 1.334a3.697 3.697 0 0 1-5.229 0l-.126-.126a.75.75 0 1 1 1.06-1.06l.127.126c.858.858 2.25.858 3.107 0l1.335-1.335a2.197 2.197 0 0 0 0-3.107l-.253-.253a2.197 2.197 0 0 0-3.107 0l-.079.078a.75.75 0 0 1-1.06-1.06l.078-.079Zm1.128 9.814a3.697 3.697 0 0 1-5.229 0l-.253-.253a3.697 3.697 0 0 1 0-5.229l1.356-1.355a3.697 3.697 0 0 1 5.229 0l.126.126a.75.75 0 1 1-1.06 1.061l-.127-.126a2.197 2.197 0 0 0-3.108 0l-1.355 1.355a2.197 2.197 0 0 0 0 3.107l.253.253c.858.858 2.25.858 3.107 0l.1-.099a.75.75 0 1 1 1.06 1.06l-.099.1Z" clip-rule="evenodd"/>
</svg>
