<svg fill="none" viewBox="0 0 16 16" xmlns="http://www.w3.org/2000/svg">
  <g fill="#000" clip-path="url(#Ai-Chat-Add-16_svg__a)">
    <path d="M7.99 13.993c-.1-.299-.404-.498-.71-.425-.276.066-.56.131-.85.196a93.06 93.06 0 0 1-3.325.67l.297-.343c.781-.901.554-2.169-.215-2.85-1.22-1.08-1.937-2.539-1.937-4.116C1.25 4.013 4.132 1.25 8 1.25s6.75 2.763 6.75 5.875c0 .234-.016.465-.047.693a.664.664 0 0 0 .307.648c.351.22.845.08.91-.33.053-.33.08-.668.08-1.011C16 3.19 12.418 0 8 0S0 3.19 0 7.125c0 1.974.902 3.76 2.358 5.051.32.283.38.774.1 1.096l-1.294 1.491c-.441.51-.014 1.284.65 1.17 1.557-.268 3.801-.681 5.772-1.153.34-.081.513-.455.403-.787Z"/>
    <path d="M8.38 3.271c-.099-.396-.661-.396-.76 0l-.22.878a3.267 3.267 0 0 1-2.376 2.376l-.878.22c-.396.099-.396.661 0 .76l.878.22A3.267 3.267 0 0 1 7.4 10.102l.22.877a.38.38 0 0 0 .292.287 4.735 4.735 0 0 1 .898-1.758 3.267 3.267 0 0 1 2.166-1.783l.878-.22c.396-.099.396-.661 0-.76l-.877-.22A3.267 3.267 0 0 1 8.6 4.15l-.22-.878Z"/>
    <path fill-rule="evenodd" d="M16 12.5a3.5 3.5 0 1 1-7 0 3.5 3.5 0 0 1 7 0Zm-3.625-2.625a.5.5 0 0 0-.5.5v1.5h-1.5a.5.5 0 0 0-.5.5v.25a.5.5 0 0 0 .5.5h1.5v1.5a.5.5 0 0 0 .5.5h.25a.5.5 0 0 0 .5-.5v-1.5h1.5a.5.5 0 0 0 .5-.5v-.25a.5.5 0 0 0-.5-.5h-1.5v-1.5a.5.5 0 0 0-.5-.5h-.25Z" clip-rule="evenodd"/>
  </g>
  <defs>
    <clipPath id="Ai-Chat-Add-16_svg__a">
      <path fill="#fff" d="M0 0h16v16H0z"/>
    </clipPath>
  </defs>
</svg>
