<svg fill="none" viewBox="0 0 24 24" xmlns="http://www.w3.org/2000/svg">
  <path fill="#000" d="M3.41 6.953c.467-.396 1.09.008 1.09.62 0 .27-.134.52-.32.717A2.486 2.486 0 0 0 3.5 10v5A5.5 5.5 0 0 0 9 20.5h5c.662 0 1.263-.258 1.71-.679.197-.186.446-.321.718-.321.613 0 1.017.625.62 1.092a3.994 3.994 0 0 1-2.842 1.403L14 22H9l-.36-.009a7.001 7.001 0 0 1-6.631-6.63L2 15v-5a3.99 3.99 0 0 1 1.41-3.047Z"/>
  <path fill="#000" fill-rule="evenodd" d="M17.257 2.007A5 5 0 0 1 22 7v6l-.007.257a5 5 0 0 1-4.736 4.736L17 18h-6l-.257-.007a5 5 0 0 1-4.736-4.736L6 13V7a5 5 0 0 1 4.743-4.993L11 2h6l.257.007ZM11 3.5A3.5 3.5 0 0 0 7.5 7v6a3.5 3.5 0 0 0 3.5 3.5h6a3.5 3.5 0 0 0 3.5-3.5V7A3.5 3.5 0 0 0 17 3.5h-6Z" clip-rule="evenodd"/>
  <path fill="#000" d="M13.991 13.132c-1.476 0-2.443-.703-2.443-1.767 0-.76.505-1.345 1.288-1.485V9.8c-.682-.201-1.046-.676-1.046-1.33 0-.937.896-1.578 2.21-1.578s2.21.641 2.21 1.577c0 .655-.369 1.13-1.05 1.332v.079c.783.14 1.288.725 1.288 1.48 0 1.064-.976 1.772-2.457 1.772Zm.01-3.718c.478 0 .825-.32.825-.765 0-.443-.347-.76-.826-.76-.483 0-.826.317-.826.76 0 .44.347.765.826.765Zm0 2.72c.58 0 1.001-.369 1.001-.883s-.422-.888-1.002-.888c-.584 0-1.002.37-1.002.888 0 .514.418.883 1.002.883Z"/>
</svg>
