<svg fill="none" viewBox="0 0 12 12" xmlns="http://www.w3.org/2000/svg">
  <g clip-path="url(#Shield-Check-Alt-Color-12E_svg__a)">
    <path fill="#00F67B" d="M7.595.695a2.212 2.212 0 0 0-3.19-.031l-.743.758a.654.654 0 0 1-.652.17l-.361-.106A2.034 2.034 0 0 0 .042 3.39l-.04 1.66a6.613 6.613 0 0 0 3.768 6.132l1.251.595a2.3 2.3 0 0 0 1.977 0l1.232-.586a6.613 6.613 0 0 0 3.767-6.163l-.048-1.661a2.034 2.034 0 0 0-2.596-1.898l-.425.123a.654.654 0 0 1-.658-.18L7.595.695Z"/>
    <path fill="url(#Shield-Check-Alt-Color-12E_svg__b)" d="M7.595.695a2.212 2.212 0 0 0-3.19-.031l-.743.758a.654.654 0 0 1-.652.17l-.361-.106A2.034 2.034 0 0 0 .042 3.39l-.04 1.66a6.613 6.613 0 0 0 3.768 6.132l1.251.595a2.3 2.3 0 0 0 1.977 0l1.232-.586a6.613 6.613 0 0 0 3.767-6.163l-.048-1.661a2.034 2.034 0 0 0-2.596-1.898l-.425.123a.654.654 0 0 1-.658-.18L7.595.695Z"/>
    <path fill="#035C30" fill-opacity=".25" fill-rule="evenodd" d="M6.867 1.381a1.212 1.212 0 0 0-1.747-.017l-.744.758-.714-.7.744-.758a2.212 2.212 0 0 1 3.19.031l.674.717a.654.654 0 0 0 .658.18l.425-.123a2.034 2.034 0 0 1 2.596 1.898l.048 1.66a6.613 6.613 0 0 1-3.767 6.164l-1.232.586-.43-.903 1.232-.586a5.613 5.613 0 0 0 3.198-5.231l-.048-1.661a1.034 1.034 0 0 0-1.32-.966l-.425.123a1.654 1.654 0 0 1-1.663-.456l-.675-.716Zm.13 10.396-.429-.903a1.301 1.301 0 0 1-1.117 0L4.2 10.279a5.613 5.613 0 0 1-3.198-5.204l.04-1.66a1.034 1.034 0 0 1 1.324-.97l.362.106c.586.173 1.22.008 1.648-.429l-.714-.7a.654.654 0 0 1-.652.17l-.361-.106A2.034 2.034 0 0 0 .042 3.39l-.04 1.66a6.613 6.613 0 0 0 3.768 6.132l1.251.595a2.3 2.3 0 0 0 1.977 0Z" clip-rule="evenodd"/>
    <path fill="#fff" fill-rule="evenodd" d="M8.301 4.103a.5.5 0 0 1 .098.7L5.95 8.05a.5.5 0 0 1-.773.03L3.62 6.32a.5.5 0 0 1 .75-.662L5.52 6.96 7.6 4.201a.5.5 0 0 1 .7-.098Z" clip-rule="evenodd"/>
  </g>
  <defs>
    <linearGradient id="Shield-Check-Alt-Color-12E_svg__b" x1="12" x2="-.002" y1="0" y2="11.998" gradientUnits="userSpaceOnUse">
      <stop stop-color="#1AFF8C"/>
      <stop offset=".64" stop-color="#07A75C"/>
      <stop offset="1" stop-color="#04A3AF"/>
    </linearGradient>
    <clipPath id="Shield-Check-Alt-Color-12E_svg__a">
      <path fill="#fff" d="M0 0h12v12H0z"/>
    </clipPath>
  </defs>
</svg>
