<svg fill="none" viewBox="0 0 24 24" xmlns="http://www.w3.org/2000/svg">
  <path fill="#EEE" d="M7.667 3.333c-.737 0-1.333.59-1.333 1.326V19.34c0 .737.596 1.327 1.333 1.327H12v-3.625c0-.879.555-1.628 1.334-1.916A4.167 4.167 0 0 1 17.5 11h.167V4.667c0-.737-.597-1.334-1.334-1.334H7.668Z"/>
  <path fill="#AAA" d="M7.854 7a.52.52 0 0 0-.52.52v1.626c0 .287.233.52.52.52H9.48a.52.52 0 0 0 .521-.52V7.52A.52.52 0 0 0 9.48 7H7.853Zm2.813.52a.52.52 0 0 1 .52-.52h1.626a.52.52 0 0 1 .52.52v1.626a.52.52 0 0 1-.52.52h-1.625a.52.52 0 0 1-.521-.52V7.52Zm3.333 0a.52.52 0 0 1 .521-.52h1.625a.52.52 0 0 1 .52.52v1.626a.52.52 0 0 1-.52.52h-1.625a.52.52 0 0 1-.52-.52V7.52Zm0 3.668a.52.52 0 0 1 .521-.521h1.625a.52.52 0 0 1 .51.418 4.17 4.17 0 0 0-2.65 1.81.52.52 0 0 1-.006-.082v-1.626Zm-2.812-.521a.52.52 0 0 0-.521.52v1.626c0 .287.233.52.52.52h1.626a.52.52 0 0 0 .52-.52v-1.626a.52.52 0 0 0-.52-.52h-1.625Zm-3.854.521a.52.52 0 0 1 .52-.521H9.48a.52.52 0 0 1 .521.52v1.626a.52.52 0 0 1-.52.52H7.853a.52.52 0 0 1-.52-.52v-1.626Zm.52 3.145a.52.52 0 0 0-.52.521v1.625a.52.52 0 0 0 .52.521H9.48a.52.52 0 0 0 .521-.52v-1.626a.52.52 0 0 0-.52-.52H7.853Z"/>
  <path fill="#666" d="M7.667 2A2.667 2.667 0 0 0 5 4.667v14.666A2.667 2.667 0 0 0 7.667 22H11a1 1 0 0 0 1-1v-.333H7.667a1.333 1.333 0 0 1-1.334-1.334V4.667c0-.737.597-1.334 1.334-1.334h8.666c.737 0 1.334.597 1.334 1.334V11H18a1 1 0 0 0 1-1V4.667A2.667 2.667 0 0 0 16.333 2H7.667Z"/>
  <path fill="#666" d="M10.667 4.333a.667.667 0 1 0 0 1.334h2.666a.667.667 0 1 0 0-1.334h-2.666Z"/>
  <rect width="5" height="8" x="15" y="12.666" stroke="#888" stroke-width="1.333" rx="2.5"/>
  <path fill="#FC3" stroke="#C18010" stroke-linecap="round" stroke-width="1.333" d="M13.666 17.041c0-.207.168-.375.375-.375h6.917c.207 0 .375.168.375.375v3.917a.375.375 0 0 1-.375.375h-6.916a.375.375 0 0 1-.376-.375v-3.916Z"/>
</svg>
