<svg fill="none" viewBox="0 0 24 24" xmlns="http://www.w3.org/2000/svg">
  <path fill="#FFDE7A" d="M17.156 3.875H6.844a4.219 4.219 0 0 0-4.219 4.219v5.692c0 2.12 1.657 3.839 3.777 3.839.296 0 .598.24.561.534-.075.6-.257 1.287-.453 1.908-.247.78.432 1.536 1.192 1.232 1.354-.54 3.216-1.469 4.812-2.935.489-.45 1.114-.739 1.778-.739h2.864a4.219 4.219 0 0 0 4.219-4.219V8.094a4.219 4.219 0 0 0-4.219-4.219Z"/>
  <path fill="url(#Feedback-Color-24_svg__a)" d="M20.75 13.156V7.844a3.595 3.595 0 0 0-3.595-3.594H6.845A3.595 3.595 0 0 0 3.25 7.844v5.692c0 1.789 1.39 3.214 3.152 3.214.308 0 .604.121.822.316.215.192.397.502.365.88l-.004.037c-.085.715-.296 1.554-.51 2.283-.05.17.006.314.092.395.077.074.176.102.302.043l.253-.12c1.289-.626 2.946-1.59 4.368-2.922.58-.545 1.354-.912 2.202-.912h2.864a3.594 3.594 0 0 0 3.594-3.594Zm1.25 0A4.844 4.844 0 0 1 17.156 18h-2.864c-.48 0-.959.21-1.347.574-1.598 1.497-3.442 2.546-4.814 3.2l-.13.062a1.498 1.498 0 0 1-1.699-.272 1.636 1.636 0 0 1-.426-1.65c.19-.646.362-1.336.446-1.915C3.882 17.956 2 15.962 2 13.536V7.844A4.845 4.845 0 0 1 6.845 3h10.31A4.845 4.845 0 0 1 22 7.844v5.312Z"/>
  <path fill="#E2A412" d="M11.61 9.55c-.354-.63-.944-1.368-1.745-1.295-1.594.145-2.516 2.065-.305 3.978.576.498 1.026.875 1.377 1.17.554.465 1.558.461 2.112-.004.36-.302.818-.68 1.39-1.166 2.212-1.873 1.29-3.833-.304-3.978-.801-.073-1.396.667-1.753 1.296-.147.26-.625.26-.772-.001Z"/>
  <path fill="url(#Feedback-Color-24_svg__b)" d="M12.273 7.696c.44-.382 1.085-.74 1.896-.692l.079.006.06.006c1.263.139 2.359 1.012 2.63 2.327.273 1.32-.352 2.683-1.629 3.791l-.061.053-.781.657-.615.513c-.55.461-1.244.641-1.857.643-.593 0-1.266-.166-1.81-.598l-.052-.042c-.263-.221-.585-.491-.976-.825l-.415-.357c-1.306-1.13-1.958-2.513-1.68-3.852.279-1.34 1.415-2.2 2.69-2.316l.08-.006c.81-.048 1.455.31 1.894.693.097.084.187.173.272.264.086-.091.177-.18.275-.265Zm1.862.559c-.801-.073-1.396.667-1.753 1.296l-.014.024c-.158.229-.587.228-.744-.001l-.014-.024c-.354-.63-.944-1.368-1.745-1.295-1.594.145-2.516 2.065-.305 3.978.576.498 1.026.875 1.377 1.17.536.45 1.495.461 2.058.039l.054-.043c.27-.227.595-.496.982-.822l.409-.344c2.21-1.873 1.289-3.833-.305-3.978Z"/>
  <defs>
    <linearGradient id="Feedback-Color-24_svg__a" x1="12" x2="12" y1="3.875" y2="21.922" gradientUnits="userSpaceOnUse">
      <stop stop-color="#E2A412"/>
      <stop offset="1" stop-color="#92540C"/>
    </linearGradient>
    <linearGradient id="Feedback-Color-24_svg__b" x1="12" x2="12" y1="8.25" y2="14.375" gradientUnits="userSpaceOnUse">
      <stop stop-color="#C18010"/>
      <stop offset="1" stop-color="#92540C"/>
    </linearGradient>
  </defs>
</svg>
