<svg fill="none" viewBox="0 0 20 20" xmlns="http://www.w3.org/2000/svg">
  <path fill="#000" fill-rule="evenodd" d="M3.5 3A2.5 2.5 0 0 0 1 5.5v9A2.5 2.5 0 0 0 3.5 17h5.335c.433 0 .75-.401.702-.83-.04-.364-.333-.67-.699-.67H3.5a1 1 0 0 1-1-1V5.526l4.941 4.612a3.75 3.75 0 0 0 5.118 0L17.5 5.526V9.39c0 .27.175.51.423.62.476.21 1.077-.11 1.077-.63V5.5A2.5 2.5 0 0 0 16.5 3h-13Zm12.9 1.5H3.6l4.865 4.541a2.25 2.25 0 0 0 3.07 0L16.401 4.5Z" clip-rule="evenodd"/>
  <path fill="#000" fill-rule="evenodd" d="M20 15.5a4.5 4.5 0 1 1-9 0 4.5 4.5 0 0 1 9 0Zm-7-.5h5v1h-5v-1Z" clip-rule="evenodd"/>
</svg>
