<svg fill="none" viewBox="0 0 24 24" xmlns="http://www.w3.org/2000/svg">
  <path fill="#000" d="M8.25 5.5A2.75 2.75 0 0 0 5.5 8.25v7.5a2.75 2.75 0 0 0 2.75 2.75h7.5a2.75 2.75 0 0 0 2.75-2.75v-1a.75.75 0 0 1 1.5 0v1A4.25 4.25 0 0 1 15.75 20h-7.5A4.25 4.25 0 0 1 4 15.75v-7.5A4.25 4.25 0 0 1 8.25 4h1a.75.75 0 0 1 0 1.5h-1Z"/>
  <path fill="#000" d="M13.5 4.75a.75.75 0 0 1 .75-.75h3.25A2.5 2.5 0 0 1 20 6.5v3.25a.75.75 0 0 1-1.5 0V6.56l-5.22 5.22a.75.75 0 1 1-1.06-1.06l5.22-5.22h-3.19a.75.75 0 0 1-.75-.75Z"/>
</svg>
