<svg fill="none" viewBox="0 0 16 16" xmlns="http://www.w3.org/2000/svg">
  <path fill="#000" fill-rule="evenodd" d="M16 4.137c0-1.726-1.4-3.125-3.125-3.125h-9.75A3.125 3.125 0 0 0 0 4.137v3.237a.625.625 0 1 0 1.25 0V6.268h13.5v5.584c0 1.036-.84 1.875-1.875 1.875h-3.25a.625.625 0 0 0 0 1.25h3.25A3.125 3.125 0 0 0 16 11.852V4.137Zm-1.25.881H1.25v-.881c0-1.036.84-1.875 1.875-1.875h9.75c1.036 0 1.875.84 1.875 1.875v.881ZM0 11.685c0-.345.28-.625.625-.625H4.98L3.16 9.041a.625.625 0 0 1 .93-.836l2.75 3.051a.625.625 0 0 1 0 .837l-2.75 3.052a.625.625 0 1 1-.93-.837l1.8-1.998H.626A.625.625 0 0 1 0 11.685Z" clip-rule="evenodd"/>
</svg>
