<svg fill="none" viewBox="0 0 16 16" xmlns="http://www.w3.org/2000/svg">
  <path fill="#000" d="M3.808 9.433a.625.625 0 0 1 .86-.022l.024.022 1.69 1.69c.83.83.83 2.175 0 3.004l-1.69 1.69-.023.022a.625.625 0 0 1-.883-.883l.022-.023 1.683-1.683H.625a.625.625 0 0 1 0-1.25h4.866l-1.683-1.683-.022-.024a.625.625 0 0 1 .022-.86ZM12 1.013a4 4 0 0 1 4 4v5.965a4 4 0 0 1-4 4H9.593a.625.625 0 0 1 0-1.249H12a2.75 2.75 0 0 0 2.75-2.75v-4.71H1.25v2.106a.625.625 0 0 1-1.25 0V5.013a4 4 0 0 1 4-4h8Zm-8 1.25a2.75 2.75 0 0 0-2.75 2.75v.006h13.5v-.006A2.75 2.75 0 0 0 12 2.263H4Z"/>
</svg>
