<svg fill="none" viewBox="0 0 24 24" xmlns="http://www.w3.org/2000/svg">
  <path fill="#000" fill-rule="evenodd" d="M14.963 11.059a2.025 2.025 0 1 1 0-4.051 2.025 2.025 0 0 1 0 4.05Zm0-1.5a.525.525 0 1 1 0-1.051.525.525 0 0 1 0 1.05Z" clip-rule="evenodd"/>
  <path fill="#000" fill-rule="evenodd" d="M21.817 4.715c.078-.55.138-1.119.18-1.704A.945.945 0 0 0 20.985 2c-6.395.46-10.622 3.159-13.389 6.84a9.583 9.583 0 0 0-.376-.014c-1.491-.025-2.993.296-4.392.879-.728.303-.899 1.22-.4 1.832l2.255 2.764-.026.07c-.166.453-.045.959.297 1.3L8.4 19.118c.34.341.846.463 1.3.297l.08-.03 2.684 2.188c.61.497 1.524.33 1.83-.395.59-1.387.92-2.874.912-4.348a8.747 8.747 0 0 0-.01-.362c2.666-2.026 4.806-4.83 5.953-8.669.135-.451.256-.917.363-1.398 0-.003 0-.005.002-.008.12-.54.22-1.1.303-1.678ZM6.127 14.723l3.22 3.222c2.895-1.088 5.496-2.712 7.455-5.064 1.331-1.598 2.4-3.571 3.053-6.016l-2.717-2.717c-2.433.66-4.391 1.737-5.977 3.077-2.337 1.975-3.948 4.594-5.035 7.498Zm-2.272-3.809a9.655 9.655 0 0 1 2.487-.557l-1.215 2.116-1.272-1.559Zm9.236 9.235a9.694 9.694 0 0 0 .576-2.456l-2.125 1.192 1.549 1.264Zm7.143-15.026-1.358-1.358a20.96 20.96 0 0 1 1.57-.213 22.091 22.091 0 0 1-.212 1.571Z" clip-rule="evenodd"/>
  <path fill="#000" d="M4.788 16.542a.75.75 0 0 1 .135 1.052c-.542.702-1.004 1.656-1.23 2.71 1.054-.226 2.008-.688 2.71-1.23a.75.75 0 1 1 .916 1.187c-1.127.87-2.73 1.551-4.456 1.674l-.862.06.061-.861c.122-1.726.803-3.33 1.674-4.457a.75.75 0 0 1 1.052-.135Z"/>
</svg>
