<svg fill="none" viewBox="0 0 16 16" xmlns="http://www.w3.org/2000/svg">
  <path fill="#000" d="M12.798 5.852a1.452 1.452 0 0 1-.127 1.655l-.095.107-2.04 2.037 4.282 4.281.08.099a.627.627 0 0 1-.866.866l-.099-.08-4.281-4.281-2.038 2.039a1.454 1.454 0 0 1-1.763.224l6.947-6.947Zm1.01-4.544a.625.625 0 0 1 .884.884l-12.5 12.5a.625.625 0 1 1-.884-.884l12.5-12.5Zm-7.504-.279a1.455 1.455 0 0 1 1.49.617c.16.238.244.52.245.806v.485l.006.135c.032.314.171.609.396.834.178.178.401.3.642.36l-.955.953a2.618 2.618 0 0 1-.57-.428 2.625 2.625 0 0 1-.756-1.595l-.013-.259v-.484l-.01-.059a.208.208 0 0 0-.024-.054.206.206 0 0 0-.208-.086.205.205 0 0 0-.103.056h-.001L2.309 6.442h.001a.205.205 0 0 0-.056.104.204.204 0 0 0 .198.241h.485l.259.013A2.626 2.626 0 0 1 5.22 8.128l-.953.954a1.374 1.374 0 0 0-1.195-1.037l-.135-.006h-.485a1.454 1.454 0 0 1-1.341-.897 1.453 1.453 0 0 1 .314-1.582L5.56 1.425l.08-.073a1.45 1.45 0 0 1 .664-.323Z"/>
</svg>
