<svg fill="none" viewBox="0 0 16 16" xmlns="http://www.w3.org/2000/svg">
  <path fill="#000" fill-rule="evenodd" d="M7.375 0A3.375 3.375 0 0 0 4 3.375v7.25A3.375 3.375 0 0 0 7.375 14h3.25A3.375 3.375 0 0 0 14 10.625v-7.25A3.375 3.375 0 0 0 10.625 0h-3.25ZM5.25 3.375c0-1.174.951-2.125 2.125-2.125h3.25c1.174 0 2.125.951 2.125 2.125v7.25a2.125 2.125 0 0 1-2.125 2.125h-3.25a2.125 2.125 0 0 1-2.125-2.125v-7.25Z" clip-rule="evenodd"/>
  <path fill="#000" d="M3.25 4.625a.625.625 0 1 0-1.25 0v6.75A4.625 4.625 0 0 0 6.625 16h2.75a.625.625 0 1 0 0-1.25h-2.75a3.375 3.375 0 0 1-3.375-3.375v-6.75Z"/>
</svg>
