<svg fill="none" viewBox="0 0 16 17" xmlns="http://www.w3.org/2000/svg">
  <path fill="#000" d="M6.63 1.348a.625.625 0 1 0-1.207.323l.259.966a.625.625 0 0 0 1.207-.323l-.259-.966Zm3.688 13.764a.625.625 0 1 0-1.207.324l.259.966a.625.625 0 0 0 1.207-.324l-.259-.966Zm1.925-11.364a.625.625 0 1 0 .883.884l.708-.707a.625.625 0 1 0-.884-.884l-.707.707ZM2.166 13.825a.625.625 0 0 0 .884.883l.707-.707a.625.625 0 0 0-.884-.884l-.707.707Z"/>
  <path fill="#000" fill-rule="evenodd" d="M2.99 9a5.01 5.01 0 1 1 10.02 0A5.01 5.01 0 0 1 2.99 9ZM8 5.26a3.74 3.74 0 1 0 0 7.48 3.74 3.74 0 0 0 0-7.48Z" clip-rule="evenodd"/>
  <path fill="#000" d="M.797 6.298a.625.625 0 1 0-.324 1.207l.966.259a.625.625 0 1 0 .323-1.207l-.965-.26Zm13.764 3.688a.625.625 0 0 0-.323 1.207l.965.26a.625.625 0 1 0 .324-1.208l-.966-.259Zm-.765-2.664a.625.625 0 0 1 .442-.765l.965-.26a.625.625 0 1 1 .324 1.208l-.966.259a.625.625 0 0 1-.765-.442ZM.031 11.01a.625.625 0 0 1 .442-.765l.966-.259a.625.625 0 1 1 .324 1.207l-.966.26a.625.625 0 0 1-.766-.443Zm12.212 2.108a.625.625 0 0 1 .884 0l.707.707a.625.625 0 1 1-.884.884l-.707-.707a.625.625 0 0 1 0-.884ZM2.166 3.041a.625.625 0 0 1 .884 0l.707.708a.625.625 0 1 1-.883.883l-.708-.707a.625.625 0 0 1 0-.884ZM10.135.906c.334.09.532.432.442.765l-.259.966a.625.625 0 1 1-1.207-.323l.259-.966a.625.625 0 0 1 .765-.442ZM6.447 14.67c.334.09.531.432.442.766l-.259.966a.625.625 0 1 1-1.207-.324l.259-.966a.625.625 0 0 1 .765-.442Z"/>
</svg>
