<svg fill="none" viewBox="0 0 24 24" xmlns="http://www.w3.org/2000/svg">
  <path fill="#000" fill-rule="evenodd" d="M20.411 4.265a.5.5 0 0 0-.676-.676L3.622 12.17c-.057.03-.074.061-.083.082a.19.19 0 0 0-.004.115.19.19 0 0 0 .058.1c.017.014.047.033.112.033h4.92a2.875 2.875 0 0 1 2.875 2.875v4.92c0 .065.019.095.033.112a.19.19 0 0 0 .1.058.19.19 0 0 0 .115-.004c.02-.008.051-.026.082-.083l8.58-16.113Zm-1.381-2c1.743-.929 3.634.962 2.705 2.705l-8.581 16.113c-.82 1.54-3.154.957-3.154-.788v-4.92C10 14.615 9.385 14 8.625 14h-4.92c-1.745 0-2.327-2.334-.788-3.154L19.03 2.265Z" clip-rule="evenodd"/>
</svg>
