<svg fill="none" viewBox="0 0 24 24" xmlns="http://www.w3.org/2000/svg">
  <path fill="#000" d="M14.327 12.004a.75.75 0 0 1 0 1.492l-.077.004h-7.5a.75.75 0 0 1 0-1.5h7.5l.077.004Zm3-4a.75.75 0 0 1 0 1.492l-.077.004h-7.5a.75.75 0 0 1 0-1.5h7.5l.077.004Z"/>
  <path fill="#000" fill-rule="evenodd" d="M17.004 3a5 5 0 0 1 5 5v5.5a5 5 0 0 1-5 5h-3.182c-.445 0-.897.195-1.268.543a15.808 15.808 0 0 1-3.725 2.567l-.47.227a1.58 1.58 0 0 1-1.885-.386 1.808 1.808 0 0 1-.307-1.858c.148-.377.273-.755.356-1.1C3.973 18.363 2 16.251 2 13.686V8a5 5 0 0 1 5-5h10.004ZM7 4.5A3.5 3.5 0 0 0 3.5 8v5.685C3.5 15.526 4.952 17 6.772 17c.351 0 .689.14.933.374.22.211.39.528.378.9l-.016.163c-.096.566-.292 1.164-.502 1.702-.058.147-.015.264.034.32.023.026.04.032.048.034 0 0 .025.008.082-.018l.431-.207a14.306 14.306 0 0 0 3.369-2.32c.6-.563 1.406-.948 2.293-.948h3.182a3.5 3.5 0 0 0 3.5-3.5V8a3.5 3.5 0 0 0-3.5-3.5H7Z" clip-rule="evenodd"/>
</svg>
