<svg fill="none" viewBox="0 0 24 24" xmlns="http://www.w3.org/2000/svg">
  <path fill="#000" d="M5 2a3 3 0 0 0-3 3v11a3 3 0 0 0 3 3h3.75a.75.75 0 0 0 0-1.5H5A1.5 1.5 0 0 1 3.5 16V5A1.5 1.5 0 0 1 5 3.5h5.865c.77 0 1.18-.827.493-1.176A2.987 2.987 0 0 0 10 2H5Z"/>
  <path fill="#000" d="M6.5 5a.5.5 0 0 0 0 1h2a.5.5 0 1 0 0-1h-2ZM15 8.5a.5.5 0 0 1 .5-.5h2a.5.5 0 1 1 0 1h-2a.5.5 0 0 1-.5-.5Z"/>
  <path fill="#000" fill-rule="evenodd" d="M11 8a3 3 0 0 1 3-3h5a3 3 0 0 1 3 3v11a3 3 0 0 1-3 3h-5a3 3 0 0 1-3-3V8Zm3-1.5A1.5 1.5 0 0 0 12.5 8v11a1.5 1.5 0 0 0 1.5 1.5h5a1.5 1.5 0 0 0 1.5-1.5V8A1.5 1.5 0 0 0 19 6.5h-5Z" clip-rule="evenodd"/>
</svg>
