<svg fill="none" viewBox="0 0 16 16" xmlns="http://www.w3.org/2000/svg">
  <g clip-path="url(#Save-16_svg__a)">
    <path fill="#000" d="M13.808 7.192a.625.625 0 0 1 .884 0l1.116 1.116a.625.625 0 0 1 0 .884l-6.016 6.016a.626.626 0 0 1-.245.151l-1.674.558a.625.625 0 0 1-.79-.79l.558-1.675a.626.626 0 0 1 .15-.244l6.017-6.016ZM10.108 0c.496 0 .973.198 1.325.55l2.018 2.017.032.033c.332.348.517.811.517 1.293v1.883c-.379.05-.745.216-1.041.498l-.035.034-.174.174v-2.59a.625.625 0 0 0-.162-.419l-.021-.022L11 1.884v.241C11 3.161 10.16 4 9.125 4h-4.25A1.875 1.875 0 0 1 3 2.125V1.25H1.875a.625.625 0 0 0-.625.625v10.25c0 .345.28.625.625.625H3V7.875C3 6.839 3.84 6 4.875 6h4.25C10.161 6 11 6.84 11 7.875v.357l-1.25 1.25V7.875a.625.625 0 0 0-.625-.625h-4.25a.625.625 0 0 0-.625.625v4.875h2.34a1.882 1.882 0 0 0-.117.256l-.018.051-.314.943H1.875A1.875 1.875 0 0 1 0 12.125V1.875C0 .839.84 0 1.875 0h8.232ZM4.25 2.125c0 .345.28.625.625.625h4.25c.345 0 .625-.28.625-.625V1.25h-5.5v.875Z"/>
  </g>
  <defs>
    <clipPath id="Save-16_svg__a">
      <path fill="#fff" d="M0 0h16v16H0z"/>
    </clipPath>
  </defs>
</svg>
