<svg fill="none" viewBox="0 0 16 16" xmlns="http://www.w3.org/2000/svg">
  <g fill="#000" clip-path="url(#Save-16_svg__a)">
    <path fill-rule="evenodd" d="M0 1.875C0 .839.84 0 1.875 0h8.232c.498 0 .974.198 1.326.55l2.018 2.017c.351.352.549.828.549 1.326v1.445c0 .25-.19.456-.423.545a1.868 1.868 0 0 0-.653.425.102.102 0 0 1-.174-.072V3.893a.625.625 0 0 0-.183-.442L11 1.884v.241C11 3.161 10.16 4 9.125 4h-4.25A1.875 1.875 0 0 1 3 2.125V1.25H1.875a.625.625 0 0 0-.625.625v10.25c0 .345.28.625.625.625H2V7.875C2 6.839 2.84 6 3.875 6h6.25c.734 0 1.37.422 1.678 1.037.083.166.03.362-.101.493l-.523.523a.251.251 0 0 1-.429-.178.625.625 0 0 0-.625-.625h-6.25a.625.625 0 0 0-.625.625v4.875h3.003c.151 0 .25.164.202.307l-.2.601A.5.5 0 0 1 5.78 14H1.875A1.875 1.875 0 0 1 0 12.125V1.875Zm4.25-.625v.875c0 .345.28.625.625.625h4.25c.345 0 .625-.28.625-.625V1.25h-5.5Z" clip-rule="evenodd"/>
    <path d="m9.792 15.208 6.016-6.016a.625.625 0 0 0 0-.884l-1.116-1.116a.625.625 0 0 0-.884 0l-6.016 6.016a.625.625 0 0 0-.151.245l-.558 1.674a.625.625 0 0 0 .79.79l1.674-.558a.625.625 0 0 0 .245-.15Z"/>
  </g>
  <defs>
    <clipPath id="Save-16_svg__a">
      <path fill="#fff" d="M0 0h16v16H0z"/>
    </clipPath>
  </defs>
</svg>
