<svg fill="none" viewBox="0 0 24 24" xmlns="http://www.w3.org/2000/svg">
  <path fill="#000" d="M10.268 2.025a.752.752 0 0 1 .684.157c1.644 1.418 1.933 3.454 2.18 4.87.134.764.245 1.303.443 1.674.163.306.41.46.756.489.504.042.758-.095.909-.239.176-.167.31-.441.388-.81a4.31 4.31 0 0 0 .075-1.05c-.009-.204-.037-.403-.053-.605a.75.75 0 0 1 1.323-.482 15.553 15.553 0 0 1 2.598 4.358c.258.665-.46 1.288-1.165 1.181M14.293 2.01a.75.75 0 0 1 .849.538l.072.335c.047.166.135.243.285.327a.75.75 0 0 1-.721 1.312c-.346-.184-.637-.429-.826-.779a2.476 2.476 0 0 1-.234-.668l-.047-.274a.75.75 0 0 1 .622-.79Z"/>
  <path fill="#000" fill-rule="evenodd" d="M17.5 22a4.5 4.5 0 1 0 0-9 4.5 4.5 0 0 0 0 9Zm-2.25-5.25a.5.5 0 0 0-.5.5v.5a.5.5 0 0 0 .5.5h4.5a.5.5 0 0 0 .5-.5v-.5a.5.5 0 0 0-.5-.5h-4.5Z" clip-rule="evenodd"/>
</svg>
