<svg fill="none" viewBox="0 0 24 24" xmlns="http://www.w3.org/2000/svg">
  <path fill="#000" d="M13.25 15.75c0 .409-.196.772-.5 1v1a.75.75 0 1 1-1.5 0v-1a1.25 1.25 0 1 1 2-1Z"/>
  <path fill="#000" fill-rule="evenodd" d="M6 11V8a6 6 0 1 1 12 0v3h.14A2.86 2.86 0 0 1 21 13.86v5.28A2.86 2.86 0 0 1 18.14 22H5.86A2.86 2.86 0 0 1 3 19.14v-5.28A2.86 2.86 0 0 1 5.86 11H6Zm1.5-3a4.5 4.5 0 1 1 9 0v3h-9V8Zm-3 5.86c0-.751.609-1.36 1.36-1.36h12.28c.752 0 1.36.609 1.36 1.36v5.28a1.36 1.36 0 0 1-1.36 1.36H5.86a1.36 1.36 0 0 1-1.36-1.36v-5.28Z" clip-rule="evenodd"/>
</svg>
