<svg fill="none" viewBox="0 0 16 16" xmlns="http://www.w3.org/2000/svg">
  <path fill="#000" fill-rule="evenodd" d="M6 13.75h6.625a.625.625 0 1 1 0 1.25h-9.5A3.125 3.125 0 0 1 0 11.875v-7.75C0 2.399 1.4 1 3.125 1h9.75C14.601 1 16 2.4 16 4.125V5a.625.625 0 1 1-1.25 0v-.875c0-1.036-.84-1.875-1.875-1.875H6v11.5ZM1.25 4.125c0-1.036.84-1.875 1.875-1.875H4.75v11.5H3.125a1.875 1.875 0 0 1-1.875-1.875v-7.75Z" clip-rule="evenodd"/>
  <path fill="#000" fill-rule="evenodd" d="M13.914 10.405a3.812 3.812 0 1 0-.884.884l1.903 1.903a.625.625 0 1 0 .884-.884l-1.903-1.903ZM8.25 8.188a2.562 2.562 0 1 1 5.125 0 2.562 2.562 0 0 1-5.125 0Z" clip-rule="evenodd"/>
</svg>
