<svg fill="none" viewBox="0 0 16 16" xmlns="http://www.w3.org/2000/svg">
  <path fill="#000" d="M0 4.25A3.25 3.25 0 0 1 3.25 1h7.493c.642 0 1.269.19 1.803.546l.12.08a.75.75 0 1 1-.832 1.248l-.12-.08a1.75 1.75 0 0 0-.97-.294H3.25A1.75 1.75 0 0 0 1.5 4.25v5.493c0 .346.102.683.294.97l.08.121a.75.75 0 1 1-1.248.832l-.08-.12A3.25 3.25 0 0 1 0 9.743V4.25Z"/>
  <path fill="#000" d="M3 7.25A3.25 3.25 0 0 1 6.25 4h6.5A3.25 3.25 0 0 1 16 7.25v4.5A3.25 3.25 0 0 1 12.75 15h-6.5A3.25 3.25 0 0 1 3 11.75v-4.5Z"/>
</svg>
