<svg fill="none" viewBox="0 0 20 20" xmlns="http://www.w3.org/2000/svg">
  <path fill="#000" fill-rule="evenodd" d="M13.061 6.938a.75.75 0 0 1 .001 1.06l-6.135 6.145-1.062-1.06 6.136-6.145a.75.75 0 0 1 1.06 0Zm-7.75 8.857L3.1 17.961a.75.75 0 1 1-1.05-1.072l2.211-2.165 1.05 1.071Z" clip-rule="evenodd"/>
  <path fill="#000" d="M12.996 1.39c.123-.492.822-.492.945 0l.312 1.248a4.273 4.273 0 0 0 3.11 3.109l1.247.312c.492.123.492.822 0 .945l-1.248.312a4.273 4.273 0 0 0-3.109 3.109l-.312 1.247c-.123.492-.822.492-.945 0l-.312-1.247a4.273 4.273 0 0 0-3.109-3.11l-1.247-.311c-.492-.123-.492-.822 0-.945l1.247-.312a4.273 4.273 0 0 0 3.11-3.11l.311-1.246Z"/>
</svg>
