<svg fill="none" viewBox="0 0 16 16" xmlns="http://www.w3.org/2000/svg">
  <g fill="#000" clip-path="url(#Tab-Reopen-16_svg__a)">
    <path fill-rule="evenodd" d="M3.125.988A3.138 3.138 0 0 0-.012 4.126v7.75a3.137 3.137 0 0 0 3.137 3.137h4.25a.637.637 0 1 0 0-1.275h-4.25a1.863 1.863 0 0 1-1.862-1.862v-7.75c0-1.029.833-1.863 1.862-1.863h1.68c.656 0 .96.158 1.132.31.2.175.32.42.493.81l.023.054c.152.345.36.82.757 1.188.45.417 1.065.638 1.915.638h5.613v2.738a.638.638 0 0 0 1.274 0V4.126A3.137 3.137 0 0 0 12.875.988h-9.75ZM7.3 2.263c.12.208.21.412.287.585l.01.02c.176.402.29.646.48.822.156.145.432.298 1.048.298h5.608a1.863 1.863 0 0 0-1.858-1.725H7.3Z" clip-rule="evenodd"/>
    <path d="M10.797 8.665a.625.625 0 0 1 .039.883l-.415.453H13a3 3 0 0 1 0 6h-1.25a.625.625 0 1 1 0-1.25H13a1.75 1.75 0 1 0 0-3.5h-2.58l.415.452a.625.625 0 0 1-.922.845l-1.375-1.5a.625.625 0 0 1 0-.845l1.375-1.5a.625.625 0 0 1 .883-.038Z"/>
  </g>
  <defs>
    <clipPath id="Tab-Reopen-16_svg__a">
      <path fill="#fff" d="M0 0h16v16H0z"/>
    </clipPath>
  </defs>
</svg>
