<svg fill="none" viewBox="0 0 16 16" xmlns="http://www.w3.org/2000/svg">
  <path fill="#000" d="M9.914 8.703a.625.625 0 0 1 .922.844L10.42 10H13a3 3 0 0 1 0 6h-1.25a.625.625 0 1 1 0-1.25H13a1.75 1.75 0 1 0 0-3.5h-2.58l.416.453.02.024a.625.625 0 0 1-.92.843l-.022-.023-.988-1.077a1.25 1.25 0 0 1 0-1.69l.988-1.077ZM12 1a4 4 0 0 1 4 4v3.375a.625.625 0 1 1-1.25 0V6.312c0-.586-.476-1.062-1.063-1.062h-3.26a3.338 3.338 0 0 1-2.986-1.845A2.089 2.089 0 0 0 5.573 2.25H4A2.75 2.75 0 0 0 1.25 5v6A2.75 2.75 0 0 0 4 13.75h3.375a.625.625 0 1 1 0 1.25H4a4 4 0 0 1-4-4V5a4 4 0 0 1 4-4h8ZM8.178 2.25c.146.182.274.381.381.595A2.089 2.089 0 0 0 10.427 4h3.26c.337 0 .657.072.945.201A2.75 2.75 0 0 0 12 2.25H8.178Z"/>
</svg>
