<svg fill="none" viewBox="0 0 16 16" xmlns="http://www.w3.org/2000/svg">
  <path fill="#000" d="M1.75 5.85c-.31.335-.5.783-.5 1.275v3.25a3.375 3.375 0 0 0 3.375 3.375h5.25c.492 0 .94-.19 1.275-.5h.128c.647 0 1.037.682.528 1.082A3.111 3.111 0 0 1 9.875 15h-5.25A4.625 4.625 0 0 1 0 10.375v-3.25c0-.729.25-1.4.668-1.93.4-.51 1.082-.12 1.082.527v.128ZM12.875 1C14.601 1 16 2.4 16 4.125v4.75C16 10.601 14.6 12 12.875 12h-6.75A3.125 3.125 0 0 1 3 8.875v-4.75C3 2.399 4.4 1 6.125 1h6.75Zm-2.476 7.523.414.406.022.023a.625.625 0 0 1-.874.891l-.024-.022L8.31 8.223l-2.5 2.5c.103.018.208.027.316.027h6.75c.965 0 1.76-.729 1.863-1.666l-2.45-2.45L10.4 8.523ZM6.125 2.25c-1.036 0-1.875.84-1.875 1.875v4.75c0 .458.164.877.437 1.203L7.863 6.9l.023-.022a.625.625 0 0 1 .857.018l.764.75 2.34-2.339.022-.021a.625.625 0 0 1 .861.021l2.02 2.02V4.125c0-1.036-.84-1.875-1.875-1.875h-6.75ZM7 4a1 1 0 1 1 0 2 1 1 0 0 1 0-2Z"/>
</svg>
