<svg fill="none" viewBox="0 0 16 16" xmlns="http://www.w3.org/2000/svg">
  <path fill="#000" d="M.778 5.062c.375-.427.972-.08.972.487 0 .193-.08.376-.187.537a1.867 1.867 0 0 0-.313 1.039v3.25a3.375 3.375 0 0 0 3.375 3.375h5.25c.384 0 .742-.115 1.04-.313a.981.981 0 0 1 .535-.187c.568 0 .915.597.489.972A3.113 3.113 0 0 1 9.874 15h-5.25A4.625 4.625 0 0 1 0 10.375v-3.25c0-.79.294-1.513.778-2.063ZM7 4a1 1 0 1 1 0 2 1 1 0 0 1 0-2Z"/>
  <path fill="#000" fill-rule="evenodd" d="M12.875 1C14.601 1 16 2.4 16 4.125v4.75C16 10.601 14.6 12 12.875 12h-6.75A3.125 3.125 0 0 1 3 8.875v-4.75C3 2.399 4.4 1 6.125 1h6.75ZM4.25 8.875c0 .458.164.878.437 1.203L6.48 8.282l1.382-1.38.024-.023a.625.625 0 0 1 .856.018l.764.75 2.34-2.338.022-.022a.625.625 0 0 1 .861.022l2.02 2.02V4.124c0-1.036-.84-1.875-1.875-1.875h-6.75c-1.036 0-1.875.84-1.875 1.875v4.75ZM8 5a1 1 0 1 0-2 0 1 1 0 0 0 2 0Zm2.813 3.929-.414-.407 1.89-1.888 2.45 2.45a1.875 1.875 0 0 1-1.864 1.666h-6.75c-.108 0-.214-.009-.316-.026l1.556-1.559.944-.942L9.938 9.82l.023.022a.625.625 0 0 0 .874-.89l-.023-.024Z" clip-rule="evenodd"/>
</svg>
