<svg fill="none" viewBox="0 0 16 16" xmlns="http://www.w3.org/2000/svg">
  <g fill="#000" clip-path="url(#Shield-Alert-Alt-16_svg__a)">
    <path fill-rule="evenodd" d="M15.065 5.844c.385-.18.91.062.92.487l.006.222a9.125 9.125 0 0 1-5.264 8.49l-1.405.655a3.124 3.124 0 0 1-2.643 0l-1.406-.656A9.125 9.125 0 0 1 .009 6.553l.049-2.012a2.75 2.75 0 0 1 3.55-2.564l.275.084a1 1 0 0 0 .987-.24L5.862.86a3 3 0 0 1 4.2.02c.049.05.062.125.035.19a3.668 3.668 0 0 0-.155.448c-.09.324-.521.487-.76.25a1.745 1.745 0 0 0-.557-.37v13.236a1.83 1.83 0 0 0 .168-.069l1.406-.656a7.875 7.875 0 0 0 4.542-7.326l-.006-.24a.55.55 0 0 1 .33-.5ZM7.375 1.36a1.744 1.744 0 0 0-.643.397l-.991.962a2.25 2.25 0 0 1-2.222.537l-.275-.083a1.5 1.5 0 0 0-1.937 1.399L1.26 6.583A7.875 7.875 0 0 0 5.8 13.91l1.406.656c.055.026.111.05.168.07V1.36Z" clip-rule="evenodd"/>
    <path d="M16 2.5a2.5 2.5 0 1 1-5 0 2.5 2.5 0 0 1 5 0Z"/>
  </g>
  <defs>
    <clipPath id="Shield-Alert-Alt-16_svg__a">
      <path fill="#fff" d="M0 0h16v16H0z"/>
    </clipPath>
  </defs>
</svg>
