<svg fill="none" viewBox="0 0 24 24" xmlns="http://www.w3.org/2000/svg">
  <path fill="#000" d="M3.41 6.953c.467-.396 1.09.008 1.09.62 0 .27-.134.52-.32.717A2.486 2.486 0 0 0 3.5 10v5A5.5 5.5 0 0 0 9 20.5h5c.662 0 1.263-.258 1.71-.679.197-.186.446-.321.718-.321.613 0 1.017.625.62 1.092a3.994 3.994 0 0 1-2.842 1.403L14 22H9l-.36-.009a7.001 7.001 0 0 1-6.631-6.63L2 15v-5a3.99 3.99 0 0 1 1.41-3.047Z"/>
  <path fill="#000" fill-rule="evenodd" d="M17.257 2.007A5 5 0 0 1 22 7v6l-.007.257a5 5 0 0 1-4.736 4.736L17 18h-6l-.257-.007a5 5 0 0 1-4.736-4.736L6 13V7a5 5 0 0 1 4.743-4.993L11 2h6l.257.007ZM11 3.5A3.5 3.5 0 0 0 7.5 7v6a3.5 3.5 0 0 0 3.5 3.5h6a3.5 3.5 0 0 0 3.5-3.5V7A3.5 3.5 0 0 0 17 3.5h-6Z" clip-rule="evenodd"/>
  <path fill="#000" d="M15.934 8.302c0 .176-.027.342-.08.497-.05.152-.121.293-.215.422a1.743 1.743 0 0 1-.584.488c.108.052.21.112.307.18a1.607 1.607 0 0 1 .708 1.362c0 .302-.056.567-.167.795a1.597 1.597 0 0 1-.448.572c-.194.155-.42.272-.681.351-.261.08-.542.119-.844.119-.305 0-.59-.04-.853-.119a2.005 2.005 0 0 1-.68-.351 1.62 1.62 0 0 1-.458-.572 1.837 1.837 0 0 1-.162-.795c0-.176.023-.341.07-.497a1.74 1.74 0 0 1 .206-.435 1.69 1.69 0 0 1 .317-.347 1.94 1.94 0 0 1 .422-.268 1.802 1.802 0 0 1-.36-.242 1.53 1.53 0 0 1-.453-.708 1.64 1.64 0 0 1-.062-.452c0-.29.05-.545.15-.764.1-.223.238-.41.417-.563a1.76 1.76 0 0 1 .628-.343c.246-.079.515-.118.805-.118.29 0 .558.04.804.118.246.077.46.19.641.343.18.152.318.34.418.563.102.22.154.474.154.764Zm-1.09 2.866c0-.147-.022-.279-.066-.396a.905.905 0 0 0-.185-.303.833.833 0 0 0-.294-.19 1.021 1.021 0 0 0-.378-.065c-.14 0-.268.022-.382.066a.797.797 0 0 0-.47.492 1.119 1.119 0 0 0-.066.396c0 .152.023.288.07.408a.796.796 0 0 0 .483.475c.112.038.236.057.374.057.135 0 .258-.02.369-.062a.842.842 0 0 0 .29-.189.87.87 0 0 0 .185-.294c.046-.117.07-.249.07-.396Zm-.128-2.809c0-.129-.019-.246-.057-.351a.833.833 0 0 0-.158-.273.738.738 0 0 0-.255-.171.849.849 0 0 0-.334-.062.837.837 0 0 0-.33.062.619.619 0 0 0-.241.167.729.729 0 0 0-.154.272 1.217 1.217 0 0 0-.048.356c0 .13.017.248.053.356a.743.743 0 0 0 .738.514.84.84 0 0 0 .33-.061.724.724 0 0 0 .4-.453c.037-.108.056-.227.056-.356Z"/>
</svg>
