<svg fill="none" viewBox="0 0 16 16" xmlns="http://www.w3.org/2000/svg">
  <g clip-path="url(#Favorite-Solid-16_svg__a)">
    <path fill="#000" d="M9.958 1.35c-.73-1.732-3.186-1.732-3.916 0L5.009 3.802a.625.625 0 0 1-.489.376l-2.686.38C.06 4.81-.626 7.009.69 8.225l2.046 1.889c.152.14.225.347.194.552l-.434 2.88c-.272 1.812 1.72 3.096 3.258 2.1L7.66 14.41a.625.625 0 0 1 .68 0l1.906 1.236c1.537.996 3.53-.288 3.258-2.1l-.434-2.88a.625.625 0 0 1 .194-.552l2.046-1.89c1.316-1.215.63-3.413-1.144-3.664l-2.686-.381a.625.625 0 0 1-.489-.376L9.958 1.35Z"/>
  </g>
  <defs>
    <clipPath id="Favorite-Solid-16_svg__a">
      <path fill="#fff" d="M0 0h16v16H0z"/>
    </clipPath>
  </defs>
</svg>
