<svg fill="none" viewBox="0 0 24 24" xmlns="http://www.w3.org/2000/svg">
  <path fill="#000" d="M8.72 6.72a.75.75 0 0 1 1.06 0L12 8.94l2.22-2.22a.75.75 0 0 1 1.06 1.06L13.06 10l2.22 2.22a.75.75 0 1 1-1.06 1.06L12 11.06l-2.22 2.22a.75.75 0 0 1-1.06-1.06L10.94 10 8.72 7.78a.75.75 0 0 1 0-1.06Z"/>
  <path fill="#000" fill-rule="evenodd" d="M18.465 14.714c-.213.29-.444.566-.693.825l-5.197 6.193a.75.75 0 0 1-1.15 0L6.229 15.54a8.046 8.046 0 0 1-.727-.873 8 8 0 1 1 12.964.048ZM12 3.5a6.5 6.5 0 0 0-5.267 10.31l.002.003.002.002a6.536 6.536 0 0 0 .624.74L12 20.083l4.639-5.527a6.548 6.548 0 0 0 .624-.74l.001-.003.002-.003A6.5 6.5 0 0 0 12 3.5Z" clip-rule="evenodd"/>
</svg>
