<svg fill="none" viewBox="0 0 24 24" xmlns="http://www.w3.org/2000/svg">
  <path fill="#96C54E" d="M22 12c0 .874-.115 1.744-.34 2.588L12 12h10Z"/>
  <path fill="#B5CB44" d="M21.66 14.588a10.003 10.003 0 0 1-1 2.412L12 12l9.66 2.588Z"/>
  <path fill="#D5D13B" d="M20.66 17a10.006 10.006 0 0 1-1.589 2.071L12 12l8.66 5Z"/>
  <path fill="#F6D731" d="M19.072 19.071A10.006 10.006 0 0 1 17 20.661L12 12l7.072 7.071Z"/>
  <path fill="#FDCA34" d="M17 20.66c-.756.437-1.567.773-2.411 1L12 12l5 8.66Z"/>
  <path fill="#FAB63B" d="M14.589 21.66a10.06 10.06 0 0 1-2.588.34V12l2.588 9.66Z"/>
  <path fill="#F7A243" d="M12 22a10 10 0 0 1-2.588-.341L12 11.999v10Z"/>
  <path fill="#F49049" d="M9.412 21.66a9.995 9.995 0 0 1-2.412-1L12 12l-2.588 9.66Z"/>
  <path fill="#F17D51" d="M7 20.66a10.003 10.003 0 0 1-2.07-1.589L12 12l-5 8.66Z"/>
  <path fill="#DD7D73" d="M4.93 19.071A10.002 10.002 0 0 1 3.34 17L12 12l-7.07 7.071Z"/>
  <path fill="#C67D98" d="M3.34 17a10 10 0 0 1-.999-2.412L12.001 12l-8.66 5Z"/>
  <path fill="#B17DB9" d="M2.34 14.588A10 10 0 0 1 2 12h10l-9.66 2.588Z"/>
  <path fill="#9F7ED7" d="M2 12a10 10 0 0 1 .341-2.588L12.001 12H2Z"/>
  <path fill="#8F7EE7" d="M2.341 9.412a10 10 0 0 1 1-2.412L12 12 2.34 9.412Z"/>
  <path fill="#8380EC" d="M3.34 7a10 10 0 0 1 1.59-2.071L12 12 3.34 7Z"/>
  <path fill="#7681F2" d="M4.93 4.929A10 10 0 0 1 7 3.339L12 12 4.93 4.929Z"/>
  <path fill="#6A82F7" d="M7 3.34a10 10 0 0 1 2.412-1L12 12 7 3.34Z"/>
  <path fill="#5D84FD" d="M9.412 2.34A10 10 0 0 1 12 2v10L9.412 2.34Z"/>
  <path fill="#5A8AEF" d="M12 2a10 10 0 0 1 2.589.341L12 12.001V2Z"/>
  <path fill="#5D95CF" d="M14.589 2.34a10 10 0 0 1 2.411 1L12 12l2.589-9.66Z"/>
  <path fill="#619FB0" d="M17 3.34a9.995 9.995 0 0 1 2.071 1.589L12 12l5-8.66Z"/>
  <path fill="#65AA90" d="M19.071 4.929A10.003 10.003 0 0 1 20.661 7L12 12l7.071-7.071Z"/>
  <path fill="#69B570" d="M20.66 7a10.04 10.04 0 0 1 1 2.412L12 12l8.66-5Z"/>
  <path fill="#76BF57" d="M21.66 9.412A10 10 0 0 1 22 12H12l9.66-2.588Z"/>
  <path fill="#040B24" fill-opacity=".6" fill-rule="evenodd" d="M12 20.75a8.75 8.75 0 1 0 0-17.5 8.75 8.75 0 0 0 0 17.5ZM12 22c5.523 0 10-4.477 10-10S17.523 2 12 2 2 6.477 2 12s4.477 10 10 10Z" clip-rule="evenodd" style="mix-blend-mode:multiply"/>
</svg>
