<svg fill="none" viewBox="0 0 16 16" xmlns="http://www.w3.org/2000/svg">
  <path fill="#000" d="M7.026 4.525a.5.5 0 0 1 .5-.525h.948a.5.5 0 0 1 .5.525l-.2 4a.5.5 0 0 1-.5.475h-.548a.5.5 0 0 1-.5-.475l-.2-4ZM9 11a1 1 0 1 1-2 0 1 1 0 0 1 2 0Z"/>
  <path fill="#000" fill-rule="evenodd" d="M11.058 1.826c-1.335-2.394-4.78-2.394-6.115 0L.501 9.796C-.799 12.129.888 15 3.56 15h8.883c2.671 0 4.358-2.871 3.058-5.204l-4.442-7.97Zm-5.023.609c.858-1.54 3.073-1.54 3.93 0l4.443 7.97c.836 1.5-.249 3.345-1.966 3.345H3.56c-1.717 0-2.802-1.846-1.966-3.345l4.442-7.97Z" clip-rule="evenodd"/>
</svg>
