<svg fill="none" viewBox="0 0 16 16" xmlns="http://www.w3.org/2000/svg">
  <g fill="#000" clip-path="url(#Print-16_svg__a)">
    <path d="M13 7a1 1 0 1 1-2 0 1 1 0 0 1 2 0Zm-7 5a.5.5 0 0 0 0 1h3.986a.5.5 0 0 0 0-1H6Z"/>
    <path fill-rule="evenodd" d="M3.389 3.236v-.924A2.312 2.312 0 0 1 5.7 0h4.6a2.312 2.312 0 0 1 2.313 2.313v.923A4.001 4.001 0 0 1 16 7.189v4.107a2.313 2.313 0 0 1-2.313 2.312h-.937v.08A2.312 2.312 0 0 1 10.437 16H5.564a2.312 2.312 0 0 1-2.313-2.313v-.079h-.938A2.313 2.313 0 0 1 0 11.296V7.189c0-2 1.47-3.659 3.389-3.953Zm1.25-.924c0-.586.475-1.062 1.062-1.062H10.3c.587 0 1.063.476 1.063 1.063v.876H4.638v-.877Zm9.049 10.046h-.938v-1.046A2.312 2.312 0 0 0 10.437 9H5.564a2.312 2.312 0 0 0-2.313 2.313v1.045h-.938a1.063 1.063 0 0 1-1.062-1.062V7.189A2.75 2.75 0 0 1 4 4.44h8a2.75 2.75 0 0 1 2.75 2.75v4.107c0 .587-.476 1.062-1.063 1.062ZM5.562 10.25c-.586 0-1.062.476-1.062 1.063v2.374c0 .587.476 1.063 1.063 1.063h4.875c.586 0 1.062-.476 1.062-1.063v-2.374c0-.587-.476-1.063-1.063-1.063H5.564Z" clip-rule="evenodd"/>
  </g>
  <defs>
    <clipPath id="Print-16_svg__a">
      <path fill="#fff" d="M0 0h16v16H0z"/>
    </clipPath>
  </defs>
</svg>
