<svg fill="none" viewBox="0 0 16 16" xmlns="http://www.w3.org/2000/svg">
  <g clip-path="url(#Bookmark-16_svg__a)">
    <path fill="#000" fill-rule="evenodd" d="M2 4a4 4 0 0 1 4-4h4a4 4 0 0 1 4 4v9.684c0 1.857-2.079 2.957-3.614 1.912l-1.788-1.218a1.063 1.063 0 0 0-1.196 0l-1.788 1.218C4.08 16.64 2 15.54 2 13.684V4Zm4-2.75A2.75 2.75 0 0 0 3.25 4v9.684c0 .854.955 1.359 1.66.878l1.788-1.217a2.313 2.313 0 0 1 2.604 0l1.787 1.217a1.063 1.063 0 0 0 1.661-.878V4A2.75 2.75 0 0 0 10 1.25H6Z" clip-rule="evenodd"/>
  </g>
  <defs>
    <clipPath id="Bookmark-16_svg__a">
      <path fill="#fff" d="M0 0h16v16H0z"/>
    </clipPath>
  </defs>
</svg>
