<svg fill="none" viewBox="0 0 24 24" xmlns="http://www.w3.org/2000/svg">
  <path fill="#000" fill-rule="evenodd" d="M6 3a3 3 0 0 0-3 3v2a3 3 0 0 0 3 3h2a3 3 0 0 0 3-3V6a3 3 0 0 0-3-3H6ZM4.5 6A1.5 1.5 0 0 1 6 4.5h2A1.5 1.5 0 0 1 9.5 6v2A1.5 1.5 0 0 1 8 9.5H6A1.5 1.5 0 0 1 4.5 8V6ZM16 3a3 3 0 0 0-3 3v2a3 3 0 0 0 3 3h2a3 3 0 0 0 3-3V6a3 3 0 0 0-3-3h-2Zm-1.5 3A1.5 1.5 0 0 1 16 4.5h2A1.5 1.5 0 0 1 19.5 6v2A1.5 1.5 0 0 1 18 9.5h-2A1.5 1.5 0 0 1 14.5 8V6ZM3 16a3 3 0 0 1 3-3h2a3 3 0 0 1 3 3v2a3 3 0 0 1-3 3H6a3 3 0 0 1-3-3v-2Zm3-1.5A1.5 1.5 0 0 0 4.5 16v2A1.5 1.5 0 0 0 6 19.5h2A1.5 1.5 0 0 0 9.5 18v-2A1.5 1.5 0 0 0 8 14.5H6ZM16 13a3 3 0 0 0-3 3v2a3 3 0 0 0 3 3h2a3 3 0 0 0 3-3v-2a3 3 0 0 0-3-3h-2Zm-1.5 3a1.5 1.5 0 0 1 1.5-1.5h2a1.5 1.5 0 0 1 1.5 1.5v2a1.5 1.5 0 0 1-1.5 1.5h-2a1.5 1.5 0 0 1-1.5-1.5v-2Z" clip-rule="evenodd"/>
</svg>
