<svg fill="none" viewBox="0 0 12 12" xmlns="http://www.w3.org/2000/svg">
  <g fill="#000" fill-rule="evenodd" clip-path="url(#Type-Size-12_svg__a)" clip-rule="evenodd">
    <path d="M3.511 1.375a.625.625 0 0 1 .59.407l2.984 8.02a.625.625 0 1 1-1.171.435l-.995-2.675h-2.72l-.985 2.772a.625.625 0 0 1-1.178-.419l2.89-8.125a.625.625 0 0 1 .585-.415Zm.018 2.452.924 2.486H2.645l.884-2.486ZM7.907 8.41a.375.375 0 0 1-.7.008l-.33-.827 1.554-4.184a.625.625 0 0 1 1.17-.007l2.357 6.125a.625.625 0 1 1-1.167.45l-.663-1.725H7.967l-.06.16ZM9.647 7l-.62-1.608L8.432 7h1.215Z"/>
  </g>
  <defs>
    <clipPath id="Type-Size-12_svg__a">
      <path fill="#fff" d="M0 0h12v12H0z"/>
    </clipPath>
  </defs>
</svg>
