<svg fill="none" viewBox="0 0 16 16" xmlns="http://www.w3.org/2000/svg">
  <path fill="#000" fill-rule="evenodd" d="M4 1a4 4 0 0 0-4 4v6a4 4 0 0 0 4 4h3.562c.392 0 .64-.438.5-.804a4.823 4.823 0 0 1-.03-.082.537.537 0 0 0-.498-.364H4A2.75 2.75 0 0 1 1.25 11V6.25h13.5v1.767a.54.54 0 0 0 .26.45c.387.241.99-.007.99-.462V5a4 4 0 0 0-4-4H4Zm10.75 4H1.25A2.75 2.75 0 0 1 4 2.25h8A2.75 2.75 0 0 1 14.75 5Z" clip-rule="evenodd"/>
  <path fill="#000" fill-rule="evenodd" d="M16 12.5a3.5 3.5 0 1 1-7 0 3.5 3.5 0 0 1 7 0Zm-1.146-.896L12 14.457l-1.854-1.854.708-.707L12 13.043l2.146-2.147.708.707Z" clip-rule="evenodd"/>
</svg>
