<svg fill="none" viewBox="0 0 24 24" xmlns="http://www.w3.org/2000/svg">
  <path fill="#000" d="M12 7.25a.75.75 0 0 1 .75.75v3.25H16a.75.75 0 1 1 0 1.5h-3.25V16a.75.75 0 1 1-1.5 0v-3.25H8a.75.75 0 0 1 0-1.5h3.25V8a.75.75 0 0 1 .75-.75Z"/>
  <path fill="#000" fill-rule="evenodd" d="M14.555 3.122a3.719 3.719 0 0 0-5.206-.025L8.11 4.299a1.28 1.28 0 0 1-1.265.306l-.376-.114A3.406 3.406 0 0 0 2.07 7.634l-.082 2.44a11.375 11.375 0 0 0 6.61 10.717l1.78.82a3.875 3.875 0 0 0 3.242 0l1.78-.82a11.375 11.375 0 0 0 6.61-10.716l-.083-2.473a3.406 3.406 0 0 0-4.367-3.153l-.558.165c-.448.131-.931.01-1.263-.319l-1.185-1.173Zm-4.161 1.051a2.219 2.219 0 0 1 3.105.016l1.186 1.173a2.78 2.78 0 0 0 2.742.69l.558-.164a1.906 1.906 0 0 1 2.444 1.764l.083 2.473a9.875 9.875 0 0 1-5.738 9.303l-1.78.82c-.63.29-1.357.29-1.987 0l-1.78-.82a9.875 9.875 0 0 1-5.739-9.303l.082-2.44a1.906 1.906 0 0 1 2.46-1.76l.378.115c.968.295 2.02.04 2.746-.664l1.24-1.203Z" clip-rule="evenodd"/>
</svg>
