<svg fill="none" viewBox="0 0 16 16" xmlns="http://www.w3.org/2000/svg">
  <g fill="#000" clip-path="url(#Feedback-Alert-16_svg__a)">
    <path d="M7.332 7.443A.625.625 0 0 0 7.953 8h.092c.32 0 .587-.24.622-.557l.352-3.223a.875.875 0 0 0-.87-.97h-.298a.875.875 0 0 0-.87.97l.351 3.223ZM8 11a1 1 0 1 0 0-2 1 1 0 0 0 0 2Z"/>
    <path fill-rule="evenodd" d="M0 5a4 4 0 0 1 4-4h8a4 4 0 0 1 4 4v4.25a4 4 0 0 1-4 4H9.455c-.347 0-.702.152-.996.426-1.146 1.067-2.39 1.767-3.374 2.206a1.285 1.285 0 0 1-1.535-.34 1.479 1.479 0 0 1-.223-1.518c.11-.269.203-.535.268-.781C1.565 13.121 0 11.433 0 9.386V5Zm4-2.75A2.75 2.75 0 0 0 1.25 5v4.386C1.25 10.838 2.395 12 3.83 12c.288 0 .565.114.765.307a.974.974 0 0 1 .293.878c-.079.44-.236.899-.404 1.312-.045.11-.014.197.02.237.007.009.014.014.018.017a.02.02 0 0 0 .006.002h.006a.137.137 0 0 0 .041-.012c.896-.4 2.014-1.032 3.032-1.98.484-.45 1.132-.761 1.848-.761H12a2.75 2.75 0 0 0 2.75-2.75V5A2.75 2.75 0 0 0 12 2.25H4Z" clip-rule="evenodd"/>
  </g>
  <defs>
    <clipPath id="Feedback-Alert-16_svg__a">
      <path fill="#fff" d="M0 0h16v16H0z"/>
    </clipPath>
  </defs>
</svg>
