<svg fill="none" viewBox="0 0 24 24" xmlns="http://www.w3.org/2000/svg">
  <path fill="#000" d="M4 7a5 5 0 0 1 5-5h5c2.3 0 4.238 1.554 4.821 3.669.12.437-.238.831-.692.831-.38 0-.696-.285-.82-.645A3.501 3.501 0 0 0 14 3.5H9A3.5 3.5 0 0 0 5.5 7v12.102a1.375 1.375 0 0 0 2.15 1.136l2.23-1.522a2.875 2.875 0 0 1 3.241 0l2.23 1.522c.912.623 2.15-.031 2.15-1.136V17.75a.75.75 0 0 1 1.5 0v1.352c0 2.31-2.588 3.677-4.496 2.375l-2.23-1.522a1.375 1.375 0 0 0-1.55 0l-2.229 1.522C6.588 22.779 4 21.412 4 19.102V7Z"/>
  <path fill="#000" d="M18.25 8a.75.75 0 0 1 .75.75V11h2.25a.75.75 0 1 1 0 1.5H19v2.25a.75.75 0 0 1-1.5 0V12.5h-2.25a.75.75 0 0 1 0-1.5h2.25V8.75a.75.75 0 0 1 .75-.75Z"/>
</svg>
