<svg fill="none" viewBox="0 0 24 24" xmlns="http://www.w3.org/2000/svg">
  <path fill="#7BD66D" d="M22 12c0 5.523-4.477 10-10 10S2 17.523 2 12 6.477 2 12 2s10 4.477 10 10Z"/>
  <path fill="#399F29" fill-rule="evenodd" d="M5.293 18.49a7.003 7.003 0 0 1 13.414 0A9.306 9.306 0 0 1 12 21.333a9.306 9.306 0 0 1-6.707-2.843Z" clip-rule="evenodd"/>
  <path fill="#399F29" d="M16 10a4 4 0 1 1-8 0 4 4 0 0 1 8 0Z"/>
  <path fill="#1A690D" fill-rule="evenodd" d="M12 22c5.523 0 10-4.477 10-10S17.523 2 12 2 2 6.477 2 12s4.477 10 10 10Zm6.931-5.078a8.5 8.5 0 1 0-13.862 0A8 8 0 0 1 9.68 13.26a4 4 0 1 1 4.637 0 8.001 8.001 0 0 1 4.613 3.662Zm-1.054 1.219a6.5 6.5 0 0 0-11.755 0A8.471 8.471 0 0 0 12 20.5a8.47 8.47 0 0 0 5.877-2.36ZM12 12.5a2.5 2.5 0 1 0 0-5 2.5 2.5 0 0 0 0 5Z" clip-rule="evenodd"/>
</svg>
