<svg fill="none" viewBox="0 0 16 16" xmlns="http://www.w3.org/2000/svg">
  <path fill="#000" d="M1 3.686A3.686 3.686 0 0 1 4.686 0h2.628a3.68 3.68 0 0 1 2.877 1.382c.211.263 0 .618-.336.618h-.356c-.273 0-.527-.12-.747-.28a2.42 2.42 0 0 0-1.438-.47H4.686A2.436 2.436 0 0 0 2.25 3.686V10.8a.907.907 0 0 0 1.084.889c.317-.07.666.07.666.395v.045c0 .399-.237.782-.633.82C2.174 13.067 1 12.15 1 10.8V3.686Z"/>
  <path fill="#000" fill-rule="evenodd" d="M8.686 3A3.686 3.686 0 0 0 5 6.686V13.8c0 1.745 1.965 2.767 3.394 1.765l1.086-.762a.906.906 0 0 1 1.04 0l1.086.762c1.429 1.002 3.394-.02 3.394-1.764V6.685A3.686 3.686 0 0 0 11.314 3H8.686ZM6.25 6.686A2.436 2.436 0 0 1 8.686 4.25h2.628a2.436 2.436 0 0 1 2.436 2.436V13.8a.906.906 0 0 1-1.426.742l-1.086-.762a2.155 2.155 0 0 0-2.476 0l-1.086.762A.906.906 0 0 1 6.25 13.8V6.686Z" clip-rule="evenodd"/>
</svg>
