<svg fill="none" viewBox="0 0 24 24" xmlns="http://www.w3.org/2000/svg">
  <path fill="#000" d="M15.552 2.475a.75.75 0 0 1 1.396.55l-2.56 6.499a.75.75 0 0 1-1.395-.55l2.56-6.499Z"/>
  <path fill="#000" fill-rule="evenodd" d="M8.448 2.475a.75.75 0 0 0-1.396.55l3.528 8.955a4.25 4.25 0 0 1 0 3.116l-.213.542c-.076.192-.344.218-.473.057a3.875 3.875 0 1 0 .328 4.384c.385-.657.564-1.412.843-2.12l.703-1.784a.25.25 0 0 1 .465 0l.703 1.784c.279.708.458 1.463.842 2.12a3.875 3.875 0 1 0 .328-4.384c-.129.16-.397.135-.472-.057L8.448 2.475ZM6.875 15.75a2.375 2.375 0 1 0 0 4.75 2.375 2.375 0 0 0 0-4.75Zm10.25 0a2.375 2.375 0 1 0 0 4.75 2.375 2.375 0 0 0 0-4.75Z" clip-rule="evenodd"/>
</svg>
