<svg fill="none" viewBox="0 0 16 16" xmlns="http://www.w3.org/2000/svg">
  <path fill="#000" d="M4 1a4 4 0 0 0-4 4v6a4 4 0 0 0 4 4h1.34a.625.625 0 0 0 0-1.25H4c-.533 0-1.03-.152-1.452-.414L6.5 9.384l1.496 1.495 4.383-4.383-.437-.438a.625.625 0 0 0-.884 0L8 9.116 6.942 8.058a.625.625 0 0 0-.884 0l-4.394 4.394A2.737 2.737 0 0 1 1.25 11V5A2.75 2.75 0 0 1 4 2.25h8A2.75 2.75 0 0 1 14.75 5v.196a.625.625 0 0 0 1.25 0V5a4 4 0 0 0-4-4H4Z"/>
  <path fill="#000" d="M4.5 7a1.5 1.5 0 1 0 0-3 1.5 1.5 0 0 0 0 3Zm5.23 8.208 6.016-6.016a.625.625 0 0 0 0-.884l-1.117-1.116a.625.625 0 0 0-.883 0l-6.017 6.016a.625.625 0 0 0-.15.244l-.559 1.675a.625.625 0 0 0 .79.79l1.675-.558a.625.625 0 0 0 .244-.15Z"/>
</svg>
