<svg fill="none" viewBox="0 0 12 12" xmlns="http://www.w3.org/2000/svg">
  <g fill="#000" clip-path="url(#Fingerprint-12_svg__a)">
    <path d="M3.704.457a6 6 0 0 1 4.947.16A.625.625 0 1 1 8.1 1.74a4.752 4.752 0 0 0-6.487 2.443A4.75 4.75 0 0 0 1.25 6v2.375a.625.625 0 1 1-1.25 0V6A6 6 0 0 1 3.704.457Zm6.595 2.256a.625.625 0 0 1 .856.217A5.997 5.997 0 0 1 12 6v2.375a.625.625 0 1 1-1.25 0V6a4.75 4.75 0 0 0-.669-2.43.625.625 0 0 1 .218-.857Z"/>
    <path d="M4.47 2.304A4 4 0 0 1 10 6v3.875a.625.625 0 1 1-1.25 0V6a2.75 2.75 0 1 0-5.5 0v3.875a.625.625 0 1 1-1.25 0V6a4 4 0 0 1 2.47-3.696Z"/>
    <path d="M6 4a2 2 0 0 0-2 2v.375a.625.625 0 1 0 1.25 0V6a.75.75 0 0 1 1.5 0v5.313a.625.625 0 1 0 1.25 0V6a2 2 0 0 0-2-2Z"/>
    <path d="M5.25 8.656a.625.625 0 1 0-1.25 0v2.656a.625.625 0 1 0 1.25 0V8.656Z"/>
  </g>
  <defs>
    <clipPath id="Fingerprint-12_svg__a">
      <path fill="#fff" d="M0 0h12v12H0z"/>
    </clipPath>
  </defs>
</svg>
