<svg fill="none" viewBox="0 0 12 12" xmlns="http://www.w3.org/2000/svg">
  <g clip-path="url(#Thumbs-Up-12_svg__a)">
    <path fill="#000" fill-rule="evenodd" d="M2.572 3.993H3c.22 0 .328-.07.409-.167.105-.125.199-.34.262-.672.102-.532.093-1.15.084-1.74A32.693 32.693 0 0 1 3.75.93c0-.367.247-.586.391-.68.156-.1.335-.158.491-.193.32-.07.715-.077 1.097-.013.38.064.809.21 1.155.498.366.304.616.75.616 1.326 0 .246-.031.47-.089.674a3.15 3.15 0 0 0-.089.384c.032.003.07.004.115.004h2.87a1.545 1.545 0 0 1 1.365 2.268l-.018.034a1.563 1.563 0 0 1-.125 2.136l-.075.072.006.014a1.562 1.562 0 0 1-.455 1.945l-.002.001.004.015c.114.417.017.863-.26 1.195a1.74 1.74 0 0 1-1.558.613l-5.473-.698c-.23.428-.682.725-1.212.725H1.375C.615 11.25 0 10.634 0 9.875v-4.75c0-.76.616-1.375 1.375-1.375h.417c.287 0 .557.089.78.243Zm2.433-2.671-.001-.06c.141-.018.326-.017.517.015.245.041.441.124.564.226.102.085.165.19.165.365 0 .14-.018.25-.042.335-.059.21-.11.422-.133.622-.021.195-.022.44.077.678.24.579.835.677 1.285.677h2.87a.295.295 0 0 1 .26.433l-.244.462a.625.625 0 0 0 .158.778l.17.139c.147.119.156.34.019.469l-.412.39a.625.625 0 0 0-.13.734l.214.428a.313.313 0 0 1-.09.389l-.34.256a.625.625 0 0 0-.226.663l.115.422a.073.073 0 0 1-.014.067.492.492 0 0 1-.44.173l-5.542-.707-.607-4.043a1.69 1.69 0 0 0 1.168-.603c.302-.36.452-.817.533-1.242.129-.672.115-1.468.106-2.067ZM1.25 5.124c0-.069.056-.125.125-.125h.417c.061 0 .114.045.123.106l.713 4.75a.125.125 0 0 1-.124.144H1.375a.125.125 0 0 1-.125-.125v-4.75Z" clip-rule="evenodd"/>
  </g>
  <defs>
    <clipPath id="Thumbs-Up-12_svg__a">
      <path fill="#fff" d="M0 0h12v12H0z"/>
    </clipPath>
  </defs>
</svg>
