<svg fill="none" viewBox="0 0 24 24" xmlns="http://www.w3.org/2000/svg">
  <path fill="#000" d="M14.25 17a.75.75 0 1 1 0 1.5h-.945c.016.016.033.03.048.048l.047.06.133.186c.28.362.625.67 1.016.908l.2.113c.473.25.994.396 1.528.428l.23.007a3.75 3.75 0 0 0 1.549-.338l.206-.101a3.75 3.75 0 0 0 1.346-1.211.75.75 0 0 1 1.242.84l-.188.26a5.253 5.253 0 0 1-1.696 1.435l-.287.141a5.25 5.25 0 0 1-2.17.474l-.322-.01a5.25 5.25 0 0 1-2.14-.598l-.278-.159A5.255 5.255 0 0 1 12.5 19.9v.85a.75.75 0 1 1-1.5 0v-3a.75.75 0 0 1 .75-.75h2.5Zm-3-15a6.25 6.25 0 0 1 5.836 4.013c1.196.083 2.27.61 3.059 1.415l.168.18.048.06a.75.75 0 0 1-1.12.987l-.053-.054-.115-.124A3.238 3.238 0 0 0 16.75 7.5a1.03 1.03 0 0 1-.915-.558l-.063-.153a4.75 4.75 0 0 0-9.186 2.36l.017.125a1.36 1.36 0 0 1-.799 1.358l-.112.044A3.25 3.25 0 0 0 6.75 17h2a.75.75 0 0 1 0 1.5h-2a4.75 4.75 0 0 1-1.66-9.2A6.25 6.25 0 0 1 11.25 2Z"/>
  <path fill="#000" d="M21.25 11.25A.75.75 0 0 1 22 12v3a.75.75 0 0 1-.75.75h-2.5a.75.75 0 0 1 0-1.5h.75l-.002-.003-.14-.175a3.747 3.747 0 0 0-1.03-.846l-.2-.104a3.75 3.75 0 0 0-1.509-.37h-.224a3.75 3.75 0 0 0-1.511.364l-.2.103a3.76 3.76 0 0 0-1.304 1.2.75.75 0 0 1-1.248-.831l.182-.256a5.253 5.253 0 0 1 1.644-1.426l.28-.143a5.25 5.25 0 0 1 2.114-.511h.314a5.25 5.25 0 0 1 2.113.518l.28.145a5.253 5.253 0 0 1 1.441 1.184V12a.75.75 0 0 1 .75-.75Z"/>
</svg>
