<svg fill="none" viewBox="0 0 16 16" xmlns="http://www.w3.org/2000/svg">
  <g fill="#000" clip-path="url(#Fire-Window-16_svg__a)">
    <path d="M10.177.013a.625.625 0 0 1 .738.487c.035.171.065.248.095.294.018.029.055.076.18.127a.625.625 0 0 1-.47 1.158 1.578 1.578 0 0 1-.76-.607A2.065 2.065 0 0 1 9.69.75a.625.625 0 0 1 .487-.738Zm-3.81.01a.625.625 0 0 1 .535.096c1.5 1.084 1.82 2.64 2.054 3.77l.03.141c.127.61.23 1.023.41 1.306.139.218.338.383.806.416.533.037.82-.087.983-.218.173-.137.29-.347.36-.62.069-.272.079-.565.067-.802a3.378 3.378 0 0 0-.036-.35l-.003-.016v-.002a.625.625 0 0 1 1.054-.562c1.952 1.944 3.185 4.388 3.355 6.646.098 1.292-.207 2.53-.982 3.556a4.95 4.95 0 0 1-.196.243c-.273.317-.795.027-.798-.392-.002-.39.135-.764.316-1.11.342-.655.474-1.401.414-2.203-.114-1.506-.805-3.188-1.978-4.707l-.002.008c-.112.439-.339.928-.791 1.289-.462.368-1.08.541-1.851.487-.836-.06-1.407-.417-1.773-.992-.325-.51-.462-1.16-.58-1.722l-.01-.05c-.198-.952-.388-1.862-1.023-2.595-.504.879-1.176 1.66-1.863 2.418l-.429.47c-.762.831-1.529 1.667-2.198 2.654-1.165 1.717-1.228 3.33-.563 4.61.185.356.323.738.315 1.138-.009.431-.543.694-.816.36a5.554 5.554 0 0 1-.145-.186c-1.376-1.837-1.425-4.267.175-6.624.725-1.069 1.561-1.98 2.324-2.812a49.8 49.8 0 0 0 .41-.45C4.82 2.247 5.543 1.374 5.96.384a.625.625 0 0 1 .408-.36Z"/>
    <path fill-rule="evenodd" d="M5.5 8A2.5 2.5 0 0 0 3 10.5v3A2.5 2.5 0 0 0 5.5 16h5a2.5 2.5 0 0 0 2.5-2.5v-3A2.5 2.5 0 0 0 10.5 8h-5Zm-1.25 2.5c0-.69.56-1.25 1.25-1.25h5c.69 0 1.25.56 1.25 1.25v3c0 .69-.56 1.25-1.25 1.25h-5c-.69 0-1.25-.56-1.25-1.25v-3Z" clip-rule="evenodd"/>
  </g>
  <defs>
    <clipPath id="Fire-Window-16_svg__a">
      <path fill="#fff" d="M0 0h16v16H0z"/>
    </clipPath>
  </defs>
</svg>
