<svg fill="none" viewBox="0 0 16 16" xmlns="http://www.w3.org/2000/svg">
  <g clip-path="url(#Tab-Mobile-Recolorable-16_svg__a)">
    <path fill="#000" d="M6.75 0A3.75 3.75 0 0 0 3 3.75v5.5A3.75 3.75 0 0 0 6.75 13h5.5A3.75 3.75 0 0 0 16 9.25V6.875a.625.625 0 1 0-1.25 0V9.25a2.5 2.5 0 0 1-2.5 2.5h-5.5a2.5 2.5 0 0 1-2.5-2.5v-5.5a2.5 2.5 0 0 1 2.5-2.5h2.375a.625.625 0 0 0 0-1.25H6.75Z"/>
    <path fill="#000" d="M1.75 4.128c0-.502-.499-.852-.88-.524A2.494 2.494 0 0 0 0 5.5v5A5.5 5.5 0 0 0 5.5 16h5c.758 0 1.438-.338 1.896-.87.328-.381-.022-.88-.524-.88-.234 0-.446.122-.635.26-.207.151-.462.24-.737.24h-5a4.25 4.25 0 0 1-4.25-4.25v-5c0-.275.09-.53.24-.736.138-.19.26-.402.26-.636Z"/>
    <circle cx="13.5" cy="2.5" r="2.5" fill="#3969EF"/>
  </g>
  <defs>
    <clipPath id="Tab-Mobile-Recolorable-16_svg__a">
      <path fill="#fff" d="M0 0h16v16H0z"/>
    </clipPath>
  </defs>
</svg>
