<svg fill="none" viewBox="0 0 24 24" xmlns="http://www.w3.org/2000/svg">
  <path fill="#DDD" d="M16 3a5 5 0 0 1 5 5v1.5c0 .5-.756 2.135-1.18 1.921a6.25 6.25 0 0 0-8.43 8.337C11.61 20.204 10.5 21 9.5 21H8a5 5 0 0 1-5-5V8a5 5 0 0 1 5-5h8Z"/>
  <path fill="url(#Add-Widget-Color-24_svg__a)" d="M16.129 3.002A5 5 0 0 1 21 8v2.703c0 .594-.718.944-1.25.683V8A3.75 3.75 0 0 0 16 4.25H8A3.75 3.75 0 0 0 4.25 8v8A3.75 3.75 0 0 0 8 19.75h3.387c.261.532-.09 1.25-.683 1.25H8l-.129-.002a5 5 0 0 1-4.87-4.87V8a5 5 0 0 1 4.871-4.998L8 3h8l.129.002Z"/>
  <path fill="#888" d="M11.08 15a6.24 6.24 0 0 0-.249 3H8a2 2 0 0 1-2-2 1 1 0 0 1 1-1h4.08ZM10 6a2 2 0 0 1 2 2v2a2 2 0 0 1-2 2H8a2 2 0 0 1-2-2V8a2 2 0 0 1 2-2h2Z"/>
  <path fill="#4CBA3C" d="M22 17a5 5 0 1 1-10 0 5 5 0 0 1 10 0Z"/>
  <path fill="url(#Add-Widget-Color-24_svg__b)" d="M20.75 17A3.75 3.75 0 1 0 17 20.75V22a5 5 0 1 1 0-10 5 5 0 0 1 0 10v-1.25A3.75 3.75 0 0 0 20.75 17Z"/>
  <path fill="#fff" d="M17 14.375c.345 0 .625.28.625.625v1.375h1.407a.625.625 0 0 1 0 1.25h-1.407v1.407a.625.625 0 0 1-1.25 0v-1.407H15a.625.625 0 1 1 0-1.25h1.375V15c0-.345.28-.625.625-.625Z"/>
  <defs>
    <linearGradient id="Add-Widget-Color-24_svg__a" x1="12" x2="12" y1="3" y2="21" gradientUnits="userSpaceOnUse">
      <stop stop-color="#888"/>
      <stop offset="1" stop-color="#333"/>
    </linearGradient>
    <linearGradient id="Add-Widget-Color-24_svg__b" x1="17" x2="17" y1="12" y2="22" gradientUnits="userSpaceOnUse">
      <stop stop-color="#399F29"/>
      <stop offset="1" stop-color="#288419"/>
    </linearGradient>
  </defs>
</svg>
