<svg fill="none" viewBox="0 0 16 16" xmlns="http://www.w3.org/2000/svg">
  <g clip-path="url(#Favorite-16_svg__a)">
    <path fill="#000" fill-rule="evenodd" d="M6.042 1.35c.73-1.732 3.186-1.732 3.916 0l1.033 2.452a.628.628 0 0 0 .489.376l2.686.38c1.774.252 2.46 2.45 1.144 3.666l-2.046 1.889a.625.625 0 0 0-.194.552l.434 2.88c.272 1.812-1.72 3.096-3.258 2.1L8.34 14.409a.625.625 0 0 0-.68 0l-1.906 1.236c-1.537.996-3.53-.288-3.258-2.1l.434-2.88a.625.625 0 0 0-.194-.552L.69 8.223C-.626 7.009.06 4.81 1.834 4.56l2.686-.381a.625.625 0 0 0 .489-.376L6.042 1.35Zm2.764.486c-.3-.714-1.312-.714-1.612 0L6.16 4.287a1.875 1.875 0 0 1-1.465 1.128l-2.687.381a.875.875 0 0 0-.47 1.51l2.045 1.889c.457.421.675 1.042.582 1.656l-.433 2.88a.875.875 0 0 0 1.34.865L6.98 13.36a1.875 1.875 0 0 1 2.04 0l1.906 1.236a.875.875 0 0 0 1.341-.864l-.433-2.881a1.875 1.875 0 0 1 .582-1.656l2.046-1.89a.875.875 0 0 0-.471-1.509l-2.687-.38a1.875 1.875 0 0 1-1.464-1.13l-1.034-2.45Z" clip-rule="evenodd"/>
  </g>
  <defs>
    <clipPath id="Favorite-16_svg__a">
      <path fill="#fff" d="M0 0h16v16H0z"/>
    </clipPath>
  </defs>
</svg>
