<svg fill="none" viewBox="0 0 24 24" xmlns="http://www.w3.org/2000/svg">
  <path fill="#F5F5F5" d="M17.625 3A4.375 4.375 0 0 1 22 7.375v3.375c0 .25-.776 1.605-1.25 1.25a6.25 6.25 0 0 0-9.323 7.833C11.641 20.252 10.75 21 10 21H6.375A4.375 4.375 0 0 1 2 16.625v-9.25A4.375 4.375 0 0 1 6.375 3h11.25Z"/>
  <path fill="#CCC" d="M2.25 7.625A4.375 4.375 0 0 1 6.625 3.25h10.75a4.375 4.375 0 0 1 4.375 4.375V9H2.25V7.625Z"/>
  <path fill="url(#Browser-Color-24_svg__a)" fill-rule="evenodd" d="M17.85 3.006A4.375 4.375 0 0 1 22 7.375v4.1c0 .57-.795.866-1.25.524V9.25H3.25v7.375c0 1.726 1.4 3.125 3.125 3.125h5.012c.261.532-.09 1.25-.683 1.25H6.375a4.375 4.375 0 0 1-4.37-4.15L2 16.626v-9.25A4.375 4.375 0 0 1 6.375 3h11.25l.226.006ZM6.376 4.25a3.125 3.125 0 0 0-3.121 2.964l-.004.161V8h17.5v-.625c0-1.726-1.4-3.125-3.125-3.125H6.375Z" clip-rule="evenodd"/>
  <path fill="#ADC2FC" d="M22 17a5 5 0 1 1-10 0 5 5 0 0 1 10 0Z"/>
  <path fill="url(#Browser-Color-24_svg__b)" d="M17 12a5 5 0 1 1 0 10 5 5 0 0 1 0-10Zm-1.001 5.625c.063.975.266 1.807.532 2.394.21.462.386.633.469.697.083-.064.26-.235.47-.697.266-.587.468-1.419.531-2.394h-2.002Zm-2.696 0a3.753 3.753 0 0 0 2.011 2.725c-.304-.741-.508-1.683-.567-2.725h-1.444Zm5.95 0c-.058 1.041-.263 1.983-.567 2.724a3.752 3.752 0 0 0 2.011-2.724h-1.443Zm-3.938-3.976a3.754 3.754 0 0 0-2.012 2.726h1.444c.06-1.042.264-1.984.568-2.726ZM17 13.283c-.083.063-.258.235-.469.698-.266.587-.47 1.419-.532 2.394h2.002c-.063-.975-.265-1.807-.531-2.394-.21-.463-.387-.635-.47-.698Zm1.683.365c.305.742.51 1.684.57 2.727h1.444a3.753 3.753 0 0 0-2.014-2.727Z"/>
  <defs>
    <linearGradient id="Browser-Color-24_svg__a" x1="12" x2="12" y1="3" y2="21" gradientUnits="userSpaceOnUse">
      <stop stop-color="#888"/>
      <stop offset="1" stop-color="#333"/>
    </linearGradient>
    <linearGradient id="Browser-Color-24_svg__b" x1="17" x2="17" y1="12" y2="22" gradientUnits="userSpaceOnUse">
      <stop stop-color="#2B55CA"/>
      <stop offset="1" stop-color="#1E42A4"/>
    </linearGradient>
  </defs>
</svg>
