<svg fill="none" viewBox="0 0 16 16" xmlns="http://www.w3.org/2000/svg">
  <path fill="#000" d="M5 0a4 4 0 0 0-4 4v8a4 4 0 0 0 4 4h6c.055 0 .109-.001.163-.003.507-.02.656-.676.308-1.045l-.025-.026A.608.608 0 0 0 11 14.75H5A2.75 2.75 0 0 1 2.25 12V4A2.75 2.75 0 0 1 5 1.25h6A2.75 2.75 0 0 1 13.75 4v8a.61.61 0 0 0 .176.446l.026.025c.37.348 1.024.199 1.045-.308A4.39 4.39 0 0 0 15 12V4a4 4 0 0 0-4-4H5Z"/>
  <path fill="#000" fill-rule="evenodd" d="M11.236 11.352a4 4 0 1 0-.884.884l2.581 2.58a.625.625 0 1 0 .884-.883l-2.581-2.581ZM5.25 9a2.75 2.75 0 1 1 5.5 0 2.75 2.75 0 0 1-5.5 0Z" clip-rule="evenodd"/>
</svg>
