<svg fill="none" viewBox="0 0 20 20" xmlns="http://www.w3.org/2000/svg">
  <g fill="#000" fill-rule="evenodd" clip-path="url(#Shield-Disabled-20_svg__a)" clip-rule="evenodd">
    <path d="M15.5 20a4.5 4.5 0 1 0 0-9 4.5 4.5 0 0 0 0 9Zm2.5-5h-5v1h5v-1Z"/>
    <path d="M9.997.868a2.312 2.312 0 0 0-1.645.663c-.773.779-1.456 1.207-2.157 1.43-.703.225-1.545.283-2.708.136a2.364 2.364 0 0 0-1.71.442c-.49.368-.803.929-.808 1.553-.037 4.32.594 7.117 1.941 9.132 1.423 2.128 3.542 3.202 5.74 4.315l.275.14c.057.029.114.055.173.079.652.266 1.013-.524.77-1.185A5.988 5.988 0 0 1 9.5 15.5c0-1.25.382-2.41 1.034-3.37a1.09 1.09 0 0 0 .199-.613V2.705c.859.844 1.708 1.382 2.645 1.673.972.301 2.04.336 3.318.173a.9.9 0 0 1 .646.158c.16.12.223.27.224.395.013 1.595-.068 2.936-.234 4.078a.734.734 0 0 0 .458.77c.417.173.916-.048.982-.495.188-1.256.273-2.697.26-4.365-.006-.625-.32-1.186-.81-1.554a2.365 2.365 0 0 0-1.711-.44c-1.156.146-1.996.098-2.699-.12-.703-.218-1.392-.643-2.173-1.439A2.31 2.31 0 0 0 9.997.868Zm-.73 1.819v14.522c-2.228-1.13-3.968-2.05-5.139-3.8-1.106-1.654-1.73-4.1-1.694-8.305a.507.507 0 0 1 .224-.394.9.9 0 0 1 .645-.159c1.294.163 2.366.117 3.339-.193.934-.299 1.775-.841 2.625-1.671Z"/>
  </g>
  <defs>
    <clipPath id="Shield-Disabled-20_svg__a">
      <path fill="#fff" d="M0 0h20v20H0z"/>
    </clipPath>
  </defs>
</svg>
