<svg fill="none" viewBox="0 0 16 16" xmlns="http://www.w3.org/2000/svg">
  <g fill="#000" clip-path="url(#Open-In-Alt-16_svg__a)">
    <path d="M.87 3.605c.381-.327.88.022.88.525 0 .234-.122.446-.26.635-.15.206-.24.46-.24.736v5a4.25 4.25 0 0 0 4.25 4.25h5c.275 0 .53-.09.735-.241.189-.138.401-.26.635-.26.502 0 .852.498.525.879a2.49 2.49 0 0 1-1.64.86L10.5 16h-5l-.283-.007a5.502 5.502 0 0 1-5.21-5.21L0 10.501v-5c0-.758.338-1.437.87-1.896Z"/>
    <path d="M8.375 0a.625.625 0 1 1 0 1.25H6.75a2.5 2.5 0 0 0-2.5 2.5v5.5a2.5 2.5 0 0 0 2.5 2.5h5.5a2.5 2.5 0 0 0 2.5-2.5V7.625a.625.625 0 1 1 1.25 0V9.25l-.005.193a3.75 3.75 0 0 1-3.552 3.552L12.25 13h-5.5l-.193-.005a3.75 3.75 0 0 1-3.552-3.552L3 9.25v-5.5A3.75 3.75 0 0 1 6.557.005L6.75 0h1.625Z"/>
    <path d="M13.875 0C15.049 0 16 .951 16 2.125v2.25a.625.625 0 1 1-1.25 0v-2.24l-4.683 4.682a.626.626 0 0 1-.884-.884l4.682-4.683h-2.24a.625.625 0 1 1 0-1.25h2.25Z"/>
  </g>
  <defs>
    <clipPath id="Open-In-Alt-16_svg__a">
      <path fill="#fff" d="M0 0h16v16H0z"/>
    </clipPath>
  </defs>
</svg>
