<svg fill="none" viewBox="0 0 16 16" xmlns="http://www.w3.org/2000/svg">
  <path fill="#000" fill-rule="evenodd" d="M5.387 5a3.83 3.83 0 0 1 2.962 1.4 2.684 2.684 0 0 1 3.453 2.57l-.01.213A2.942 2.942 0 0 1 11.177 15H2.94l-.151-.004A2.942 2.942 0 0 1 0 12.06c0-1.14.649-2.122 1.594-2.61A3.842 3.842 0 0 1 5.387 5Zm0 1.25a2.592 2.592 0 0 0-2.578 2.327l-.014.265c0 .207.025.41.071.603l.054.192a.625.625 0 0 1-.429.794l-.132.042a1.69 1.69 0 0 0 .41 3.268l.172.009h8.236a1.692 1.692 0 0 0 0-3.382h-.15a.626.626 0 0 1-.58-.86 1.43 1.43 0 0 0 .098-.397l.007-.14A1.434 1.434 0 0 0 8.43 7.713a.626.626 0 0 1-.834-.222l-.09-.137a2.585 2.585 0 0 0-2.12-1.104Z" clip-rule="evenodd"/>
  <path fill="#000" d="M11.5 1a4.5 4.5 0 0 1 3 7.854c-.16.143-.39.14-.571.033l-.075-.052c-.301-.25-.314-.778-.039-1.057A3.25 3.25 0 1 0 8.627 3.98c-.175.331-.61.492-.942.322L7.684 4.3c-.25-.129-.393-.417-.277-.672A4.5 4.5 0 0 1 11.5 1Z"/>
</svg>
