<svg fill="none" viewBox="0 0 16 16" xmlns="http://www.w3.org/2000/svg">
  <g fill="#000" clip-path="url(#Weather-16_svg__a)">
    <path d="M12.394 1.09a4.5 4.5 0 0 0-4.978 2.52.75.75 0 1 0 1.361.63 3 3 0 1 1 4.685 3.53.75.75 0 1 0 .98 1.135 4.5 4.5 0 0 0-2.048-7.815Z"/>
    <path fill-rule="evenodd" d="M5.375 5c1.17 0 2.22.52 2.93 1.339a2.753 2.753 0 0 1 3.443 2.755A3.001 3.001 0 0 1 11 15H3a3 3 0 0 1-1.467-5.617A3.875 3.875 0 0 1 5.375 5Zm2.027 2.636a2.375 2.375 0 0 0-4.289 1.966.75.75 0 0 1-.514.952A1.501 1.501 0 0 0 3 13.5h8a1.5 1.5 0 0 0 0-3h-.145a.75.75 0 0 1-.696-1.031 1.25 1.25 0 0 0-1.758-1.566.75.75 0 0 1-1-.267Z" clip-rule="evenodd"/>
  </g>
  <defs>
    <clipPath id="Weather-16_svg__a">
      <path fill="#fff" d="M0 0h16v16H0z"/>
    </clipPath>
  </defs>
</svg>
