<svg fill="none" viewBox="0 0 16 16" xmlns="http://www.w3.org/2000/svg">
  <g fill="#000" clip-path="url(#Arrow-Circle-Up-Left-16_svg__a)">
    <path d="M9.875 6.25a.625.625 0 0 0 0-1.25h-3.25C5.728 5 5 5.728 5 6.625v3.25a.625.625 0 1 0 1.25 0V7.134l3.683 3.683a.625.625 0 1 0 .884-.884L7.134 6.25h2.741Z"/>
    <path fill-rule="evenodd" d="M0 8a8 8 0 1 1 16 0A8 8 0 0 1 0 8Zm8-6.75a6.75 6.75 0 1 0 0 13.5 6.75 6.75 0 0 0 0-13.5Z" clip-rule="evenodd"/>
  </g>
  <defs>
    <clipPath id="Arrow-Circle-Up-Left-16_svg__a">
      <path fill="#fff" d="M0 0h16v16H0z"/>
    </clipPath>
  </defs>
</svg>
