<svg fill="none" viewBox="0 0 24 24" xmlns="http://www.w3.org/2000/svg">
  <path fill="#000" d="M3.41 6.953c.467-.396 1.09.007 1.09.62 0 .27-.134.519-.32.716A2.488 2.488 0 0 0 3.5 10v5A5.5 5.5 0 0 0 9 20.5h5c.662 0 1.263-.259 1.71-.68.198-.186.448-.32.719-.32.612 0 1.016.624.62 1.09a3.992 3.992 0 0 1-2.843 1.405L14 22H9l-.36-.009a7.001 7.001 0 0 1-6.631-6.63L2 15v-5a3.99 3.99 0 0 1 1.41-3.047Z"/>
  <path fill="#000" fill-rule="evenodd" d="M17.257 2.007A5 5 0 0 1 22 7v6l-.007.257a5 5 0 0 1-4.736 4.736L17 18h-6l-.257-.007a5 5 0 0 1-4.736-4.736L6 13V7a5 5 0 0 1 4.743-4.993L11 2h6l.257.007ZM11 3.5A3.5 3.5 0 0 0 7.5 7v6a3.5 3.5 0 0 0 3.5 3.5h6a3.5 3.5 0 0 0 3.5-3.5V7A3.5 3.5 0 0 0 17 3.5h-6Z" clip-rule="evenodd"/>
  <path fill="#000" d="M18.177 10.19c0 .19-.014.375-.041.553a3.037 3.037 0 0 1-.116.486 2.35 2.35 0 0 1-.308.601 1.548 1.548 0 0 1-.465.43 1.89 1.89 0 0 1-.526.233 2.51 2.51 0 0 1-.636.075 1.66 1.66 0 0 1-.608-.109 2.09 2.09 0 0 1-.52-.294 2.481 2.481 0 0 1-.444-.43 4.188 4.188 0 0 1-.342-.513 4.303 4.303 0 0 1-.355.512 2.408 2.408 0 0 1-.431.431 2.09 2.09 0 0 1-.52.294 1.64 1.64 0 0 1-.601.11 2.51 2.51 0 0 1-.636-.076 1.944 1.944 0 0 1-.512-.225 1.87 1.87 0 0 1-.752-.957 2.55 2.55 0 0 1-.144-.52 4.244 4.244 0 0 1-.041-.601v-.247c0-.218.016-.426.048-.622s.082-.378.15-.547c.078-.205.182-.387.315-.546a1.7 1.7 0 0 1 .957-.602c.187-.05.39-.075.608-.075.214 0 .415.036.602.11.191.068.367.161.526.28.16.118.303.255.43.41.133.155.251.319.356.492.055-.096.114-.19.178-.28.068-.096.141-.185.219-.267.095-.114.207-.221.335-.321.127-.1.264-.183.41-.246a1.859 1.859 0 0 1 .779-.178c.223 0 .428.025.615.075.192.05.363.12.513.212.182.114.34.257.472.43.132.174.234.367.307.582.06.16.103.332.13.52.032.181.048.373.048.573v.247Zm-1.395-.247a2.758 2.758 0 0 0-.027-.39 1.137 1.137 0 0 0-.055-.198 1.06 1.06 0 0 0-.082-.177.598.598 0 0 0-.239-.212.836.836 0 0 0-.376-.075.698.698 0 0 0-.273.054 1.123 1.123 0 0 0-.24.137 1.414 1.414 0 0 0-.293.3 2.295 2.295 0 0 0-.28.48.642.642 0 0 0-.035.102v.11c.005.027.018.07.041.13.023.058.053.124.089.197.06.11.132.228.219.356a1.288 1.288 0 0 0 .526.437.712.712 0 0 0 .24.041c.086 0 .163-.006.232-.02a.938.938 0 0 0 .191-.069.66.66 0 0 0 .178-.177 1.04 1.04 0 0 0 .123-.246c.023-.078.039-.16.048-.246a2.8 2.8 0 0 0 .014-.287v-.247Zm-5.222.247c0 .113.004.22.013.32.014.101.035.19.062.267a.963.963 0 0 0 .137.24c.054.068.125.12.212.157.05.018.104.034.164.048.063.009.132.013.205.013a.633.633 0 0 0 .26-.054.881.881 0 0 0 .239-.15 1.83 1.83 0 0 0 .294-.343 5.7 5.7 0 0 0 .205-.328c.032-.068.057-.127.075-.177a.872.872 0 0 0 .034-.11v-.11a1.185 1.185 0 0 0-.144-.314 2.048 2.048 0 0 0-.355-.478 1.116 1.116 0 0 0-.287-.198.674.674 0 0 0-.328-.082 1.03 1.03 0 0 0-.246.027.883.883 0 0 0-.192.075.614.614 0 0 0-.191.198 1.26 1.26 0 0 0-.11.267c-.013.073-.024.15-.034.232a2.214 2.214 0 0 0-.013.253v.247Z"/>
</svg>
