<svg fill="none" viewBox="0 0 24 24" xmlns="http://www.w3.org/2000/svg">
  <path fill="#DDD" d="M8.75 6a3.25 3.25 0 0 1 6.5 0v5a3.25 3.25 0 0 1-6.5 0V6Z"/>
  <path fill="url(#Microphone-Color-24_svg__a)" d="M5.422 9.995c.344.02.608.316.588.66l-.004.077a6 6 0 0 0 .356 2.322l.027.072a6 6 0 0 0 1.246 1.99l.053.056A6.001 6.001 0 0 0 11.995 17h.076a5.998 5.998 0 0 0 2.298-.488l.07-.03a6 6 0 0 0 3.195-3.418l.026-.072a6 6 0 0 0 .334-2.25l-.003-.076-.001-.032a.625.625 0 0 1 1.246-.07l.003.032.004.093a7.25 7.25 0 0 1-.404 2.718l-.031.087a7.248 7.248 0 0 1-3.86 4.13l-.085.037a7.25 7.25 0 0 1-2.238.562v2.527h4.657a.625.625 0 0 1 0 1.25H6.75a.625.625 0 1 1 0-1.25h4.625v-2.527a7.249 7.249 0 0 1-2.165-.531l-.085-.036a7.25 7.25 0 0 1-2.335-1.614l-.064-.067a7.25 7.25 0 0 1-1.506-2.407l-.032-.086a7.25 7.25 0 0 1-.426-2.899l.003-.032a.625.625 0 0 1 .657-.556ZM12.125 2A3.875 3.875 0 0 1 16 5.875v5.25A3.875 3.875 0 0 1 12.125 15h-.25A3.875 3.875 0 0 1 8 11.125v-5.25A3.875 3.875 0 0 1 11.875 2h.25Zm-.25 1.25A2.625 2.625 0 0 0 9.25 5.875v5.25a2.625 2.625 0 0 0 2.625 2.625h.25a2.625 2.625 0 0 0 2.625-2.625v-5.25a2.625 2.625 0 0 0-2.625-2.625h-.25Z"/>
  <defs>
    <linearGradient id="Microphone-Color-24_svg__a" x1="12" x2="12" y1="2" y2="22" gradientUnits="userSpaceOnUse">
      <stop stop-color="#888"/>
      <stop offset="1" stop-color="#444"/>
    </linearGradient>
  </defs>
</svg>
