<svg fill="none" viewBox="0 0 24 24" xmlns="http://www.w3.org/2000/svg">
  <path fill="#000" d="M9.25 9a.75.75 0 0 1 .75.75v7.5a.75.75 0 1 1-1.5 0v-7.5A.75.75 0 0 1 9.25 9Zm6.25.75a.75.75 0 0 0-1.5 0v7.5a.75.75 0 1 0 1.5 0v-7.5Z"/>
  <path fill="#000" fill-rule="evenodd" d="M7.031 5a3.584 3.584 0 0 1 3.536-3h2.92a3.584 3.584 0 0 1 3.537 3h3.226a.75.75 0 1 1 0 1.5H20V17a5 5 0 0 1-5 5H9a5 5 0 0 1-5-5V6.5h-.25a.75.75 0 0 1 0-1.5h3.281Zm-1.53 1.5V17A3.5 3.5 0 0 0 9 20.5h6a3.5 3.5 0 0 0 3.5-3.5V6.5h-13ZM15.487 5a2.084 2.084 0 0 0-2-1.5h-2.92c-.949 0-1.749.633-2.001 1.5h6.921Z" clip-rule="evenodd"/>
</svg>
