<svg fill="none" viewBox="0 0 24 24" xmlns="http://www.w3.org/2000/svg">
  <path fill="#000" d="M12.477 7.345a.5.5 0 0 0-.928 0l-.728 1.812a.5.5 0 0 1-.43.313l-1.948.132a.5.5 0 0 0-.287.883l1.499 1.252a.5.5 0 0 1 .164.505l-.477 1.894a.5.5 0 0 0 .751.546l1.654-1.039a.5.5 0 0 1 .532 0l1.654 1.039a.5.5 0 0 0 .75-.546l-.476-1.893a.5.5 0 0 1 .165-.506l1.498-1.252a.5.5 0 0 0-.286-.883l-1.949-.132a.5.5 0 0 1-.43-.313l-.728-1.812Z"/>
  <path fill="#000" fill-rule="evenodd" d="M9.5 2a5 5 0 0 0-5 5v12.102c0 2.31 2.588 3.677 4.496 2.375l2.23-1.522a1.375 1.375 0 0 1 1.55 0l2.229 1.522c1.908 1.302 4.495-.065 4.495-2.375V7a5 5 0 0 0-5-5h-5ZM6 7a3.5 3.5 0 0 1 3.5-3.5h5A3.5 3.5 0 0 1 18 7v12.102c0 1.105-1.237 1.759-2.15 1.136l-2.23-1.522a2.875 2.875 0 0 0-3.24 0l-2.23 1.522A1.375 1.375 0 0 1 6 19.102V7Z" clip-rule="evenodd"/>
</svg>
