<svg fill="none" viewBox="0 0 16 16" xmlns="http://www.w3.org/2000/svg">
  <g clip-path="url(#Reload-Solid-16_svg__a)">
    <path fill="#000" fill-rule="evenodd" d="M8 16A8 8 0 1 0 8 0a8 8 0 0 0 0 16ZM9.54 4.857a3.5 3.5 0 1 0 1.739 4.367.75.75 0 0 1 1.405.525 5 5 0 1 1-1.184-5.32V3.75a.75.75 0 0 1 1.5 0v2.5a.75.75 0 0 1-.75.75h-2.5a.75.75 0 0 1 0-1.5h.7a3.5 3.5 0 0 0-.91-.643Z" clip-rule="evenodd"/>
  </g>
  <defs>
    <clipPath id="Reload-Solid-16_svg__a">
      <path fill="#fff" d="M0 0h16v16H0z"/>
    </clipPath>
  </defs>
</svg>
