<svg fill="none" viewBox="0 0 16 16" xmlns="http://www.w3.org/2000/svg">
  <path fill="#000" fill-rule="evenodd" d="M12 1a4 4 0 0 1 4 4v6a4 4 0 0 1-4 4H4a4 4 0 0 1-4-4V8.625a.625.625 0 1 1 1.25 0V11c0 .26.039.511.106.75h13.288a2.75 2.75 0 0 0 .106-.75V5A2.75 2.75 0 0 0 12 2.25H4c-1.004 0-1.88.539-2.36 1.342C1.5 3.827 1.26 4 .986 4 .55 4 .232 3.586.43 3.197A4 4 0 0 1 4 1h8ZM2.117 13c.492.464 1.153.75 1.883.75h8c.73 0 1.39-.286 1.883-.75H2.117Z" clip-rule="evenodd"/>
  <path fill="#000" d="M5.5 5c1.726 0 3.125 1.4 3.125 3.125v1.002l1.382-1.007.026-.018a.625.625 0 0 1 .736 1.008l-.026.02-2.35 1.713-.02.014a.626.626 0 0 1-.71-.01L5.261 9.134l-.026-.02A.625.625 0 0 1 5.961 8.1l.027.017 1.387.99v-.981c0-1.036-.84-1.875-1.875-1.875H.75A.625.625 0 1 1 .75 5H5.5Z"/>
</svg>
