<svg fill="none" viewBox="0 0 16 16" xmlns="http://www.w3.org/2000/svg">
  <path fill="#000" fill-opacity=".84" fill-rule="evenodd" d="M5.116 1.444a1.126 1.126 0 0 1 1.772-.029L8.173 3h4.703C14.602 3 16 4.4 16 6.125v4.75C16 12.601 14.6 14 12.875 14h-9.75A3.125 3.125 0 0 1 0 10.875v-4.75C0 4.399 1.4 3 3.125 3h.814l1.177-1.556Zm-.218 2.36-.085.1c-.21.22-.503.346-.812.346h-.876c-1.035 0-1.875.84-1.875 1.875v4.75c0 1.036.84 1.875 1.875 1.875h9.75c1.036 0 1.875-.84 1.875-1.875v-4.75a1.874 1.874 0 0 0-1.874-1.875H8.11c-.3 0-.58-.12-.787-.324l-.084-.092-1.223-1.508-1.118 1.478Z" clip-rule="evenodd"/>
</svg>
