<svg fill="none" viewBox="0 0 24 24" xmlns="http://www.w3.org/2000/svg">
  <path fill="#000" d="M12.75 19.484a1.25 1.25 0 1 1 0 2.5 1.25 1.25 0 0 1 0-2.5Zm3.92-5.713c.275-1.098 1.279-1.005 1.615 0 .097.29.252 1.57.361 2.545.94.108 2.164.26 2.546.354 1.08.27.998 1.279 0 1.61-.292.098-1.575.252-2.552.36-.108.938-.26 2.16-.355 2.54-.268 1.07-1.347 1.07-1.615 0-.096-.381-.248-1.607-.356-2.545-.94-.108-2.17-.259-2.551-.354-1.056-.264-1.056-1.348 0-1.61.382-.096 1.61-.247 2.551-.355.108-.938.26-2.164.356-2.544ZM17 3a5 5 0 0 1 5 5v6.153c0 .574-.605 1.007-1.174.927l-.326-.045V11h-17v5A3.5 3.5 0 0 0 7 19.5h3.293a2.73 2.73 0 0 0-.224.625c-.104.46-.464.875-.936.875H7a5 5 0 0 1-5-5V8a5 5 0 0 1 5-5h10ZM7 4.5A3.5 3.5 0 0 0 3.5 8h17A3.5 3.5 0 0 0 17 4.5H7Z"/>
</svg>
