<svg fill="none" viewBox="0 0 24 24" xmlns="http://www.w3.org/2000/svg">
  <path fill="#000" d="M2 8a5 5 0 0 1 5-5h10a5 5 0 0 1 5 5v5.276c0 .47-.475.808-.935.72a.685.685 0 0 1-.565-.668V8A3.5 3.5 0 0 0 17 4.5H7A3.5 3.5 0 0 0 3.5 8v6h7.032a1 1 0 0 1 1 1v1a1 1 0 0 1-1 1H3.645A3.502 3.502 0 0 0 7 19.5h2.25a.75.75 0 0 1 0 1.5H7a5 5 0 0 1-5-5V8Z"/>
  <path fill="#000" d="M6.842 8A.841.841 0 0 0 6 8.841v2.318c0 .464.377.841.842.841h3.317a.841.841 0 0 0 .841-.841V8.84a.841.841 0 0 0-.84-.84H6.842Zm11.596 4.804C18.25 12.16 18.122 12 17.5 12c-.621 0-.75.16-.937.804-.104.357-.267 1.46-.39 2.368-.909.124-2.012.286-2.37.39-.642.188-.803.317-.803.938s.161.75.804.938c.356.104 1.454.265 2.362.389.124.945.29 2.096.397 2.37.187.482.316.803.937.803.622 0 .75-.16.938-.804.104-.356.265-1.454.389-2.361.946-.125 2.096-.291 2.37-.398.482-.187.803-.316.803-.937s-.16-.75-.803-.938c-.358-.104-1.46-.266-2.37-.39-.123-.908-.285-2.011-.39-2.368ZM14 20a1 1 0 1 1-2 0 1 1 0 0 1 2 0Z"/>
</svg>
