<svg fill="none" viewBox="0 0 16 16" xmlns="http://www.w3.org/2000/svg">
  <path fill="#000" d="M7.125 5a.625.625 0 1 1 0 1.25H4A2.75 2.75 0 0 0 1.25 9v1A2.75 2.75 0 0 0 4 12.75h8A2.75 2.75 0 0 0 14.75 10V8.875a.625.625 0 1 1 1.25 0V10a4 4 0 0 1-4 4H4a4 4 0 0 1-4-4V9a4 4 0 0 1 4-4h3.125Zm2.25 3.875a.625.625 0 1 1 0 1.25h-5.75a.625.625 0 1 1 0-1.25h5.75ZM12.5 2c.414 0 .5.125.625.625.074.296.19 1.247.273 1.976.729.083 1.681.2 1.977.274.5.125.625.21.625.625 0 .414-.25.5-.625.625-.226.075-1.22.193-1.977.277-.083.728-.2 1.678-.273 1.973-.125.5-.21.625-.625.625-.414 0-.5-.25-.625-.625-.075-.226-.194-1.22-.278-1.977-.728-.083-1.677-.2-1.972-.273C9.125 6 9 5.915 9 5.5c0-.414.125-.5.625-.625.296-.074 1.247-.19 1.976-.274.083-.729.2-1.68.274-1.976.125-.5.21-.625.625-.625Zm-4 0a.75.75 0 1 1 0 1.5.75.75 0 0 1 0-1.5Z"/>
</svg>
