<svg fill="none" viewBox="0 0 16 16" xmlns="http://www.w3.org/2000/svg">
  <path fill="#000" d="M12.318 6.191a.625.625 0 1 0-.886-.882l-4.35 4.365a.25.25 0 0 1-.357-.004L4.577 7.423a.625.625 0 0 0-.904.864l2.149 2.247a1.5 1.5 0 0 0 2.146.022l4.35-4.365Z"/>
  <path fill="#000" fill-rule="evenodd" d="M5 1a4 4 0 0 0-4 4v6a4 4 0 0 0 4 4h6a4 4 0 0 0 4-4V5a4 4 0 0 0-4-4H5ZM2.25 5A2.75 2.75 0 0 1 5 2.25h6A2.75 2.75 0 0 1 13.75 5v6A2.75 2.75 0 0 1 11 13.75H5A2.75 2.75 0 0 1 2.25 11V5Z" clip-rule="evenodd"/>
</svg>
