<svg fill="none" viewBox="0 0 16 16" xmlns="http://www.w3.org/2000/svg">
  <g fill="#000" clip-path="url(#Jump-16_svg__a)">
    <path d="M11.375 5c.345 0 .625.28.625.625V9.75c0 .69-.56 1.25-1.25 1.25H7.625a.625.625 0 1 1 0-1.25h2.537a3.767 3.767 0 0 0-.908-1.243A4.809 4.809 0 0 0 7.04 7.34c-.798-.171-1.44-.064-1.844.16-.368.205-.563.514-.594.912a.625.625 0 1 1-1.246-.099 2.34 2.34 0 0 1 1.233-1.905c.728-.405 1.695-.509 2.714-.29a6.058 6.058 0 0 1 2.802 1.475c.242.224.457.463.645.712v-2.68c0-.345.28-.625.625-.625Z"/>
    <path fill-rule="evenodd" d="M0 8a8 8 0 1 1 16 0A8 8 0 0 1 0 8Zm8-6.75a6.75 6.75 0 1 0 0 13.5 6.75 6.75 0 0 0 0-13.5Z" clip-rule="evenodd"/>
  </g>
  <defs>
    <clipPath id="Jump-16_svg__a">
      <path fill="#fff" d="M0 0h16v16H0z"/>
    </clipPath>
  </defs>
</svg>
