<svg fill="none" viewBox="0 0 16 16" xmlns="http://www.w3.org/2000/svg">
  <g fill="#000" clip-path="url(#Email-Forward-16_svg__a)">
    <path d="M12.808 15.567a.625.625 0 0 1 0-.884L14.491 13H9.625a.625.625 0 1 1 0-1.25h4.866l-1.683-1.683a.625.625 0 1 1 .884-.884l1.69 1.69c.83.83.83 2.175 0 3.005l-1.69 1.689a.625.625 0 0 1-.884 0Z"/>
    <path d="M12 1a4 4 0 0 1 4 4v2.697c0 .565-.753.887-1.25.619V5a2.75 2.75 0 0 0-.121-.808L9.92 7.859a3.123 3.123 0 0 1-3.84 0L1.37 4.192A2.75 2.75 0 0 0 1.25 5v6A2.75 2.75 0 0 0 4 13.75h3.917c.021.079.045.157.07.235.153.465-.16 1.015-.65 1.015H4a4 4 0 0 1-4-4V5a4 4 0 0 1 4-4h8ZM4 2.25c-.784 0-1.49.328-1.992.854l4.84 3.769a1.875 1.875 0 0 0 2.304 0l4.84-3.77A2.742 2.742 0 0 0 12 2.25H4Z"/>
  </g>
  <defs>
    <clipPath id="Email-Forward-16_svg__a">
      <path fill="#fff" d="M0 0h16v16H0z"/>
    </clipPath>
  </defs>
</svg>
