<svg fill="none" viewBox="0 0 16 16" xmlns="http://www.w3.org/2000/svg">
  <g fill="#000" clip-path="url(#Email-Forward-16_svg__a)">
    <path fill-rule="evenodd" d="M4 2a4 4 0 0 0-4 4v4a4 4 0 0 0 4 4h3.375a.625.625 0 1 0 0-1.25H4A2.75 2.75 0 0 1 1.25 10V6c0-.57.173-1.098.47-1.537l4.36 3.396c1.129.88 2.711.88 3.84 0l4.36-3.396c.297.439.47.968.47 1.537v1.991a.625.625 0 1 0 1.25 0V6a4 4 0 0 0-4-4H4ZM2.65 3.604c.399-.226.86-.354 1.35-.354h8c.49 0 .951.128 1.35.354L9.152 6.873a1.875 1.875 0 0 1-2.304 0L2.65 3.603Z" clip-rule="evenodd"/>
    <path d="M12.808 15.567a.625.625 0 0 1 0-.884L14.491 13H9.625a.625.625 0 1 1 0-1.25h4.866l-1.683-1.683a.625.625 0 1 1 .884-.884l1.69 1.69c.83.83.83 2.175 0 3.005l-1.69 1.689a.625.625 0 0 1-.884 0Z"/>
  </g>
  <defs>
    <clipPath id="Email-Forward-16_svg__a">
      <path fill="#fff" d="M0 0h16v16H0z"/>
    </clipPath>
  </defs>
</svg>
