<svg fill="none" viewBox="0 0 16 16" xmlns="http://www.w3.org/2000/svg">
  <g fill="#000" fill-rule="evenodd" clip-path="url(#Copy-16_svg__a)" clip-rule="evenodd">
    <path d="M8.375 1.25c-.535 0-1.024.198-1.397.524A.836.836 0 0 1 6.437 2h-.085c-.498 0-.818-.515-.484-.885A3.366 3.366 0 0 1 8.375 0h2.745c.73 0 1.429.29 1.944.805l2.13 2.13A2.75 2.75 0 0 1 16 4.88v4.745A3.375 3.375 0 0 1 12.625 13a.625.625 0 1 1 0-1.25 2.125 2.125 0 0 0 2.125-2.125V6.25h-1.625A3.375 3.375 0 0 1 9.75 2.875V1.25H8.375Zm2.625 0v1.625C11 4.049 11.951 5 13.125 5h1.625v-.12a1.5 1.5 0 0 0-.44-1.06l-2.13-2.13a1.5 1.5 0 0 0-1.06-.44H11Z"/>
    <path d="M0 6.375A3.375 3.375 0 0 1 3.375 3H6.12c.73 0 1.429.29 1.944.805l2.13 2.13A2.75 2.75 0 0 1 11 7.88v4.745A3.375 3.375 0 0 1 7.625 16h-4.25A3.375 3.375 0 0 1 0 12.625v-6.25ZM3.375 4.25A2.125 2.125 0 0 0 1.25 6.375v6.25c0 1.174.951 2.125 2.125 2.125h4.25a2.125 2.125 0 0 0 2.125-2.125V9.25H8.125A3.375 3.375 0 0 1 4.75 5.875V4.25H3.375ZM6 4.25v1.625C6 7.049 6.951 8 8.125 8H9.75v-.12a1.5 1.5 0 0 0-.44-1.06L7.18 4.69a1.5 1.5 0 0 0-1.06-.44H6Z"/>
  </g>
  <defs>
    <clipPath id="Copy-16_svg__a">
      <path fill="#fff" d="M0 0h16v16H0z"/>
    </clipPath>
  </defs>
</svg>
