<svg fill="none" viewBox="0 0 16 16" xmlns="http://www.w3.org/2000/svg">
  <g fill="#000" clip-path="url(#Tab-New-Alt-16_svg__a)">
    <path d="M9.625 10A.625.625 0 0 1 9 9.375V7.25H6.625a.625.625 0 1 1 0-1.25H9V3.625a.625.625 0 1 1 1.25 0V6h2.125a.625.625 0 1 1 0 1.25H10.25v2.125c0 .345-.28.625-.625.625Z"/>
    <path fill-rule="evenodd" d="M6.75 0A3.75 3.75 0 0 0 3 3.75v5.5A3.75 3.75 0 0 0 6.75 13h5.5A3.75 3.75 0 0 0 16 9.25v-5.5A3.75 3.75 0 0 0 12.25 0h-5.5Zm5.5 1.25h-5.5a2.5 2.5 0 0 0-2.5 2.5v5.5a2.5 2.5 0 0 0 2.5 2.5h5.5a2.5 2.5 0 0 0 2.5-2.5v-5.5a2.5 2.5 0 0 0-2.5-2.5Z" clip-rule="evenodd"/>
    <path d="M1.75 4.128c0-.502-.499-.852-.88-.524A2.494 2.494 0 0 0 0 5.5v5A5.5 5.5 0 0 0 5.5 16h5c.758 0 1.438-.338 1.896-.87.328-.381-.022-.88-.524-.88-.234 0-.446.122-.635.26-.207.151-.462.24-.737.24h-5a4.25 4.25 0 0 1-4.25-4.25v-5c0-.275.09-.53.24-.736.138-.19.26-.402.26-.636Z"/>
  </g>
  <defs>
    <clipPath id="Tab-New-Alt-16_svg__a">
      <path fill="#fff" d="M0 0h16v16H0z"/>
    </clipPath>
  </defs>
</svg>
