<svg fill="none" viewBox="0 0 12 12" xmlns="http://www.w3.org/2000/svg">
  <g fill="#000" clip-path="url(#Audio-Mute-12_svg__a)">
    <path d="m11.398 3.38-.951.95a4.748 4.748 0 0 1-1.328 5.252.625.625 0 1 0 .821.943 6 6 0 0 0 1.458-7.146ZM9.22 5.557 7.657 7.12a2 2 0 0 1-.36.403.625.625 0 0 0 .81.952A3.25 3.25 0 0 0 9.22 5.557ZM6 1.16v2.313l-1.25 1.25V1.765L2.604 3.923a.625.625 0 0 1-.443.184h-.536a.375.375 0 0 0-.375.375v3.036c0 .193.146.352.333.373l-.93.93A1.623 1.623 0 0 1 0 7.517V4.482c0-.897.728-1.625 1.625-1.625h.276L4.291.454C4.922-.181 6 .27 6 1.16Zm0 7.617-1.25 1.25v.208l-.104-.104-.884.883.529.532C4.922 12.181 6 11.73 6 10.84V8.777ZM10.683.558a.625.625 0 1 1 .884.884L1.442 11.567a.625.625 0 0 1-.884-.884L10.683.558Z"/>
  </g>
  <defs>
    <clipPath id="Audio-Mute-12_svg__a">
      <path fill="#fff" d="M0 0h12v12H0z"/>
    </clipPath>
  </defs>
</svg>
