<svg fill="none" viewBox="0 0 16 16" xmlns="http://www.w3.org/2000/svg">
  <g fill="#000" clip-path="url(#Cookie-16_svg__a)">
    <path d="M6.5 4.75a.75.75 0 1 1-1.5 0 .75.75 0 0 1 1.5 0Zm-2 4a.75.75 0 1 1-1.5 0 .75.75 0 0 1 1.5 0Zm4-1a.75.75 0 1 1-1.5 0 .75.75 0 0 1 1.5 0Zm-1 4a.75.75 0 1 1-1.5 0 .75.75 0 0 1 1.5 0Zm4-1a.75.75 0 1 1-1.5 0 .75.75 0 0 1 1.5 0Z"/>
    <path fill-rule="evenodd" d="M8 0a8 8 0 1 0 7.995 7.706.866.866 0 0 0-.87-.831 6 6 0 0 1-6-6c0-.44-.34-.852-.831-.87A8.132 8.132 0 0 0 8 0ZM1.25 8a6.75 6.75 0 0 1 6.635-6.749 7.25 7.25 0 0 0 6.864 6.864A6.75 6.75 0 0 1 1.25 8Z" clip-rule="evenodd"/>
  </g>
  <defs>
    <clipPath id="Cookie-16_svg__a">
      <path fill="#fff" d="M0 0h16v16H0z"/>
    </clipPath>
  </defs>
</svg>
