<svg fill="none" viewBox="0 0 24 24" xmlns="http://www.w3.org/2000/svg">
  <path fill="#000" d="M16.17 2.573c-.184-.735-1.228-.735-1.412 0l-.123.492a6.381 6.381 0 0 1-4.643 4.643l-.491.123c-.735.183-.735 1.227 0 1.411l.491.123c.891.223 1.706.63 2.403 1.18l-4.778 4.778c.304.4.66.757 1.06 1.06l4.779-4.778c.55.697.957 1.512 1.18 2.403l.122.491c.184.735 1.228.735 1.412 0l.123-.49a6.381 6.381 0 0 1 4.643-4.644l.491-.123c.735-.184.735-1.228 0-1.411l-.491-.123a6.381 6.381 0 0 1-4.643-4.643l-.123-.492ZM6.543 18.517a8.555 8.555 0 0 1-1.06-1.06l1.065-1.066c.315.39.67.746 1.061 1.06l-1.066 1.066ZM3.281 21.78l2.198-2.198a10.06 10.06 0 0 1-1.06-1.061L2.22 20.719a.75.75 0 1 0 1.06 1.06Z"/>
</svg>
