<svg fill="none" viewBox="0 0 12 12" xmlns="http://www.w3.org/2000/svg">
  <path fill="#000" d="M0 2.625C0 1.728.728 1 1.625 1h7.75a.625.625 0 1 1 0 1.25h-7.75a.375.375 0 0 0-.375.375v4.813a.625.625 0 1 1-1.25 0V2.625Z"/>
  <path fill="#000" fill-rule="evenodd" d="M2 5.375c0-.897.728-1.625 1.625-1.625h6.75c.898 0 1.625.728 1.625 1.625v4c0 .898-.727 1.625-1.625 1.625h-6.75A1.625 1.625 0 0 1 2 9.375v-4ZM3.625 5a.375.375 0 0 0-.375.375v4c0 .207.168.375.375.375h1.923A1.993 1.993 0 0 1 5 8.375v-1.75c0-.67.329-1.262.834-1.625H3.625Zm4.541 0c.505.363.834.956.834 1.625v1.75a1.99 1.99 0 0 1-.548 1.375h1.923a.375.375 0 0 0 .375-.375v-4A.375.375 0 0 0 10.375 5H8.166ZM6.25 6.625a.75.75 0 0 1 1.5 0v1.75a.75.75 0 0 1-1.5 0v-1.75Z" clip-rule="evenodd"/>
</svg>
