<svg fill="none" viewBox="0 0 24 24" xmlns="http://www.w3.org/2000/svg">
  <path fill="#A591DC" d="m2.734 14.892 1.202-6.01a1.562 1.562 0 0 1 1.532-1.257h13.063c.745 0 1.387.526 1.533 1.256l1.202 6.011a4.375 4.375 0 0 1-4.29 5.233H7.024a4.375 4.375 0 0 1-4.29-5.233Z"/>
  <path fill="url(#Shopping-Download-Color-24_svg__a)" d="M18.527 7c1.045 0 1.945.74 2.146 1.767l1.23 6.271c.606 3.089-1.76 5.962-4.907 5.962H7.004c-3.148 0-5.513-2.873-4.907-5.962l1.23-6.271A2.188 2.188 0 0 1 5.473 7h13.054ZM5.473 8.25a.937.937 0 0 0-.92.757l-1.23 6.271a3.75 3.75 0 0 0 3.68 4.472h9.993a3.75 3.75 0 0 0 3.68-4.472l-1.23-6.27a.937.937 0 0 0-.92-.758H5.474Z"/>
  <path fill="#6B4EBA" d="M14.5 8.875V5.75a2.5 2.5 0 0 0-5 0v3.125a.625.625 0 1 1-1.25 0V5.75a3.75 3.75 0 1 1 7.5 0v3.125a.625.625 0 1 1-1.25 0Z"/>
  <path fill="#fff" d="M12 10c.345 0 .625.28.625.625v4.866l2.058-2.058.023-.022a.625.625 0 0 1 .86.906l-2.064 2.064a2.125 2.125 0 0 1-2.965.039l-.04-.039-2.064-2.064-.022-.023a.625.625 0 0 1 .906-.86l2.058 2.057v-4.866c0-.345.28-.625.625-.625Z"/>
  <defs>
    <linearGradient id="Shopping-Download-Color-24_svg__a" x1="12" x2="12" y1="7" y2="21" gradientUnits="userSpaceOnUse">
      <stop stop-color="#876ECB"/>
      <stop offset="1" stop-color="#5132A9"/>
    </linearGradient>
  </defs>
</svg>
