<svg fill="none" viewBox="0 0 24 24" xmlns="http://www.w3.org/2000/svg">
  <path fill="#000" fill-rule="evenodd" d="M11.997 15.029c.71-.002 1.526-.208 2.172-.75l.105-.087c.273-.229.595-.499.97-.817 1.285-1.093 1.974-2.5 1.684-3.91-.289-1.403-1.468-2.322-2.804-2.444-.94-.086-1.644.385-2.069.805a3.426 3.426 0 0 0-.055.056 3.46 3.46 0 0 0-.055-.056c-.424-.42-1.13-.89-2.069-.805-1.32.12-2.51 1.017-2.803 2.429-.292 1.407.4 2.811 1.672 3.915.427.37.78.67 1.07.914.65.549 1.471.752 2.182.75Zm-.474-5.206c-.337-.678-.847-1.369-1.51-1.308-1.485.135-2.343 1.93-.285 3.717.42.364.767.658 1.054.9.63.532 1.792.527 2.424-.002l.105-.088c.273-.229.591-.495.961-.81 2.059-1.75 1.2-3.582-.284-3.717-.663-.06-1.173.63-1.51 1.308-.163.327-.793.327-.955 0Z" clip-rule="evenodd"/>
  <path fill="#000" fill-rule="evenodd" d="M7 3a5 5 0 0 0-5 5v5.686c0 2.566 1.974 4.678 4.524 4.808a8.66 8.66 0 0 1-.356 1.099 1.808 1.808 0 0 0 .306 1.858 1.579 1.579 0 0 0 1.884.386c1.217-.563 2.764-1.453 4.196-2.794.371-.348.823-.543 1.268-.543h3.182a5 5 0 0 0 5-5V8a5 5 0 0 0-5-5H7ZM3.5 8A3.5 3.5 0 0 1 7 4.5h10.004a3.5 3.5 0 0 1 3.5 3.5v5.5a3.5 3.5 0 0 1-3.5 3.5h-3.182c-.887 0-1.692.385-2.293.948-1.284 1.203-2.684 2.011-3.8 2.527-.055.025-.079.02-.082.019-.007-.002-.025-.008-.048-.035-.049-.055-.092-.173-.034-.32.21-.537.406-1.136.502-1.701a1.19 1.19 0 0 0-.361-1.064A1.357 1.357 0 0 0 6.772 17C4.952 17 3.5 15.527 3.5 13.686V8Z" clip-rule="evenodd"/>
</svg>
