<svg fill="none" viewBox="0 0 16 16" xmlns="http://www.w3.org/2000/svg">
  <path fill="#000" d="M11 0a4 4 0 0 1 4 4v8a4 4 0 0 1-4 4H5a4 4 0 0 1-4-4V4a4 4 0 0 1 4-4 3.625 3.625 0 0 1 3.625 3.625V8.45L10.8 6.192a.625.625 0 0 1 .9.866L9.44 9.405a2 2 0 0 1-2.843.038l-.038-.038L4.3 7.058l-.02-.023a.625.625 0 0 1 .898-.866l.023.023L7.375 8.45V3.625A2.375 2.375 0 0 0 5 1.25 2.75 2.75 0 0 0 2.25 4v8A2.75 2.75 0 0 0 5 14.75h6A2.75 2.75 0 0 0 13.75 12V4A2.75 2.75 0 0 0 11 1.25h-.375a.625.625 0 1 1 0-1.25H11Z"/>
</svg>
