<svg fill="none" viewBox="0 0 16 16" xmlns="http://www.w3.org/2000/svg">
  <path fill="#000" fill-rule="evenodd" d="M1 4a4 4 0 0 1 4-4h6a4 4 0 0 1 4 4v4a4 4 0 0 1-4 4H5a2.749 2.749 0 0 0-2.382 1.375A2.749 2.749 0 0 0 5 14.75h6a2.75 2.75 0 0 0 2.71-2.278c.017-.098.026-.196.032-.294a.832.832 0 0 1 .304-.593 3.93 3.93 0 0 0 .254-.228c.221-.217.7-.07.7.24V12a4 4 0 0 1-4 4H5a4 4 0 0 1-4-4V4Zm12.75 0v4A2.75 2.75 0 0 1 11 10.75H5a3.987 3.987 0 0 0-2.75 1.095V4A2.755 2.755 0 0 1 4 1.437v5.17a1.375 1.375 0 0 0 2.087 1.176l.848-.513a.125.125 0 0 1 .13 0l.848.513A1.375 1.375 0 0 0 10 6.607V1.25h1A2.75 2.75 0 0 1 13.75 4Zm-5-2.75v5.357a.125.125 0 0 1-.19.107L7.712 6.2a1.375 1.375 0 0 0-1.424 0l-.848.514a.125.125 0 0 1-.19-.107V1.25h3.5Z" clip-rule="evenodd"/>
</svg>
