<svg fill="none" viewBox="0 0 24 24" xmlns="http://www.w3.org/2000/svg">
  <path fill="#000" fill-rule="evenodd" d="M9 22a5 5 0 0 1-5-5V7a5 5 0 0 1 5-5h3.62c.763 0 1.494.303 2.033.842l4.505 4.505c.54.54.842 1.27.842 2.033v1.644c0 .477-.492.8-.953.677-.31-.082-.547-.352-.547-.672V10h-2.75A3.75 3.75 0 0 1 12 6.25V3.5H9A3.5 3.5 0 0 0 5.5 7v10A3.5 3.5 0 0 0 9 20.5h2.954c.216 0 .414.117.533.298.306.465.003 1.202-.554 1.202H9Zm4.5-18.181V6.25a2.25 2.25 0 0 0 2.25 2.25h2.432a1.38 1.38 0 0 0-.084-.092l-4.506-4.505a1.35 1.35 0 0 0-.092-.084Z" clip-rule="evenodd"/>
  <path fill="#000" fill-rule="evenodd" d="M22 17.5a4.5 4.5 0 1 1-9 0 4.5 4.5 0 0 1 9 0Zm-3.75-2.25a.5.5 0 0 0-.5-.5h-.5a.5.5 0 0 0-.5.5v1.5h-1.5a.5.5 0 0 0-.5.5v.5a.5.5 0 0 0 .5.5h1.5v1.5a.5.5 0 0 0 .5.5h.5a.5.5 0 0 0 .5-.5v-1.5h1.5a.5.5 0 0 0 .5-.5v-.5a.5.5 0 0 0-.5-.5h-1.5v-1.5Z" clip-rule="evenodd"/>
</svg>
