<svg fill="none" viewBox="0 0 24 24" xmlns="http://www.w3.org/2000/svg">
  <path fill="#000" d="M17 3a5 5 0 0 1 5 5v8a5 5 0 0 1-5 5H7a5 5 0 0 1-5-5V8a5 5 0 0 1 5-5h10ZM7 4.5A3.5 3.5 0 0 0 3.5 8v8A3.5 3.5 0 0 0 7 19.5h10a3.5 3.5 0 0 0 3.5-3.5V8A3.5 3.5 0 0 0 17 4.5H7Zm1.75 11a.75.75 0 0 1 0 1.5h-3a.75.75 0 0 1 0-1.5h3Zm2.75 0a.75.75 0 1 1 0 1.5h-.25a.75.75 0 0 1 0-1.5h.25Zm6.75 0a.75.75 0 1 1 0 1.5h-4a.75.75 0 0 1 0-1.5h4Zm-9.5-4.75a.75.75 0 0 1 .75.75v1.75a.75.75 0 0 1-.75.75h-3a.75.75 0 0 1-.75-.75V11.5a.75.75 0 0 1 .75-.75h3Z"/>
</svg>
