<svg fill="none" viewBox="0 0 16 16" xmlns="http://www.w3.org/2000/svg">
  <g fill="#000" clip-path="url(#Clear-16_svg__a)">
    <path d="M10.817 5.183a.625.625 0 0 1 0 .884L8.884 8l1.933 1.933a.625.625 0 1 1-.884.884L8 8.884l-1.933 1.933a.625.625 0 1 1-.884-.884L7.116 8 5.183 6.067a.625.625 0 1 1 .884-.884L8 7.116l1.933-1.933a.625.625 0 0 1 .884 0Z"/>
    <path fill-rule="evenodd" d="M8 0a8 8 0 1 0 0 16A8 8 0 0 0 8 0ZM1.25 8a6.75 6.75 0 1 1 13.5 0 6.75 6.75 0 0 1-13.5 0Z" clip-rule="evenodd"/>
  </g>
  <defs>
    <clipPath id="Clear-16_svg__a">
      <path fill="#fff" d="M0 0h16v16H0z"/>
    </clipPath>
  </defs>
</svg>
