<svg fill="none" viewBox="0 0 24 24" xmlns="http://www.w3.org/2000/svg">
  <path fill="url(#Globe-Color-24_svg__a)" fill-rule="evenodd" d="M12 21.375a9.375 9.375 0 1 0 0-18.75 9.375 9.375 0 1 0 0 18.75Z" clip-rule="evenodd"/>
  <path fill="url(#Globe-Color-24_svg__b)" d="M12 2c5.523 0 10 4.477 10 10s-4.477 10-10 10S2 17.523 2 12 6.477 2 12 2Zm3.658 11.893A60.49 60.49 0 0 1 12 14a60.18 60.18 0 0 1-3.658-.107c.173 1.745.578 3.288 1.13 4.472.77 1.647 1.707 2.385 2.528 2.385s1.759-.738 2.527-2.385c.553-1.184.958-2.727 1.13-4.472Zm-12.329-.711a8.76 8.76 0 0 0 5.814 7.09 8.281 8.281 0 0 1-.803-1.379c-.645-1.382-1.09-3.144-1.262-5.095a32.225 32.225 0 0 1-1.798-.207c-.772-.114-1.44-.25-1.95-.409Zm17.342 0c-.511.159-1.179.295-1.951.409a31.44 31.44 0 0 1-1.798.207c-.172 1.95-.617 3.713-1.262 5.095a8.278 8.278 0 0 1-.803 1.38 8.76 8.76 0 0 0 5.814-7.091ZM12 3.25c-.821 0-1.758.738-2.527 2.385C8.728 7.232 8.25 9.481 8.25 12c0 .213.004.425.01.634a58.43 58.43 0 0 0 3.74.116c1.334 0 2.6-.042 3.74-.116.006-.209.01-.42.01-.634 0-2.519-.478-4.768-1.223-6.365C13.76 3.988 12.821 3.25 12 3.25Zm-2.857.477a8.754 8.754 0 0 0-5.89 8.086c.066.036.168.081.314.132.42.145 1.06.287 1.895.409.466.068.984.129 1.545.182A21.004 21.004 0 0 1 7 12c0-2.66.502-5.097 1.34-6.893.233-.5.501-.967.803-1.38Zm5.714 0c.302.413.57.88.803 1.38C16.498 6.903 17 9.34 17 12c0 .18-.002.358-.007.536.561-.053 1.08-.114 1.546-.182.833-.122 1.475-.264 1.894-.41.146-.05.248-.095.315-.131a8.754 8.754 0 0 0-5.891-8.086Z"/>
  <defs>
    <linearGradient id="Globe-Color-24_svg__a" x1="4.5" x2="19.5" y1="4.5" y2="19.5" gradientUnits="userSpaceOnUse">
      <stop stop-color="#8FABF9"/>
      <stop offset="1" stop-color="#557FF3"/>
    </linearGradient>
    <linearGradient id="Globe-Color-24_svg__b" x1="12" x2="12" y1="2" y2="22" gradientUnits="userSpaceOnUse">
      <stop stop-color="#3969EF"/>
      <stop offset="1" stop-color="#14307E"/>
    </linearGradient>
  </defs>
</svg>
