<svg fill="none" viewBox="0 0 24 24" xmlns="http://www.w3.org/2000/svg">
  <path fill="url(#VPN-Color-24_svg__a)" d="M12 2.625A9.375 9.375 0 0 1 21.375 12c0 1.639.116 1.64-.492.274a4.25 4.25 0 0 0-3.774-2.523L17 9.75A4.25 4.25 0 0 0 12.75 14v.865a2.797 2.797 0 0 0-2 2.68v2.91l.001.071c.026 1.018-.192.8-1.251.509A9.375 9.375 0 0 1 12 2.625Z"/>
  <path fill="url(#VPN-Color-24_svg__b)" d="M12 2c5.523 0 10 4.477 10 10 0 .309-.014.614-.041.915-.102 1.121-.85 1.215-1.008.1-.068-.48-.144-.926-.286-1.166l.08-.039a8.748 8.748 0 0 0-5.889-8.08c.302.412.572.878.804 1.376.595 1.276 1.02 2.875 1.216 4.647-.43.012-.844.089-1.233.22-.18-1.69-.577-3.185-1.116-4.338C13.76 3.988 12.821 3.25 12 3.25c-.821 0-1.759.738-2.527 2.385C8.728 7.23 8.25 9.48 8.25 12c0 .213.005.424.012.633a58.33 58.33 0 0 0 4.678.11 4.247 4.247 0 0 0-.19 1.251 60.167 60.167 0 0 1-4.408-.102c.172 1.745.578 3.29 1.13 4.473.394.844.834 1.448 1.278 1.837 0 .214.012.424.04.63.07.492-.307 1.063-.794.964C5.433 20.868 2 16.836 2 12 2 6.477 6.477 2 12 2ZM3.331 13.182a8.755 8.755 0 0 0 5.812 7.088 8.282 8.282 0 0 1-.803-1.376c-.646-1.383-1.09-3.147-1.26-5.098a32.368 32.368 0 0 1-1.8-.205c-.772-.113-1.438-.25-1.949-.41Zm5.812-9.453a8.75 8.75 0 0 0-5.888 8.081c.067.036.167.084.311.134.42.146 1.062.287 1.896.41.466.068.984.127 1.545.18A21.019 21.019 0 0 1 7 12c0-2.66.502-5.097 1.34-6.894.232-.498.501-.964.803-1.377Z"/>
  <path fill="#888" d="M18.75 14a1.75 1.75 0 1 0-3.5 0v2.875a1.75 1.75 0 1 0 3.5 0V14ZM20 16.875a3 3 0 1 1-6 0V14a3 3 0 1 1 6 0v2.875Z"/>
  <path fill="#FC3" d="M12.625 17.546a.92.92 0 0 1 .921-.921h6.908a.92.92 0 0 1 .921.921v2.908a.921.921 0 0 1-.921.921h-6.908a.921.921 0 0 1-.921-.921v-2.908Z"/>
  <path fill="#C18010" d="M20.75 17.546a.296.296 0 0 0-.296-.296h-6.908a.296.296 0 0 0-.296.296v2.908c0 .163.133.296.296.296h6.908a.296.296 0 0 0 .296-.296v-2.908ZM22 20.454c0 .854-.692 1.546-1.546 1.546h-6.908A1.546 1.546 0 0 1 12 20.454v-2.908c0-.854.692-1.546 1.546-1.546h6.908c.854 0 1.546.692 1.546 1.546v2.908Z"/>
  <defs>
    <linearGradient id="VPN-Color-24_svg__a" x1="4.5" x2="19.5" y1="4.5" y2="19.5" gradientUnits="userSpaceOnUse">
      <stop stop-color="#8FABF9"/>
      <stop offset="1" stop-color="#557FF3"/>
    </linearGradient>
    <linearGradient id="VPN-Color-24_svg__b" x1="12" x2="12" y1="2" y2="22" gradientUnits="userSpaceOnUse">
      <stop stop-color="#3969EF"/>
      <stop offset="1" stop-color="#14307E"/>
    </linearGradient>
  </defs>
</svg>
