<svg fill="none" viewBox="0 0 16 16" xmlns="http://www.w3.org/2000/svg">
  <path fill="#000" fill-rule="evenodd" d="M12 2.625a.625.625 0 1 0-1.25 0V3L1.243 5.907A.625.625 0 0 0 0 6v4a.625.625 0 0 0 1.243.092l2.382.728v.574a2.59 2.59 0 0 0 4.76 1.418l.293-.449 2.072.633v.379a.625.625 0 1 0 1.25 0V2.625ZM1.25 8.787V7.212l9.497-2.904-.022 7.373L1.25 8.787Zm3.625 2.415 2.558.78-.095.146a1.34 1.34 0 0 1-2.463-.734v-.192Z" clip-rule="evenodd"/>
  <path fill="#000" d="M15.107 4.205a.625.625 0 0 0-.464-1.16l-1.25.5a.625.625 0 0 0 .464 1.16l1.25-.5Zm-.982 3.045a.625.625 0 1 0 0 1.25h1.25a.625.625 0 1 0 0-1.25h-1.25Zm-.268 4.045a.625.625 0 1 0-.464 1.16l1.25.5a.625.625 0 1 0 .464-1.16l-1.25-.5Z"/>
</svg>
