<svg fill="none" viewBox="0 0 24 24" xmlns="http://www.w3.org/2000/svg">
  <path fill="#000" fill-rule="evenodd" d="M7 3a5 5 0 0 0-5 5v6.5h1.5v-4h17V16a3.5 3.5 0 0 1-3.5 3.5h-6.325L9.445 21H17a5 5 0 0 0 5-5v-5.412a5 5 0 0 0-5-5h-2.46a2.39 2.39 0 0 1-1.933-.985A3.89 3.89 0 0 0 9.46 3H7Zm13.12 6H3.5V8A3.5 3.5 0 0 1 7 4.5h2.46a2.39 2.39 0 0 1 1.934.985 3.89 3.89 0 0 0 3.147 1.603H17A3.5 3.5 0 0 1 20.12 9Z" clip-rule="evenodd"/>
  <path fill="#000" d="M2 20.25a.75.75 0 0 0 1.5 0v-.688c0-1.139.924-2.062 2.063-2.062h2.795l-2.175 2.509a.75.75 0 0 0 1.134.982l3.242-3.74a.747.747 0 0 0 .016-.983l-3.243-3.991a.75.75 0 0 0-1.164.946L8.425 16H5.563A3.563 3.563 0 0 0 2 19.563v.687Z"/>
</svg>
