<svg fill="none" viewBox="0 0 24 24" xmlns="http://www.w3.org/2000/svg">
  <path fill="#DE5833" d="M11.987 6.853C11.351 5.912 9.553 4.5 7.538 4.5c-2.86 0-6.673 5.333-1.43 10.196 3.607 3.345 5.244 4.863 5.879 5.804.636-.941 2.405-2.567 5.8-5.804C23.213 9.52 19.295 4.5 16.435 4.5c-1.907 0-3.813 1.412-4.449 2.353Z"/>
  <path fill="#9A3216" fill-rule="evenodd" d="M10.988 19.327c-.94-.977-2.47-2.396-4.88-4.63C.865 9.832 4.678 4.5 7.538 4.5c1.305 0 2.52.593 3.386 1.266.471.366.84.756 1.063 1.087.221-.328.597-.713 1.073-1.075.89-.678 2.133-1.278 3.376-1.278 2.86 0 6.778 5.02 1.35 10.196l-1.371 1.306c-1.553 1.476-2.671 2.54-3.427 3.326-.466.485-.794.865-1.001 1.172-.211-.312-.532-.688-1-1.173Zm1.01-14.623c.302-.241.63-.468.972-.671C13.911 3.476 15.13 3 16.436 3c2.208 0 4.382 1.803 5.2 4.166.886 2.56.24 5.702-2.815 8.616l-1.383 1.316c-1.038.987-1.871 1.78-2.535 2.431-.962.945-1.453 1.485-1.673 1.81a1.5 1.5 0 0 1-2.486 0c-.221-.327-.684-.845-1.629-1.765-.923-.9-2.217-2.1-4.027-3.778-3.006-2.788-3.589-5.94-2.724-8.501A6.885 6.885 0 0 1 4.4 4.266C5.267 3.53 6.373 3 7.538 3c1.352 0 2.572.47 3.516 1.039.337.203.654.428.944.665Z" clip-rule="evenodd"/>
</svg>
