<svg fill="none" viewBox="0 0 12 12" xmlns="http://www.w3.org/2000/svg">
  <path fill="#000" d="M6.991 1.625c0-.35.284-.634.634-.634h2.75c.35 0 .634.284.634.634v2.75a.634.634 0 1 1-1.268 0V3.143L6.817 6.067a.625.625 0 1 1-.884-.884l2.924-2.924H7.625a.634.634 0 0 1-.634-.634Z"/>
  <path fill="#000" d="M3.25 2.25a1 1 0 0 0-1 1v5.5a1 1 0 0 0 1 1h5.5a1 1 0 0 0 1-1V7.625a.625.625 0 1 1 1.25 0V8.75A2.25 2.25 0 0 1 8.75 11h-5.5A2.25 2.25 0 0 1 1 8.75v-5.5A2.25 2.25 0 0 1 3.25 1h1.125a.625.625 0 1 1 0 1.25H3.25Z"/>
</svg>
