<svg fill="none" viewBox="0 0 16 16" xmlns="http://www.w3.org/2000/svg">
  <g fill="#000" clip-path="url(#Bookmark-Favorite-16_svg__a)">
    <path d="M8.46 4.314a.5.5 0 0 0-.928 0L6.95 5.763a.5.5 0 0 1-.43.312l-1.558.106a.5.5 0 0 0-.286.882l1.198 1.001a.5.5 0 0 1 .164.506l-.38 1.514a.5.5 0 0 0 .75.546L7.73 9.8a.5.5 0 0 1 .532 0l1.322.83a.5.5 0 0 0 .751-.546l-.38-1.514a.5.5 0 0 1 .163-.506l1.199-1a.5.5 0 0 0-.287-.883l-1.558-.106a.5.5 0 0 1-.43-.312l-.582-1.45Z"/>
    <path fill-rule="evenodd" d="M6 0a4 4 0 0 0-4 4v9.684c0 1.857 2.079 2.957 3.614 1.912l1.788-1.218c.36-.246.835-.246 1.196 0l1.788 1.218C11.92 16.64 14 15.54 14 13.684V4a4 4 0 0 0-4-4H6ZM3.25 4A2.75 2.75 0 0 1 6 1.25h4A2.75 2.75 0 0 1 12.75 4v9.684c0 .854-.955 1.359-1.66.878l-1.788-1.217a2.313 2.313 0 0 0-2.604 0l-1.787 1.217a1.063 1.063 0 0 1-1.661-.878V4Z" clip-rule="evenodd"/>
  </g>
  <defs>
    <clipPath id="Bookmark-Favorite-16_svg__a">
      <path fill="#fff" d="M0 0h16v16H0z"/>
    </clipPath>
  </defs>
</svg>
