<svg fill="none" viewBox="0 0 12 12" xmlns="http://www.w3.org/2000/svg">
  <path fill="#000" fill-rule="evenodd" d="M2.25 1A2.25 2.25 0 0 0 0 3.25v5.5A2.25 2.25 0 0 0 2.25 11h7.5A2.25 2.25 0 0 0 12 8.75v-5.5A2.25 2.25 0 0 0 9.75 1h-7.5Zm-1 2.25a1 1 0 0 1 1-1h7.5a1 1 0 0 1 1 1v2.5H9.634L8.119 4.235a.875.875 0 0 0-1.238 0l-2.38 2.381-1.36-1.36A.875.875 0 0 0 2.52 5H1.25V3.25Zm0 3v2.5a1 1 0 0 0 1 1h7.5a1 1 0 0 0 1-1V7H9.479a.875.875 0 0 1-.62-.256L7.5 5.384 5.12 7.765a.875.875 0 0 1-1.238 0L2.366 6.25H1.25Z" clip-rule="evenodd"/>
</svg>
