<svg fill="none" viewBox="0 0 12 12" xmlns="http://www.w3.org/2000/svg">
  <g clip-path="url(#Ai-Chat-Solid-12_svg__a)">
    <path fill="#000" fill-rule="evenodd" d="M1.843 9.954c.21-.242.165-.61-.075-.822C.676 8.164 0 6.824 0 5.344 0 2.392 2.686 0 6 0s6 2.392 6 5.344c0 2.239-1.546 4.156-3.739 4.951-1.418.651-4.908 1.312-6.9 1.655a.531.531 0 0 1-.488-.877l.97-1.12Zm4.442-7.5c-.074-.298-.496-.298-.57 0l-.165.657a2.45 2.45 0 0 1-1.783 1.783l-.658.165c-.297.074-.297.496 0 .57l.658.164A2.45 2.45 0 0 1 5.55 7.576l.165.658c.074.297.496.297.57 0l.164-.658a2.45 2.45 0 0 1 1.783-1.783l.658-.164c.297-.074.297-.496 0-.57l-.658-.165A2.45 2.45 0 0 1 6.45 3.111l-.165-.658Z" clip-rule="evenodd"/>
  </g>
  <defs>
    <clipPath id="Ai-Chat-Solid-12_svg__a">
      <path fill="#fff" d="M0 0h12v12H0z"/>
    </clipPath>
  </defs>
</svg>
