<svg fill="none" viewBox="0 0 24 24" xmlns="http://www.w3.org/2000/svg">
  <path fill="#000" d="M6 17.25a.75.75 0 0 1 .75-.75h10.5a.75.75 0 0 1 0 1.5H6.75a.75.75 0 0 1-.75-.75Z"/>
  <path fill="#000" fill-rule="evenodd" d="M7.75 3A3.75 3.75 0 0 0 4 6.75v7.8a1.295 1.295 0 0 0-.04.064l-1.545 2.614C1.43 18.895 2.63 21 4.567 21h14.866c1.936 0 3.138-2.105 2.153-3.772l-1.545-2.614a1.302 1.302 0 0 0-.04-.065V6.75A3.75 3.75 0 0 0 16.25 3h-8.5Zm11.072 12.5H5.178l-1.472 2.491a1 1 0 0 0 .861 1.509h14.866a1 1 0 0 0 .861-1.509L18.822 15.5ZM18.5 14V6.75a2.25 2.25 0 0 0-2.25-2.25h-8.5A2.25 2.25 0 0 0 5.5 6.75V14h13Z" clip-rule="evenodd"/>
</svg>
