<svg fill="none" viewBox="0 0 24 24" xmlns="http://www.w3.org/2000/svg">
  <path fill="#F9BE1A" d="M3.125 6.453a2.328 2.328 0 0 1 2.328-2.328h13.094a2.328 2.328 0 0 1 2.328 2.328v11.094a2.328 2.328 0 0 1-2.328 2.328H5.453a2.328 2.328 0 0 1-2.328-2.328V6.453Z"/>
  <path fill="#FFDE7A" d="m14.063 13 7-7L19 4H5L3 6l7.125 7h3.938Z"/>
  <path fill="url(#Email-Color-24_svg__a)" d="M17 3a5 5 0 0 1 5 5v8a5 5 0 0 1-5 5H7a5 5 0 0 1-5-5V8a5 5 0 0 1 5-5h10Zm-2.774 10.168a5.011 5.011 0 0 1-4.453 0l-4.957 5.88A3.732 3.732 0 0 0 7 19.75h10c.815 0 1.568-.261 2.183-.702l-4.957-5.88ZM3.334 7.206A3.766 3.766 0 0 0 3.25 8v8c0 .803.253 1.546.683 2.156l4.795-5.686a4.997 4.997 0 0 1-.226-.205L3.334 7.206Zm12.164 5.059a5 5 0 0 1-.226.205l4.794 5.686A3.73 3.73 0 0 0 20.75 16V8c0-.272-.03-.538-.085-.794l-5.167 5.059ZM7 4.25c-1.32 0-2.48.682-3.148 1.713l5.525 5.408a3.75 3.75 0 0 0 5.246 0l5.525-5.408A3.746 3.746 0 0 0 17 4.25H7Z"/>
  <defs>
    <linearGradient id="Email-Color-24_svg__a" x1="12.001" x2="12.001" y1="3" y2="21" gradientUnits="userSpaceOnUse">
      <stop stop-color="#C18010"/>
      <stop offset="1" stop-color="#92540C"/>
    </linearGradient>
  </defs>
</svg>
