<svg fill="none" viewBox="0 0 24 24" xmlns="http://www.w3.org/2000/svg">
  <path fill="#000" fill-rule="evenodd" d="M14.691 3.699c.189-.626-.06-1.371-.7-1.5A10.038 10.038 0 0 0 12.001 2C6.476 2 2 6.477 2 12s4.476 10 10 10c5.522 0 10-4.477 10-10 0-.843-.105-1.661-.301-2.443-.102-.406-.572-.569-.957-.407-.343.144-.558.519-.472.88.098.413.165.836.2 1.269a51.89 51.89 0 0 1-3.971.5 24.237 24.237 0 0 0-.232-3.223A4.493 4.493 0 0 1 14.5 5c0-.452.067-.89.191-1.301Zm5.77 9.121a8.508 8.508 0 0 1-5.605 7.189c.213-.365.402-.767.57-1.195.58-1.485.937-3.401 1.042-5.506a53.387 53.387 0 0 0 3.993-.488Zm-7.453-8.819c-.355-.363-.69-.501-1.008-.501h-.004c-.315.001-.65.14-1.004.501-.363.372-.714.95-1.02 1.731C9.37 7.274 9.01 9.452 9 11.908c1.999.116 4.002.116 6 0-.009-2.456-.37-4.634-.972-6.176-.305-.782-.657-1.36-1.02-1.73ZM3.528 11.3a8.507 8.507 0 0 1 5.617-7.307 8.524 8.524 0 0 0-.57 1.194C7.895 6.928 7.52 9.262 7.501 11.8a51.892 51.892 0 0 1-3.972-.501Zm4.004 2.009a53.386 53.386 0 0 1-3.993-.488 8.508 8.508 0 0 0 5.606 7.189 8.53 8.53 0 0 1-.57-1.195c-.58-1.485-.938-3.401-1.043-5.506Zm1.508.105c.11 1.913.44 3.596.932 4.855.306.781.657 1.36 1.02 1.73.356.364.691.502 1.008.502.317 0 .653-.138 1.008-.501.363-.372.715-.95 1.02-1.731.492-1.259.823-2.942.932-4.855a53.39 53.39 0 0 1-5.92 0Z" clip-rule="evenodd"/>
  <circle cx="19" cy="5" r="3" fill="#EE1025"/>
</svg>
