<svg fill="none" viewBox="0 0 20 20" xmlns="http://www.w3.org/2000/svg">
  <path fill="#000" fill-rule="evenodd" d="M1.007 9.65a9 9 0 0 1 17.986 0 .761.761 0 0 1 .005.156L19 10a9 9 0 1 1-17.998-.194.76.76 0 0 1 .005-.157Zm1.51.85a7.504 7.504 0 0 0 4.54 6.4 8.17 8.17 0 0 1-.391-.756c-.68-1.497-1.103-3.478-1.16-5.644h-2.99ZM5.526 9h-2.96a7.508 7.508 0 0 1 4.49-5.9 8.18 8.18 0 0 0-.391.756C6.038 5.236 5.63 7.03 5.526 9Zm1.48 1.5c.056 1.992.447 3.754 1.024 5.023C8.687 16.966 9.44 17.5 10 17.5s1.313-.534 1.969-1.977c.577-1.27.968-3.031 1.024-5.023H7.007ZM12.972 9H7.028c.103-1.786.475-3.361 1.003-4.523C8.687 3.034 9.44 2.5 10 2.5s1.313.534 1.969 1.977c.528 1.162.9 2.737 1.003 4.523Zm1.521 1.5c-.056 2.166-.478 4.147-1.159 5.644a8.16 8.16 0 0 1-.39.756 7.504 7.504 0 0 0 4.54-6.4h-2.99Zm2.94-1.5h-2.96c-.103-1.97-.511-3.763-1.139-5.144a8.155 8.155 0 0 0-.39-.756 7.508 7.508 0 0 1 4.49 5.9Z" clip-rule="evenodd"/>
</svg>
