<svg fill="none" viewBox="0 0 20 20" xmlns="http://www.w3.org/2000/svg">
  <path fill="#000" fill-rule="evenodd" d="M5.75 2.53a.75.75 0 0 0-.75.75v13.47c0 .414.336.75.75.75h5.5a.75.75 0 0 1 0 1.5h-5.5a2.25 2.25 0 0 1-2.25-2.25V3.28a2.25 2.25 0 0 1 2.25-2.25h6.256c.61 0 1.194.248 1.618.687l2.244 2.322c.405.42.632.98.632 1.563V8.25a.75.75 0 0 1-1.5 0V5.602a.75.75 0 0 0-.21-.521l-2.244-2.322a.75.75 0 0 0-.54-.229H5.75Z" clip-rule="evenodd"/>
  <path fill="#000" fill-rule="evenodd" d="M10.75 5.186V1.75h1.5v3.436c0 .138.112.25.25.25h3v1.5h-3a1.75 1.75 0 0 1-1.75-1.75ZM14.598 19a.75.75 0 0 1-.75-.75v-6.696a.75.75 0 0 1 1.5 0v6.696a.75.75 0 0 1-.75.75Z" clip-rule="evenodd"/>
  <path fill="#000" fill-rule="evenodd" d="M10.393 15.104a.75.75 0 0 1 .046-1.06l3.652-3.347a.75.75 0 0 1 1.014 0l3.652 3.348a.75.75 0 0 1-1.014 1.106l-3.145-2.884-3.146 2.884a.75.75 0 0 1-1.06-.046Z" clip-rule="evenodd"/>
</svg>
