<svg fill="none" viewBox="0 0 24 24" xmlns="http://www.w3.org/2000/svg">
  <path fill="#000" d="M11.308 15.125c.546 0 1.184.328 1.184 1.13 0 .638-.437 1.422-1.476 1.422-.565 0-1.203-.273-1.203-1.112 0-.692.565-1.44 1.495-1.44Zm1.278-8.75c1.844 0 2.95.941 2.95 2.191 0 2.647-3.82 2.662-3.82 3.794 0 .294.295.5.737.5.443 0 .694 1.367-.722 1.367S9.5 13.483 9.5 12.47c0-2.22 3.498-2.476 3.498-3.638 0-.338-.294-.603-.928-.603-.664 0-1.804.274-2.57.803V7.156c.825-.47 2.127-.78 3.085-.781Z"/>
  <path fill="#000" fill-rule="evenodd" d="M12 2c5.523 0 10 4.477 10 10s-4.477 10-10 10S2 17.523 2 12 6.477 2 12 2Zm0 1.5a8.5 8.5 0 1 0 0 17 8.5 8.5 0 0 0 0-17Z" clip-rule="evenodd"/>
</svg>
