<svg fill="none" viewBox="0 0 24 24" xmlns="http://www.w3.org/2000/svg">
  <path fill="#000" fill-rule="evenodd" d="M2 7.75A3.75 3.75 0 0 1 5.75 4h7.5A3.75 3.75 0 0 1 17 7.75v.764l2.447-1.264A1.75 1.75 0 0 1 22 8.804v6.404a1.75 1.75 0 0 1-2.553 1.554L17 15.498v.752A3.75 3.75 0 0 1 13.25 20h-7.5A3.75 3.75 0 0 1 2 16.25v-8.5ZM5.75 5.5A2.25 2.25 0 0 0 3.5 7.75v8.5a2.25 2.25 0 0 0 2.25 2.25h7.5a2.25 2.25 0 0 0 2.25-2.25v-1.983a.75.75 0 0 1 1.095-.667l3.54 1.83a.25.25 0 0 0 .365-.222V8.804a.25.25 0 0 0-.364-.222l-3.541 1.83a.75.75 0 0 1-1.095-.666V7.75a2.25 2.25 0 0 0-2.25-2.25h-7.5Z" clip-rule="evenodd"/>
</svg>
