<svg fill="none" viewBox="0 0 16 16" xmlns="http://www.w3.org/2000/svg">
  <g fill="#000" clip-path="url(#Bookmark-All-16_svg__a)">
    <path d="M0 3.114A3.114 3.114 0 0 1 3.114 0h2.772c.952 0 1.804.427 2.375 1.1.328.386-.01.9-.518.9-.228 0-.437-.115-.606-.268-.33-.3-.77-.482-1.25-.482H3.113c-1.03 0-1.864.834-1.864 1.864v8.006a.62.62 0 0 0 .993.494l1.128-.855c.283-.214.629.04.629.395v.093c0 .38-.178.739-.481.969l-.52.394C1.768 13.543 0 12.665 0 11.12V3.114Z"/>
    <path d="M5 6.114A3.114 3.114 0 0 1 8.114 3h2.772c1.457 0 2.68 1 3.02 2.352.087.347-.206.648-.564.648-.334 0-.6-.268-.725-.579a1.864 1.864 0 0 0-1.73-1.171H8.113c-1.03 0-1.864.834-1.864 1.864v8.006a.62.62 0 0 0 .993.494l1.128-.855a1.87 1.87 0 0 1 2.258 0l1.128.855a.62.62 0 0 0 .993-.494.624.624 0 0 1 1.25 0c0 1.545-1.768 2.423-2.999 1.49l-1.127-.855a.62.62 0 0 0-.748 0l-1.127.855C6.768 16.543 5 15.665 5 14.12V6.114Z"/>
    <path d="M13.375 7c.345 0 .625.28.625.625V9h1.375a.625.625 0 1 1 0 1.25H14v1.375a.625.625 0 1 1-1.25 0V10.25h-1.375a.625.625 0 1 1 0-1.25h1.375V7.625c0-.345.28-.625.625-.625Z"/>
  </g>
  <defs>
    <clipPath id="Bookmark-All-16_svg__a">
      <path fill="#fff" d="M0 0h16v16H0z"/>
    </clipPath>
  </defs>
</svg>
