<svg fill="none" viewBox="0 0 24 24" xmlns="http://www.w3.org/2000/svg">
  <path fill="#000" fill-rule="evenodd" d="M9.097 19.695a2.289 2.289 0 0 0 2.289 2.288h1.229a2.289 2.289 0 0 0 2.289-2.288.804.804 0 0 1 1.305-.629 2.289 2.289 0 0 0 3.216-.362l.767-.961a2.289 2.289 0 0 0-.363-3.217.804.804 0 0 1 .322-1.412 2.289 2.289 0 0 0 1.722-2.74l-.274-1.2a2.289 2.289 0 0 0-2.74-1.721.804.804 0 0 1-.903-1.132 2.289 2.289 0 0 0-1.07-3.055l-1.108-.534a2.288 2.288 0 0 0-3.054 1.069.803.803 0 0 1-1.447 0 2.288 2.288 0 0 0-3.055-1.069l-1.108.534a2.289 2.289 0 0 0-1.07 3.055.804.804 0 0 1-.902 1.132A2.289 2.289 0 0 0 2.4 9.175l-.274 1.198a2.289 2.289 0 0 0 1.722 2.741c.657.15.849.992.323 1.412a2.289 2.289 0 0 0-.363 3.217l.767.96a2.289 2.289 0 0 0 3.216.363.804.804 0 0 1 1.305.629Zm2.289.803a.804.804 0 0 1-.804-.803c0-1.918-2.217-2.985-3.716-1.79a.804.804 0 0 1-1.13-.127l-.766-.961a.804.804 0 0 1 .127-1.13c1.5-1.195.952-3.594-.917-4.02a.804.804 0 0 1-.605-.963l.274-1.199a.804.804 0 0 1 .962-.604c1.87.426 3.404-1.497 2.572-3.225a.804.804 0 0 1 .375-1.072l1.108-.534a.803.803 0 0 1 1.073.375c.831 1.728 3.291 1.728 4.123 0a.803.803 0 0 1 1.072-.375l1.108.534c.4.192.568.672.376 1.072-.832 1.728.702 3.651 2.571 3.225a.804.804 0 0 1 .963.604l.273 1.199a.804.804 0 0 1-.604.962c-1.87.427-2.417 2.826-.918 4.021a.804.804 0 0 1 .127 1.13l-.766.96a.804.804 0 0 1-1.13.128c-1.499-1.195-3.715-.128-3.715 1.79 0 .444-.36.803-.804.803h-1.23ZM12 13.98a1.98 1.98 0 1 1 0-3.96 1.98 1.98 0 0 1 0 3.96ZM8.535 12a3.465 3.465 0 1 0 6.93 0 3.465 3.465 0 0 0-6.93 0Z" clip-rule="evenodd"/>
</svg>
