<svg fill="none" viewBox="0 0 16 16" xmlns="http://www.w3.org/2000/svg">
  <g fill="#000" clip-path="url(#Folder-Downloads-16_svg__a)">
    <path fill-rule="evenodd" d="M4 1a4 4 0 0 0-4 4v6a4 4 0 0 0 4 4h3.482a.5.5 0 0 0 .325-.88l-.151-.13a1 1 0 0 0-.65-.24H4A2.75 2.75 0 0 1 1.25 11V7.25h13.5V10A.625.625 0 1 0 16 10V7a4 4 0 0 0-4-4h-2c-.59 0-1.146-.278-1.5-.75A3.125 3.125 0 0 0 6 1H4Zm10.563 5H1.25V5A2.75 2.75 0 0 1 4 2.25h2c.59 0 1.146.278 1.5.75A3.125 3.125 0 0 0 10 4.25h2A2.75 2.75 0 0 1 14.563 6Z" clip-rule="evenodd"/>
    <path d="M13 9.75a.625.625 0 1 0-1.25 0v4.166L9.775 12.27a.625.625 0 1 0-.8.96l2.992 2.493a.62.62 0 0 0 .408.152.623.623 0 0 0 .409-.152l2.991-2.493a.625.625 0 0 0-.8-.96L13 13.916V9.75Z"/>
  </g>
  <defs>
    <clipPath id="Folder-Downloads-16_svg__a">
      <path fill="#fff" d="M0 0h16v16H0z"/>
    </clipPath>
  </defs>
</svg>
