<svg fill="none" viewBox="0 0 24 24" xmlns="http://www.w3.org/2000/svg">
  <path fill="url(#Sync-Color-24-1_svg__a)" d="M11.688 2.625c4.096 0 7.598 2.46 9.015 5.938h-4.257a7.833 7.833 0 0 0-6.05-2.813c-3.52 0-6.493 2.272-7.437 5.383l-.878-.35c.617-4.603 4.683-8.158 9.607-8.158Z"/>
  <path fill="url(#Sync-Color-24-1_svg__b)" d="M21.919 13.217c-.617 4.603-4.683 8.158-9.607 8.158-4.096 0-7.598-2.46-9.015-5.938h4.257a7.834 7.834 0 0 0 6.05 2.813c3.52 0 6.493-2.272 7.437-5.384l.878.351Z"/>
  <path fill="#DE5833" d="M10.291 2.147a10 10 0 0 1 6.17.903l.09.046a10 10 0 0 1 4.19 4.047A1.12 1.12 0 0 0 20.75 7V3.25a.625.625 0 0 1 1.25 0V7a2.5 2.5 0 0 1-2.5 2.5h-3.125a.625.625 0 0 1 0-1.25H19.5c.136 0 .267-.022.39-.062a.625.625 0 0 1-.066-.104l.68-.34-.12.06-.56.28a8.75 8.75 0 0 0-3.762-3.834l-.158-.08a8.75 8.75 0 0 0-5.312-.806l-.175.03a8.75 8.75 0 0 0-7.123 7.73.625.625 0 0 1-1.244-.126 10 10 0 0 1 8.141-8.833l.1-.018Z"/>
  <path fill="#3969EF" d="M20.71 12.845a.625.625 0 0 1 1.24.157l-.011.101a10 10 0 0 1-8.13 8.732l-.1.018a10 10 0 0 1-6.17-.904l-.091-.045a10 10 0 0 1-4.19-4.048 1.251 1.251 0 0 0-.006.08L3.25 17v3.75a.625.625 0 0 1-1.25.032v-3.847A2.5 2.5 0 0 1 4.5 14.5h3.125a.625.625 0 1 1 0 1.25H4.5c-.136 0-.267.022-.39.062a.626.626 0 0 1 .065.104l-.68.34.121-.06.56-.28a8.75 8.75 0 0 0 3.762 3.834l.158.08a8.75 8.75 0 0 0 5.311.806l.175-.03a8.75 8.75 0 0 0 7.124-7.73l.004-.031Z"/>
  <defs>
    <radialGradient id="Sync-Color-24-1_svg__a" cx="0" cy="0" r="1" gradientTransform="matrix(-15.625 0 0 -32.3326 18.25 6.986)" gradientUnits="userSpaceOnUse">
      <stop stop-color="#DE5833" stop-opacity=".3"/>
      <stop offset="1" stop-color="#DE5833" stop-opacity=".1"/>
    </radialGradient>
    <radialGradient id="Sync-Color-24-1_svg__b" cx="0" cy="0" r="1" gradientTransform="matrix(13.1248 0 0 27.1599 5.75 16.375)" gradientUnits="userSpaceOnUse">
      <stop stop-color="#3969EF" stop-opacity=".3"/>
      <stop offset="1" stop-color="#3969EF" stop-opacity=".1"/>
    </radialGradient>
  </defs>
</svg>
