<svg fill="none" viewBox="0 0 16 16" xmlns="http://www.w3.org/2000/svg">
  <g fill="#000" clip-path="url(#Zoom-ActualSize-16_svg__a)">
    <path d="m10.5 4 .154.008A1.501 1.501 0 0 1 12 5.5v1.874a.625.625 0 0 1-1.25 0V7.23l.001-.393-.001-.705-4.615 4.616h1.24l.126.014a.626.626 0 0 1 0 1.224L7.375 12H5.5a1.5 1.5 0 0 1-1.493-1.347L4 10.5V8.625a.625.625 0 0 1 1.25 0v1.24L9.865 5.25l-1.24.001-.126-.014a.626.626 0 0 1 0-1.224l.126-.014L10.5 4Z"/>
    <path fill-rule="evenodd" d="M11.25.75a4 4 0 0 1 4 4v6.5a4 4 0 0 1-4 4h-6.5a4 4 0 0 1-4-4v-6.5a4 4 0 0 1 4-4h6.5ZM4.75 2A2.75 2.75 0 0 0 2 4.75v6.5A2.75 2.75 0 0 0 4.75 14h6.5A2.75 2.75 0 0 0 14 11.25v-6.5A2.75 2.75 0 0 0 11.25 2h-6.5Z" clip-rule="evenodd"/>
  </g>
  <defs>
    <clipPath id="Zoom-ActualSize-16_svg__a">
      <path fill="#fff" d="M0 0h16v16H0z"/>
    </clipPath>
  </defs>
</svg>
