<svg fill="none" viewBox="0 0 16 16" xmlns="http://www.w3.org/2000/svg">
  <g fill="#000" clip-path="url(#Zoom-ActualSize-16_svg__a)">
    <path d="M8.625 3a.625.625 0 0 0 0 1.25h2.241L4.25 10.866V8.625a.625.625 0 0 0-1.25 0v3.75c0 .345.28.625.625.625h3.75a.625.625 0 1 0 0-1.25H5.134l6.616-6.616v2.241a.625.625 0 1 0 1.25 0v-3.75A.625.625 0 0 0 12.375 3h-3.75Z"/>
    <path fill-rule="evenodd" d="M3.875.75A3.125 3.125 0 0 0 .75 3.875v8.25c0 1.726 1.4 3.125 3.125 3.125h8.25c1.726 0 3.125-1.4 3.125-3.125v-8.25c0-1.726-1.4-3.125-3.125-3.125h-8.25ZM2 3.875C2 2.839 2.84 2 3.875 2h8.25C13.161 2 14 2.84 14 3.875v8.25C14 13.161 13.16 14 12.125 14h-8.25A1.875 1.875 0 0 1 2 12.125v-8.25Z" clip-rule="evenodd"/>
  </g>
  <defs>
    <clipPath id="Zoom-ActualSize-16_svg__a">
      <path fill="#fff" d="M0 0h16v16H0z"/>
    </clipPath>
  </defs>
</svg>
