<svg fill="none" viewBox="0 0 16 16" xmlns="http://www.w3.org/2000/svg">
  <path fill="#000" d="M5.75 0A2.75 2.75 0 0 0 3 2.75v10.5A2.75 2.75 0 0 0 5.75 16h1.375a.625.625 0 1 0 0-1.25H5.75a1.5 1.5 0 0 1-1.5-1.5V2.75a1.5 1.5 0 0 1 1.5-1.5h4.5a1.5 1.5 0 0 1 1.5 1.5v3.125a.625.625 0 1 0 1.25 0V2.75A2.75 2.75 0 0 0 10.25 0h-4.5Z"/>
  <path fill="#000" d="M6.5 2.5A.5.5 0 0 1 7 2h2a.5.5 0 0 1 0 1H7a.5.5 0 0 1-.5-.5Z"/>
  <path fill="#000" fill-rule="evenodd" d="M10 10.25a2.5 2.5 0 0 1 5 0V11h.148c.47 0 .852.382.852.852v3.296c0 .47-.382.852-.852.852H9.852A.852.852 0 0 1 9 15.148v-3.296c0-.47.382-.852.852-.852H10v-.75Zm3.75 0V11h-2.5v-.75a1.25 1.25 0 1 1 2.5 0Z" clip-rule="evenodd"/>
</svg>
