<svg fill="none" viewBox="0 0 16 16" xmlns="http://www.w3.org/2000/svg">
  <g clip-path="url(#Link-Recolorable-16_svg__a)">
    <path fill="#F9BE1A" d="M16 8A8 8 0 1 1 0 8a8 8 0 0 1 16 0Z"/>
    <path fill="#fff" d="M12.194 3.134a2.75 2.75 0 0 0-3.889 0l-.085.085A.75.75 0 0 0 9.28 4.28l.086-.086a1.25 1.25 0 0 1 1.768 0l.671.672a1.25 1.25 0 0 1 0 1.768L9.753 8.686a1.75 1.75 0 0 1-2.288.163l-.265-.2a.75.75 0 1 0-.9 1.2l.265.2a3.25 3.25 0 0 0 4.248-.302l2.053-2.053a2.75 2.75 0 0 0 0-3.889l-.671-.671Z"/>
    <path fill="#fff" d="M3.805 12.866a2.75 2.75 0 0 0 3.89 0l.085-.086a.75.75 0 1 0-1.06-1.06l-.086.085a1.25 1.25 0 0 1-1.768 0l-.672-.671a1.25 1.25 0 0 1 0-1.768l2.053-2.053a1.75 1.75 0 0 1 2.288-.162l.265.199a.75.75 0 1 0 .9-1.2l-.265-.2a3.25 3.25 0 0 0-4.249.303L3.134 8.305a2.75 2.75 0 0 0 0 3.89l.671.67Z"/>
  </g>
  <defs>
    <clipPath id="Link-Recolorable-16_svg__a">
      <path fill="#fff" d="M0 0h16v16H0z"/>
    </clipPath>
  </defs>
</svg>
