<svg fill="none" viewBox="0 0 24 24" xmlns="http://www.w3.org/2000/svg">
  <path fill="#000" d="M12.844 3.283a.75.75 0 0 1-1.061 1.06l-.44-.44a1.375 1.375 0 0 0-.843-.397v1.01c0 .298-.16.574-.418.723l-.29.166C9.442 5.605 9 5.403 9 5V3.5H7A3.5 3.5 0 0 0 3.5 7v6a3.502 3.502 0 0 0 2.41 3.327c.34.111.617.386.655.74.051.481-.347.896-.816.775A5.002 5.002 0 0 1 2 13V7a5 5 0 0 1 5-5h3.37c.763 0 1.494.303 2.033.842l.44.44Z"/>
  <path fill="#000" fill-rule="evenodd" d="M8 17a5 5 0 0 0 5 5h4a5 5 0 0 0 5-5v-5.37c0-.763-.303-1.494-.842-2.033l-2.755-2.755A2.875 2.875 0 0 0 16.37 6H13a5 5 0 0 0-5 5v6Zm5 3.5A3.5 3.5 0 0 1 9.5 17v-6A3.5 3.5 0 0 1 13 7.5h2V9a4 4 0 0 0 4 4h1.5v4a3.5 3.5 0 0 1-3.5 3.5h-4ZM16.5 9V7.506c.317.03.615.17.842.396l2.756 2.756c.227.227.366.525.396.842H19A2.5 2.5 0 0 1 16.5 9Z" clip-rule="evenodd"/>
</svg>
