<svg fill="none" viewBox="0 0 24 24" xmlns="http://www.w3.org/2000/svg">
  <path fill="#000" d="M15 2a.75.75 0 0 1 .75.75v1a.75.75 0 0 1-1.5 0v-1A.75.75 0 0 1 15 2Zm0 11.5a.75.75 0 0 1 .75.75v1a.75.75 0 0 1-1.5 0v-1a.75.75 0 0 1 .75-.75ZM22 9a.75.75 0 0 1-.75.75h-1a.75.75 0 0 1 0-1.5h1A.75.75 0 0 1 22 9ZM10.5 9a.75.75 0 0 1-.75.75h-1a.75.75 0 0 1 0-1.5h1a.75.75 0 0 1 .75.75Zm9.45 4.95a.75.75 0 0 1-1.06 0l-.774-.774a.75.75 0 1 1 1.06-1.06l.774.773a.75.75 0 0 1 0 1.06Zm-8.065-8.065a.75.75 0 0 1-1.06 0l-.774-.774a.75.75 0 0 1 1.06-1.06l.774.773a.75.75 0 0 1 0 1.06Zm6.23-.001a.75.75 0 0 1 0-1.06l.727-.726a.75.75 0 0 1 1.06 1.061l-.726.726a.75.75 0 0 1-1.06 0Zm-3.402 2.342-8.875 8.876c.32.385.675.74 1.06 1.06l8.876-8.875a.75.75 0 0 0-1.061-1.06ZM5.48 19.581a10.06 10.06 0 0 1-1.061-1.06L2.22 20.719a.75.75 0 1 0 1.06 1.06l2.198-2.198Z"/>
</svg>
