<svg fill="none" viewBox="0 0 16 16" xmlns="http://www.w3.org/2000/svg">
  <g clip-path="url(#Join-16_svg__a)">
    <path fill="#000" d="M14.491 7H7.688c-2.823 0-4.131-1.144-4.77-2.199a4.776 4.776 0 0 1-.668-2.174v-.004A.625.625 0 0 0 1 2.625h.625H1v.027a2.68 2.68 0 0 0 .014.242 6.025 6.025 0 0 0 .834 2.555 5.426 5.426 0 0 0 2.507 2.176 5.426 5.426 0 0 0-2.507 2.176A6.025 6.025 0 0 0 1 12.598v.025s0 .002.625.002H1a.625.625 0 0 0 1.25.002v-.004l.001-.029a4.488 4.488 0 0 1 .081-.627c.085-.418.253-.97.585-1.518.64-1.055 1.948-2.199 4.77-2.199h6.804l-2.933 2.933a.625.625 0 0 0 .884.884l2.94-2.94c.83-.83.83-2.175 0-3.005l-2.94-2.939a.625.625 0 0 0-.884.884L14.491 7Z"/>
  </g>
  <defs>
    <clipPath id="Join-16_svg__a">
      <path fill="#fff" d="M0 0h16v16H0z"/>
    </clipPath>
  </defs>
</svg>
