<svg fill="none" viewBox="0 0 16 16" xmlns="http://www.w3.org/2000/svg">
  <path fill="#000" fill-rule="evenodd" d="M7.875 0A2.875 2.875 0 0 0 5 2.875v4.25A2.875 2.875 0 0 0 7.875 10h.25A2.875 2.875 0 0 0 11 7.125v-4.25A2.875 2.875 0 0 0 8.125 0h-.25ZM6.25 2.875c0-.897.728-1.625 1.625-1.625h.25c.897 0 1.625.728 1.625 1.625v4.25c0 .897-.728 1.625-1.625 1.625h-.25A1.625 1.625 0 0 1 6.25 7.125v-4.25Z" clip-rule="evenodd"/>
  <path fill="#000" d="M3.625 14.75a.625.625 0 1 0 0 1.25h8.75a.625.625 0 1 0 0-1.25h-3.75v-1.782A6 6 0 0 0 14 7v-.375a.625.625 0 1 0-1.25 0V7a4.75 4.75 0 1 1-9.5 0v-.375a.625.625 0 1 0-1.25 0V7a6 6 0 0 0 5.375 5.968v1.782h-3.75Z"/>
</svg>
