<svg fill="none" viewBox="0 0 20 20" xmlns="http://www.w3.org/2000/svg">
  <path fill="#000" fill-rule="evenodd" d="M2.5 10a7.5 7.5 0 1 1 15 0 7.5 7.5 0 0 1-15 0ZM10 1a9 9 0 1 0 0 18 9 9 0 0 0 0-18Zm.505 4.25c-.78 0-1.255.586-1.255 1.129 0 .657.536.871 1.01.871.873 0 1.24-.614 1.24-1.114 0-.629-.536-.886-.995-.886Zm.43 3.05-1.88.35c-.06.52-.143 1.04-.229 1.565-.161.996-.326 2.014-.326 3.103C8.5 14.406 9.077 15 9.99 15c1.041 0 1.22-.738 1.26-1.406-.864.141-1.054-.299-.912-1.334.14-1.036.597-3.96.597-3.96Z" clip-rule="evenodd"/>
</svg>
