<svg fill="none" viewBox="0 0 16 16" xmlns="http://www.w3.org/2000/svg">
  <path fill="#000" d="M11 0a4 4 0 0 1 4 4v8a4 4 0 0 1-4 4H5a4 4 0 0 1-4-4V4a4 4 0 0 1 4-4h6ZM5 1.25A2.75 2.75 0 0 0 2.25 4v8A2.75 2.75 0 0 0 5 14.75h6A2.75 2.75 0 0 0 13.75 12V4A2.75 2.75 0 0 0 11 1.25H5Zm.375 10.5a.625.625 0 1 1 0 1.25h-.75a.625.625 0 1 1 0-1.25h.75Zm3 0a.625.625 0 1 1 0 1.25h-.75a.625.625 0 1 1 0-1.25h.75Zm3 0a.625.625 0 1 1 0 1.25h-.75a.625.625 0 1 1 0-1.25h.75Zm-6-2.875a.625.625 0 1 1 0 1.25h-.75a.625.625 0 1 1 0-1.25h.75Zm3 0a.625.625 0 1 1 0 1.25h-.75a.625.625 0 1 1 0-1.25h.75Zm3 0a.625.625 0 1 1 0 1.25h-.75a.625.625 0 1 1 0-1.25h.75ZM5.375 6a.625.625 0 1 1 0 1.25h-.75a.625.625 0 1 1 0-1.25h.75Zm3 0a.625.625 0 1 1 0 1.25h-.75a.625.625 0 1 1 0-1.25h.75Zm3 0a.625.625 0 1 1 0 1.25h-.75a.625.625 0 1 1 0-1.25h.75Zm.125-3a.5.5 0 0 1 .5.5V4a.5.5 0 0 1-.5.5h-7A.5.5 0 0 1 4 4v-.5a.5.5 0 0 1 .5-.5h7Z"/>
</svg>
