<svg fill="none" viewBox="0 0 24 24" xmlns="http://www.w3.org/2000/svg">
  <path fill="#000" d="M15.624 2.496c-.162-.65-1.085-.65-1.248 0l-.38 1.52a5.47 5.47 0 0 1-3.98 3.98l-1.52.38c-.649.162-.649 1.086 0 1.248l1.52.38a5.47 5.47 0 0 1 3.98 3.98l.38 1.52c.163.65 1.086.65 1.248 0l.38-1.52a5.47 5.47 0 0 1 3.98-3.98l1.52-.38c.65-.162.65-1.086 0-1.248l-1.52-.38a5.47 5.47 0 0 1-3.98-3.98l-.38-1.52Zm-8.64 5.138C7.124 7.46 6.992 7 6.769 7H2.75a.75.75 0 0 0 0 1.5h3.417c.233 0 .43-.164.522-.379.075-.173.173-.338.295-.487Z"/>
  <path fill="#000" d="M12.06 13.214a.463.463 0 0 0-.399-.214h-8.91a.75.75 0 0 0 0 1.5h9.188c.325 0 .566-.307.45-.611a4.038 4.038 0 0 0-.329-.675ZM18 19.75a.75.75 0 0 1-.75.75H2.75a.75.75 0 0 1 0-1.5h14.5a.75.75 0 0 1 .75.75Z"/>
</svg>
