<svg fill="none" viewBox="0 0 16 16" xmlns="http://www.w3.org/2000/svg">
  <g clip-path="url(#Site-Breakage-16_svg__a)">
    <path fill="#000" d="M0 11V5a4 4 0 0 1 4-4h.234c.55 0 1.073.242 1.43.662l2.063 2.434a.625.625 0 0 1-.098.901L5.597 6.545l1.763 1.62c.237.217.27.578.077.835l-1.312 1.75a.625.625 0 0 1-1-.75l.973-1.298L4.202 6.96a.625.625 0 0 1 .044-.957l2.101-1.601L4.71 2.47a.625.625 0 0 0-.476-.221H4A2.75 2.75 0 0 0 1.25 5v6A2.75 2.75 0 0 0 4 13.75h8.04A2.75 2.75 0 0 0 14.79 11V5a2.75 2.75 0 0 0-2.75-2.75H8.625a.625.625 0 1 1 0-1.25h3.415a4 4 0 0 1 4 4v6a4 4 0 0 1-4 4H4a4 4 0 0 1-4-4Z"/>
  </g>
  <defs>
    <clipPath id="Site-Breakage-16_svg__a">
      <path fill="#fff" d="M0 0h16v16H0z"/>
    </clipPath>
  </defs>
</svg>
