<svg fill="none" viewBox="0 0 16 16" xmlns="http://www.w3.org/2000/svg">
  <g clip-path="url(#Site-Breakage-16_svg__a)">
    <path fill="#000" fill-rule="evenodd" d="M3.125 2.25c-1.036 0-1.875.84-1.875 1.875v7.75c0 1.036.84 1.875 1.875 1.875h9.79c1.036 0 1.875-.84 1.875-1.875v-7.75c0-1.036-.84-1.875-1.875-1.875h-5.29a.625.625 0 1 1 0-1.25h5.29c1.726 0 3.125 1.4 3.125 3.125v7.75c0 1.726-1.4 3.125-3.125 3.125h-9.79A3.125 3.125 0 0 1 0 11.875v-7.75C0 2.399 1.4 1 3.125 1h.686c.492 0 .964.193 1.314.537l2.563 2.517a.625.625 0 0 1-.06.943l-2.03 1.548 1.762 1.62c.237.217.27.578.077.835l-1.312 1.75a.625.625 0 0 1-1-.75l.973-1.298L4.202 6.96a.625.625 0 0 1 .044-.957L6.297 4.44 4.25 2.43a.625.625 0 0 0-.438-.18h-.686Z" clip-rule="evenodd"/>
  </g>
  <defs>
    <clipPath id="Site-Breakage-16_svg__a">
      <path fill="#fff" d="M0 0h16v16H0z"/>
    </clipPath>
  </defs>
</svg>
