<svg fill="none" viewBox="0 0 16 16" xmlns="http://www.w3.org/2000/svg">
  <g fill="#000" clip-path="url(#VPN-Off-16_svg__a)">
    <path fill-rule="evenodd" d="M8 0A8 8 0 0 0 .017 7.482a.627.627 0 0 0-.012.225 8 8 0 0 0 7.267 8.26c.307.028.53-.297.498-.604-.038-.38-.29-.714-.583-.96-.338-.282-.686-.75-1.005-1.448-.542-1.183-.9-2.84-.93-4.705H8.5c.138 0 .25-.112.258-.25a3.7 3.7 0 0 1 .104-.662C8.903 7.171 8.782 7 8.61 7H5.282c.1-1.558.432-2.933.9-3.955C6.772 1.755 7.462 1.25 8 1.25s1.227.504 1.818 1.795c.225.49.418 1.063.57 1.697.04.171.238.254.394.174a3.73 3.73 0 0 1 .616-.252.26.26 0 0 0 .182-.305 10.41 10.41 0 0 0-.625-1.834 7.11 7.11 0 0 0-.416-.781 6.775 6.775 0 0 1 3.22 2.735c.12.195.295.35.498.457.174.093.34.199.497.317.232.175.739-.077.627-.345A8.002 8.002 0 0 0 8 0ZM5.46 14.256A6.753 6.753 0 0 1 1.256 8.25h2.747c.03 2.008.413 3.848 1.043 5.225.125.272.263.534.416.781ZM1.325 7H4.03c.102-1.714.465-3.272 1.015-4.475.125-.272.263-.534.416-.781A6.759 6.759 0 0 0 1.324 7Z" clip-rule="evenodd"/>
    <path d="M12.5 5.75a2.5 2.5 0 0 0-2.5 2.5V9h1.25v-.75a1.25 1.25 0 1 1 2.5 0V11H9.852a.852.852 0 0 0-.852.852v3.296c0 .47.382.852.852.852h5.296c.47 0 .852-.382.852-.852v-3.296a.852.852 0 0 0-.852-.852H15V8.25a2.5 2.5 0 0 0-2.5-2.5Z"/>
  </g>
  <defs>
    <clipPath id="VPN-Off-16_svg__a">
      <path fill="#fff" d="M0 0h16v16H0z"/>
    </clipPath>
  </defs>
</svg>
