<svg fill="none" viewBox="0 0 20 20" xmlns="http://www.w3.org/2000/svg">
  <path fill="#000" fill-rule="evenodd" d="M1 4.5A2.5 2.5 0 0 1 3.5 2h13A2.5 2.5 0 0 1 19 4.5v8c0 1.38-1.117 2.5-2.499 2.5h-4.368c-.342 0-.695.15-.99.427-1.98 1.856-4.495 3.026-5.94 3.598-1.135.45-2.103-.644-1.81-1.677.204-.718.43-1.609.54-2.348H3.5A2.5 2.5 0 0 1 1 12.5v-8Zm2.5-1a1 1 0 0 0-1 1v8a1 1 0 0 0 1 1h.75c.672 0 1.297.561 1.217 1.326-.088.847-.343 1.891-.567 2.704 1.397-.574 3.544-1.628 5.216-3.197.526-.494 1.233-.833 2.018-.833H16.5a.999.999 0 0 0 .999-1v-8a1 1 0 0 0-1-1h-13Z" clip-rule="evenodd"/>
</svg>
