<svg fill="none" viewBox="0 0 16 16" xmlns="http://www.w3.org/2000/svg">
  <path fill="#000" fill-rule="evenodd" d="M4.682 2.625a.625.625 0 0 1 .58.38l4.063 9.5a.625.625 0 1 1-1.15.49l-1.334-3.12H2.652L1.33 13.112a.625.625 0 1 1-1.157-.474l3.936-9.625a.625.625 0 0 1 .574-.388Zm.017 2.244 1.607 3.756H3.163L4.7 4.869Zm5.326 6.701a.25.25 0 0 1-.462.005l-.457-1.069 2.314-5.74a.625.625 0 0 1 1.157-.007l3.25 7.773a.625.625 0 0 1-1.154.482l-.894-2.139h-3.474l-.28.695Zm3.231-1.945-1.245-2.98-1.202 2.98h2.447Z" clip-rule="evenodd"/>
</svg>
