<svg fill="none" viewBox="0 0 16 16" xmlns="http://www.w3.org/2000/svg">
  <g fill="#000" fill-rule="evenodd" clip-path="url(#Tab-New-16_svg__a)" clip-rule="evenodd">
    <path d="M3.125.987A3.138 3.138 0 0 0-.012 4.125v7.75a3.137 3.137 0 0 0 3.137 3.137h4.364c.426 0 .698-.474.55-.874a.593.593 0 0 0-.543-.4H3.125a1.863 1.863 0 0 1-1.862-1.863v-7.75c0-1.029.833-1.863 1.862-1.863h1.68c.656 0 .96.158 1.132.31.199.175.32.42.493.81l.023.054c.152.345.36.82.757 1.188.45.417 1.065.638 1.915.638h5.613v2.741c0 .188.106.36.266.46.396.246 1.008-.013 1.008-.479v-3.86A3.137 3.137 0 0 0 12.875.988h-9.75ZM7.3 2.262c.12.208.21.412.287.585l.009.02c.177.402.291.646.48.822.157.145.433.298 1.049.298h5.608a1.863 1.863 0 0 0-1.858-1.725H7.3Z"/>
    <path d="M12.5 16a3.5 3.5 0 1 0 0-7 3.5 3.5 0 0 0 0 7Zm2.5-4h-2v-2h-1v2h-2v1h2v2h1v-2h2v-1Z"/>
  </g>
  <defs>
    <clipPath id="Tab-New-16_svg__a">
      <path fill="#fff" d="M0 0h16v16H0z"/>
    </clipPath>
  </defs>
</svg>
