<svg fill="none" viewBox="0 0 24 24" xmlns="http://www.w3.org/2000/svg">
  <path fill="url(#Shield-Neutral-Color-24_svg__a)" d="M3.25 13.875v-7.5l1.875-1.25H8.25l3.75-2.5 3.75 2.5h3.125l1.875 1.25v7.5L17 19.5l-5 1.875L7 19.5l-3.75-5.625Z"/>
  <path fill="url(#Shield-Neutral-Color-24_svg__b)" d="M20.75 13.875 17 19.5l-3.75 1.25H12V2.625l3.75 2.5h3.125l1.875 1.25v7.5Z"/>
  <path fill="url(#Shield-Neutral-Color-24_svg__c)" d="M9.515 2.952a3.594 3.594 0 0 1 4.94.048l1.199 1.157c.362.35.882.48 1.365.34l.704-.202a3.281 3.281 0 0 1 4.186 3.06l.081 2.85a11.25 11.25 0 0 1-6.428 10.487l-1.952.924a3.751 3.751 0 0 1-3.22-.003l-1.949-.93a11.25 11.25 0 0 1-6.403-10.42l.067-2.856A3.281 3.281 0 0 1 6.32 4.34l.52.154c.477.142.993.02 1.357-.317l1.32-1.224Zm4.072.949a2.343 2.343 0 0 0-3.221-.033l-1.32 1.225a2.657 2.657 0 0 1-2.563.599l-.52-.155a2.031 2.031 0 0 0-2.608 1.9l-.067 2.855a10 10 0 0 0 5.691 9.263l1.949.929a2.501 2.501 0 0 0 2.147.003l1.952-.925a10 10 0 0 0 5.714-9.32L20.66 7.39a2.032 2.032 0 0 0-2.592-1.895l-.704.202a2.656 2.656 0 0 1-2.578-.64l-1.2-1.157Z"/>
  <defs>
    <linearGradient id="Shield-Neutral-Color-24_svg__a" x1="12.005" x2="12.11" y1="3.25" y2="21.374" gradientUnits="userSpaceOnUse">
      <stop stop-color="#F5F5F5"/>
      <stop offset="1" stop-color="#DDD"/>
    </linearGradient>
    <linearGradient id="Shield-Neutral-Color-24_svg__b" x1="16.375" x2="16.375" y1="2.625" y2="21.354" gradientUnits="userSpaceOnUse">
      <stop stop-color="#DDD"/>
      <stop offset="1" stop-color="#AAA"/>
    </linearGradient>
    <linearGradient id="Shield-Neutral-Color-24_svg__c" x1="12" x2="12" y1="3.25" y2="20.75" gradientUnits="userSpaceOnUse">
      <stop offset=".008" stop-color="#CCC"/>
      <stop offset="1" stop-color="#888"/>
    </linearGradient>
  </defs>
</svg>
