<svg fill="none" viewBox="0 0 24 24" xmlns="http://www.w3.org/2000/svg">
  <path fill="#000" fill-rule="evenodd" d="M10.31 9c-2.08 0-3.078 2.57-1.61 4.04.444.445 1.04 1.054 1.59 1.615.408.418.791.809 1.068 1.088a.905.905 0 0 0 1.286-.002c.248-.252.582-.597.95-.977.546-.566 1.166-1.207 1.682-1.724.805-.805.894-1.843.487-2.67A2.476 2.476 0 0 0 13.547 9c-.747 0-1.26.382-1.598.808-.36-.424-.893-.808-1.64-.808Zm-.55 2.98c-.57-.571-.129-1.48.55-1.48.239 0 .49.181.722.618a.94.94 0 0 0 .523.439 1.239 1.239 0 0 0 .886-.031.944.944 0 0 0 .489-.465c.088-.19.191-.34.3-.435a.451.451 0 0 1 .317-.126c.39 0 .721.23.87.534.133.27.133.61-.202.946-.513.514-1.17 1.192-1.731 1.774l-.486.501-.616-.628v-.001c-.562-.573-1.181-1.206-1.621-1.646Z" clip-rule="evenodd"/>
  <path fill="#000" fill-rule="evenodd" d="M5 5.754c0-2.65 2.672-4.463 5.134-3.486l7.643 3.035c.074.03.14.069.199.117A3.75 3.75 0 0 1 20 8.75v9.5A3.75 3.75 0 0 1 16.25 22h-8.5A3.75 3.75 0 0 1 4 18.25v-9.5c0-.985.38-1.88 1-2.55v-.446Zm4.58-2.091L12.95 5h-5.2c-.412 0-.809.066-1.18.19a2.252 2.252 0 0 1 3.01-1.527ZM5.5 8.75A2.25 2.25 0 0 1 7.75 6.5h8.5a2.25 2.25 0 0 1 2.25 2.25v9.5a2.25 2.25 0 0 1-2.25 2.25h-8.5a2.25 2.25 0 0 1-2.25-2.25v-9.5Z" clip-rule="evenodd"/>
</svg>
