<svg fill="none" viewBox="0 0 20 20" xmlns="http://www.w3.org/2000/svg">
  <path fill="#000" fill-rule="evenodd" d="M4.5 1A3.5 3.5 0 0 0 1 4.5V13a3.501 3.501 0 0 0 2.88 3.445A3.501 3.501 0 0 0 7.25 19h8.25a3.5 3.5 0 0 0 3.5-3.5V7.25a3.501 3.501 0 0 0-2.555-3.37A3.501 3.501 0 0 0 13 1H4.5Zm12 4.518V13a3.5 3.5 0 0 1-3.5 3.5H5.518a2 2 0 0 0 1.732 1h8.25a2 2 0 0 0 2-2V7.25a2 2 0 0 0-1-1.732ZM2.5 4.5a2 2 0 0 1 2-2H13a2 2 0 0 1 2 2V13a2 2 0 0 1-2 2H4.5a2 2 0 0 1-2-2V4.5Z" clip-rule="evenodd"/>
</svg>
