<svg fill="none" viewBox="0 0 16 16" xmlns="http://www.w3.org/2000/svg">
  <path fill="#000" d="M4.192 1.308a.625.625 0 0 1 0 .884L2.759 3.625h9.116a4 4 0 0 1 4 4 .625.625 0 1 1-1.25 0 2.75 2.75 0 0 0-2.75-2.75H2.759l1.433 1.433a.625.625 0 1 1-.884.884L1.427 5.31a1.5 1.5 0 0 1 0-2.122l1.881-1.88a.625.625 0 0 1 .884 0Zm9.049 9.817-1.433-1.433a.625.625 0 1 1 .884-.884l1.881 1.881a1.5 1.5 0 0 1 0 2.122l-1.881 1.88a.625.625 0 0 1-.884-.883l1.433-1.433H4a4 4 0 0 1-4-4 .625.625 0 1 1 1.25 0A2.75 2.75 0 0 0 4 11.125h9.241Z"/>
</svg>
