<svg fill="none" viewBox="0 0 12 12" xmlns="http://www.w3.org/2000/svg">
  <g fill="#000" clip-path="url(#Cookie-12_svg__a)">
    <path d="M4.625 4.25a.625.625 0 1 0 0-1.25.625.625 0 0 0 0 1.25ZM4 6.625a.625.625 0 1 1-1.25 0 .625.625 0 0 1 1.25 0ZM5.625 9.25a.625.625 0 1 0 0-1.25.625.625 0 0 0 0 1.25Zm.625-3.625a.625.625 0 1 1-1.25 0 .625.625 0 0 1 1.25 0ZM8.625 8.25a.625.625 0 1 0 0-1.25.625.625 0 0 0 0 1.25Z"/>
    <path fill-rule="evenodd" d="M6 0a6 6 0 1 0 5.992 5.696.625.625 0 0 0-.568-.591A5.002 5.002 0 0 1 6.895.576a.625.625 0 0 0-.591-.568A6.089 6.089 0 0 0 6 0ZM1.25 6a4.75 4.75 0 0 1 4.477-4.742 6.256 6.256 0 0 0 5.015 5.015A4.75 4.75 0 0 1 1.25 6Z" clip-rule="evenodd"/>
  </g>
  <defs>
    <clipPath id="Cookie-12_svg__a">
      <path fill="#fff" d="M0 0h12v12H0z"/>
    </clipPath>
  </defs>
</svg>
