<svg fill="none" viewBox="0 0 16 16" xmlns="http://www.w3.org/2000/svg">
  <path fill="#000" d="M5.825.05c.364-.004.733.092 1.08.255l.146.074c.292.157.57.362.818.602l.24.25c.078.09.152.183.222.279.155-.21.33-.408.52-.585l.253-.216A3.4 3.4 0 0 1 9.94.226l.146-.053A2.16 2.16 0 0 1 11.14.078l.151.035c.346.096.647.298.858.602l.082.13c.173.312.236.67.22 1.026l-.013.154A3.1 3.1 0 0 1 12.15 3h2.226C15.272 3 16 3.728 16 4.625v1c0 .676-.413 1.254-1 1.5v5.75A2.125 2.125 0 0 1 12.875 15h-9.75A2.125 2.125 0 0 1 1 12.875v-5.75c-.587-.246-1-.824-1-1.5v-1C0 3.728.728 3 1.625 3H4.51c-.015-.032-.031-.063-.045-.096A2.918 2.918 0 0 1 4.208 1.8l.002-.156A1.76 1.76 0 0 1 4.577.627l.108-.119c.27-.271.617-.415.983-.45L5.825.05ZM2.25 12.875c0 .483.392.875.875.875H7.75v-6.5h-5.5v5.625ZM9 13.75h3.875a.875.875 0 0 0 .875-.875V7.25H9v6.5Zm-7.375-9.5a.375.375 0 0 0-.375.375v1c0 .207.168.375.375.375h12.75a.375.375 0 0 0 .375-.375v-1a.375.375 0 0 0-.375-.375H1.625Zm9.294-2.941a.852.852 0 0 0-.36.027l-.161.054c-.17.066-.35.17-.525.305l-.174.148c-.228.21-.423.462-.564.725l-.095.195a1.72 1.72 0 0 0-.068.183l.01.054h1.704a2.82 2.82 0 0 0 .2-.283l.108-.194c.1-.199.162-.387.19-.553l.018-.158a.721.721 0 0 0-.048-.326l-.033-.06a.263.263 0 0 0-.13-.099l-.072-.018Zm-5.179 0a.31.31 0 0 0-.17.082l-.036.043a.549.549 0 0 0-.075.274l.003.149c.013.157.06.343.148.546.09.204.213.408.366.597h1.702c.003-.019.004-.038.008-.057l-.034-.103a2.657 2.657 0 0 0-.483-.784l-.167-.175a2.499 2.499 0 0 0-.542-.4l-.179-.084a1.166 1.166 0 0 0-.44-.097l-.1.009Z"/>
</svg>
