<svg fill="none" viewBox="0 0 24 24" xmlns="http://www.w3.org/2000/svg">
  <path fill="#000" d="M11 7a1 1 0 1 1-2 0 1 1 0 0 1 2 0Zm-3 4a1 1 0 1 1-2 0 1 1 0 0 1 2 0Zm1 4a1 1 0 1 1-2 0 1 1 0 0 1 2 0Zm4 2a1 1 0 1 1-2 0 1 1 0 0 1 2 0Zm0-5a1 1 0 1 1-2 0 1 1 0 0 1 2 0Zm4 3a1 1 0 1 1-2 0 1 1 0 0 1 2 0Z"/>
  <path fill="#000" fill-rule="evenodd" d="M12 2C6.477 2 2 6.477 2 12s4.477 10 10 10 10-4.477 10-10c0-.853-.678-1.432-1.38-1.538a8.449 8.449 0 0 1-7.082-7.082C13.433 2.678 12.854 2 12 2ZM3.5 12a8.5 8.5 0 0 1 8.502-8.499.064.064 0 0 1 .008.008.168.168 0 0 1 .045.094 9.949 9.949 0 0 0 8.343 8.342.17.17 0 0 1 .094.045.065.065 0 0 1 .007.008l.001.003A8.5 8.5 0 0 1 3.5 12Z" clip-rule="evenodd"/>
</svg>
