<svg fill="none" viewBox="0 0 16 16" xmlns="http://www.w3.org/2000/svg">
  <g clip-path="url(#Heart-16_svg__a)">
    <path stroke="#000" stroke-linecap="round" stroke-linejoin="round" stroke-width="1.25" d="M11.5 1.125c1.455 0 2.985 1.235 3.568 2.938.591 1.73.23 3.92-1.863 6.055l-.208.206c-1.34 1.294-2.35 2.257-3.09 2.992-.75.747-1.177 1.216-1.387 1.53a.625.625 0 0 1-1.04 0c-.21-.315-.613-.764-1.355-1.495a94.239 94.239 0 0 0-1.33-1.28l-1.848-1.74C.726 8.242.353 5.962.954 4.161A4.92 4.92 0 0 1 2.387 2C3 1.475 3.747 1.125 4.5 1.125c.938 0 1.8.332 2.482.748a5.7 5.7 0 0 1 1.022.795 5.95 5.95 0 0 1 1.05-.798c.685-.412 1.547-.745 2.447-.745Z"/>
  </g>
  <defs>
    <clipPath id="Heart-16_svg__a">
      <path fill="#fff" d="M0 0h16v16H0z"/>
    </clipPath>
  </defs>
</svg>
