<svg fill="none" viewBox="0 0 24 24" xmlns="http://www.w3.org/2000/svg">
  <path fill="#000" d="M4.948 17.22c.399.354.474.967.125 1.37l-1.617 1.864c-.552.637-.018 1.604.812 1.462 1.918-.33 4.668-.836 7.106-1.415.417-.1.625-.563.48-.967-.125-.347-.485-.574-.844-.488-.312.074-.633.147-.96.22-1.464.326-2.988.624-4.333.87l.489-.564c.951-1.097.676-2.642-.264-3.474-1.536-1.361-2.442-3.2-2.442-5.192C3.5 6.974 7.138 3.5 12 3.5c4.863 0 8.5 3.474 8.5 7.406 0 .277-.017.552-.052.823-.038.297.1.593.35.758.426.28 1.039.11 1.114-.394.058-.389.088-.784.088-1.187C22 5.987 17.523 2 12 2S2 5.987 2 10.906c0 2.468 1.127 4.701 2.948 6.314Z"/>
  <path fill="#000" d="M11.76 15.748c.232-.76.61-1.456 1.102-2.055a3.28 3.28 0 0 1 2.277-2.034l1.484-.37c.397-.1.397-.665 0-.765l-1.484-.37a3.28 3.28 0 0 1-2.386-2.387l-.37-1.483c-.1-.398-.665-.398-.765 0l-.37 1.483a3.28 3.28 0 0 1-2.387 2.386l-1.483.371c-.398.1-.398.665 0 .764l1.483.37a3.28 3.28 0 0 1 2.386 2.388l.371 1.483c.024.097.076.17.142.22Z"/>
  <path fill="#000" fill-rule="evenodd" d="M22 17.5a4.5 4.5 0 1 1-9 0 4.5 4.5 0 0 1 9 0Zm-3.75-2.25a.5.5 0 0 0-.5-.5h-.5a.5.5 0 0 0-.5.5v1.5h-1.5a.5.5 0 0 0-.5.5v.5a.5.5 0 0 0 .5.5h1.5v1.5a.5.5 0 0 0 .5.5h.5a.5.5 0 0 0 .5-.5v-1.5h1.5a.5.5 0 0 0 .5-.5v-.5a.5.5 0 0 0-.5-.5h-1.5v-1.5Z" clip-rule="evenodd"/>
</svg>
