<svg fill="none" viewBox="0 0 16 16" xmlns="http://www.w3.org/2000/svg">
  <g fill="#000" clip-path="url(#Image-Missing-16_svg__a)">
    <path d="M4 1a4 4 0 0 0-4 4v6a4 4 0 0 0 4 4h3.38c.61 0 1.025-.646.929-1.25H4c-.533 0-1.03-.152-1.452-.414L6.5 9.384l2.024 2.023a4.7 4.7 0 0 1 .606-1.161L8.884 10 11.5 7.384l.903.903a4.795 4.795 0 0 1 1.917.149l-2.378-2.378a.625.625 0 0 0-.884 0L8 9.116 6.942 8.058a.625.625 0 0 0-.884 0l-4.394 4.394A2.737 2.737 0 0 1 1.25 11V5A2.75 2.75 0 0 1 4 2.25h8A2.75 2.75 0 0 1 14.75 5v3.583c.541.214 1.25-.139 1.25-.721V5a4 4 0 0 0-4-4H4Z"/>
    <path d="M4.5 7a1.5 1.5 0 1 0 0-3 1.5 1.5 0 0 0 0 3Zm11.317 3.183a.625.625 0 0 0-.884 0L13 12.116l-1.933-1.933a.625.625 0 1 0-.884.884L12.116 13l-1.933 1.933a.625.625 0 1 0 .884.884L13 13.884l1.933 1.933a.625.625 0 1 0 .884-.884L13.884 13l1.933-1.933a.625.625 0 0 0 0-.884Z"/>
  </g>
  <defs>
    <clipPath id="Image-Missing-16_svg__a">
      <path fill="#fff" d="M0 0h16v16H0z"/>
    </clipPath>
  </defs>
</svg>
