<svg fill="none" viewBox="0 0 24 24" xmlns="http://www.w3.org/2000/svg">
  <path fill="#000" fill-rule="evenodd" d="M17.93 2.898a2.07 2.07 0 0 0-1.361-.858c-.541-.097-1.114-.007-1.655.205a4.968 4.968 0 0 0-1.528.981 5.8 5.8 0 0 0-.86 1 5.788 5.788 0 0 0-.439-.567 5.417 5.417 0 0 0-1.488-1.2c-.543-.291-1.13-.465-1.7-.458-.579.007-1.13.202-1.545.618-.41.412-.61.964-.64 1.543-.03.575.104 1.18.355 1.755L7.106 6H4a2 2 0 0 0-2 2v2a2 2 0 0 0 1.5 1.937v6.313A3.75 3.75 0 0 0 7.25 22h9.5a3.75 3.75 0 0 0 3.75-3.75v-6.313A2 2 0 0 0 22 10V8a2 2 0 0 0-2-2h-2.055a4.172 4.172 0 0 0 .393-1.523c.027-.564-.092-1.122-.409-1.58ZM16.22 6c.116-.164.217-.333.303-.503.201-.398.302-.776.317-1.092.015-.316-.056-.527-.143-.653a.572.572 0 0 0-.393-.236c-.204-.036-.491-.012-.841.125-.348.137-.716.37-1.06.687a4.248 4.248 0 0 0-.85 1.09c-.107.2-.19.395-.249.582h2.916ZM8.142 7.518 8.125 7.5H4a.5.5 0 0 0-.5.5v2a.5.5 0 0 0 .5.5h16a.5.5 0 0 0 .5-.5V8a.5.5 0 0 0-.5-.5H8.16l-.018.018Zm.301-2.201c.101.231.232.462.388.683h2.916a2.994 2.994 0 0 0-.059-.169 3.998 3.998 0 0 0-.728-1.183 3.92 3.92 0 0 0-1.07-.867c-.377-.202-.714-.283-.973-.28-.251.003-.406.082-.5.176-.098.099-.19.273-.206.563-.015.294.053.666.232 1.077ZM5 12v6.25a2.25 2.25 0 0 0 2.25 2.25h4.281V12h-6.53Zm8.031 0v8.5h3.72A2.25 2.25 0 0 0 19 18.25V12h-5.97Z" clip-rule="evenodd"/>
</svg>
