<svg fill="none" viewBox="0 0 16 16" xmlns="http://www.w3.org/2000/svg">
  <g clip-path="url(#Toolbar-16_svg__a)">
    <path fill="#000" fill-rule="evenodd" d="M0 4.125C0 2.399 1.4 1 3.125 1h9.79c1.726 0 3.125 1.4 3.125 3.125v7.75c0 1.726-1.4 3.125-3.125 3.125h-9.79A3.125 3.125 0 0 1 0 11.875v-7.75ZM3.125 2.25c-1.036 0-1.875.84-1.875 1.875v.625h13.54v-.625c0-1.036-.84-1.875-1.875-1.875h-9.79ZM1.25 7V6h13.54v1H1.25Zm0 1.25v3.625c0 1.036.84 1.875 1.875 1.875h9.79c1.036 0 1.875-.84 1.875-1.875V8.25H1.25Z" clip-rule="evenodd"/>
  </g>
  <defs>
    <clipPath id="Toolbar-16_svg__a">
      <path fill="#fff" d="M0 0h16v16H0z"/>
    </clipPath>
  </defs>
</svg>
