<svg fill="none" viewBox="0 0 24 24" xmlns="http://www.w3.org/2000/svg">
  <path fill="#000" d="M6.882 3.409A10.002 10.002 0 0 1 18.52 4.418l.744-.742a.75.75 0 0 1 1.06 1.063l-6.445 6.429a2.056 2.056 0 1 1-1.066-1.056l1.786-1.783a4.497 4.497 0 0 0-2.173-.809l-.184-.013a4.5 4.5 0 0 0-2.623.674l-.154.102A4.5 4.5 0 0 0 7.79 10.41l-.062.175c-.31.937-.303 1.95.02 2.883l.063.173a4.5 4.5 0 0 0 1.701 2.107l.156.1a4.5 4.5 0 0 0 2.631.64l.184-.016a4.5 4.5 0 0 0 2.48-1.087l.137-.124a4.5 4.5 0 0 0 1.31-2.369l.02-.075a.75.75 0 0 1 1.451.373l-.054.24a6 6 0 0 1-1.694 2.918l-.182.166a6 6 0 0 1-3.307 1.45l-.245.021a6 6 0 0 1-3.508-.855l-.208-.132a6 6 0 0 1-2.269-2.809l-.085-.231a6 6 0 0 1-.025-3.845l.082-.232a6 6 0 0 1 2.232-2.838l.207-.135a6 6 0 0 1 3.496-.9l.246.017a5.998 5.998 0 0 1 3.106 1.23l1.78-1.775a8.498 8.498 0 0 0-9.803-.783l-.305.19A8.5 8.5 0 0 0 4.051 8.99l-.12.339a8.5 8.5 0 0 0 .09 5.6l.13.334a8.5 8.5 0 0 0 8.901 5.171l.356-.052a8.502 8.502 0 0 0 7.046-7.501l.012-.077a.751.751 0 0 1 1.48.232l-.052.42a10.001 10.001 0 0 1-8.238 8.406l-.418.06A10.001 10.001 0 0 1 2.767 15.84l-.154-.393a10.002 10.002 0 0 1-.106-6.589l.142-.398a10.003 10.003 0 0 1 3.875-4.826l.358-.224Z"/>
</svg>
