<svg fill="none" viewBox="0 0 24 24" xmlns="http://www.w3.org/2000/svg">
  <path fill="#DE5833" fill-rule="evenodd" d="M12 21.75c5.385 0 9.75-4.365 9.75-9.75S17.385 2.25 12 2.25 2.25 6.615 2.25 12s4.365 9.75 9.75 9.75Z" clip-rule="evenodd"/>
  <path fill="#DDD" fill-rule="evenodd" d="M13.371 19.274c0-.076.019-.093-.223-.576-.644-1.288-1.29-3.105-.996-4.277.053-.212-.606-7.883-1.073-8.13-.518-.276-1.156-.714-1.74-.812-.295-.047-.684-.024-.987.016-.054.008-.056.105-.005.122.2.068.441.185.584.362.027.033-.01.086-.052.088-.135.005-.378.061-.7.334-.037.032-.006.09.042.08.69-.136 1.397-.068 1.813.31.026.024.012.068-.023.078-3.61.98-2.895 4.12-1.934 7.974.855 3.428 1.177 4.536 1.28 4.874a.11.11 0 0 0 .065.073c1.243.495 3.95.516 3.95-.325v-.19Z" clip-rule="evenodd"/>
  <path fill="#fff" d="M13.866 19.998c-.438.171-1.295.248-1.79.248-.726 0-1.77-.115-2.152-.286a85.43 85.43 0 0 1-1.634-5.817l-.068-.279v-.002c-.827-3.375-1.502-6.132 2.197-6.998.034-.008.05-.049.028-.075-.424-.504-1.22-.669-2.225-.322-.041.014-.077-.027-.051-.062.197-.272.582-.481.772-.573.04-.019.037-.076-.004-.09a4.246 4.246 0 0 0-.575-.136c-.056-.01-.061-.106-.005-.114 1.426-.191 2.914.237 3.66 1.177a.05.05 0 0 0 .03.018c2.734.587 2.93 4.91 2.615 5.107-.062.04-.261.017-.524-.012-1.064-.12-3.171-.355-1.432 2.886.017.032-.006.075-.042.08-.98.153.276 3.226 1.2 5.25Z"/>
  <path fill="#3CA82B" d="M15.09 16.067c-.209-.096-1.01.478-1.54.919-.112-.157-.32-.272-.793-.19-.414.072-.642.172-.744.344-.652-.248-1.75-.63-2.015-.26-.29.402.072 2.31.458 2.557.2.129 1.162-.49 1.664-.915.081.114.211.18.48.173.405-.01 1.063-.104 1.165-.293a.21.21 0 0 0 .016-.04c.516.193 1.424.397 1.627.366.529-.079-.074-2.547-.318-2.66Z"/>
  <path fill="#4CBA3C" d="M13.598 17.042c.022.04.04.08.054.122.074.206.194.86.103 1.022-.09.162-.68.24-1.042.246-.364.006-.445-.126-.519-.332-.059-.165-.088-.552-.087-.773-.015-.329.105-.445.66-.534.411-.067.628.01.754.143.583-.436 1.556-1.05 1.65-.937.474.56.534 1.892.431 2.428-.033.175-1.6-.174-1.6-.363 0-.785-.204-1-.404-1.022Zm-3.432-.245c.128-.203 1.169.05 1.74.304 0 0-.117.532.07 1.158.054.183-1.315 1-1.494.859-.206-.162-.586-1.894-.316-2.321Z"/>
  <path fill="#FC3" fill-rule="evenodd" d="M10.67 12.671c.084-.366.476-1.056 1.877-1.039.708-.003 1.588 0 2.17-.066a7.81 7.81 0 0 0 1.94-.472c.606-.231.821-.18.896-.041.083.152-.014.414-.226.656-.405.462-1.132.82-2.417.926-1.285.106-2.136-.239-2.502.322-.158.242-.036.813 1.206.992 1.68.243 3.058-.292 3.229.031.17.323-.811.98-2.493.993-1.682.014-2.732-.589-3.105-.888-.472-.38-.684-.934-.575-1.414Z" clip-rule="evenodd"/>
  <path fill="#14307E" d="M12.811 8.668c.094-.154.302-.272.643-.272.34 0 .5.135.611.286.023.031-.012.067-.047.052l-.025-.011c-.125-.054-.277-.121-.54-.125a1.11 1.11 0 0 0-.567.127c-.038.02-.097-.02-.075-.057Zm-3.832.196c.33-.138.59-.12.774-.076.039.009.066-.033.035-.058-.143-.115-.462-.258-.878-.102-.371.138-.546.426-.547.615 0 .044.091.048.115.01.064-.102.17-.25.501-.389Z"/>
  <path fill="#14307E" fill-rule="evenodd" d="M13.743 10.77a.528.528 0 1 1-.002-1.058.528.528 0 0 1 .002 1.057Zm.373-.703a.137.137 0 0 0-.274 0 .137.137 0 0 0 .274 0Zm-3.88.54a.616.616 0 1 1-1.231-.002.616.616 0 0 1 1.231.002Zm-.182-.204a.16.16 0 1 0-.319 0 .16.16 0 0 0 .32 0Z" clip-rule="evenodd"/>
  <path fill="#fff" fill-rule="evenodd" d="M12 19.617a7.617 7.617 0 1 0 0-15.234 7.617 7.617 0 0 0 0 15.234Zm0 .914A8.531 8.531 0 1 0 12 3.47a8.531 8.531 0 0 0 0 17.062Z" clip-rule="evenodd"/>
  <path fill="#DE5833" fill-rule="evenodd" d="M2 12C2 6.477 6.477 2 12 2s10 4.477 10 10-4.477 10-10 10S2 17.523 2 12Zm10-8.5a8.5 8.5 0 1 0 0 17 8.5 8.5 0 0 0 0-17Z" clip-rule="evenodd"/>
</svg>
