<svg fill="none" viewBox="0 0 16 16" xmlns="http://www.w3.org/2000/svg">
  <g clip-path="url(#Point-Up-Solid-16_svg__a)">
    <path fill="#000" d="M8 0a8 8 0 1 1 0 16A8 8 0 0 1 8 0Zm.225 4.168a2.313 2.313 0 0 0-3.158-.04l-.042.04-1.833 1.756a.625.625 0 0 0 .865.902L5.89 5.07c.035-.033.072-.064.11-.092V8a4 4 0 0 0 4 4h1.375a.625.625 0 1 0 0-1.25H10A2.75 2.75 0 0 1 7.25 8V4.978c.038.028.075.059.11.092l1.833 1.756.023.022a.625.625 0 0 0 .864-.901l-.023-.023-1.832-1.756Z"/>
  </g>
  <defs>
    <clipPath id="Point-Up-Solid-16_svg__a">
      <path fill="#fff" d="M0 0h16v16H0z"/>
    </clipPath>
  </defs>
</svg>
