<svg fill="none" viewBox="0 0 20 20" xmlns="http://www.w3.org/2000/svg">
  <path fill="#000" d="M8.78 11.22a.75.75 0 0 0-1.06 1.06l1.22 1.22-1.22 1.22a.75.75 0 1 0 1.06 1.06L10 14.56l1.22 1.22a.75.75 0 1 0 1.06-1.06l-1.22-1.22 1.22-1.22a.75.75 0 1 0-1.06-1.06L10 12.44l-1.22-1.22Z"/>
  <path fill="#000" fill-rule="evenodd" d="M7.516 2.491A3.578 3.578 0 0 1 10 1.5c.937 0 1.83.36 2.484.991A3.283 3.283 0 0 1 13.5 4.853V8H5a2.5 2.5 0 0 0-2.5 2.5v6A2.5 2.5 0 0 0 5 19h10a2.5 2.5 0 0 0 2.5-2.5v-6A2.5 2.5 0 0 0 15 8V4.853a4.783 4.783 0 0 0-1.474-3.44A5.078 5.078 0 0 0 10 0a5.078 5.078 0 0 0-3.526 1.412A4.783 4.783 0 0 0 5 4.853v.966a.75.75 0 0 0 1.5 0v-.966c0-.88.362-1.73 1.016-2.362ZM5 9.5a1 1 0 0 0-1 1v6a1 1 0 0 0 1 1h10a1 1 0 0 0 1-1v-6a1 1 0 0 0-1-1H5Z" clip-rule="evenodd"/>
</svg>
