<svg fill="none" viewBox="0 0 24 24" xmlns="http://www.w3.org/2000/svg">
  <path fill="#000" fill-rule="evenodd" d="M13.807 11.828a3.216 3.216 0 0 1 4.33.02l.142.13a.59.59 0 0 0 .555.136l.045-.012.144-.036a2.466 2.466 0 0 1 2.971 2.324l.005.294a7.612 7.612 0 0 1-4.346 6.857l-.269.121-.249.107c-.725.31-1.546.31-2.27 0l-.261-.112a7.618 7.618 0 0 1-4.597-7.273c.057-1.574 1.574-2.699 3.1-2.267l.068.015a.542.542 0 0 0 .442-.134l.19-.17Zm2.912 8.486.075-.03.215-.098a6.112 6.112 0 0 0 3.49-5.505l-.004-.237a.966.966 0 0 0-1.107-.92l-.112.024-.045.012c-.694.19-1.438.01-1.968-.477l-.14-.13a1.717 1.717 0 0 0-.404-.276v7.637Zm-1.5-7.646c-.145.07-.282.16-.407.273l-.19.171a2.042 2.042 0 0 1-1.796.48l-.127-.032a.944.944 0 0 0-1.193.877 6.118 6.118 0 0 0 3.689 5.841l.024.01v-7.62Z" clip-rule="evenodd"/>
  <path fill="#000" d="M11.25 2a6.25 6.25 0 0 1 5.835 4.012c1.244.084 2.543.65 3.57 2.012l.22.31.038.066a.75.75 0 0 1-1.24.828l-.047-.062-.162-.23C18.64 7.84 17.648 7.5 16.75 7.5a1.03 1.03 0 0 1-.915-.558l-.063-.153a4.75 4.75 0 0 0-9.186 2.36l.017.125a1.36 1.36 0 0 1-.799 1.358l-.112.044A3.25 3.25 0 0 0 6.75 17h1a.75.75 0 0 1 0 1.5h-1a4.75 4.75 0 0 1-1.66-9.2A6.25 6.25 0 0 1 11.25 2Z"/>
</svg>
