<svg fill="none" viewBox="0 0 24 24" xmlns="http://www.w3.org/2000/svg">
  <path fill="#7295F6" d="M2 12C2 6.477 6.477 2 12 2s10 4.477 10 10-4.477 10-10 10S2 17.523 2 12Z"/>
  <path fill="#fff" d="M10.798 17.573a.833.833 0 0 1-1.596-.479l1.596.479Zm6.134-8.737a.833.833 0 0 1 .22 1.65l-.042.007-3.208.427a.271.271 0 0 0-.236.27v2.092c0 .026.004.052.012.078l1.12 3.734a.833.833 0 0 1-1.596.479l-1.164-3.878a.04.04 0 0 0-.077 0l-1.163 3.878-.798-.24-.798-.239 1.12-3.734a.271.271 0 0 0 .011-.078V11.19c0-.137-.1-.252-.236-.27l-3.207-.427-.043-.007a.834.834 0 0 1 .22-1.65l.043.005 4.854.647a.27.27 0 0 0 .072 0l4.854-.647.042-.005ZM12 5.333a1.5 1.5 0 1 1 0 3 1.5 1.5 0 0 1 0-3Z"/>
  <path fill="url(#Accessibility-Color-24_svg__a)" d="M12 2c5.523 0 10 4.477 10 10s-4.477 10-10 10S2 17.523 2 12 6.477 2 12 2Zm0 1.25a8.75 8.75 0 1 0 0 17.5 8.75 8.75 0 0 0 0-17.5Zm.071.834a2.75 2.75 0 0 1 2.467 3.81l2.187-.292.017-.003.016-.001.043-.005.015-.001.014-.002a2.083 2.083 0 0 1 2.228 1.75l.007.051.006.052a2.084 2.084 0 0 1-1.69 2.272l-.017.003-.016.003-.042.006-.015.003-.016.002-2.358.314v1.092l1.079 3.597.014.052a2.083 2.083 0 0 1-4.006 1.145L12 17.917l-.004.015a2.084 2.084 0 0 1-3.991-1.197l1.078-3.596v-1.093l-2.358-.314-.015-.002-.016-.003-.042-.006-.016-.003-.016-.003a2.084 2.084 0 0 1-1.685-2.324l.008-.051a2.083 2.083 0 0 1 2.176-1.753l.051.003.015.002.014.001.043.005.017.001.017.003 2.186.291A2.75 2.75 0 0 1 12 4.083l.071.001Zm-2.869 13.01a.833.833 0 0 0 1.597.479l-1.597-.479Zm8.624-7.537a.833.833 0 0 0-.893-.72l-.043.004-4.854.647a.272.272 0 0 1-.072 0L7.11 8.84l-.042-.005a.833.833 0 0 0-.22 1.65l.042.007 3.208.427a.272.272 0 0 1 .235.27v2.113a.269.269 0 0 1-.011.058l-1.12 3.733.798.24.799.239 1.163-3.878a.04.04 0 0 1 .077 0l1.163 3.878a.833.833 0 0 0 .996.57l.042-.011a.834.834 0 0 0 .559-1.038l-1.12-3.734a.268.268 0 0 1-.011-.058l-.001-.02V11.19c0-.137.1-.252.236-.27l3.207-.427.043-.007a.834.834 0 0 0 .673-.93ZM12 5.333a1.5 1.5 0 0 0-1.5 1.5v.04a1.5 1.5 0 0 0 3 0v-.04a1.5 1.5 0 0 0-1.5-1.5Z"/>
  <defs>
    <linearGradient id="Accessibility-Color-24_svg__a" x1="12" x2="12" y1="2" y2="22" gradientUnits="userSpaceOnUse">
      <stop stop-color="#557FF3"/>
      <stop offset="1" stop-color="#2B55CA"/>
    </linearGradient>
  </defs>
</svg>
