<svg fill="none" viewBox="0 0 12 12" xmlns="http://www.w3.org/2000/svg">
  <g clip-path="url(#Settings-Solid-12_svg__a)">
    <path fill="#000" fill-rule="evenodd" d="M10.018 3.971c-.056-.11-.023-.198.01-.232l.303-.302c.44-.44.44-1.152 0-1.591l-.177-.177a1.125 1.125 0 0 0-1.59 0l-.303.303c-.034.033-.123.066-.232.01-.2-.1-.407-.187-.622-.258-.117-.038-.157-.124-.157-.171v-.428C7.25.504 6.746 0 6.125 0h-.25C5.254 0 4.75.504 4.75 1.125v.428c0 .047-.04.133-.157.171a4.524 4.524 0 0 0-.622.258c-.11.056-.198.023-.232-.01l-.302-.303a1.125 1.125 0 0 0-1.591 0l-.177.177c-.44.44-.44 1.151 0 1.59l.303.303c.033.034.066.123.01.232-.1.2-.187.407-.258.622-.038.117-.124.157-.171.157h-.428C.504 4.75 0 5.254 0 5.875v.25C0 6.746.504 7.25 1.125 7.25h.428c.047 0 .133.04.171.157.071.215.157.422.258.622.056.11.023.198-.01.232l-.303.302c-.44.44-.44 1.152 0 1.591l.177.177c.44.44 1.151.44 1.59 0l.303-.303c.034-.033.123-.066.232-.01.2.1.407.187.622.257.117.04.157.125.157.172v.428c0 .621.504 1.125 1.125 1.125h.25c.621 0 1.125-.504 1.125-1.125v-.428c0-.047.04-.133.157-.171.215-.071.422-.158.622-.258.11-.056.198-.023.232.01l.302.303c.44.44 1.152.44 1.591 0l.177-.177c.44-.44.44-1.151 0-1.59l-.303-.303c-.033-.034-.066-.123-.01-.232.1-.2.187-.407.257-.622.04-.117.125-.157.172-.157h.428c.621 0 1.125-.504 1.125-1.125v-.25c0-.621-.504-1.125-1.125-1.125h-.428c-.047 0-.133-.04-.171-.157a4.466 4.466 0 0 0-.258-.622ZM4 6a2 2 0 1 1 4 0 2 2 0 0 1-4 0Z" clip-rule="evenodd"/>
  </g>
  <defs>
    <clipPath id="Settings-Solid-12_svg__a">
      <path fill="#fff" d="M0 0h12v12H0z"/>
    </clipPath>
  </defs>
</svg>
