<svg fill="none" viewBox="0 0 16 16" xmlns="http://www.w3.org/2000/svg">
  <path fill="#000" d="M3.125 1A2.125 2.125 0 0 0 1 3.125v1.75C1 6.049 1.951 7 3.125 7h1.75A2.125 2.125 0 0 0 7 4.875v-1.75A2.125 2.125 0 0 0 4.875 1h-1.75Zm8 0A2.125 2.125 0 0 0 9 3.125v1.75C9 6.049 9.951 7 11.125 7h1.75A2.125 2.125 0 0 0 15 4.875v-1.75A2.125 2.125 0 0 0 12.875 1h-1.75Zm0 8A2.125 2.125 0 0 0 9 11.125v1.75C9 14.049 9.951 15 11.125 15h1.75A2.125 2.125 0 0 0 15 12.875v-1.75A2.125 2.125 0 0 0 12.875 9h-1.75Zm-8 0A2.125 2.125 0 0 0 1 11.125v1.75C1 14.049 1.951 15 3.125 15h1.75A2.125 2.125 0 0 0 7 12.875v-1.75A2.125 2.125 0 0 0 4.875 9h-1.75Z"/>
</svg>
