<svg fill="none" viewBox="0 0 24 24" xmlns="http://www.w3.org/2000/svg">
  <path fill="#DDD" d="M10.651 3.773c.547-1.125 2.15-1.125 2.698 0l1.635 3.363a1.5 1.5 0 0 0 1.13.828l3.693.544c1.224.18 1.715 1.68.836 2.55l-2.7 2.67a1.5 1.5 0 0 0-.424 1.317l.634 3.748c.207 1.229-1.086 2.16-2.185 1.574l-3.262-1.74a1.5 1.5 0 0 0-1.412 0l-3.262 1.74c-1.099.586-2.392-.346-2.185-1.574l.634-3.748a1.5 1.5 0 0 0-.424-1.316l-2.7-2.67c-.88-.87-.388-2.37.836-2.55l3.693-.545a1.5 1.5 0 0 0 1.13-.828l1.635-3.363Z"/>
  <path fill="#666" fill-rule="evenodd" d="M10.052 3.482c.79-1.626 3.106-1.626 3.896 0l1.636 3.362a.83.83 0 0 0 .628.46l3.692.545c1.768.26 2.478 2.427 1.208 3.684l-2.7 2.67a.833.833 0 0 0-.235.731l.633 3.748c.3 1.774-1.569 3.12-3.156 2.273l-3.262-1.74a.834.834 0 0 0-.784 0l-3.262 1.74c-1.588.847-3.456-.499-3.156-2.273l.633-3.748a.833.833 0 0 0-.235-.731l-2.7-2.67c-1.27-1.257-.56-3.424 1.208-3.684l3.692-.545a.833.833 0 0 0 .628-.46l1.636-3.362Zm2.697.583a.833.833 0 0 0-1.498 0L9.615 7.427a2.167 2.167 0 0 1-1.632 1.196l-3.693.545a.833.833 0 0 0-.464 1.417l2.7 2.67c.501.496.73 1.205.612 1.901l-.633 3.748a.833.833 0 0 0 1.213.874l3.262-1.74a2.167 2.167 0 0 1 2.04 0l3.261 1.74a.833.833 0 0 0 1.214-.874l-.633-3.748a2.167 2.167 0 0 1 .613-1.901l2.7-2.67a.833.833 0 0 0-.465-1.417l-3.693-.545a2.167 2.167 0 0 1-1.632-1.196l-1.636-3.362Z" clip-rule="evenodd"/>
</svg>
