<svg fill="none" viewBox="0 0 16 16" xmlns="http://www.w3.org/2000/svg">
  <path fill="#000" fill-rule="evenodd" d="M3.794 1.03c.455-.083.868.014 1.212.214.281.163.502.387.636.527.184.192.269.293.466.494l.21.216c.208.218.405.443.563.67.217.313.434.737.442 1.264.008.531-.199.966-.418 1.293a5.655 5.655 0 0 1-.594.72c.025.047.058.103.102.17.31.469.832 1.005 1.373 1.554.463.469 1.046.941 1.535 1.21.11.06.2.1.269.128a5.73 5.73 0 0 1 .662-.577c.313-.225.75-.46 1.302-.456.547.005.98.245 1.284.465.298.217.597.507.886.8l.373.389c.116.126.222.248.316.366.183.23.38.519.493.866.25.772-.044 1.388-.3 1.783l-.105.157c-.405.574-.888 1.044-1.474 1.35a3.293 3.293 0 0 1-1.86.35l-.034-.002-.034-.005c-2.443-.368-4.935-1.805-6.808-3.69C2.424 9.405 1.001 6.9 1 4.276 1 2.832 2.147 1.92 2.84 1.452l.2-.125c.211-.125.465-.243.754-.296Zm1.425 2.113c-.775-.785-.904-1.178-1.678-.654l-.254.18c-.577.433-1.037.959-1.037 1.607l.014.409c.285 4.23 4.913 8.435 9.021 9.055.776.073 1.458-.222 2.072-1.013l.123-.165c.403-.572.396-.844-.303-1.605l-.343-.357c-1.162-1.177-1.42-1.202-2.581 0l-.063.057c-.642.502-2.09-.472-3.092-1.43l-.202-.197c-1-1.014-2.39-2.42-1.746-3.198l.069-.073c1.016-1.03 1.11-1.393.368-2.226l-.368-.39Z" clip-rule="evenodd"/>
</svg>
