<svg fill="none" viewBox="0 0 24 24" xmlns="http://www.w3.org/2000/svg">
  <path fill="#000" fill-rule="evenodd" d="M15.577 3.938a3.174 3.174 0 0 1 4.496 4.482l-.826.83a.744.744 0 0 1-.079.078l-9.72 9.751a3.234 3.234 0 0 1-1.19.758l-2.911 1.054c-1.38.499-2.724-.818-2.253-2.207l.899-2.655c.159-.469.423-.895.773-1.246l10.81-10.845Zm2.895 3.964.539-.54a1.674 1.674 0 1 0-2.372-2.365l-.533.535.056.17a3.39 3.39 0 0 0 2.145 2.145l.165.055Zm-3.526-1.207a4.892 4.892 0 0 0 2.368 2.369L8.386 18.02c-.18.18-.398.32-.638.407L4.836 19.48a.25.25 0 0 1-.321-.315l.899-2.655a1.74 1.74 0 0 1 .414-.668l9.118-9.146Z" clip-rule="evenodd"/>
  <path fill="#000" d="M20.25 15a.75.75 0 0 1 .75.75V16a5 5 0 0 1-5 5h-2.25a.75.75 0 0 1 0-1.5H16a3.5 3.5 0 0 0 3.5-3.5v-.25a.75.75 0 0 1 .75-.75Z"/>
</svg>
