<svg fill="none" viewBox="0 0 12 12" xmlns="http://www.w3.org/2000/svg">
  <g clip-path="url(#Chip-12_svg__a)">
    <path fill="#000" d="M7.5 0a.5.5 0 0 1 .5.5V1a3 3 0 0 1 3 3h.5a.5.5 0 0 1 .051.998L11.5 5H11v2h.5a.5.5 0 0 1 .051.998L11.5 8H11a3 3 0 0 1-3 3v.5a.5.5 0 0 1-1 0V11H5v.5a.5.5 0 0 1-1 0V11a3 3 0 0 1-3-3H.5a.5.5 0 0 1 0-1H1V5H.5a.5.5 0 0 1 0-1H1a3 3 0 0 1 3-3V.5a.5.5 0 0 1 1 0V1h2V.5a.5.5 0 0 1 .5-.5ZM4 2a2 2 0 0 0-2 2v4a2 2 0 0 0 2 2h4a2 2 0 0 0 2-2V4a2 2 0 0 0-2-2H4Zm3.469 2c.293 0 .531.238.531.531V7.47a.531.531 0 0 1-.531.53H4.53A.531.531 0 0 1 4 7.469V4.53c0-.292.238-.53.531-.53H7.47ZM5 7h2V5H5v2Z"/>
  </g>
  <defs>
    <clipPath id="Chip-12_svg__a">
      <path fill="#fff" d="M0 0h12v12H0z"/>
    </clipPath>
  </defs>
</svg>
