<svg fill="none" viewBox="0 0 12 12" xmlns="http://www.w3.org/2000/svg">
  <g fill="#000" fill-rule="evenodd" clip-path="url(#Chip-12_svg__a)" clip-rule="evenodd">
    <path d="M7.344 4c.362 0 .656.294.656.656v2.688A.656.656 0 0 1 7.344 8H4.656A.656.656 0 0 1 4 7.344V4.656C4 4.294 4.294 4 4.656 4h2.688ZM6.75 6.75v-1.5h-1.5v1.5h1.5Z"/>
    <path d="M4.375 0C4.72 0 5 .28 5 .625V1h2V.625a.625.625 0 1 1 1.25 0V1h.5A2.25 2.25 0 0 1 11 3.25v.5h.375a.625.625 0 1 1 0 1.25H11v2h.375a.625.625 0 1 1 0 1.25H11v.5A2.25 2.25 0 0 1 8.75 11h-.5v.375a.625.625 0 1 1-1.25 0V11H5v.375a.625.625 0 1 1-1.25 0V11h-.5A2.25 2.25 0 0 1 1 8.75v-.5H.625a.625.625 0 1 1 0-1.25H1V5H.625a.625.625 0 1 1 0-1.25H1v-.5A2.25 2.25 0 0 1 3.25 1h.5V.625C3.75.28 4.03 0 4.375 0ZM8.75 9.75a1 1 0 0 0 1-1v-5.5a1 1 0 0 0-1-1h-5.5a1 1 0 0 0-1 1v5.5a1 1 0 0 0 1 1h5.5Z"/>
  </g>
  <defs>
    <clipPath id="Chip-12_svg__a">
      <path fill="#fff" d="M0 0h12v12H0z"/>
    </clipPath>
  </defs>
</svg>
