<svg fill="none" viewBox="0 0 20 20" xmlns="http://www.w3.org/2000/svg">
  <path fill="#000" d="M16.255 3.216a4.25 4.25 0 0 0-6.01 0l-.503.504a.75.75 0 1 0 1.06 1.06l.504-.503a2.75 2.75 0 0 1 3.889 0l.528.528a2.75 2.75 0 0 1 0 3.89l-2.528 2.528a2.75 2.75 0 0 1-3.89 0l-.264-.264a.75.75 0 1 0-1.06 1.06l.264.265a4.25 4.25 0 0 0 6.01 0l2.529-2.529a4.25 4.25 0 0 0 0-6.01l-.529-.529Z"/>
  <path fill="#000" d="M3.745 16.784a4.25 4.25 0 0 0 6.01 0l.504-.504a.75.75 0 1 0-1.06-1.06l-.504.503a2.75 2.75 0 0 1-3.89 0l-.528-.529a2.75 2.75 0 0 1 0-3.889l2.54-2.539a2.75 2.75 0 0 1 3.889 0l.264.264a.75.75 0 1 0 1.06-1.06l-.264-.265a4.25 4.25 0 0 0-6.01 0l-2.54 2.54a4.25 4.25 0 0 0 0 6.01l.529.529Z"/>
</svg>
