<svg fill="none" viewBox="0 0 24 24" xmlns="http://www.w3.org/2000/svg">
  <path fill="#000" d="M14.974 5.12a.75.75 0 0 1-1.342.67l-.916-1.837a.8.8 0 0 0-1.432 0L9.645 7.242a2.3 2.3 0 0 1-1.73 1.25l-3.641.524a.8.8 0 0 0-.442 1.368l2.615 2.524c.975.941-.14 1.949-1.042 1.08l-2.614-2.525c-1.377-1.329-.624-3.659 1.27-3.931l3.64-.524a.8.8 0 0 0 .602-.435l1.639-3.29c.846-1.698 3.27-1.698 4.117 0l.915 1.837ZM8.148 19.123a1.366 1.366 0 0 0-.334.245c-.681.681-.322 1.788.533 1.343l3.284-1.71a.8.8 0 0 1 .739 0l3.284 1.71c1.689.88 3.653-.557 3.328-2.433l-.62-3.579a.8.8 0 0 1 .233-.712l2.615-2.524c1.376-1.329.624-3.659-1.27-3.931a.51.51 0 0 0-.434.144l-.17.17a.69.69 0 0 0 .39 1.17.8.8 0 0 1 .442 1.368l-2.615 2.524a2.3 2.3 0 0 0-.669 2.047l.62 3.58a.8.8 0 0 1-1.157.846l-3.285-1.71a2.3 2.3 0 0 0-2.124 0l-2.79 1.452ZM20.78 4.28a.75.75 0 1 0-1.06-1.06l-16.5 16.5a.75.75 0 1 0 1.06 1.06l16.5-16.5Z"/>
</svg>
