<svg fill="none" viewBox="0 0 16 16" xmlns="http://www.w3.org/2000/svg">
  <path fill="#000" fill-rule="evenodd" d="M3.25 1A3.25 3.25 0 0 0 0 4.25v7.5A3.25 3.25 0 0 0 3.25 15H7a.75.75 0 0 0 0-1.5H3.25a1.75 1.75 0 0 1-1.75-1.75V6.5h13v.875a.75.75 0 0 0 1.5 0V4.25A3.25 3.25 0 0 0 12.75 1h-9.5ZM14.5 5h-13v-.75c0-.966.784-1.75 1.75-1.75h9.5c.966 0 1.75.784 1.75 1.75V5Z" clip-rule="evenodd"/>
  <path fill="#000" fill-rule="evenodd" d="M16 12.5a3.5 3.5 0 1 1-7 0 3.5 3.5 0 0 1 7 0Zm-6-.5h5v1h-5v-1Z" clip-rule="evenodd"/>
</svg>
