<svg fill="none" viewBox="0 0 16 16" xmlns="http://www.w3.org/2000/svg">
  <path fill="#000" d="M12.5 9a3.5 3.5 0 1 1 0 7 3.5 3.5 0 0 1 0-7ZM0 10.635a4.126 4.126 0 0 0 4 3.115h3.917c.157.576-.227 1.25-.824 1.25H4a4 4 0 0 1-4-4v-.365Zm10.375 1.24a.5.5 0 0 0-.5.5v.25a.5.5 0 0 0 .5.5h4.25a.5.5 0 0 0 .5-.5v-.25a.5.5 0 0 0-.5-.5h-4.25ZM10.511 1A3.49 3.49 0 0 1 14 4.49v2.394c0 .545-.54.931-1.083.884a4.655 4.655 0 0 0-.167-.012V4.489a2.24 2.24 0 0 0-2.24-2.239H3.49a2.24 2.24 0 0 0-2.24 2.24V8A2.75 2.75 0 0 0 4 10.75h4.084A4.718 4.718 0 0 0 7.776 12H4a4 4 0 0 1-4-4V4.49A3.49 3.49 0 0 1 3.49 1h7.02Z"/>
</svg>
