<svg fill="none" viewBox="0 0 16 16" xmlns="http://www.w3.org/2000/svg">
  <path fill="#000" d="M10.75 1.5a.625.625 0 1 0-1.25 0v1.625a.625.625 0 1 0 1.25 0V1.5ZM9.5 10.398a.625.625 0 1 0 1.25 0V8.773a.625.625 0 1 0-1.25 0v1.625Zm5.7-4.448c0 .344-.28.624-.625.624H12.95a.625.625 0 1 1 0-1.25h1.625c.345 0 .625.28.625.625Zm-9.524-.626a.625.625 0 1 0 0 1.25h1.625a.625.625 0 0 0 0-1.25H5.676Zm8.038 4.214a.625.625 0 0 1-.884 0l-1.15-1.15a.625.625 0 0 1 .885-.883l1.149 1.149a.625.625 0 0 1 0 .884ZM7.421 2.36a.625.625 0 1 0-.884.885l1.15 1.149a.625.625 0 0 0 .883-.884L7.421 2.36Zm4.262 1.98a.625.625 0 0 1 0-.883l1.15-1.15a.625.625 0 0 1 .883.884l-1.15 1.15a.625.625 0 0 1-.883 0Zm-.979 1.914a.625.625 0 1 0-.884-.883L4.44 10.75l.885.884 5.38-5.38ZM3.709 13.25l-.884-.884-1.317 1.317a.625.625 0 0 0 .884.884l1.317-1.317Z"/>
</svg>
