<svg fill="none" viewBox="0 0 16 16" xmlns="http://www.w3.org/2000/svg">
  <path fill="#000" d="m4.151 12.731-2.084 2.085a.627.627 0 0 1-.884-.884l2.084-2.085.884.884Zm5.782-7.548a.627.627 0 0 1 .884.884l-3.75 3.75-.011.01-1.478 1.478-.885-.885 5.228-5.228.012-.01Zm.193 2.965c.345 0 .625.28.625.625v1.625a.625.625 0 0 1-1.25 0V8.773c0-.345.28-.625.625-.625Zm1.554-.643a.625.625 0 0 1 .884 0l1.15 1.148a.626.626 0 0 1-.884.885l-1.15-1.15a.625.625 0 0 1 0-.883ZM7.3 5.324a.625.625 0 1 1 0 1.25H5.677a.625.625 0 0 1 0-1.25H7.3Zm7.275 0a.625.625 0 0 1 0 1.25H12.95a.625.625 0 1 1 0-1.25h1.625ZM6.537 2.36a.626.626 0 0 1 .885 0L8.57 3.51a.625.625 0 1 1-.884.884L6.537 3.245a.626.626 0 0 1 0-.885Zm6.295-.051a.625.625 0 1 1 .884.883l-1.149 1.149a.625.625 0 1 1-.883-.884l1.148-1.148ZM10.125.875c.345 0 .625.28.625.625v1.625a.625.625 0 0 1-1.25 0V1.5c0-.345.28-.625.625-.625Z"/>
</svg>
