<svg fill="none" viewBox="0 0 16 16" xmlns="http://www.w3.org/2000/svg">
  <g clip-path="url(#Ai-Chat-Solid-16_svg__a)">
    <path fill="#000" fill-rule="evenodd" d="M2.458 13.272c.28-.322.22-.813-.1-1.096C.902 10.886 0 9.1 0 7.125 0 3.19 3.582 0 8 0s8 3.19 8 7.125c0 2.985-2.061 5.541-4.985 6.602-1.891.868-6.545 1.75-9.2 2.206-.665.114-1.092-.66-.65-1.17l1.293-1.491Zm5.922-10c-.099-.397-.661-.397-.76 0l-.22.877a3.267 3.267 0 0 1-2.377 2.376l-.877.22c-.396.099-.396.661 0 .76l.877.22A3.267 3.267 0 0 1 7.4 10.102l.22.877c.099.396.661.396.76 0l.22-.877a3.267 3.267 0 0 1 2.376-2.377l.878-.22c.396-.099.396-.661 0-.76l-.878-.22A3.267 3.267 0 0 1 8.6 4.15l-.22-.88Z" clip-rule="evenodd"/>
  </g>
  <defs>
    <clipPath id="Ai-Chat-Solid-16_svg__a">
      <path fill="#fff" d="M0 0h16v16H0z"/>
    </clipPath>
  </defs>
</svg>
