<svg fill="none" viewBox="0 0 16 16" xmlns="http://www.w3.org/2000/svg">
  <g fill="#000" clip-path="url(#Bookmark-Add-16_svg__a)">
    <path d="M5 0a4 4 0 0 0-4 4v9.684c0 1.857 2.079 2.957 3.614 1.912l1.788-1.218c.36-.246.835-.246 1.196 0l1.788 1.218C10.92 16.64 13 15.54 13 13.684v-1.059a.625.625 0 1 0-1.25 0v1.06c0 .852-.955 1.358-1.66.877l-1.788-1.217a2.313 2.313 0 0 0-2.604 0l-1.787 1.217a1.063 1.063 0 0 1-1.661-.878V4A2.75 2.75 0 0 1 5 1.25h4a2.75 2.75 0 0 1 2.47 1.54c.129.262.378.46.67.46.41 0 .721-.376.567-.756A4.001 4.001 0 0 0 9 0H5Z"/>
    <path d="M12.375 4.375c.345 0 .625.28.625.625v2h2a.625.625 0 1 1 0 1.25h-2v2a.625.625 0 1 1-1.25 0v-2h-2a.625.625 0 1 1 0-1.25h2V5c0-.345.28-.625.625-.625Z"/>
  </g>
  <defs>
    <clipPath id="Bookmark-Add-16_svg__a">
      <path fill="#fff" d="M0 0h16v16H0z"/>
    </clipPath>
  </defs>
</svg>
