<svg fill="none" viewBox="0 0 16 16" xmlns="http://www.w3.org/2000/svg">
  <path fill="#000" fill-rule="evenodd" d="M4 1a4 4 0 0 0-4 4v6a4 4 0 0 0 4 4h8a4 4 0 0 0 4-4V5a4 4 0 0 0-4-4H4Zm0 1.25A2.75 2.75 0 0 0 1.25 5v6A2.75 2.75 0 0 0 4 13.75h8A2.75 2.75 0 0 0 14.75 11V6.312c0-.586-.476-1.062-1.063-1.062h-3.26a3.339 3.339 0 0 1-2.986-1.845A2.089 2.089 0 0 0 5.573 2.25H4Zm4.178 0c.146.182.274.381.381.595A2.089 2.089 0 0 0 10.427 4h3.26c.337 0 .657.072.945.201A2.751 2.751 0 0 0 12 2.25H8.178Z" clip-rule="evenodd"/>
</svg>
