<svg fill="none" viewBox="0 0 16 16" xmlns="http://www.w3.org/2000/svg">
  <path fill="#000" d="M6.588.021a.626.626 0 0 1 .563.124c1.358 1.138 1.597 2.773 1.8 3.902.11.61.2 1.033.36 1.323a.72.72 0 0 0 .226.265.795.795 0 0 0 .389.117c.417.034.627-.076.748-.188.14-.13.246-.342.31-.63.062-.283.07-.585.06-.827a3.979 3.979 0 0 0-.032-.359l-.003-.017L11 3.627a.626.626 0 0 1 1.098-.411A12.533 12.533 0 0 1 14.3 6.86c.214.552-.4 1.061-.985.96-.27-.822-.658-1.65-1.158-2.435-.105.375-.293.779-.635 1.095-.418.387-.991.575-1.699.517a2.035 2.035 0 0 1-.981-.324 1.962 1.962 0 0 1-.628-.701c-.276-.503-.393-1.143-.494-1.705-.165-.915-.318-1.792-.791-2.511-.424.814-.969 1.55-1.529 2.266-.679.87-1.379 1.712-2.002 2.694l-.263.43c-1.167 1.993-1.064 3.873-.18 5.243.517.8 1.329 1.463 2.382 1.88A3.908 3.908 0 0 1 5 12.625c0-.961.45-1.694.939-2.333.516-.676 1.036-1.214 1.502-1.99l.048-.068a.626.626 0 0 1 1.036.09l.16.27c.131.208.272.4.417.588a4.766 4.766 0 0 0-.772 1.04 15.2 15.2 0 0 1-.365-.471c-.376.502-.757.94-1.033 1.3-.443.58-.682 1.035-.682 1.574 0 .65.168 1.15.44 1.474.26.307.667.526 1.31.526.087 0 .169-.004.246-.01.064.127.133.252.208.373C8.707 15.398 8.482 16 8 16c-2.723 0-4.927-1.127-6.094-2.932-1.175-1.819-1.22-4.21.152-6.553l.283-.464c.673-1.06 1.425-1.965 2.076-2.798.758-.97 1.384-1.844 1.746-2.841l.03-.07a.626.626 0 0 1 .395-.32Z"/>
  <path fill="#000" d="M9.892.01a.625.625 0 0 1 .69.384l.033.123.045.202c.015.05.029.084.043.11.014.024.03.05.074.077l.052.029.109.065a.626.626 0 0 1-.522 1.107l-.12-.042-.113-.058a1.46 1.46 0 0 1-.572-.57 1.975 1.975 0 0 1-.195-.544l-.031-.16-.01-.126A.626.626 0 0 1 9.892.01Z"/>
  <path fill="#000" fill-rule="evenodd" d="M12.5 9a3.5 3.5 0 1 1 0 7 3.5 3.5 0 0 1 0-7Zm-2.125 2.875a.5.5 0 0 0-.5.5v.25a.5.5 0 0 0 .5.5h4.25a.5.5 0 0 0 .5-.5v-.25a.5.5 0 0 0-.5-.5h-4.25Z" clip-rule="evenodd"/>
</svg>
