<svg fill="none" viewBox="0 0 16 16" xmlns="http://www.w3.org/2000/svg">
  <g fill="#000" clip-path="url(#Sort-Ascending-16_svg__a)">
    <path d="M10.497 1.619c.83-.83 2.176-.83 3.006 0l2.314 2.313.08.099a.626.626 0 0 1-.866.866l-.098-.08-2.308-2.308v11.866l-.013.126a.625.625 0 0 1-1.237-.126V2.509L9.067 4.817l-.098.08a.626.626 0 0 1-.866-.866l.08-.099 2.314-2.313Zm-1.996 9.393a.626.626 0 0 1 0 1.225l-.126.013H.625a.625.625 0 0 1 0-1.25h7.75l.126.012Zm-2-4a.626.626 0 0 1 0 1.225l-.126.013H.625a.625.625 0 0 1 0-1.25h5.75l.126.012ZM4.375 3a.625.625 0 0 1 0 1.25H.625a.625.625 0 0 1 0-1.25h3.75Z"/>
  </g>
  <defs>
    <clipPath id="Sort-Ascending-16_svg__a">
      <path fill="#fff" d="M0 0h16v16H0z"/>
    </clipPath>
  </defs>
</svg>
