<svg fill="none" viewBox="0 0 16 16" xmlns="http://www.w3.org/2000/svg">
  <g clip-path="url(#Rocket-Color-16_svg__a)">
    <path fill="#DE5833" d="M3.06 10.126.46 7.524C-.01 7.055.1 6.267.717 6.022c1.53-.607 3.21-.825 4.82-.493L3.06 10.126Z"/>
    <path fill="#9A3216" fill-rule="evenodd" d="m3.06 10.126 2.475-4.597a7.528 7.528 0 0 0-1.06-.14c-1.274-.078-2.562.158-3.759.633C.1 6.267-.01 7.055.459 7.524l2.601 2.602Zm.884-3.752a7.88 7.88 0 0 0-2.703.518l1.576 1.576 1.127-2.094Z" clip-rule="evenodd"/>
    <path fill="#DE5833" d="m5.89 12.954 2.6 2.602c.47.468 1.258.358 1.502-.258.608-1.53.825-3.21.493-4.819L5.89 12.954Z"/>
    <path fill="#9A3216" fill-rule="evenodd" d="m5.89 12.954 4.595-2.475c.073.35.119.705.14 1.06.079 1.275-.158 2.563-.633 3.76-.244.615-1.032.725-1.501.257l-2.602-2.602Zm3.75-.884a7.88 7.88 0 0 1-.517 2.704l-1.576-1.577L9.64 12.07Z" clip-rule="evenodd"/>
    <path fill="#EEE" d="M2.437 10.916a.971.971 0 0 1-.233-1.02C4.064 4.836 8.021.476 15.79.226c-.25 7.767-4.61 11.724-9.67 13.584a.971.971 0 0 1-1.02-.232l-2.662-2.662Z"/>
    <path fill="#888" fill-rule="evenodd" d="m3.152 10.217 2.646 2.646c2.395-.885 4.571-2.245 6.178-4.254 1.442-1.803 2.467-4.178 2.747-7.318-3.14.28-5.515 1.306-7.317 2.747-2.01 1.607-3.37 3.783-4.254 6.179ZM14.786.282C7.677.86 3.983 5.06 2.204 9.896a.971.971 0 0 0 .233 1.02l2.661 2.662a.971.971 0 0 0 1.02.232c4.838-1.778 9.036-5.473 9.614-12.581.027-.327.046-.661.057-1.003-.342.011-.676.03-1.003.056Z" clip-rule="evenodd"/>
    <path fill="#ADC2FC" d="M11.546 7.297A2 2 0 1 1 8.718 4.47a2 2 0 0 1 2.828 2.828Z"/>
    <path fill="#9A3216" fill-rule="evenodd" d="M9.425 6.59a1 1 0 1 0 1.414-1.414A1 1 0 0 0 9.425 6.59Zm-.707.707a2 2 0 1 0 2.828-2.828 2 2 0 0 0-2.828 2.828Z" clip-rule="evenodd"/>
    <path fill="#F9BE1A" d="M2.37 10.849C.96 12.019.278 13.796.232 15.782c1.986-.046 3.764-.728 4.934-2.137L2.37 10.849Z"/>
    <path fill="#DE5833" fill-rule="evenodd" d="M2.334 11.524a.5.5 0 0 1 .073.703c-.538.662-.896 1.493-1.065 2.446.953-.169 1.783-.527 2.446-1.065a.5.5 0 0 1 .63.776c-.987.802-2.238 1.246-3.612 1.367l-.594.052.052-.594c.12-1.374.564-2.625 1.366-3.612a.5.5 0 0 1 .704-.073Zm12.647-6.448L10.94 1.033c1.42-.465 3.03-.749 4.849-.807-.06 1.818-.343 3.427-.808 4.85Z" clip-rule="evenodd"/>
    <path fill="#9A3216" fill-rule="evenodd" d="M14.981 5.076c.116-.355.221-.722.314-1.1.209-.854.357-1.768.437-2.747.026-.327.045-.661.056-1.003-.341.011-.675.03-1.002.057a17.47 17.47 0 0 0-2.747.436c-.378.093-.745.198-1.1.314l4.042 4.043Zm-2.104-3.52 1.58 1.582c.119-.584.208-1.198.266-1.846-.648.057-1.263.147-1.846.265Z" clip-rule="evenodd"/>
    <path fill="#666" d="M2.803 8.454c-.22.472-.42.954-.599 1.442a.971.971 0 0 0 .233 1.02l2.661 2.662a.971.971 0 0 0 1.02.232c.489-.18.97-.378 1.443-.598L2.803 8.454Z"/>
  </g>
  <defs>
    <clipPath id="Rocket-Color-16_svg__a">
      <path fill="#fff" d="M0 0h16v16H0z"/>
    </clipPath>
  </defs>
</svg>
