<svg fill="none" viewBox="0 0 24 24" xmlns="http://www.w3.org/2000/svg">
  <path fill="#000" d="M12.495 6.5c-.93 0-1.495.747-1.495 1.44 0 .838.638 1.112 1.203 1.112 1.04 0 1.477-.784 1.477-1.422 0-.802-.638-1.13-1.185-1.13Zm.461 3.5-2.283.37c-.07.552-.17 1.11-.273 1.678-.197 1.096-.4 2.225-.4 3.404 0 1.171.7 1.81 1.808 1.81 1.265 0 1.481-.794 1.53-1.513-1.048.152-1.278-.321-1.107-1.435.171-1.114.725-4.314.725-4.314Z"/>
  <path fill="#000" fill-rule="evenodd" d="M12 2C6.477 2 2 6.477 2 12s4.477 10 10 10 10-4.477 10-10S17.523 2 12 2ZM3.5 12a8.5 8.5 0 1 1 17 0 8.5 8.5 0 0 1-17 0Z" clip-rule="evenodd"/>
</svg>
