<svg fill="none" viewBox="0 0 16 16" xmlns="http://www.w3.org/2000/svg">
  <g clip-path="url(#Thumbs-Down-16_svg__a)">
    <path fill="#000" fill-rule="evenodd" d="M3.626 10.382h.499c.332 0 .56.125.75.35.21.249.38.633.502 1.135.245 1.006.248 2.241.248 3.14 0 .362.225.598.402.72.176.12.383.186.568.223.38.076.844.067 1.295-.036.45-.104.94-.313 1.325-.685.4-.386.66-.922.66-1.597 0-.31-.04-.59-.11-.843a3.908 3.908 0 0 1-.132-.594.833.833 0 0 1-.005-.149 1.3 1.3 0 0 1 .372-.039h3.732c.498 0 .974-.197 1.326-.549l.098-.097a1.875 1.875 0 0 0 .32-2.224l-.042-.077a1.876 1.876 0 0 0-.104-2.84l-.197-.157.072-.171a1.875 1.875 0 0 0-.6-2.217l-.172-.13.06-.218a1.61 1.61 0 0 0-.173-1.252 2.202 2.202 0 0 0-2.181-1.049l-7.297.98a1.627 1.627 0 0 0-1.5-.999H1.625C.728 1.007 0 1.735 0 2.632v6.75c0 .898.728 1.625 1.625 1.625h.72c.516 0 .981-.242 1.28-.625Zm2.966 1.19c.257 1.059.28 2.29.283 3.159.184.03.453.029.735-.036.3-.068.56-.195.737-.366.163-.157.278-.371.278-.697 0-.204-.026-.37-.064-.504a5.081 5.081 0 0 1-.17-.796c-.027-.244-.026-.53.087-.8.268-.644.933-.775 1.522-.775h3.732a.625.625 0 0 0 .442-.183l.098-.097a.625.625 0 0 0 .106-.741l-.302-.554a.625.625 0 0 1 .193-.814l.245-.17a.625.625 0 0 0 .035-1.001l-.564-.452a.625.625 0 0 1-.187-.728l.253-.606a.625.625 0 0 0-.2-.74l-.51-.384a.625.625 0 0 1-.225-.663l.17-.625a.36.36 0 0 0-.038-.28.951.951 0 0 0-.943-.454l-7.347.987a.632.632 0 0 1-.066.005l-.867 5.875h.1c.73 0 1.299.311 1.706.794.388.46.617 1.056.76 1.646ZM1.25 9.382c0 .207.168.375.375.375h.72a.375.375 0 0 0 .371-.32l.997-6.75a.375.375 0 0 0-.371-.43H1.625a.375.375 0 0 0-.375.375v6.75Z" clip-rule="evenodd"/>
  </g>
  <defs>
    <clipPath id="Thumbs-Down-16_svg__a">
      <path fill="#fff" d="M0 0h16v16H0z"/>
    </clipPath>
  </defs>
</svg>
