<svg fill="none" viewBox="0 0 16 16" xmlns="http://www.w3.org/2000/svg">
  <g clip-path="url(#Thumbs-Down-16_svg__a)">
    <path fill="#000" fill-rule="evenodd" d="M3.626 10.382h.499c.332 0 .56.124.75.35.21.248.38.633.502 1.135.245 1.006.248 2.24.248 3.14 0 .362.225.598.402.719.176.12.383.186.568.224a3.18 3.18 0 0 0 1.295-.037c.45-.103.94-.313 1.325-.685.4-.386.66-.921.66-1.596 0-.311-.04-.591-.11-.843a3.909 3.909 0 0 1-.132-.595.833.833 0 0 1-.005-.148 1.3 1.3 0 0 1 .372-.04h3.732c.498 0 .974-.197 1.326-.548l.098-.098a1.875 1.875 0 0 0 .32-2.223l-.042-.077a1.876 1.876 0 0 0-.104-2.84l-.197-.157.072-.172a1.875 1.875 0 0 0-.6-2.217l-.172-.13.06-.217a1.61 1.61 0 0 0-.173-1.252 2.202 2.202 0 0 0-2.181-1.05l-7.297.98a1.626 1.626 0 0 0-1.5-.998H1.625C.728 1.007 0 1.734 0 2.632v6.75c0 .897.728 1.625 1.625 1.625h.72c.516 0 .981-.242 1.28-.625Zm2.966 1.19c.257 1.058.28 2.29.283 3.158.184.031.453.03.735-.035.3-.069.56-.195.737-.366.163-.158.278-.372.278-.697 0-.205-.026-.37-.064-.504a5.081 5.081 0 0 1-.17-.796c-.027-.244-.026-.53.087-.8.268-.645.933-.775 1.522-.775h3.732a.625.625 0 0 0 .442-.183l.098-.098a.625.625 0 0 0 .106-.74l-.302-.555a.625.625 0 0 1 .193-.813l.245-.17a.625.625 0 0 0 .035-1.002l-.564-.451a.625.625 0 0 1-.187-.729l.253-.606a.625.625 0 0 0-.2-.739l-.51-.384a.625.625 0 0 1-.225-.663l.17-.626a.36.36 0 0 0-.038-.28.951.951 0 0 0-.943-.454l-7.347.987a.632.632 0 0 1-.066.006l-.867 5.875h.1c.73 0 1.299.31 1.706.794.388.459.617 1.056.76 1.645ZM1.25 9.381c0 .207.168.375.375.375h.72a.375.375 0 0 0 .371-.32l.997-6.75a.375.375 0 0 0-.371-.43H1.625a.375.375 0 0 0-.375.375v6.75Z" clip-rule="evenodd"/>
  </g>
  <defs>
    <clipPath id="Thumbs-Down-16_svg__a">
      <path fill="#fff" d="M0 0h16v16H0z"/>
    </clipPath>
  </defs>
</svg>
