<svg fill="none" viewBox="0 0 16 16" xmlns="http://www.w3.org/2000/svg">
  <g fill="#000" clip-path="url(#Shield-Blocked-16_svg__a)">
    <path d="M5.917.808a3 3 0 0 1 4.144.073l.948.937.024.025c.258.238.624.324.962.224l.42-.124a2.75 2.75 0 0 1 3.527 2.573l.049 2.038.002.169c.003.436-.026.869-.085 1.294-.062.45-.608.62-1 .389a4.237 4.237 0 0 0-.304-.165 7.98 7.98 0 0 0 .14-1.512l-.003-.146-.05-2.038a1.5 1.5 0 0 0-1.922-1.403l-.421.124a2.25 2.25 0 0 1-2.162-.505l-.056-.054-.948-.939a1.746 1.746 0 0 0-.557-.37v8.356A4.727 4.727 0 0 0 7.75 12.5c0 .95.28 1.836.76 2.578.236.364.108.88-.325.907a3.12 3.12 0 0 1-1.428-.252l-1.484-.691A9.125 9.125 0 0 1 .009 6.554l.049-2.012.003-.085a2.75 2.75 0 0 1 3.547-2.48l.274.083c.348.106.727.015.988-.238L5.862.86l.055-.051Zm1.458.552c-.22.077-.429.199-.61.366l-.032.03-.993.963a2.25 2.25 0 0 1-2.221.538l-.276-.084A1.5 1.5 0 0 0 1.31 4.525l-.002.046-.048 2.012a7.875 7.875 0 0 0 4.542 7.326l1.406.656c.055.026.111.049.168.069V1.36Z"/>
    <path d="M12.5 9a3.5 3.5 0 1 1 0 7 3.5 3.5 0 0 1 0-7Zm-2.125 2.875a.5.5 0 0 0-.5.5v.25a.5.5 0 0 0 .5.5h4.25a.5.5 0 0 0 .5-.5v-.25a.5.5 0 0 0-.5-.5h-4.25Z"/>
  </g>
  <defs>
    <clipPath id="Shield-Blocked-16_svg__a">
      <path fill="#fff" d="M0 0h16v16H0z"/>
    </clipPath>
  </defs>
</svg>
